<svg version="1.2" baseProfile="tiny-ps" xmlns="http://www.w3.org/2000/svg" viewBox="0 0 1500 1000" width="1500" height="1000">
	<title>5515847-ai</title>
	<style>
		tspan { white-space:pre }
		.shp0 { fill: #ffffff } 
		.shp1 { fill: #e4e4e0 } 
		.shp2 { fill: #bd6c67 } 
		.shp3 { fill: #422c4f } 
		.shp4 { fill: #454f6b } 
		.shp5 { fill: #a64f5a } 
		.shp6 { fill: #8c404c } 
		.shp7 { fill: #f0bf6c } 
		.shp8 { fill: #eba25d } 
		.shp9 { fill: #645b79 } 
		.shp10 { fill: #ceb49d } 
		.shp11 { fill: #967f92 } 
		.shp12 { fill: #fbeed1 } 
		.shp13 { fill: #6a3649 } 
		.shp14 { fill: #8e5a61 } 
		.shp15 { fill: #eba58e } 
		.shp16 { fill: #f2c9ad } 
		.shp17 { fill: #cc6164 } 
		.shp18 { fill: #a34262 } 
		.shp19 { fill: #4586a3 } 
		.shp20 { fill: #5fa5cc } 
		.shp21 { fill: #7dd3e9 } 
		.shp22 { fill: #99a3b0 } 
		.shp23 { fill: #797c99 } 
		.shp24 { fill: #f6dcc5 } 
		.shp25 { fill: #eba7ac } 
		.shp26 { fill: #495375 } 
	</style>
	<g id="BACKGROUND">
		<path id="&lt;Path&gt;" class="shp0" d="M3274 1164L1774 1164L1774 164L3274 164L3274 1164Z" />
	</g>
	<g id="OBJECTS">
		<g id="&lt;Group&gt;">
			<g id="&lt;Group&gt;">
			</g>
			<g id="&lt;Group&gt;">
				<g id="&lt;Group&gt;">
					<g id="&lt;Group&gt;">
					</g>
					<g id="&lt;Group&gt;">
					</g>
				</g>
				<g id="&lt;Group&gt;">
					<g id="&lt;Group&gt;">
						<g id="&lt;Group&gt;">
							<path id="&lt;Path&gt;" class="shp0" d="M474.04 838.92L427.13 506.09C421.49 518.65 409.46 547.47 382.01 547.47C354.56 547.47 340.51 522.26 337.54 511.72L316.37 838.92L474.04 838.92Z" />
						</g>
						<g id="&lt;Group&gt;">
							<g id="&lt;Group&gt;">
								<path id="&lt;Path&gt;" class="shp1" d="M414.25 546.55C409.52 549.71 403.78 552.6 397.36 554.39C390.96 556.19 383.9 556.89 377.02 556.05C370.15 555.2 363.47 552.81 357.69 549.51C351.9 546.22 347.03 542.02 343.2 537.81C345.51 543 349.65 548.53 355.45 552.9C361.2 557.28 368.58 560.47 376.36 561.43C384.14 562.39 392.07 561.08 398.72 558.22C405.4 555.39 410.76 551.03 414.25 546.55Z" />
							</g>
						</g>
						<g id="&lt;Group&gt;">
							<g id="&lt;Group&gt;">
								<path id="&lt;Path&gt;" class="shp1" d="M435.59 626.26C429.08 629.64 421.68 633.45 413.67 637.09C405.66 640.75 397.03 644.24 388.24 647.26C379.45 650.25 370.49 652.77 361.92 654.79C353.35 656.81 345.17 658.33 337.95 659.65C345.21 660.65 353.74 660.87 362.78 659.94C371.81 659.03 381.34 656.98 390.5 653.85C399.66 650.71 408.44 646.51 416.14 641.7C423.86 636.9 430.47 631.5 435.59 626.26Z" />
							</g>
						</g>
					</g>
					<g id="&lt;Group&gt;">
						<g id="&lt;Group&gt;">
							<path id="&lt;Path&gt;" class="shp2" d="M382.01 547.47C409.46 547.47 421.49 518.65 427.13 506.09L420.95 508.53L415.06 458.5L345.62 469.9L345.62 513.32L337.54 511.72C340.51 522.26 354.56 547.47 382.01 547.47Z" />
						</g>
						<g id="&lt;Group&gt;">
							<path id="&lt;Path&gt;" class="shp3" d="M415.06 458.5C409.48 512.22 368.14 513.32 345.79 480.19L345.62 469.9L415.06 458.5Z" />
						</g>
					</g>
					<g id="&lt;Group&gt;">
						<g id="&lt;Group&gt;">
							<g id="&lt;Group&gt;">
								<path id="&lt;Path&gt;" class="shp3" d="M309.79 452.69C288.4 435.93 267.41 400.79 252.09 370.15C242.56 351.09 230.99 325.19 223.61 308.32C218.89 297.54 222.33 284.9 231.91 278.08C274.01 248.11 338.6 234.09 376.47 229.59C388.2 228.19 399.28 235.26 403 246.48C411.57 272.35 419.9 300.65 424.28 323.7C429.73 352.43 431.49 387.88 424.15 418.04L309.79 452.69Z" />
							</g>
							<g id="&lt;Group&gt;">
								<path id="&lt;Path&gt;" class="shp4" d="M260.05 276.91C286.74 264.58 314.7 255.01 343.34 248.4C355.85 245.52 368.7 243.18 381.47 244.52C389.74 245.38 398.02 247.98 404.96 252.47C404.31 250.46 403.65 248.46 403 246.48C399.28 235.26 388.2 228.19 376.47 229.59C338.6 234.09 274.01 248.11 231.91 278.08C222.33 284.9 218.89 297.54 223.61 308.32C223.81 308.78 224.03 309.26 224.23 309.73C225.61 304.79 228.15 300.07 231.44 296.16C238.9 287.29 249.53 281.77 260.05 276.91Z" />
							</g>
						</g>
						<g id="&lt;Group&gt;">
							<g id="&lt;Group&gt;">
								<path id="&lt;Path&gt;" class="shp5" d="M420.97 416.73C426.86 420.94 435.19 420.96 441.55 417.52C447.92 414.09 452.33 407.58 454.09 400.57C455.29 395.77 455.31 390.54 453.26 386.05C450.08 379.11 441.76 374.96 434.31 376.6C426.85 378.24 421.04 385.5 421.07 393.13C421.1 400.31 420.88 409.55 420.97 416.73Z" />
							</g>
							<g id="&lt;Group&gt;">
								<path id="&lt;Path&gt;" class="shp6" d="M445.71 387.48C444.66 384.5 440.75 383.32 437.78 384.39C434.81 385.46 432.72 388.16 431.29 390.97C428.35 396.72 427.49 403.5 428.89 409.8C429.37 411.95 430.55 414.42 432.74 414.61C434.08 414.73 435.36 413.88 436.13 412.78C436.89 411.68 437.25 410.35 437.59 409.05C438.22 406.6 438.85 404.05 438.35 401.57C437.86 399.09 435.89 396.72 433.36 396.62C433.2 393.92 435.24 391.02 437.23 389.2C439.22 387.37 443.03 387.08 445.71 387.48Z" />
							</g>
						</g>
						<g id="&lt;Group&gt;">
							<g id="&lt;Group&gt;">
								<path id="&lt;Path&gt;" class="shp5" d="M313.09 448.6C311.4 455.63 305.13 461.11 298.07 462.7C291.01 464.28 283.42 462.27 277.49 458.13C273.44 455.3 269.99 451.37 268.59 446.63C266.43 439.31 269.99 430.71 276.69 427.06C283.39 423.41 292.54 425.07 297.52 430.86C302.21 436.3 308.44 443.12 313.09 448.6Z" />
							</g>
							<g id="&lt;Group&gt;">
								<path id="&lt;Path&gt;" class="shp6" d="M275.22 442.75C274.06 439.82 276.24 436.36 279.18 435.22C282.13 434.08 285.47 434.75 288.4 435.93C294.38 438.34 299.48 442.89 302.56 448.56C303.61 450.5 304.35 453.14 302.81 454.72C301.88 455.69 300.36 455.89 299.06 455.56C297.75 455.23 296.61 454.46 295.5 453.7C293.42 452.27 291.27 450.76 290.02 448.56C288.77 446.37 288.69 443.28 290.53 441.55C288.89 439.41 285.45 438.56 282.75 438.49C280.04 438.42 276.98 440.7 275.22 442.75Z" />
							</g>
						</g>
						<g id="&lt;Group&gt;">
							<path id="&lt;Path&gt;" class="shp2" d="M274.01 357.79L278.33 376.93C280.62 387.06 281.77 397.42 281.77 407.8L281.77 412.76L309.79 452.69C318.67 465.35 331.24 474.95 345.79 480.19L357.31 484.33C366.41 487.61 376.31 487.88 385.58 485.12C396.99 481.71 406.6 473.94 412.33 463.49L415.06 458.5C421.83 446.14 424.98 432.11 424.15 418.04L421.11 366.8C408.46 354.15 398.35 339.19 391.32 322.73L388.27 315.58C385.78 309.75 379.04 307.04 373.2 309.52L326.3 329.45L281.58 344.36C275.98 346.22 272.71 352.03 274.01 357.79Z" />
						</g>
						<g id="&lt;Group&gt;">
							<path id="&lt;Path&gt;" class="shp3" d="M396.69 359.09C383.92 358.64 371.15 358.2 358.38 357.75C362.86 352.28 369.42 349.17 376.49 348.99C383.56 348.81 391.94 353.84 396.69 359.09Z" />
						</g>
						<g id="&lt;Group&gt;">
							<g id="&lt;Group&gt;">
								<path id="&lt;Path&gt;" class="shp3" d="M387.2 386.18C387.07 384.48 386.27 382.48 384.68 380.87C383.12 379.26 380.71 378.06 378.11 378.08C375.51 378.11 373.13 379.35 371.6 380.99C370.03 382.62 369.27 384.63 369.16 386.33C371.4 383.78 374.74 381.49 378.15 381.47C381.55 381.43 384.93 383.66 387.2 386.18Z" />
							</g>
						</g>
						<g id="&lt;Group&gt;">
							<path id="&lt;Path&gt;" class="shp3" d="M282.82 385.3C294.37 379.84 305.92 374.38 317.47 368.91C311.19 365.66 303.93 365.4 297.37 368.04C290.81 370.67 285.11 378.61 282.82 385.3Z" />
						</g>
						<g id="&lt;Group&gt;">
							<g id="&lt;Group&gt;">
								<path id="&lt;Path&gt;" class="shp3" d="M302.25 406.42C301.7 404.81 301.64 402.66 302.47 400.55C303.26 398.45 305 396.4 307.4 395.39C309.8 394.39 312.48 394.59 314.53 395.48C316.61 396.36 318.11 397.91 318.89 399.43C315.82 397.97 311.84 397.19 308.71 398.52C305.57 399.82 303.34 403.21 302.25 406.42Z" />
							</g>
						</g>
						<g id="&lt;Group&gt;">
							<path id="&lt;Path&gt;" class="shp6" d="M368.14 410.74C356.42 414.38 344.71 418.01 332.99 421.64C338.7 425.89 346.29 427.04 353.17 425.23C360.06 423.42 365.25 417.25 368.14 410.74Z" />
						</g>
						<g id="&lt;Group&gt;">
							<path id="&lt;Path&gt;" class="shp0" d="M396.55 419.56C374.92 428.76 353.3 437.96 331.67 447.16C341.83 458.95 359.92 464.29 374.4 458.61C388.88 452.92 397.12 435.11 396.55 419.56Z" />
						</g>
						<g id="&lt;Group&gt;">
							<path id="&lt;Path&gt;" class="shp5" d="M388.89 458.15C381.78 463.34 373.62 467.08 365.05 469.08C369.57 471.59 375.14 472.7 379.95 470.78C384.76 468.86 387.34 463.1 388.89 458.15Z" />
						</g>
					</g>
					<g id="&lt;Group&gt;">
						<g id="&lt;Group&gt;">
							<path id="&lt;Path&gt;" class="shp7" d="M289.5 502.23C244.73 493.38 199.93 517.36 182.46 559.52L132.13 681.02L217.69 705.58L249.51 615.47L191.59 838.92L316.37 838.92L337.54 511.72L289.5 502.23Z" />
						</g>
						<g id="&lt;Group&gt;">
							<path id="&lt;Path&gt;" class="shp8" d="M337.54 511.72L313.09 506.89L326.12 688.2L337.54 511.72Z" />
						</g>
						<g id="&lt;Group&gt;">
							<path id="&lt;Path&gt;" class="shp3" d="M326.12 688.68C325.87 688.68 325.66 688.49 325.64 688.24L315.53 547.51C315.51 547.24 315.71 547.01 315.97 547C316.23 546.95 316.46 547.18 316.48 547.44L326.1 681.17L337.06 511.69C337.08 511.42 337.33 511.2 337.57 511.24C337.83 511.26 338.03 511.49 338.02 511.75L326.6 688.24C326.58 688.49 326.37 688.68 326.12 688.68C326.12 688.68 326.12 688.68 326.12 688.68Z" />
						</g>
					</g>
					<g id="&lt;Group&gt;">
						<g id="&lt;Group&gt;">
							<path id="&lt;Path&gt;" class="shp7" d="M690.43 590.19L579.09 498.93C552.22 476.9 515.51 471.16 483.19 483.93L427.13 506.09L474.04 838.92L583.43 838.92L538.74 573.97L594.74 620.31L690.43 590.19Z" />
						</g>
						<g id="&lt;Group&gt;">
							<path id="&lt;Path&gt;" class="shp8" d="M427.13 506.09L452.8 688.2L449.97 497.06L427.13 506.09Z" />
						</g>
						<g id="&lt;Group&gt;">
							<path id="&lt;Path&gt;" class="shp3" d="M452.8 682.04C452.56 682.04 452.36 681.87 452.32 681.63L429.9 529.19C429.86 528.93 430.04 528.68 430.3 528.65C430.57 528.61 430.81 528.79 430.85 529.05L452.25 674.54L450.68 518.15C450.68 517.88 450.89 517.67 451.15 517.66C451.15 517.66 451.16 517.66 451.16 517.66C451.42 517.66 451.63 517.88 451.64 518.14L453.28 681.56C453.28 681.81 453.09 682.02 452.84 682.04C452.82 682.04 452.81 682.04 452.8 682.04Z" />
						</g>
					</g>
				</g>
				<g id="&lt;Group&gt;">
					<g id="&lt;Group&gt;">
						<g id="&lt;Group&gt;">
							<path id="&lt;Path&gt;" class="shp9" d="M578.68 377.72L592.75 384.26L607.41 394.35C612.94 370.42 612.09 344.83 604.85 317.59L578.68 377.72Z" />
						</g>
						<g id="&lt;Group&gt;">
							<path id="&lt;Path&gt;" class="shp3" d="M578.68 377.72L592.75 384.26C600.61 362.8 604.64 340.57 604.85 317.59L578.68 377.72Z" />
						</g>
					</g>
					<g id="&lt;Group&gt;">
						<path id="&lt;Path&gt;" class="shp10" d="M500.44 531.83L491.5 540.48C483.85 547.87 479.87 558.27 480.62 568.87C484.37 621.44 433.9 647.6 415.06 701.79C398.29 752.09 391.9 838.92 484.48 838.92C546.19 838.92 608.76 838.92 672.17 838.92L669.26 826.41C665.81 811.66 651.95 801.75 636.88 803.28L619.19 805.07C665.79 720.17 651.75 667.61 619.19 672.5C670.05 579.77 648.55 542.06 626.21 516.2C636.42 469.16 636.21 428.67 625.57 394.72C631.1 370.78 630.25 345.2 623.02 317.96L596.84 378.08L579.22 369.89C569.24 365.25 557.83 364.72 547.46 368.42C541.63 370.5 535.4 371.27 529.24 370.66L454.91 363.29C459.51 413.08 480.01 442.88 516.4 452.69C516.82 486.51 511.5 512.89 500.44 531.83Z" />
					</g>
					<g id="&lt;Group&gt;">
						<path id="&lt;Path&gt;" class="shp3" d="M415.06 702.27C415 702.27 414.95 702.26 414.9 702.24C414.65 702.15 414.52 701.88 414.6 701.63C422.46 679.03 435.65 661.5 448.4 644.54C465.85 621.35 482.32 599.44 480.14 568.9C479.38 558.13 483.39 547.65 491.16 540.13L500.1 531.49C500.29 531.3 500.6 531.31 500.78 531.5C500.97 531.69 500.96 531.99 500.77 532.18L491.83 540.82C484.26 548.14 480.35 558.35 481.1 568.84C483.3 599.73 466.72 621.78 449.17 645.12C436.46 662.02 423.32 679.49 415.51 701.95C415.44 702.14 415.26 702.27 415.06 702.27Z" />
					</g>
					<g id="&lt;Group&gt;">
						<path id="&lt;Path&gt;" class="shp3" d="M512.91 494.38C512.88 494.38 512.85 494.38 512.82 494.37C512.56 494.32 512.39 494.07 512.44 493.81C514.93 480.77 516.1 466.94 515.92 452.7C515.91 452.43 516.13 452.21 516.39 452.21C516.39 452.21 516.4 452.21 516.4 452.21C516.66 452.21 516.87 452.42 516.88 452.68C517.06 466.99 515.88 480.89 513.38 493.99C513.33 494.22 513.13 494.38 512.91 494.38Z" />
					</g>
					<g id="&lt;Group&gt;">
						<path id="&lt;Path&gt;" class="shp11" d="M457.92 820.6C410.28 806.28 405.81 771.42 405.23 752.29C403.04 795.5 419.02 838.92 484.48 838.92C498.61 838.92 512.79 838.92 526.69 838.92L475.19 833.73C467.42 832.95 460.75 827.87 457.92 820.6Z" />
					</g>
					<g id="&lt;Group&gt;">
						<g id="&lt;Group&gt;">
							<path id="&lt;Path&gt;" class="shp11" d="M465.65 736.81C466.44 728.9 468.68 720.69 472.14 712.56C475.54 704.39 480.31 696.36 485.49 688.24C490.72 680.12 496.53 671.95 502.15 663.34C507.77 654.7 513.08 645.6 517.76 636.22C527.12 617.43 534.15 597.52 538.62 578.35C540.82 568.75 542.41 559.35 543.47 550.37C544.51 541.39 544.9 532.82 544.98 524.89C543.66 532.72 542.2 541.1 540.25 549.83C538.29 558.56 535.98 567.65 533.22 576.91C527.64 595.42 520.22 614.57 511.09 632.89C506.51 642.06 501.5 650.96 496.25 659.61C490.97 668.25 485.5 676.76 480.7 685.36C475.94 693.98 471.71 702.67 469.07 711.44C466.39 720.18 465.19 728.88 465.65 736.81Z" />
						</g>
					</g>
					<g id="&lt;Group&gt;">
						<g id="&lt;Group&gt;">
							<path id="&lt;Path&gt;" class="shp11" d="M531 499.02C524.54 504.93 516.62 512.9 508.55 520.71C506.84 522.36 505.14 524.01 503.44 525.63C502.26 528.35 501.26 530.42 500.44 531.83L494.81 537.27C500.34 533.52 506.13 528.87 511.44 523.69C519.67 515.75 526.72 506.65 531 499.02Z" />
						</g>
					</g>
					<g id="&lt;Group&gt;">
						<path id="&lt;Path&gt;" class="shp10" d="M457.92 820.6C441.94 834.15 419.46 839.66 399.03 835.02C378.6 830.38 360.7 815.72 352.13 796.6C347.33 785.86 345.13 773.13 344.89 761.38C346.45 766.01 349.76 769.78 353.57 772.85C343.03 750.33 343.45 722.29 354.61 700.07C353.26 707.08 353.22 714.31 355.74 720.99C358.95 691.85 382.91 664.27 411.24 656.75C387.14 681.02 374.88 716.56 378.9 750.53C380.98 768.07 387.62 785.73 400.78 797.51C413.95 809.28 434.45 813.73 449.84 805.07C453.39 808.27 458.55 815.86 457.92 820.6Z" />
					</g>
					<g id="&lt;Group&gt;">
						<path id="&lt;Path&gt;" class="shp3" d="M413.56 837.11C408.63 837.11 403.72 836.58 398.92 835.49C398.67 835.43 398.5 835.17 398.56 834.91C398.62 834.66 398.88 834.5 399.14 834.55C419.38 839.15 441.78 833.66 457.61 820.23C457.81 820.06 458.11 820.09 458.28 820.28C458.45 820.49 458.43 820.79 458.23 820.96C445.93 831.4 429.7 837.11 413.56 837.11Z" />
					</g>
					<g id="&lt;Group&gt;">
						<path id="&lt;Path&gt;" class="shp3" d="M431.85 810.02C420.88 810.02 409.34 805.8 400.47 797.86C388.6 787.26 380.78 770.47 378.43 750.58C374.42 716.7 386.86 680.62 410.9 656.41C411.09 656.22 411.39 656.22 411.58 656.41C411.77 656.59 411.77 656.9 411.58 657.08C387.74 681.09 375.4 716.88 379.38 750.47C381.7 770.12 389.42 786.7 401.1 797.15C414.94 809.52 435.34 812.67 449.61 804.65C449.84 804.53 450.13 804.6 450.26 804.84C450.39 805.07 450.31 805.36 450.08 805.49C444.64 808.54 438.35 810.02 431.85 810.02Z" />
					</g>
					<g id="&lt;Group&gt;">
						<path id="&lt;Path&gt;" class="shp3" d="M476.41 365.42C470.66 362.55 463.22 360.43 456.12 359.68C451.2 359.16 447.39 364.09 449.37 368.63C449.4 368.69 449.43 368.76 449.46 368.82C452.54 375.7 461.29 378.13 467.55 373.94C471.28 371.45 474.23 368.61 476.41 365.42Z" />
					</g>
					<g id="&lt;Group&gt;">
						<path id="&lt;Path&gt;" class="shp11" d="M511.57 770.66C519.61 787.33 538.26 799.93 556.37 796.06C572.5 792.62 583.61 777.88 591.08 763.17C600.73 744.17 606.76 721.09 597.66 701.82C589.66 684.89 569.88 674.38 551.37 677.22C532.91 680.06 517.7 697.21 509.5 713.23C501.15 729.55 503.9 754.77 511.57 770.66Z" />
					</g>
					<g id="&lt;Group&gt;">
						<g id="&lt;Group&gt;">
							<path id="&lt;Path&gt;" class="shp11" d="M512.04 426.52C528.89 444.2 555.23 452.25 579.08 447C590.82 444.41 601.79 438.89 613.6 436.63C619.67 435.46 626.27 435.4 632.27 436.88C631.11 419.36 628.88 405.3 625.57 394.72C631.1 370.78 630.25 345.2 623.02 317.96L596.84 378.08L579.22 369.89C569.24 365.25 557.83 364.72 547.46 368.42C541.63 370.5 535.4 371.27 529.24 370.66L493.11 367.07C490.19 388.35 497.19 410.94 512.04 426.52Z" />
						</g>
						<g id="&lt;Group&gt;">
							<path id="&lt;Path&gt;" class="shp11" d="M602.84 564.71C583.93 572.53 568.26 587.89 560.05 606.64C554.98 618.22 552.77 631.7 557.31 643.5C562.57 657.15 576.37 666.37 590.81 668.64C601.76 670.35 612.95 668.51 623.4 664.61C648.48 616.54 653.33 583.95 648.98 560.17C633.59 557.2 617.33 558.71 602.84 564.71Z" />
						</g>
						<g id="&lt;Group&gt;">
							<path id="&lt;Path&gt;" class="shp11" d="M493.82 628.03C499.17 618.15 498.18 604.98 490.81 596.51C487.78 593.03 483.7 590.54 479.29 589.19C475.27 608.68 463.79 624.83 451.16 641.67C455.92 643.64 461.04 644.68 466.19 644.52C477.41 644.18 488.47 637.9 493.82 628.03Z" />
						</g>
					</g>
					<g id="&lt;Group&gt;">
						<g id="&lt;Group&gt;">
							<path id="&lt;Path&gt;" class="shp3" d="M578.37 391.52C577.47 389.22 575.74 386.82 573.31 384.88C570.9 382.94 567.79 381.48 564.48 380.87C561.18 380.25 557.75 380.5 554.8 381.45C551.84 382.38 549.36 384 547.71 385.83C552.61 385.22 558.19 384.96 563.54 385.98C568.89 386.95 574.01 389.19 578.37 391.52Z" />
						</g>
					</g>
					<g id="&lt;Group&gt;">
						<path id="&lt;Path&gt;" class="shp3" d="M596.84 378.08L610.91 384.63C618.77 363.16 622.8 340.94 623.02 317.96L596.84 378.08Z" />
					</g>
					<g id="&lt;Group&gt;">
						<path id="&lt;Path&gt;" class="shp11" d="M553.27 838.92C593.98 838.92 598.28 799.17 615.04 757.52C612.48 779.86 604.18 807 590.14 838.92L553.27 838.92Z" />
					</g>
					<g id="&lt;Group&gt;">
						<g id="&lt;Group&gt;">
							<path id="&lt;Path&gt;" class="shp3" d="M672.18 839.4L484.48 839.4C484.21 839.4 484 839.18 484 838.92C484 838.65 484.21 838.44 484.48 838.44L672.18 838.44C672.44 838.44 672.65 838.65 672.65 838.92C672.65 839.18 672.44 839.4 672.18 839.4Z" />
						</g>
						<g id="&lt;Group&gt;">
							<path id="&lt;Path&gt;" class="shp3" d="M667.7 839.4C667.47 839.4 667.27 839.22 667.23 838.99C664.56 820.5 658.54 816.48 654.14 813.54L653.31 812.98C653.09 812.83 653.04 812.53 653.19 812.31C653.34 812.09 653.63 812.04 653.85 812.19L654.68 812.74C659.22 815.78 665.45 819.94 668.18 838.85C668.22 839.11 668.04 839.35 667.77 839.39C667.75 839.39 667.73 839.4 667.7 839.4Z" />
						</g>
					</g>
				</g>
				<g id="&lt;Group&gt;">
					<g id="&lt;Group&gt;">
						<path id="&lt;Path&gt;" class="shp2" d="M642.28 586.26L532.2 665.1C524.62 658.23 514.69 653.7 504.59 652.12C493.88 650.45 482.66 652.17 472.95 657C471.6 657.68 470.37 658.65 469.55 659.92C466.97 663.88 470.01 667.18 473.29 668.14C475.6 668.82 478.06 668.63 480.46 668.64C489.24 668.69 497.98 671.69 504.93 677.06C492.87 689.69 475.58 699.35 458.15 700.41C453.66 700.68 448.94 700.56 445.18 703.44C443.1 705.02 441.78 707.54 442.2 710.11C442.92 714.45 447.62 715.92 451.67 716.48C465.73 718.43 480.07 716.22 493.83 712.72C481.3 715.65 468.78 718.57 456.25 721.5C453.71 722.09 450.89 722.86 450.12 725.81C449.7 727.42 450.16 729.15 451.16 730.48C453.3 733.34 456.82 734.14 460.18 734.62C477.27 737.04 495.16 733.29 509.84 724.21C500.12 731 488.63 735.23 476.83 736.37C475.56 736.5 474.24 736.6 473.11 737.19C471.97 737.78 471.06 739.02 471.28 740.28C471.55 741.83 473.27 742.63 474.79 743.06C481.93 745.06 489.6 744.4 496.75 742.42C503.89 740.44 510.61 737.19 517.28 733.95C509.58 737.7 501.88 741.45 494.18 745.2C492.64 745.94 490.97 746.83 490.86 748.83C490.79 750.2 491.61 751.47 492.76 752.19C494.94 753.56 497.55 753.14 499.94 752.59C527.6 746.28 551.06 724.17 558.98 696.94L677.42 651.53C698.26 643.54 707.5 619.17 697.18 599.37L697.18 599.37C686.67 579.22 660.76 573.03 642.28 586.26Z" />
					</g>
					<g id="&lt;Group&gt;">
						<path id="&lt;Path&gt;" class="shp3" d="M558.98 697.41C558.79 697.41 558.61 697.3 558.54 697.11C558.44 696.86 558.57 696.58 558.81 696.49L639.01 665.74C639.26 665.64 639.54 665.77 639.63 666.02C639.73 666.27 639.6 666.54 639.36 666.64L559.15 697.38C559.1 697.4 559.04 697.41 558.98 697.41Z" />
					</g>
					<g id="&lt;Group&gt;">
						<path id="&lt;Path&gt;" class="shp3" d="M496.25 753.59C494.96 753.59 493.68 753.34 492.51 752.6C491.12 751.73 490.31 750.27 490.38 748.81C490.51 746.45 492.59 745.44 493.97 744.77L499.38 742.13C498.55 742.4 497.72 742.65 496.87 742.88C488.7 745.14 481.23 745.36 474.66 743.52C472.36 742.88 471.06 741.81 470.81 740.36C470.53 738.78 471.69 737.39 472.89 736.77C474.04 736.16 475.33 736.04 476.59 735.92L476.79 735.9C481.89 735.4 486.92 734.34 491.76 732.73C481.51 735.72 470.6 736.58 460.11 735.09C456.57 734.59 452.98 733.71 450.77 730.77C449.64 729.25 449.22 727.35 449.65 725.69C450.53 722.35 453.91 721.55 456.14 721.03L472.93 717.11C465.22 717.93 458.22 717.87 451.6 716.96C445.66 716.13 442.34 713.86 441.73 710.19C441.3 707.6 442.51 704.86 444.89 703.05C448.34 700.43 452.52 700.22 456.56 700.01C457.09 699.99 457.61 699.96 458.12 699.93C474.12 698.96 491.31 690.44 504.21 677.11C497.4 672 488.98 669.16 480.46 669.12C479.99 669.12 479.53 669.12 479.07 669.13C477.11 669.15 475.09 669.17 473.16 668.61C470.91 667.94 469.09 666.39 468.41 664.55C467.83 662.99 468.08 661.3 469.15 659.66C469.96 658.41 471.21 657.34 472.74 656.57C482.51 651.7 493.84 649.96 504.66 651.65C514.99 653.27 524.76 657.82 532.23 664.49L642.01 585.87C642.22 585.72 642.52 585.77 642.67 585.98C642.83 586.2 642.78 586.5 642.56 586.65L532.48 665.49C532.3 665.62 532.04 665.61 531.88 665.46C524.51 658.77 514.79 654.2 504.51 652.6C493.89 650.93 482.76 652.65 473.17 657.43C471.79 658.12 470.67 659.07 469.95 660.19C469.05 661.57 468.83 662.93 469.3 664.22C469.88 665.78 471.46 667.11 473.43 667.69C475.22 668.21 477.17 668.2 479.06 668.17C479.53 668.16 479.99 668.16 480.46 668.16C489.38 668.21 498.17 671.24 505.22 676.68C505.33 676.76 505.39 676.89 505.4 677.02C505.41 677.16 505.37 677.29 505.27 677.39C492.18 691.11 474.57 699.89 458.18 700.89C457.66 700.92 457.14 700.94 456.61 700.97C452.71 701.17 448.68 701.37 445.47 703.82C443.37 705.41 442.31 707.79 442.67 710.03C443.21 713.24 446.25 715.25 451.73 716.01C461.96 717.42 473.14 716.77 486.49 713.94L493.72 712.26C493.98 712.19 494.23 712.35 494.29 712.61C494.35 712.86 494.2 713.12 493.94 713.18C491.46 713.82 489.04 714.38 486.7 714.88L456.36 721.96C453.6 722.61 451.26 723.36 450.58 725.93C450.22 727.32 450.58 728.91 451.54 730.19C453.64 732.99 457.13 733.7 460.25 734.14C477.12 736.53 495.1 732.77 509.59 723.81C509.81 723.67 510.1 723.73 510.24 723.95C510.38 724.17 510.33 724.46 510.12 724.61C500.29 731.46 488.8 735.7 476.88 736.85L476.68 736.87C475.52 736.98 474.32 737.1 473.33 737.61C472.41 738.1 471.57 739.13 471.75 740.19C471.98 741.51 473.6 742.23 474.92 742.6C481.32 744.39 488.62 744.17 496.62 741.96C503.75 739.98 510.52 736.7 517.07 733.52C517.31 733.4 517.59 733.5 517.71 733.74C517.82 733.98 517.73 734.27 517.49 734.38L517.49 734.38C517.49 734.38 517.48 734.38 517.48 734.39L494.39 745.63C492.77 746.41 491.43 747.2 491.34 748.86C491.28 749.98 491.93 751.1 493.02 751.79C495.06 753.07 497.51 752.66 499.84 752.13C500.1 752.07 500.35 752.23 500.41 752.49C500.47 752.75 500.31 753 500.05 753.06C498.84 753.34 497.54 753.59 496.25 753.59Z" />
					</g>
				</g>
				<g id="&lt;Group&gt;">
					<g id="&lt;Group&gt;">
						<path id="&lt;Path&gt;" class="shp2" d="M149.99 659.59L260.67 595.31C284.94 581.22 311.7 571.95 339.5 568.02L358.39 565.35C373.14 565.35 389.1 568.03 400.58 577.31C402.3 578.7 404.11 580.89 402.76 582.91C401.99 584.06 400.56 584.57 399.18 584.43L370.02 581.5C382.36 583.97 395.02 586.57 405.6 593.39C406.91 594.24 408.23 595.19 408.97 596.57C409.71 597.94 409.71 599.83 408.57 600.89C407.4 601.98 405.58 601.84 404 601.63C391.45 599.95 378.9 598.28 366.35 596.6C378.15 600.25 390.17 603.99 400.33 611.03C401.87 612.1 403.4 613.29 404.29 614.94C405.19 616.58 405.28 618.8 404.04 620.21C402.44 622.04 399.55 621.75 397.15 621.3C385.58 619.14 374 616.98 362.42 614.82C372.14 618.67 381.98 622.58 390.44 628.72C393.17 630.7 396.03 633.76 394.69 637.03C394.07 638.54 392.63 639.59 391.04 639.98C388.18 640.7 385.41 639.64 382.8 638.55C373.53 634.67 364.58 630.01 356.09 624.63C340.7 629.45 321.4 626.63 308.87 616.47L198.91 723.94C180.94 741.5 151.51 738.76 137.09 718.19C123.4 698.65 129.36 671.57 149.99 659.59Z" />
					</g>
					<g id="&lt;Group&gt;">
						<path id="&lt;Path&gt;" class="shp3" d="M149.99 660.07C149.83 660.07 149.66 659.98 149.58 659.83C149.44 659.6 149.52 659.31 149.75 659.17L260.43 594.9C284.86 580.71 311.44 571.5 339.43 567.55C339.69 567.5 339.93 567.69 339.97 567.95C340.01 568.21 339.82 568.46 339.56 568.49C311.7 572.43 285.23 581.6 260.91 595.73L150.23 660C150.15 660.04 150.07 660.07 149.99 660.07Z" />
					</g>
				</g>
				<g id="&lt;Group&gt;">
					<g id="&lt;Group&gt;">
						<g id="&lt;Group&gt;">
						</g>
						<g id="&lt;Group&gt;">
							<g id="&lt;Group&gt;">
								<path id="&lt;Path&gt;" class="shp3" d="M249.06 628.22C245.61 628.22 242.11 627.29 239.12 625.36C233.53 621.74 229.76 614.95 229.27 607.64C229.25 607.37 229.45 607.15 229.72 607.13C229.98 607.09 230.21 607.31 230.23 607.57C230.69 614.59 234.3 621.1 239.64 624.56C246.66 629.1 256.66 627.81 261.47 621.74C263.67 618.97 264.95 615.16 265.07 611.02C265.25 604.71 262.72 598.55 258.32 594.55C256.51 592.91 254.31 591.61 251.96 590.78C248.44 589.55 244.65 589.4 241.31 590.38C231.39 592.15 220.06 600.61 212.41 606.82C212.2 606.98 211.9 606.96 211.73 606.75C211.57 606.54 211.6 606.24 211.8 606.08C219.54 599.8 231 591.25 241.09 589.45C244.58 588.43 248.57 588.58 252.27 589.88C254.75 590.74 257.06 592.12 258.96 593.84C263.57 598.03 266.21 604.46 266.02 611.05C265.9 615.39 264.55 619.4 262.22 622.34C259.17 626.18 254.17 628.22 249.06 628.22Z" />
							</g>
							<g id="&lt;Group&gt;">
								<path id="&lt;Path&gt;" class="shp3" d="M245.96 627.96C245.89 627.96 245.82 627.94 245.75 627.91C245.52 627.8 245.42 627.51 245.53 627.27C248.51 621.08 246.38 613.6 246.36 613.53C246.29 613.27 246.43 613.01 246.69 612.93C246.94 612.86 247.21 613 247.28 613.26C247.37 613.58 249.53 621.17 246.39 627.69C246.31 627.86 246.14 627.96 245.96 627.96Z" />
							</g>
							<g id="&lt;Group&gt;">
								<path id="&lt;Path&gt;" class="shp3" d="M260.35 624.12C260.3 624.12 260.24 624.11 260.19 624.09C259.94 624 259.81 623.72 259.9 623.47C262.62 616.09 258.59 609.56 258.55 609.5C258.4 609.27 258.47 608.98 258.69 608.84C258.92 608.7 259.21 608.76 259.36 608.98C259.53 609.27 263.68 615.98 260.8 623.8C260.73 624 260.55 624.12 260.35 624.12Z" />
							</g>
						</g>
					</g>
					<g id="&lt;Group&gt;">
						<g id="&lt;Group&gt;">
						</g>
						<g id="&lt;Group&gt;">
							<g id="&lt;Group&gt;">
								<path id="&lt;Path&gt;" class="shp3" d="M292.39 605.48C288.94 605.48 285.44 604.55 282.46 602.62C276.87 599 273.09 592.21 272.61 584.89C272.59 584.63 272.79 584.4 273.05 584.38C273.32 584.35 273.55 584.57 273.56 584.83C274.03 591.85 277.64 598.35 282.98 601.81C290 606.35 299.99 605.07 304.81 599C307.01 596.23 308.29 592.42 308.4 588.28C308.58 581.96 306.06 575.8 301.65 571.8C299.85 570.17 297.65 568.86 295.29 568.04C291.77 566.8 287.99 566.66 284.65 567.64C284.39 567.71 284.13 567.56 284.05 567.31C283.98 567.06 284.13 566.79 284.38 566.72C287.91 565.68 291.9 565.83 295.61 567.13C298.08 568 300.4 569.37 302.3 571.09C306.91 575.28 309.55 581.71 309.36 588.31C309.24 592.65 307.89 596.66 305.56 599.6C302.51 603.44 297.51 605.48 292.39 605.48Z" />
							</g>
							<g id="&lt;Group&gt;">
								<path id="&lt;Path&gt;" class="shp3" d="M289.3 605.21C289.23 605.21 289.16 605.2 289.09 605.17C288.85 605.05 288.75 604.76 288.87 604.53C291.85 598.34 289.72 590.86 289.7 590.78C289.62 590.53 289.77 590.26 290.02 590.19C290.28 590.11 290.54 590.26 290.62 590.51C290.71 590.83 292.87 598.43 289.73 604.94C289.65 605.11 289.48 605.21 289.3 605.21Z" />
							</g>
							<g id="&lt;Group&gt;">
								<path id="&lt;Path&gt;" class="shp3" d="M303.69 601.37C303.63 601.37 303.58 601.36 303.52 601.34C303.27 601.25 303.15 600.98 303.24 600.73C305.95 593.34 301.92 586.82 301.88 586.75C301.74 586.53 301.81 586.23 302.03 586.09C302.25 585.95 302.55 586.02 302.69 586.24C302.87 586.52 307.01 593.23 304.14 601.06C304.07 601.25 303.88 601.37 303.69 601.37Z" />
							</g>
						</g>
					</g>
				</g>
				<g id="&lt;Group&gt;">
				</g>
				<g id="&lt;Group&gt;">
					<g id="&lt;Group&gt;">
						<path id="&lt;Path&gt;" class="shp3" d="M322.21 839.4L218.35 839.4C214.35 839.4 210.62 837.42 208.37 834.12C206.11 830.81 205.64 826.62 207.09 822.9C207.19 822.65 207.47 822.53 207.72 822.62C207.96 822.72 208.08 823 207.99 823.24C206.62 826.72 207.05 830.49 209.16 833.58C211.26 836.67 214.62 838.44 218.35 838.44L321.73 838.44C321.58 831.4 318.24 824.09 313.14 819.71C308.87 816.04 303.57 814.56 297.83 815.45C281.52 817.95 266.82 817.34 243.59 813.21C243.41 813.18 243.27 813.06 243.22 812.89C243.16 812.73 243.2 812.54 243.32 812.41C253.3 801.54 263.62 790.29 270.95 777.18C279.06 762.66 282.15 747.43 279.63 734.29C276.69 718.89 265.17 706.04 251.62 703.05C243.95 701.35 235.13 702.46 226.11 706.25C217.99 709.65 210.63 714.72 203.5 719.63C203.29 719.78 202.99 719.73 202.83 719.51C202.68 719.29 202.74 718.99 202.96 718.84C210.12 713.91 217.53 708.81 225.74 705.36C234.94 701.5 243.96 700.37 251.83 702.11C265.74 705.19 277.56 718.35 280.57 734.11C283.13 747.48 280.01 762.94 271.79 777.65C264.55 790.6 254.45 801.7 244.61 812.42C267.24 816.39 281.7 816.96 297.69 814.5C303.72 813.58 309.27 815.13 313.77 818.99C319.19 823.64 322.69 831.46 322.69 838.92C322.69 839.18 322.47 839.4 322.21 839.4Z" />
					</g>
					<g id="&lt;Group&gt;">
						<path id="&lt;Path&gt;" class="shp3" d="M308.51 839.4C308.5 839.4 308.5 839.4 308.49 839.4C308.23 839.38 308.02 839.16 308.03 838.9C308.28 832.36 304.1 825.37 298.08 822.27C297.84 822.14 297.75 821.85 297.87 821.62C297.99 821.39 298.28 821.29 298.52 821.41C304.95 824.73 309.26 831.94 308.99 838.94C308.98 839.19 308.76 839.4 308.51 839.4Z" />
					</g>
					<g id="&lt;Group&gt;">
						<path id="&lt;Path&gt;" class="shp3" d="M316.37 839.4C316.36 839.4 316.34 839.4 316.32 839.39C316.06 839.37 315.87 839.13 315.89 838.87C316.51 832.64 313.12 825.6 307.63 821.74C307.42 821.59 307.36 821.29 307.52 821.08C307.67 820.86 307.97 820.81 308.18 820.96C313.94 825 317.5 832.41 316.85 838.96C316.82 839.21 316.62 839.4 316.37 839.4Z" />
					</g>
				</g>
			</g>
			<path id="&lt;Path&gt;" class="shp3" d="M710.09 847.4L67.9 847.4C65.56 847.4 63.66 845.5 63.66 843.16C63.66 840.82 65.56 838.92 67.9 838.92L710.09 838.92C712.43 838.92 714.33 840.82 714.33 843.16C714.33 845.5 712.43 847.4 710.09 847.4Z" />
		</g>
		<g id="&lt;Group&gt;">
			<g id="&lt;Group&gt;">
				<g id="&lt;Group&gt;">
				</g>
				<g id="&lt;Group&gt;">
				</g>
				<g id="&lt;Group&gt;">
				</g>
				<g id="&lt;Group&gt;">
					<path id="&lt;Path&gt;" class="shp12" d="M1395.99 670.94C1395.99 725.85 1351.49 770.35 1296.58 770.35C1241.68 770.35 1197.17 725.85 1197.17 670.94C1197.17 616.04 1241.68 571.53 1296.58 571.53C1351.49 571.53 1395.99 616.04 1395.99 670.94Z" />
				</g>
			</g>
			<g id="&lt;Group&gt;">
				<path id="&lt;Path&gt;" class="shp3" d="M1434.59 847.4L792.4 847.4C790.06 847.4 788.16 845.5 788.16 843.16C788.16 840.82 790.06 838.92 792.4 838.92L1434.59 838.92C1436.93 838.92 1438.83 840.82 1438.83 843.16C1438.83 845.5 1436.93 847.4 1434.59 847.4Z" />
			</g>
			<g id="&lt;Group&gt;">
				<g id="&lt;Group&gt;">
					<g id="&lt;Group&gt;">
						<g id="&lt;Group&gt;">
							<g id="&lt;Group&gt;">
								<path id="&lt;Path&gt;" class="shp13" d="M1262.56 374.69C1261.96 368.18 1259.65 361.52 1256 355.43C1248.73 343.14 1237.26 333.51 1228.78 322.15C1220.09 310.79 1213.29 298.04 1208.6 285.35C1207.88 283.41 1207.22 281.48 1206.6 279.55C1206.51 277.47 1206.41 275.39 1206.28 273.33C1205.18 255.8 1201.47 237.02 1188.57 225.12C1173.07 210.83 1143.34 211.04 1129.09 226.57C1114.15 216.95 1094.85 214.7 1077.87 219.93C1060.88 225.16 1046.39 237.6 1037.99 253.27C1029.23 269.62 1027.06 288.59 1025.05 307.03C1024.68 310.44 1024.31 313.86 1023.94 317.28C1023.74 317.9 1023.56 318.52 1023.35 319.14C1018.44 333.95 1011.13 348.94 1004.65 364.54C1001.43 372.34 998.42 380.31 996.16 388.41C993.85 396.5 992.36 404.77 991.91 412.83C991.46 420.88 992.04 428.77 993.77 435.98C995.41 443.22 998.34 449.71 1001.83 455.08C999.22 449.21 997.22 442.62 996.36 435.51C995.43 428.42 995.5 420.88 996.42 413.22C998.18 397.83 1003.83 382.23 1010.23 366.85C1014.04 357.66 1018.06 348.44 1021.55 339.19C1019.06 362.07 1016.57 384.95 1014.08 407.82C1012.91 418.53 1011.81 429.77 1015.91 439.74C1019.88 449.41 1028.46 456.7 1038.1 460.77C1047.73 464.84 1058.37 465.96 1068.82 465.87C1101.95 465.6 1134.84 453.25 1159.97 431.68C1175.51 432.63 1197.12 428.6 1211.97 423.91C1226.83 419.22 1240.55 407.61 1243.06 392.24C1245.08 379.92 1239.73 367.57 1233.04 357.03C1226.36 346.49 1218.15 336.77 1213.38 325.24C1209.25 315.25 1207.93 304.54 1207.27 293.69C1211.33 304.69 1217.15 315.59 1224.61 325.33C1233.64 337.33 1245.21 346.47 1252.68 357.54C1256.43 362.99 1259.1 368.98 1260.28 375.01C1261.5 381.02 1261.08 387.1 1258.95 392.29C1261.87 387.51 1263.19 381.18 1262.56 374.69Z" />
							</g>
							<g id="&lt;Group&gt;">
								<path id="&lt;Path&gt;" class="shp14" d="M1066.02 237.89C1082.54 226.1 1106.84 226.67 1122.79 239.23C1129.55 227.56 1145.79 220.98 1159.25 221.79C1172.71 222.6 1185.3 226.74 1192.96 242.78C1197.5 252.27 1202.42 269 1206.6 279.55C1206.51 277.47 1206.41 275.39 1206.28 273.33C1205.18 255.8 1201.47 237.02 1188.57 225.12C1173.07 210.83 1143.34 211.04 1129.09 226.57C1114.15 216.95 1094.85 214.7 1077.87 219.93C1060.88 225.16 1046.39 237.6 1037.99 253.27C1029.23 269.62 1027.06 288.59 1025.05 307.03C1024.68 310.44 1024.31 313.86 1023.94 317.28C1027.53 307.46 1033.18 295.41 1036.77 285.59C1043.28 267.79 1050.59 248.9 1066.02 237.89Z" />
							</g>
						</g>
						<g id="&lt;Group&gt;">
							<g id="&lt;Group&gt;">
								<g id="&lt;Group&gt;">
									<path id="&lt;Path&gt;" class="shp14" d="M1111.76 257.55C1104.36 259.29 1095.98 262.2 1087.56 266.48C1079.14 270.73 1070.71 276.34 1063.1 282.93C1055.51 289.53 1048.77 297.09 1043.37 304.82C1037.95 312.56 1033.88 320.45 1031.12 327.52C1034.96 320.96 1039.73 313.65 1045.51 306.43C1051.28 299.2 1058.04 292.06 1065.44 285.62C1072.85 279.21 1080.87 273.51 1088.85 268.82C1096.81 264.12 1104.72 260.42 1111.76 257.55Z" />
								</g>
							</g>
							<g id="&lt;Group&gt;">
								<g id="&lt;Group&gt;">
									<path id="&lt;Path&gt;" class="shp14" d="M1105.44 255.32C1100.04 255.64 1093.8 256.6 1087.33 258.42C1080.86 260.23 1074.17 262.89 1067.86 266.28C1061.56 269.69 1055.66 273.81 1050.6 278.23C1045.52 282.63 1041.29 287.32 1038.06 291.67C1045.74 284.04 1056.7 275.13 1069.07 268.52C1081.38 261.82 1094.85 257.56 1105.44 255.32Z" />
								</g>
							</g>
							<g id="&lt;Group&gt;">
								<g id="&lt;Group&gt;">
									<path id="&lt;Path&gt;" class="shp14" d="M1107.5 248.78C1102.4 245.69 1094.4 243.62 1086.44 244.32C1078.47 244.92 1070.91 248.25 1066.38 252.13C1071.91 249.89 1079.18 247.73 1086.67 247.15C1094.16 246.51 1101.68 247.47 1107.5 248.78Z" />
								</g>
							</g>
							<g id="&lt;Group&gt;">
								<g id="&lt;Group&gt;">
									<path id="&lt;Path&gt;" class="shp14" d="M1188.72 334.72C1183.06 330.88 1176.73 326.22 1170.42 320.77C1164.1 315.33 1157.81 309.09 1152.04 302.39C1146.29 295.68 1141.09 288.51 1136.66 281.44C1132.23 274.38 1128.59 267.42 1125.64 261.25C1127.59 267.8 1130.54 275.2 1134.58 282.66C1138.61 290.12 1143.73 297.62 1149.61 304.49C1155.5 311.34 1162.14 317.53 1168.91 322.64C1175.67 327.77 1182.53 331.81 1188.72 334.72Z" />
								</g>
							</g>
							<g id="&lt;Group&gt;">
								<g id="&lt;Group&gt;">
									<path id="&lt;Path&gt;" class="shp14" d="M1195.58 310.46C1185.18 304.75 1172.19 296.39 1160.69 286.18C1149.11 276.05 1139.18 264.22 1132.21 254.62C1137.58 265.19 1147.04 277.95 1158.85 288.27C1170.57 298.69 1184.42 306.46 1195.58 310.46Z" />
								</g>
							</g>
							<g id="&lt;Group&gt;">
								<g id="&lt;Group&gt;">
									<path id="&lt;Path&gt;" class="shp14" d="M1185.14 274.36C1181.12 268 1173.96 260.8 1165.43 255.65C1156.93 250.43 1147.25 247.39 1139.74 246.74C1146.67 249.72 1155.4 253.71 1163.56 258.71C1171.76 263.66 1179.31 269.58 1185.14 274.36Z" />
								</g>
							</g>
							<g id="&lt;Group&gt;">
								<g id="&lt;Group&gt;">
									<path id="&lt;Path&gt;" class="shp14" d="M1060.46 460.06C1056.31 458.87 1052.17 456.75 1048.45 453.75C1044.73 450.75 1041.41 446.93 1038.75 442.54C1033.39 433.73 1030.88 422.8 1029.64 411.78C1028.36 400.72 1028.1 389.54 1028.67 379.03C1029.23 368.53 1030.6 358.71 1032.16 350.22C1029.29 358.35 1026.88 368.13 1025.64 378.77C1024.38 389.41 1024.3 400.9 1025.61 412.25C1026.87 423.55 1029.87 435.14 1036.21 444.2C1039.34 448.7 1043.2 452.46 1047.41 455.19C1051.62 457.92 1056.18 459.54 1060.46 460.06Z" />
								</g>
							</g>
							<g id="&lt;Group&gt;">
								<g id="&lt;Group&gt;">
									<path id="&lt;Path&gt;" class="shp14" d="M1101.69 455.4C1094 455.14 1085.47 452.21 1078.05 446.77C1070.56 441.39 1064.4 433.55 1059.68 424.93C1054.96 416.28 1051.35 406.96 1048.54 398.04C1045.74 389.1 1043.88 380.46 1042.6 372.88C1042.69 388.23 1046.76 408.62 1056.51 426.67C1061.42 435.63 1068.24 443.84 1076.53 449.02C1084.71 454.27 1094.06 456.37 1101.69 455.4Z" />
								</g>
							</g>
							<g id="&lt;Group&gt;">
								<g id="&lt;Group&gt;">
									<path id="&lt;Path&gt;" class="shp14" d="M1217.94 407.1C1223.66 404.7 1229.12 398.93 1231.58 391.41C1232.84 387.69 1233.4 383.53 1233.06 379.4C1232.79 375.26 1231.68 371.15 1230.04 367.31C1226.74 359.6 1221.15 353.12 1215.14 348.3C1209.13 343.44 1202.77 340 1197.17 337.4C1202.3 340.85 1208.2 344.87 1213.72 349.95C1219.24 355 1224.28 361.25 1227.37 368.46C1230.49 375.61 1231.47 383.68 1229.49 390.78C1227.63 397.9 1223.2 403.82 1217.94 407.1Z" />
								</g>
							</g>
							<g id="&lt;Group&gt;">
								<g id="&lt;Group&gt;">
									<path id="&lt;Path&gt;" class="shp14" d="M1199.16 415.28C1201.3 412.27 1203.29 408.39 1204.56 403.96C1205.85 399.54 1206.43 394.59 1206.15 389.68C1205.86 384.78 1204.7 379.93 1202.9 375.69C1201.12 371.44 1198.69 367.82 1196.21 365.08C1198.24 368.18 1200.22 371.93 1201.69 376.16C1203.17 380.38 1204.13 385.06 1204.42 389.78C1204.69 394.51 1204.28 399.27 1203.3 403.64C1202.34 408.01 1200.81 411.97 1199.16 415.28Z" />
								</g>
							</g>
						</g>
					</g>
					<g id="&lt;Group&gt;">
						<g id="&lt;Group&gt;">
							<path id="&lt;Path&gt;" class="shp15" d="M979.37 529.95C978.1 507.15 968.55 484.91 952.9 468.28C951.07 466.33 947.98 464.41 946.04 466.24C944.61 467.59 945.11 469.94 945.73 471.81C949.19 482.35 952.66 492.89 956.13 503.44C951.51 490.91 945.08 479.06 937.09 468.36C935.85 466.71 934.49 465.01 932.58 464.23C930.67 463.44 928.08 463.95 927.21 465.82C926.51 467.35 927.14 469.12 927.78 470.67C932.11 481.2 936.43 491.73 940.75 502.26C935.7 495.88 930.65 489.5 925.61 483.12C924.62 481.87 923.59 480.59 922.2 479.82C920.81 479.05 918.94 478.9 917.7 479.9C915.51 481.65 916.66 485.13 917.98 487.6C923.23 497.4 928.48 507.21 933.73 517.01C928.84 511.08 923.96 505.14 919.08 499.21C916.99 496.67 913.62 493.87 910.84 495.64C909.05 496.77 908.72 499.37 909.49 501.34C910.27 503.31 911.87 504.82 913.37 506.32C922.75 515.68 929.92 527.23 934.16 539.78C937.03 548.29 938.62 557.36 943.14 565.12C947.67 572.88 956.31 579.25 965.13 577.55C970.11 561.65 980.3 546.58 979.37 529.95Z" />
						</g>
						<g id="&lt;Group&gt;">
							<path id="&lt;Path&gt;" class="shp16" d="M1020.63 609.34C1009.84 590.78 999.05 572.23 988.26 553.68C992.08 543.45 986.09 531.45 978.3 523.8C970.5 516.15 960.07 511.89 949.82 508.12C948.16 507.51 946.45 506.9 944.68 506.92C942.91 506.93 941.04 507.7 940.19 509.25C938.63 512.09 941.11 515.39 943.41 517.67C948.98 523.19 954.54 528.71 960.1 534.22C953.1 539.71 948.57 547.99 949.12 556.87C949.68 565.75 954.83 574.22 962.46 578.8L980.16 626.32L1020.63 609.34Z" />
						</g>
					</g>
					<g id="&lt;Group&gt;">
						<g id="&lt;Group&gt;">
							<path id="&lt;Path&gt;" class="shp17" d="M1326.07 615.79L1395.03 589.93L1349.49 480.08C1336.41 448.51 1304.8 429.7 1271.9 431.91C1270.55 448.18 1264.94 464.11 1255.58 477.5C1241.97 496.98 1220.59 510.86 1197.26 515.35C1177.47 519.16 1156.04 516.12 1139.19 505.06C1124.71 495.55 1114.13 479.84 1111.65 462.82C1089.31 465.71 1070.67 482.73 1066.5 505.78L1048.94 602.86L1104.17 622.17L1114.86 664.84C1121.84 692.7 1119.77 722.06 1108.96 748.67L1072.27 838.92L1356.72 838.92L1318.74 748.1C1306.76 719.46 1304.99 687.56 1313.74 657.77L1326.07 615.79Z" />
						</g>
						<g id="&lt;Group&gt;">
							<path id="&lt;Path&gt;" class="shp18" d="M1098.63 515.85L1092.41 616.92L1075.17 606.69L1098.63 515.85Z" />
						</g>
						<g id="&lt;Group&gt;">
							<path id="&lt;Path&gt;" class="shp18" d="M1219.78 647.44C1240.43 645.89 1258.3 638.35 1273.81 624.64C1249.23 631.9 1222.48 630.65 1198.38 621.95C1189.84 618.86 1180.43 619 1172.2 622.86C1158.56 629.26 1143.32 632.25 1128.28 631.35C1136.06 637.41 1145.83 641.92 1155.6 640.6C1145.12 652.11 1130.7 661.31 1115.27 666.62C1121.72 693.95 1119.54 722.63 1108.96 748.67L1072.27 838.92L1356.72 838.92L1318.74 748.1C1316.39 742.49 1314.45 736.74 1312.89 730.91C1303.39 728.3 1294.13 724.86 1285.29 720.44C1255.47 705.54 1228.51 679.61 1219.78 647.44Z" />
						</g>
						<g id="&lt;Group&gt;">
							<g id="&lt;Group&gt;">
								<g id="&lt;Group&gt;">
									<path id="&lt;Path&gt;" class="shp18" d="M1277.43 559.31C1276.91 551.2 1276.75 542.04 1277.59 532.42C1278.42 522.81 1280.23 512.76 1283.07 503.01C1285.95 493.26 1289.86 483.83 1294.36 475.3C1298.84 466.75 1303.93 459.12 1308.76 452.58C1302.14 457.27 1295.27 463.95 1289.43 472.26C1283.56 480.55 1278.73 490.42 1275.67 500.83C1272.62 511.25 1271.35 522.16 1271.8 532.31C1272.23 542.46 1274.4 551.79 1277.43 559.31Z" />
								</g>
							</g>
							<g id="&lt;Group&gt;">
								<g id="&lt;Group&gt;">
									<path id="&lt;Path&gt;" class="shp18" d="M1385.09 578.84C1365.11 581.56 1334.22 590.92 1316.09 599.75C1336.07 597.03 1366.97 587.67 1385.09 578.84Z" />
								</g>
							</g>
							<g id="&lt;Group&gt;">
								<g id="&lt;Group&gt;">
									<path id="&lt;Path&gt;" class="shp18" d="M1368.17 561.13C1355.73 566.27 1337.38 577.55 1327.17 586.32C1339.61 581.19 1357.97 569.91 1368.17 561.13Z" />
								</g>
							</g>
							<g id="&lt;Group&gt;">
								<g id="&lt;Group&gt;">
									<path id="&lt;Path&gt;" class="shp18" d="M1182.91 527.45C1176.01 526.29 1168.33 524.54 1160.54 521.73C1152.74 518.95 1144.84 515.15 1137.48 510.48C1130.14 505.78 1123.37 500.22 1117.56 494.32C1111.73 488.43 1106.9 482.21 1102.94 476.45C1104.89 483.14 1108.48 490.6 1113.79 497.58C1119.07 504.56 1126.02 511.03 1133.91 516.08C1141.81 521.1 1150.61 524.68 1159.17 526.52C1167.74 528.4 1176.02 528.51 1182.91 527.45Z" />
								</g>
							</g>
						</g>
						<g id="&lt;Group&gt;">
							<path id="&lt;Path&gt;" class="shp3" d="M1092.41 617.4C1092.4 617.4 1092.4 617.4 1092.38 617.4C1092.12 617.38 1091.92 617.16 1091.94 616.89L1098.15 515.82C1098.17 515.56 1098.37 515.37 1098.66 515.37C1098.93 515.39 1099.13 515.62 1099.11 515.88L1092.89 616.95C1092.88 617.21 1092.66 617.4 1092.41 617.4Z" />
						</g>
					</g>
					<g id="&lt;Group&gt;">
						<path id="&lt;Path&gt;" class="shp15" d="M1389.69 639.01L1389.49 634.47C1388.87 620.97 1386.33 607.62 1381.93 594.84L1326.07 615.79L1389.69 639.01Z" />
					</g>
					<g id="&lt;Group&gt;">
						<g id="&lt;Group&gt;">
							<path id="&lt;Path&gt;" class="shp16" d="M1139.19 505.06C1156.04 516.12 1177.47 519.16 1197.26 515.35C1220.59 510.86 1241.97 496.98 1255.58 477.5C1264.94 464.11 1270.55 448.18 1271.9 431.91C1266.45 432.27 1260.96 433.2 1255.51 434.76L1211.64 447.35L1175.24 395.53L1125.6 432.87L1141.44 464.39L1123.63 462.64C1119.56 462.24 1115.55 462.32 1111.65 462.82C1114.13 479.84 1124.71 495.55 1139.19 505.06Z" />
						</g>
						<g id="&lt;Group&gt;">
							<path id="&lt;Path&gt;" class="shp3" d="M1175.24 395.53L1125.6 432.87L1132.87 447.35C1152.74 454.9 1180.51 435.99 1175.24 395.53Z" />
						</g>
					</g>
					<g id="&lt;Group&gt;">
						<g id="&lt;Group&gt;">
							<path id="&lt;Path&gt;" class="shp16" d="M1183.87 379.41C1187.43 383.72 1194.34 383.89 1199.21 381.15C1204.08 378.41 1207.31 373.49 1209.96 368.58C1212.46 363.96 1214.67 359.01 1214.79 353.77C1214.91 348.53 1212.49 342.93 1207.78 340.64C1202.74 338.19 1196.45 340.13 1192.27 343.87C1188.09 347.6 1184.88 352.62 1182.45 357.67C1179.07 354.47 1178.08 349.73 1177.91 345.07C1151.01 326.81 1128.35 299.27 1118.03 268.43C1083.6 280.32 1054.66 307.23 1040.31 340.71C1044.17 359.43 1050.01 378.84 1058.28 396.07C1066.55 413.31 1079.73 428.95 1097.4 436.25C1114.91 443.49 1135.92 441.57 1151.83 431.27C1167.73 420.96 1183.31 398.35 1183.87 379.41Z" />
						</g>
						<g id="&lt;Group&gt;">
							<path id="&lt;Path&gt;" class="shp15" d="M1202.83 347.43C1194.81 350.33 1188.75 358.02 1187.8 366.49C1187.64 367.88 1187.62 369.32 1188.06 370.66C1188.49 371.99 1189.46 373.21 1190.78 373.67C1193.12 374.48 1195.55 372.76 1197.19 370.91C1199.19 368.65 1200.82 365.82 1200.74 362.8C1200.67 359.78 1198.39 356.69 1195.38 356.55C1197.19 353.17 1199.62 349.54 1202.83 347.43Z" />
						</g>
						<g id="&lt;Group&gt;">
							<path id="&lt;Path&gt;" class="shp15" d="M1116.03 272.63C1124.54 312.64 1145.17 336.79 1177.91 345.07C1151.01 326.81 1128.35 299.27 1118.03 268.43C1083.6 280.32 1054.66 307.23 1040.31 340.71C1041.58 346.88 1043.09 353.12 1044.81 359.33C1060.46 324.81 1084.2 295.9 1116.03 272.63Z" />
						</g>
						<g id="&lt;Group&gt;">
							<g id="&lt;Group&gt;">
								<path id="&lt;Path&gt;" class="shp13" d="M1104.17 321.78C1118.46 323.42 1132.75 325.05 1147.04 326.68C1142.93 319.49 1136.15 314.45 1127.95 313.33C1119.74 312.21 1110.05 315.96 1104.17 321.78Z" />
							</g>
							<g id="&lt;Group&gt;">
								<path id="&lt;Path&gt;" class="shp13" d="M1044.65 340.92C1053.86 336.76 1063.06 332.59 1072.27 328.43C1067.17 325.62 1060.91 325.35 1055.42 327.32C1049.94 329.3 1046.78 335.49 1044.65 340.92Z" />
							</g>
							<g id="&lt;Group&gt;">
								<path id="&lt;Path&gt;" class="shp3" d="M1129.88 350.22C1129.88 353.62 1127.12 356.38 1123.71 356.38C1120.31 356.38 1117.55 353.62 1117.55 350.22C1117.55 346.81 1120.31 344.05 1123.71 344.05C1127.12 344.05 1129.88 346.81 1129.88 350.22Z" />
							</g>
							<g id="&lt;Group&gt;">
								<path id="&lt;Path&gt;" class="shp3" d="M1072.27 360.68C1072.27 364.08 1069.51 366.84 1066.11 366.84C1062.7 366.84 1059.94 364.08 1059.94 360.68C1059.94 357.27 1062.7 354.51 1066.11 354.51C1069.51 354.51 1072.27 357.27 1072.27 360.68Z" />
							</g>
							<g id="&lt;Group&gt;">
								<path id="&lt;Path&gt;" class="shp15" d="M1107.7 378.03C1099.24 380.79 1090.78 383.55 1082.32 386.31C1086.44 389.04 1092.24 390.12 1096.98 388.71C1101.72 387.29 1105.74 382.57 1107.7 378.03Z" />
							</g>
							<g id="&lt;Group&gt;">
								<path id="&lt;Path&gt;" class="shp0" d="M1145.9 383.61C1128.53 392.07 1110.66 399.53 1092.41 405.92C1099.13 411 1106.99 415.35 1115.42 415.48C1123.84 415.61 1132.39 412.55 1138.4 406.65C1144.41 400.75 1147.21 391.93 1145.9 383.61Z" />
							</g>
							<g id="&lt;Group&gt;">
								<path id="&lt;Path&gt;" class="shp15" d="M1141.44 413.77C1135.37 418 1128.2 420.64 1120.83 421.32C1124.09 424.21 1129.43 425.55 1133.58 424.22C1137.74 422.9 1140.45 418.01 1141.44 413.77Z" />
							</g>
						</g>
					</g>
					<g id="&lt;Group&gt;">
						<g id="&lt;Group&gt;">
							<path id="&lt;Path&gt;" class="shp19" d="M1207.28 526.38L1246.72 579.78C1250.21 584.51 1255.9 587.11 1261.76 586.66L1277.55 585.46L1283.94 566.31L1238.67 506.12L1207.28 526.38Z" />
						</g>
						<g id="&lt;Group&gt;">
							<g id="&lt;Group&gt;">
								<path id="&lt;Path&gt;" class="shp16" d="M1190.91 536.18L1191.23 542.5C1191.55 548.7 1196.27 553.76 1202.43 554.51L1210.2 555.45L1227.17 575.1C1231.22 579.79 1237.32 582.18 1243.48 581.49L1267.95 578.76L1315.8 664.79C1328.15 686.99 1357.97 691.89 1376.77 674.81C1394.06 659.11 1393.99 631.91 1376.62 616.3L1299.99 547.41L1288.71 517.25C1284.34 505.54 1274.85 496.48 1262.95 492.65L1253.77 489.69L1238.69 501.83C1240.6 522.65 1214.65 527.24 1207.28 526.38L1190.91 536.18Z" />
							</g>
							<g id="&lt;Group&gt;">
								<path id="&lt;Path&gt;" class="shp15" d="M1252.86 523.11C1261.52 516.32 1268.72 506.89 1271.13 496.32C1268.57 494.82 1265.83 493.58 1262.95 492.65L1253.77 489.69L1238.69 501.83C1240.6 522.65 1214.65 527.24 1207.28 526.38L1190.91 536.18L1191.23 542.5C1191.44 546.56 1193.56 550.1 1196.71 552.3C1203.16 548.27 1210.15 544.97 1217.13 541.92C1229.49 536.5 1242.23 531.43 1252.86 523.11Z" />
							</g>
							<g id="&lt;Group&gt;">
								<path id="&lt;Path&gt;" class="shp3" d="M1350.34 685.54C1348.17 685.54 1345.98 685.37 1343.79 685.01C1331.7 683.02 1321.34 675.74 1315.38 665.02L1267.68 579.27L1243.53 581.96C1237.2 582.66 1230.96 580.22 1226.81 575.41L1209.96 555.91L1202.37 554.99C1195.97 554.21 1191.08 548.97 1190.76 542.53L1190.42 535.92L1207.17 525.89L1207.34 525.91C1212.32 526.49 1225.33 524.5 1232.72 517.28C1236.93 513.17 1238.78 507.99 1238.21 501.87L1238.19 501.61L1238.39 501.45L1253.67 489.16L1263.09 492.19C1275.21 496.09 1284.71 505.16 1289.16 517.08C1289.25 517.33 1289.13 517.6 1288.88 517.69C1288.63 517.78 1288.36 517.66 1288.26 517.41C1283.91 505.77 1274.63 496.91 1262.8 493.1L1253.87 490.23L1239.19 502.04C1239.7 508.35 1237.75 513.7 1233.39 517.96C1225.75 525.42 1212.82 527.45 1207.39 526.88L1191.41 536.45L1191.71 542.48C1192.01 548.45 1196.55 553.32 1202.49 554.04L1210.44 555L1227.53 574.79C1231.48 579.36 1237.41 581.67 1243.42 581.01L1268.21 578.25L1268.37 578.52L1316.22 664.56C1322.04 675.01 1332.14 682.12 1343.94 684.06C1355.75 686 1367.6 682.5 1376.45 674.46L1377.1 675.17C1369.67 681.92 1360.18 685.54 1350.34 685.54Z" />
							</g>
							<g id="&lt;Group&gt;">
								<path id="&lt;Path&gt;" class="shp3" d="M1226.6 557.92C1226.59 557.92 1226.57 557.92 1226.55 557.92L1205.97 555.42C1205.71 555.39 1205.52 555.15 1205.55 554.89C1205.58 554.63 1205.8 554.45 1206.09 554.47L1226.66 556.97C1226.92 557 1227.11 557.24 1227.08 557.5C1227.05 557.74 1226.84 557.92 1226.6 557.92Z" />
							</g>
						</g>
						<g id="&lt;Group&gt;">
							<g id="&lt;Group&gt;">
								<path id="&lt;Path&gt;" class="shp20" d="M1113.88 532C1146.36 463.84 1203.29 390.93 1250.74 434.79C1309.79 489.38 1201.89 520.69 1151.78 562.81L1113.88 532Z" />
							</g>
							<g id="&lt;Group&gt;">
								<g id="&lt;Group&gt;">
									<path id="&lt;Path&gt;" class="shp19" d="M1118.16 531.67C1116.08 531.1 1114.56 531.17 1113.88 532C1111.77 534.6 1118.54 543.6 1129 552.11C1139.47 560.62 1149.66 565.41 1151.78 562.81C1152.46 561.98 1152.21 560.48 1151.23 558.56C1146.82 557.36 1139.84 553.31 1132.73 547.53C1125.62 541.75 1120.23 535.74 1118.16 531.67Z" />
								</g>
								<g id="&lt;Group&gt;">
									<path id="&lt;Path&gt;" class="shp3" d="M1136.66 542.7C1129.55 536.92 1122.57 532.86 1118.16 531.67C1120.23 535.74 1125.62 541.75 1132.73 547.53C1139.84 553.31 1146.82 557.36 1151.23 558.56C1149.16 554.49 1143.77 548.48 1136.66 542.7Z" />
								</g>
							</g>
							<g id="&lt;Group&gt;">
								<g id="&lt;Group&gt;">
									<path id="&lt;Path&gt;" class="shp3" d="M1234.76 444.05C1234.06 444.05 1233.37 444.09 1232.68 444.17C1242.73 445.36 1250.57 455.07 1250.57 466.87C1250.57 478.67 1242.73 488.38 1232.68 489.57C1233.37 489.65 1234.06 489.69 1234.76 489.69C1245.79 489.69 1254.73 479.48 1254.73 466.87C1254.73 454.27 1245.79 444.05 1234.76 444.05Z" />
								</g>
								<g id="&lt;Group&gt;">
									<path id="&lt;Path&gt;" class="shp4" d="M1250.57 466.87C1250.57 455.07 1242.73 445.36 1232.68 444.17C1222.63 445.36 1214.8 455.07 1214.8 466.87C1214.8 478.67 1222.63 488.38 1232.68 489.57C1242.73 488.38 1250.57 478.67 1250.57 466.87Z" />
								</g>
							</g>
							<g id="&lt;Group&gt;">
								<path id="&lt;Path&gt;" class="shp21" d="M1205.79 440.56C1204.85 440.08 1203.88 439.68 1202.89 439.36C1199.35 438.21 1195.48 439.03 1192.46 441.19C1170.65 456.82 1152.3 477.27 1139.12 500.64C1137.53 503.46 1138.84 507.06 1141.88 508.15C1141.93 508.17 1141.98 508.19 1142.03 508.21C1147.6 510.21 1153.81 508.4 1157.37 503.69C1172.59 483.54 1189.28 462.73 1206.56 444.72C1207.79 443.44 1207.38 441.37 1205.79 440.56Z" />
							</g>
							<g id="&lt;Group&gt;">
								<path id="&lt;Path&gt;" class="shp21" d="M1141.78 516.82C1140.57 516.5 1139.34 516.23 1138.1 515.98C1135 515.38 1131.86 516.86 1130.22 519.56L1127.63 523.83C1126.49 525.71 1127.3 528.15 1129.34 528.98C1130.24 529.35 1131.16 529.73 1132.07 530.11C1135.55 531.55 1139.63 530.24 1141.48 526.95C1142.42 525.29 1143.27 523.54 1144.09 521.81C1145.05 519.79 1143.95 517.38 1141.78 516.82Z" />
							</g>
							<g id="&lt;Group&gt;">
								<g id="&lt;Group&gt;">
									<g id="&lt;Group&gt;">
										<path id="&lt;Path&gt;" class="shp3" d="M1230.88 447.71C1225.7 451.47 1220.7 455.43 1215.86 459.58C1215.3 461.47 1214.95 463.48 1214.85 465.56C1220.59 460.43 1226.56 455.56 1232.81 451.01C1234.78 449.58 1232.88 446.25 1230.88 447.71Z" />
									</g>
									<g id="&lt;Group&gt;">
										<path id="&lt;Path&gt;" class="shp3" d="M1237.74 451.64C1229.78 457.43 1222.22 463.67 1215.05 470.37C1215.25 471.87 1215.58 473.32 1216.02 474.71C1223.46 467.62 1231.33 461.01 1239.67 454.95C1241.65 453.52 1239.74 450.19 1237.74 451.64Z" />
									</g>
									<g id="&lt;Group&gt;">
										<path id="&lt;Path&gt;" class="shp3" d="M1241.47 458.22C1233.02 464.36 1225.01 471.02 1217.45 478.2C1218.04 479.39 1218.73 480.5 1219.5 481.55C1227.01 474.35 1234.97 467.66 1243.41 461.53C1245.38 460.09 1243.47 456.77 1241.47 458.22Z" />
									</g>
									<g id="&lt;Group&gt;">
										<path id="&lt;Path&gt;" class="shp3" d="M1244.72 464.75C1236.57 470.67 1228.84 477.06 1221.52 483.93C1222.44 484.86 1223.43 485.69 1224.48 486.42C1231.48 479.85 1238.86 473.72 1246.65 468.06C1248.63 466.63 1246.72 463.3 1244.72 464.75Z" />
									</g>
									<g id="&lt;Group&gt;">
										<path id="&lt;Path&gt;" class="shp3" d="M1243.34 475.12C1237.75 479.18 1232.36 483.47 1227.16 487.97C1228.52 488.61 1229.96 489.07 1231.45 489.36C1235.92 485.55 1240.51 481.89 1245.27 478.43C1247.25 477 1245.34 473.67 1243.34 475.12Z" />
									</g>
								</g>
							</g>
						</g>
					</g>
				</g>
				<g id="&lt;Group&gt;">
					<g id="&lt;Group&gt;">
						<g id="&lt;Group&gt;">
							<path id="&lt;Path&gt;" class="shp22" d="M1198.16 633.59C1207.97 668.02 1235.49 696.88 1269.41 708.33C1303.33 719.77 1342.7 713.48 1371.37 692.03C1364.93 714.26 1350.77 733.37 1331.35 745.96C1335.4 745.27 1339.33 744.91 1343.38 744.22C1334.44 755.53 1322.02 763.99 1308.13 767.84C1294.23 771.69 1279.12 771 1265.63 765.91C1267.14 769.25 1270.2 773.09 1273.74 774.06C1262.03 772.05 1251.18 767.71 1241.99 760.18C1232.8 752.65 1225.14 743.43 1218.15 733.82C1203.62 713.86 1191.34 690.58 1192.34 665.91C1192.77 655.15 1199.34 644.29 1198.16 633.59Z" />
						</g>
						<g id="&lt;Group&gt;">
							<path id="&lt;Path&gt;" class="shp23" d="M1216.77 670.22C1208.38 659.28 1201.95 646.86 1198.16 633.59C1199.34 644.29 1192.77 655.15 1192.34 665.91C1191.59 684.44 1198.33 702.19 1207.9 718.34C1213.85 703.05 1216.87 686.63 1216.77 670.22Z" />
						</g>
					</g>
					<g id="&lt;Group&gt;">
						<path id="&lt;Path&gt;" class="shp22" d="M993.77 778.27C1047.72 780.18 1120.82 751.13 1129.76 744.43L1152.1 767.73C1152.74 787.52 1145.72 811.46 1139.65 820.72C1122.1 813.38 1113.16 830.44 1116.03 838.92L1157.53 838.92C1176.33 818.87 1186.58 794.28 1191.46 779.43C1194.06 771.53 1194.78 763.16 1193.64 754.93L1191.14 736.9C1190.02 728.81 1190.73 720.56 1193.21 712.78C1237.25 574.38 1148.39 549.65 1093.37 571.41C1036.86 593.76 995.21 602.38 977.97 590.89C932.11 646.86 925.14 708.46 957.06 775.71L993.77 778.27Z" />
					</g>
					<g id="&lt;Group&gt;">
						<path id="&lt;Path&gt;" class="shp23" d="M1121.93 622.17C1102.89 650.47 1096.46 686.46 1102.65 730.12C1076.44 743.45 1047.59 752.54 1018.39 756.06C1020.08 737.71 1018.06 719.04 1012.47 701.49C1007.19 730.32 990.85 757.59 968.12 776.48L993.77 778.27C1047.72 780.18 1120.82 751.13 1129.76 744.43C1113.5 727.47 1100.89 698.6 1121.93 622.17Z" />
					</g>
					<g id="&lt;Group&gt;">
						<path id="&lt;Path&gt;" class="shp3" d="M1048.94 772.77C1048.72 772.77 1048.52 772.62 1048.47 772.39C1048.42 772.13 1048.58 771.88 1048.84 771.82C1087.72 763.41 1122.21 748.95 1129.03 744.36C1116.48 731.1 1103.71 708.5 1114.42 651.97C1114.47 651.71 1114.73 651.55 1114.98 651.59C1115.24 651.64 1115.41 651.89 1115.37 652.15C1104.62 708.82 1117.6 731.06 1130.1 744.1L1130.48 744.49L1130.04 744.81C1124.38 749.06 1088.98 764.11 1049.04 772.76C1049.01 772.76 1048.97 772.77 1048.94 772.77Z" />
					</g>
					<g id="&lt;Group&gt;">
						<path id="&lt;Path&gt;" class="shp23" d="M932.98 524.17C930.42 511.86 926.05 499.89 920 488.87C913.42 498.15 908.63 508.68 905.94 519.73C914.52 520.99 924.41 522.91 932.98 524.17Z" />
					</g>
					<g id="&lt;Group&gt;">
						<g id="&lt;Group&gt;">
							<path id="&lt;Path&gt;" class="shp24" d="M925.19 522.92C927.85 523.37 930.48 523.8 932.98 524.17C930.42 511.86 926.05 499.89 920 488.87C918.93 490.64 918.01 492.86 917.23 495.33C921.39 504.01 924.09 513.37 925.19 522.92Z" />
						</g>
						<g id="&lt;Group&gt;">
							<path id="&lt;Path&gt;" class="shp25" d="M917.23 495.33C914.69 503.36 913.54 514.08 913.05 520.86C917.05 521.52 921.17 522.25 925.19 522.92C924.09 513.37 921.39 504.01 917.23 495.33Z" />
						</g>
					</g>
					<g id="&lt;Group&gt;">
						<path id="&lt;Path&gt;" class="shp23" d="M956.42 690.96C961.69 652.18 988.02 611.95 985.78 592.84C984.97 581.62 980.56 570.87 974.41 561.44C968.27 552.02 960.44 543.82 952.27 536.08C946.52 530.63 940.48 525.33 933.41 521.75C921.57 515.77 907.61 515.11 894.54 517.38C881.47 519.65 869.07 524.68 856.78 529.67L846.61 493.85C836.61 509.17 831.29 530.66 830.65 558.33C787.24 679.31 809.58 747.62 957.06 775.71C970.68 739.53 970.47 711.28 956.42 690.96Z" />
					</g>
					<g id="&lt;Group&gt;">
						<path id="&lt;Path&gt;" class="shp3" d="M856.78 530.15C856.59 530.15 856.41 530.03 856.33 529.85C856.23 529.6 856.35 529.32 856.6 529.22C868.74 524.29 881.29 519.2 894.46 516.91C904.78 515.11 919.96 514.42 933.62 521.32C933.86 521.44 933.95 521.73 933.83 521.97C933.71 522.21 933.43 522.3 933.19 522.18C919.76 515.4 904.8 516.08 894.62 517.85C881.56 520.13 869.05 525.2 856.96 530.11C856.9 530.13 856.84 530.15 856.78 530.15Z" />
					</g>
					<g id="&lt;Group&gt;">
						<path id="&lt;Path&gt;" class="shp3" d="M978.72 622.92C978.66 622.92 978.6 622.91 978.55 622.89C978.3 622.79 978.18 622.51 978.27 622.27C982.45 611.44 986.18 600.39 985.3 592.89C984.56 582.54 980.76 572.06 974.01 561.7C970.57 556.42 966.34 551.13 961.07 545.53C960.89 545.33 960.9 545.03 961.09 544.85C961.28 544.67 961.58 544.68 961.77 544.87C967.07 550.52 971.34 555.85 974.81 561.18C981.65 571.67 985.5 582.31 986.25 592.8C987.16 600.48 983.38 611.67 979.17 622.61C979.09 622.8 978.91 622.92 978.72 622.92Z" />
					</g>
					<g id="&lt;Group&gt;">
						<path id="&lt;Path&gt;" class="shp3" d="M957.06 776.19C957.03 776.19 957 776.19 956.97 776.18C913.95 767.99 881.64 756.46 858.2 740.95C857.98 740.8 857.92 740.5 858.06 740.28C858.21 740.06 858.51 740 858.73 740.15C882.06 755.59 914.26 767.07 957.15 775.24C957.41 775.29 957.58 775.54 957.53 775.8C957.49 776.03 957.29 776.19 957.06 776.19Z" />
					</g>
					<g id="&lt;Group&gt;">
						<g id="&lt;Group&gt;">
							<path id="&lt;Path&gt;" class="shp24" d="M846.61 493.85C845.47 497.54 844.32 502.32 843.18 508.16C846.63 515.99 848.65 524.46 850.17 533.02C852.04 531.9 854.23 530.76 856.78 529.67L846.61 493.85Z" />
						</g>
						<g id="&lt;Group&gt;">
							<path id="&lt;Path&gt;" class="shp25" d="M839.75 542.37C841.29 539.35 844.76 536.23 850.17 533.02C848.65 524.46 846.63 515.99 843.18 508.16C841.44 517.06 839.7 529.26 839.75 542.37Z" />
						</g>
					</g>
					<g id="&lt;Group&gt;">
						<g id="&lt;Group&gt;">
							<path id="&lt;Path&gt;" class="shp26" d="M865.78 816.57C851.25 813.78 842.63 827.43 845.51 838.92L883.33 838.92C905.86 810.23 918.39 788 926.13 768.74C907 763.68 890.52 757.72 876.49 750.81C877.96 769.23 877.62 790.28 865.78 816.57Z" />
						</g>
						<g id="&lt;Group&gt;">
							<path id="&lt;Path&gt;" class="shp3" d="M880.85 827.43C880.23 823.29 878.63 819.2 875.73 816.18C873.6 813.96 870.96 812.24 868.08 811.16C867.37 812.94 866.6 814.74 865.78 816.57C872.29 818.43 877.55 821.93 880.85 827.43Z" />
						</g>
					</g>
					<g id="&lt;Group&gt;">
						<g id="&lt;Group&gt;">
							<path id="&lt;Path&gt;" class="shp26" d="M1079.87 767.73C1080.5 787.52 1073.48 811.46 1067.42 820.72C1049.86 813.38 1040.92 830.44 1043.79 838.92L1085.29 838.92C1104.1 818.87 1114.34 794.28 1119.23 779.43C1121.82 771.53 1122.55 763.16 1121.4 754.93L1120.62 749.26C1111.06 753.61 1095.46 759.58 1077.24 764.99L1079.87 767.73Z" />
						</g>
					</g>
					<g id="&lt;Group&gt;">
						<g id="&lt;Group&gt;">
							<path id="&lt;Path&gt;" class="shp3" d="M905.51 545.26C907.4 549.53 906.85 553.91 904.28 555.05C901.71 556.19 898.1 553.64 896.21 549.37C894.32 545.1 894.87 540.71 897.43 539.58C900 538.44 903.62 540.98 905.51 545.26Z" />
						</g>
						<g id="&lt;Group&gt;">
							<path id="&lt;Path&gt;" class="shp3" d="M945.98 541.41C947.6 545.07 947.25 548.78 945.18 549.7C943.12 550.61 940.14 548.38 938.51 544.71C936.89 541.05 937.25 537.34 939.31 536.43C941.38 535.51 944.36 537.74 945.98 541.41Z" />
						</g>
						<g id="&lt;Group&gt;">
							<path id="&lt;Path&gt;" class="shp3" d="M951.83 577.48C948.1 575.63 945.02 572.75 942.73 569.66C942.32 567.85 941.71 566.2 940.95 564.78C941.1 565.66 940.12 565.49 939.68 564.5C939.89 566.29 940.46 568.26 941.39 570.21C941.38 572.02 941.21 573.9 940.82 575.79C940.04 579.64 938.39 583.51 935.9 586.73C933.39 589.95 930.04 592.5 926.5 594.2C922.96 595.92 919.24 596.77 915.87 597.03C919.14 597.85 923.29 597.81 927.4 596.44C931.51 595.09 935.55 592.42 938.44 588.71C941.32 585 942.92 580.42 943.21 576.11C943.28 575.15 943.28 574.21 943.23 573.29C945.09 575.86 947.66 578.18 950.71 579.71C953.93 581.33 957.55 582.02 960.88 581.87C964.21 581.74 967.23 580.77 969.5 579.45C964.4 580.6 957.59 580.41 951.83 577.48Z" />
						</g>
						<g id="&lt;Group&gt;">
							<path id="&lt;Path&gt;" class="shp3" d="M945.99 555.48C938.33 555.46 930.67 557.62 924.16 561.65C923.07 562.33 922.86 563.87 923.82 564.72C927.7 568.16 933.65 570.57 939.02 571.46C941.5 571.87 944.02 570.62 945.08 568.34C946.6 565.05 947.55 561.07 947.86 557.59C947.96 556.48 947.1 555.49 945.99 555.48Z" />
						</g>
						<g id="&lt;Group&gt;">
							<path id="&lt;Path&gt;" class="shp25" d="M904.51 569.49C906.72 575.72 900.56 583.6 890.75 587.08C880.94 590.57 871.19 588.35 868.98 582.12C866.76 575.89 872.92 568.01 882.73 564.52C892.54 561.04 902.29 563.26 904.51 569.49Z" />
						</g>
						<g id="&lt;Group&gt;">
							<path id="&lt;Path&gt;" class="shp25" d="M969.54 557.39C969.93 561.22 966.6 564.7 962.12 565.16C957.63 565.61 953.68 562.87 953.29 559.04C952.9 555.2 956.23 551.73 960.71 551.27C965.2 550.82 969.15 553.56 969.54 557.39Z" />
						</g>
					</g>
					<g id="&lt;Group&gt;">
						<path id="&lt;Path&gt;" class="shp26" d="M930.46 697.91C928.18 694.83 923.26 696.66 923.56 700.48C924.34 710.27 925.81 719.83 928.09 729.33C929.37 734.69 922.95 738.6 918.78 735C899.29 718.16 883.29 697.14 871.23 674.29C869.4 670.84 864.17 672 864.02 675.9C863.57 687.15 864.8 698.54 867.72 709.4C869.18 714.82 862.65 718.89 858.43 715.2C845.15 703.58 834.18 689.3 826.47 673.43C818.7 657.46 814.26 639.9 813.37 622.17C800.41 704.01 837.85 753.01 957.06 775.71C963.35 758.99 965.7 744.54 965.95 732.53C952.4 722.88 940.31 711.23 930.46 697.91Z" />
					</g>
					<g id="&lt;Group&gt;">
						<g id="&lt;Group&gt;">
							<path id="&lt;Path&gt;" class="shp23" d="M1151.18 830.06C1151.7 822.87 1146.91 817.3 1143.12 814.07C1141.97 816.72 1140.79 818.98 1139.65 820.72C1145.2 823.24 1149.63 827.43 1151.18 830.06Z" />
						</g>
					</g>
					<g id="&lt;Group&gt;">
						<g id="&lt;Group&gt;">
							<path id="&lt;Path&gt;" class="shp22" d="M956.42 690.96C937.91 725.91 967.91 758.48 941.74 816.57C927.21 813.78 918.6 827.43 921.47 838.92L959.3 838.92C1004.78 780.98 1009.57 749.38 1016.28 715.38C1022.98 681.38 972.7 659.84 956.42 690.96Z" />
						</g>
						<g id="&lt;Group&gt;">
							<path id="&lt;Path&gt;" class="shp23" d="M956.81 827.43C956.19 823.29 954.59 819.2 951.69 816.18C949.56 813.96 946.92 812.24 944.04 811.16C943.33 812.94 942.56 814.74 941.74 816.57C948.25 818.43 953.51 821.93 956.81 827.43Z" />
						</g>
					</g>
					<g id="&lt;Group&gt;">
						<g id="&lt;Group&gt;">
							<path id="&lt;Path&gt;" class="shp3" d="M959.53 839.4L921.09 839.4L921 839.03C919.43 832.73 921.26 825.64 925.67 820.98C929.71 816.71 935.3 814.96 941.46 816.03C942.21 814.36 942.93 812.66 943.6 810.99C955.27 781.98 952.96 759.5 950.93 739.67C949.11 721.99 947.54 706.71 956 690.74C956.12 690.5 956.42 690.42 956.65 690.54C956.88 690.66 956.97 690.95 956.85 691.19C948.52 706.9 950.08 722.04 951.88 739.57C953.93 759.51 956.25 782.12 944.49 811.34C943.76 813.14 942.99 814.97 942.17 816.77L942.02 817.11L941.65 817.04C935.68 815.9 930.26 817.53 926.36 821.64C922.26 825.98 920.5 832.54 921.85 838.44L959.06 838.44C970.34 824.06 979.45 810.91 986.91 798.23C987.05 798 987.34 797.92 987.57 798.06C987.8 798.19 987.87 798.49 987.74 798.71C980.22 811.48 971.04 824.73 959.67 839.21L959.53 839.4Z" />
						</g>
						<g id="&lt;Group&gt;">
							<path id="&lt;Path&gt;" class="shp3" d="M926.13 839.4C925.9 839.4 925.7 839.23 925.66 839C923.51 827.06 929.07 821.35 931.19 820.29C931.42 820.18 931.71 820.27 931.83 820.51C931.95 820.74 931.85 821.03 931.62 821.15C929.67 822.13 924.55 827.47 926.6 838.83C926.65 839.09 926.48 839.34 926.22 839.39C926.19 839.39 926.16 839.4 926.13 839.4Z" />
						</g>
						<g id="&lt;Group&gt;">
							<path id="&lt;Path&gt;" class="shp3" d="M935.83 839.4C935.61 839.4 935.41 839.24 935.36 839.01C933.81 831.24 936.15 825.64 938.32 824.16C938.53 824.01 938.83 824.06 938.98 824.28C939.13 824.5 939.08 824.8 938.86 824.95C936.97 826.25 934.85 831.56 936.3 838.82C936.35 839.08 936.19 839.33 935.93 839.39C935.89 839.39 935.86 839.4 935.83 839.4Z" />
						</g>
					</g>
					<g id="&lt;Group&gt;">
						<g id="&lt;Group&gt;">
							<path id="&lt;Path&gt;" class="shp3" d="M1157.74 839.4L1115.69 839.4L1115.58 839.07C1113.87 834.04 1116.08 826.99 1120.72 822.67C1123.55 820.02 1129.73 816.22 1139.47 820.13C1145.74 810.24 1152.23 786.53 1151.62 767.75C1151.62 767.48 1151.82 767.26 1152.09 767.25C1152.37 767.25 1152.57 767.45 1152.58 767.72C1153.2 786.89 1146.47 811.18 1140.05 820.98L1139.84 821.32L1139.47 821.16C1132.47 818.23 1126.04 819.02 1121.37 823.37C1116.69 827.73 1115.19 834.36 1116.38 838.44L1157.32 838.44C1175.46 819.04 1185.65 795.57 1191.01 779.28C1193.55 771.55 1194.3 763.15 1193.17 755L1190.67 736.97C1189.54 728.87 1190.27 720.46 1192.76 712.63C1192.84 712.38 1193.1 712.24 1193.36 712.32C1193.61 712.4 1193.75 712.67 1193.67 712.92C1191.22 720.61 1190.51 728.88 1191.62 736.84L1194.12 754.87C1195.27 763.16 1194.51 771.71 1191.92 779.58C1186.51 796 1176.22 819.69 1157.88 839.24L1157.74 839.4Z" />
						</g>
						<g id="&lt;Group&gt;">
							<path id="&lt;Path&gt;" class="shp3" d="M1121.38 839.4C1121.15 839.4 1120.95 839.23 1120.91 839C1119.47 831.1 1122.98 824.9 1125.34 823.65C1125.57 823.53 1125.87 823.61 1125.99 823.85C1126.11 824.08 1126.03 824.37 1125.79 824.5C1124.09 825.4 1120.42 830.98 1121.85 838.83C1121.9 839.09 1121.72 839.34 1121.46 839.39C1121.43 839.39 1121.41 839.4 1121.38 839.4Z" />
						</g>
						<g id="&lt;Group&gt;">
							<path id="&lt;Path&gt;" class="shp3" d="M1130.36 839.4C1130.14 839.4 1129.94 839.25 1129.89 839.03C1128.06 831.21 1132.33 826.35 1132.51 826.15C1132.69 825.95 1132.99 825.94 1133.19 826.11C1133.39 826.29 1133.4 826.59 1133.23 826.79C1133.18 826.83 1129.11 831.5 1130.82 838.81C1130.88 839.07 1130.72 839.32 1130.46 839.38C1130.43 839.39 1130.39 839.4 1130.36 839.4Z" />
						</g>
					</g>
				</g>
			</g>
		</g>
	</g>
</svg>