<svg version="1.2" baseProfile="tiny-ps" xmlns="http://www.w3.org/2000/svg" viewBox="0 0 3000 2000" width="2000" height="1333">
	<title>abstract_581-ai</title>
	<defs>
		<linearGradient id="grd1" gradientUnits="userSpaceOnUse"  x1="1603.444" y1="542.577" x2="1603.444" y2="542.577">
			<stop offset="0" stop-color="#a1a1a1"  />
			<stop offset="1" stop-color="#a1a1a1"  />
		</linearGradient>
		<linearGradient id="grd2" gradientUnits="userSpaceOnUse"  x1="1590.167" y1="562.338" x2="1590.167" y2="562.338">
			<stop offset="0" stop-color="#cccccc"  />
			<stop offset="1" stop-color="#cccccc"  />
		</linearGradient>
	</defs>
	<style>
		tspan { white-space:pre }
		.shp0 { fill: #d93064 } 
		.shp1 { fill: #407bff } 
		.shp2 { fill: #e8bb60 } 
		.shp3 { fill: #c4983d } 
		.shp4 { fill: #1a1a1a } 
		.shp5 { fill: #79cec8 } 
		.shp6 { fill: #42928b } 
		.shp7 { fill: #ffcd6a } 
		.shp8 { fill: #460027 } 
		.shp9 { fill: #feaf9a } 
		.shp10 { fill: #fa3773 } 
		.shp11 { fill: #ffb2a6 } 
		.shp12 { fill: #1a0b1a } 
		.shp13 { fill: #c92d5d } 
		.shp14 { fill: #c45d4d } 
		.shp15 { fill: #db8476 } 
		.shp16 { fill: #8f4766 } 
		.shp17 { fill: #230014 } 
		.shp18 { fill: #f25e70 } 
		.shp19 { fill: #ffffff } 
		.shp20 { fill: #220f23 } 
		.shp21 { fill: #451f47 } 
		.shp22 { fill: #e6e6e6 } 
		.shp23 { fill: #fcf5ef } 
		.shp24 { fill: #f7d1bf } 
		.shp25 { fill: #bf3939 } 
		.shp26 { fill: #e36c6c } 
		.shp27 { fill: url(#grd1) } 
		.shp28 { fill: #d6c3df } 
		.shp29 { fill: #d8d5e5 } 
		.shp30 { fill: #ba9bc9 } 
		.shp31 { fill: url(#grd2) } 
		.shp32 { mix-blend-mode: soft-light;fill: #ffffff } 
	</style>
	<g id="woman feed a baby">
		<g id="woman feed a baby 1 ">
			<path id="&lt;Path&gt;" class="shp0" d="M2585.42 1888.46L563.55 1888.46C528.97 1888.46 500.68 1860.17 500.68 1825.59L500.68 1825.59C500.68 1791.01 528.97 1762.72 563.55 1762.72L2585.42 1762.72C2620 1762.72 2648.29 1791.01 2648.29 1825.59L2648.29 1825.59C2648.29 1860.17 2620 1888.46 2585.42 1888.46Z" />
			<path id="Color Fill 5" class="shp1" d="M2585.42 1888.46L563.55 1888.46C528.97 1888.46 500.68 1860.17 500.68 1825.59L500.68 1825.59C500.68 1791.01 528.97 1762.72 563.55 1762.72L2585.42 1762.72C2620 1762.72 2648.29 1791.01 2648.29 1825.59L2648.29 1825.59C2648.29 1860.17 2620 1888.46 2585.42 1888.46Z" />
			<g id="sofa">
				<g id="sofa 1 ">
					<g id="&lt;Group&gt;">
						<g id="&lt;Group&gt;">
							<path id="&lt;Path&gt;" class="shp2" d="M1562.28 789.39L757.3 789.39C686.57 789.39 628.7 847.26 628.7 917.99L628.7 1413.63C628.7 1429.65 641.81 1442.76 657.83 1442.76L1661.74 1442.76C1677.77 1442.76 1690.88 1429.65 1690.88 1413.63L1690.88 917.99C1690.88 847.26 1633.01 789.39 1562.28 789.39Z" />
							<path id="&lt;Path&gt;" class="shp3" d="M1541.04 1436.53C1520.38 1374.87 1500.28 1313.03 1480.4 1251.11C1460.4 1188.82 1440.63 1126.44 1420.73 1064.11C1400.9 1002.03 1380.95 939.98 1360.54 878.08C1350.77 848.48 1340.89 818.91 1330.88 789.39L814.9 789.39C805.54 814.35 793.8 838.4 782.84 862.66C781.19 866.31 779.55 869.97 777.94 873.65C777.26 875.2 776.58 876.76 775.91 878.32C775.7 878.8 774.36 881.97 774.28 882.15C771.6 888.59 769.02 895.07 766.65 901.63C762.29 913.7 758.78 925.97 756.66 938.63C756.59 939.17 756.35 940.89 756.27 941.7C756.13 943.17 756.02 944.64 755.94 946.11C755.8 948.82 755.78 951.54 755.89 954.25C755.96 955.78 756.09 957.3 756.22 958.82C756.24 959.05 756.25 959.23 756.26 959.39C756.3 959.57 756.35 959.8 756.41 960.1C756.88 962.47 757.38 964.81 758.08 967.13C758.54 968.65 759.23 970.12 759.65 971.64C758.58 967.78 759.66 971.59 760.26 972.77C761.35 974.94 762.59 977.02 763.96 979.01C764.09 979.2 764.72 980.02 765.1 980.53C765.24 980.69 765.35 980.83 765.4 980.88C766.26 981.83 767.1 982.79 768 983.71C768.92 984.65 769.87 985.56 770.85 986.44C771.41 986.93 773.97 988.9 773.42 988.56C778.69 992.23 784.16 995.33 790.03 998C790.19 998.08 790.32 998.13 790.44 998.19C790.6 998.25 790.8 998.32 791.04 998.41C791.97 998.75 792.89 999.12 793.82 999.46C795.55 1000.1 797.3 1000.71 799.05 1001.27C803.27 1002.64 807.54 1003.82 811.85 1004.85C828.42 1008.81 845.42 1011.2 862.24 1013.84C882.94 1017.1 906.12 1019.22 924.27 1030.72C944.18 1043.34 953.52 1065.51 960.32 1087.15C965.92 1104.93 970.01 1123.18 974.28 1141.31C980.14 1166.12 985.71 1190.99 991.07 1215.91C1001.98 1266.57 1012.05 1317.4 1021.99 1368.25C1026.84 1393.08 1031.67 1417.93 1036.54 1442.76L1543.14 1442.76C1542.44 1440.68 1541.74 1438.61 1541.04 1436.53Z" />
							<path id="&lt;Path&gt;" class="shp4" d="M772.25 1825.59L740.83 1825.59L745.59 1593.05L861.27 1593.05L772.25 1825.59Z" />
							<path id="&lt;Path&gt;" class="shp4" d="M1577.1 1825.59L1608.53 1825.59L1606.98 1593.05L1491.29 1593.05L1577.1 1825.59Z" />
							<path id="&lt;Path&gt;" class="shp4" d="M914.97 1825.59L886.12 1825.59L887.15 1665.57L966.76 1665.57L914.97 1825.59Z" />
							<path id="&lt;Path&gt;" class="shp4" d="M1428.62 1825.59L1457.48 1825.59L1459.29 1665.57L1379.68 1665.57L1428.62 1825.59Z" />
							<path id="&lt;Path&gt;" class="shp5" d="M1496.8 1645.17L865.85 1645.17C824.7 1645.17 791.03 1620.99 791.03 1591.44L746.14 1320.68C737.9 1290.7 779.81 1266.95 820.96 1266.95L1424.06 1266.95C1525.37 1266.95 1514.81 1270.77 1574.48 1369.5L1571.62 1591.44C1571.62 1620.99 1537.95 1645.17 1496.8 1645.17Z" />
							<path id="&lt;Path&gt;" class="shp6" d="M1511.08 1665.57L857.3 1665.57C822.42 1665.57 793.89 1637.03 793.89 1602.16L793.89 1392.94C793.89 1358.07 822.42 1329.54 857.3 1329.54L1511.08 1329.54C1545.95 1329.54 1574.48 1358.07 1574.48 1392.94L1574.48 1602.16C1574.48 1637.03 1545.95 1665.57 1511.08 1665.57Z" />
							<path id="&lt;Path&gt;" class="shp7" d="M1689.29 1137.92C1643.11 1137.92 1604.14 1172.28 1598.38 1218.1C1585.17 1323.09 1563.38 1497.09 1560.54 1524.58C1556.43 1564.38 1535.03 1578.19 1508.48 1585.3C1460.35 1598.2 920.81 1599.06 869.47 1585.3C842.91 1578.19 821.52 1564.38 817.41 1524.58C814.57 1497.09 792.77 1323.09 779.57 1218.1C773.8 1172.28 734.84 1137.92 688.66 1137.92L580.44 1137.92C524.59 1137.92 481.72 1187.45 489.77 1242.72C507.83 1366.74 540.56 1564.18 573.55 1625.62C622.87 1717.47 751.65 1701.14 932.49 1701.14C1042.54 1701.14 1346.49 1701.14 1445.46 1701.14C1626.29 1701.14 1755.07 1717.47 1804.39 1625.62C1837.38 1564.18 1870.11 1366.74 1888.17 1242.72C1896.22 1187.45 1853.35 1137.92 1797.5 1137.92L1689.29 1137.92Z" />
						</g>
					</g>
				</g>
			</g>
			<g id="woman and baby">
				<path id="&lt;Path&gt;" class="shp8" d="M1171.7 711.58C1203.42 789.44 1208.77 874.75 1209.46 959.26L1456.59 959.26C1460.46 889.21 1450.14 818.07 1437.18 748.73C1419.81 655.84 1397.67 562.88 1398.67 468.39C1399.14 424.19 1404.68 379.94 1400.92 335.9C1397.15 291.87 1382.67 246.59 1349.97 216.86L1078.88 300.82C1053.66 375.92 1055.12 459.69 1082.93 533.87C1106.2 595.92 1146.7 650.2 1171.7 711.58Z" />
				<g id="&lt;Group&gt;">
					<path id="&lt;Path&gt;" class="shp9" d="M1389.47 645.61C1465.99 811.87 1510.89 906.1 1524.16 928.32C1544.06 961.64 1523.65 1003.93 1504.09 1017.35C1479.57 1034.17 1443.8 984.67 1436.15 963.43C1429.19 944.14 1380.44 851.4 1289.89 685.19C1332.01 625.97 1365.2 612.78 1389.47 645.61Z" />
					<path id="&lt;Path&gt;" class="shp10" d="M1479.17 869.79C1494.51 859.72 1509.73 849.51 1524.81 839.17C1479.12 760.19 1433.43 681.22 1387.74 602.25C1379.98 588.82 1370.06 573.96 1352.25 570.96C1338.43 568.63 1323.61 574.64 1313.57 583.38C1296.27 598.46 1288.92 662.5 1288.43 689.65C1316.14 789.39 1348.62 826.91 1390.88 922.58C1423.43 903.02 1447.65 890.5 1479.17 869.79Z" />
					<path id="Color Fill 2" class="shp1" d="M1479.17 869.79C1494.51 859.72 1509.73 849.51 1524.81 839.17C1479.12 760.19 1433.43 681.22 1387.74 602.25C1379.98 588.82 1370.06 573.96 1352.25 570.96C1338.43 568.63 1323.61 574.64 1313.57 583.38C1296.27 598.46 1288.92 662.5 1288.43 689.65C1316.14 789.39 1348.62 826.91 1390.88 922.58C1423.43 903.02 1447.65 890.5 1479.17 869.79Z" />
				</g>
				<g id="&lt;Group&gt;">
					<path id="&lt;Path&gt;" class="shp9" d="M959.02 638.25C857.05 790.23 797.74 876.13 781.11 895.95C756.17 925.69 769.6 970.68 786.78 987.04C808.31 1007.54 851.49 964.36 862.42 944.6C872.35 926.67 935.23 842.85 1051.04 693.15C1018.87 627.98 988.19 609.68 959.02 638.25Z" />
					<path id="&lt;Path&gt;" class="shp10" d="M834.83 845.32C821.28 832.94 807.88 820.44 794.63 807.83C852.3 737.12 909.96 666.41 967.62 595.7C977.42 583.69 989.56 570.58 1007.63 570.46C1021.64 570.36 1035.32 578.64 1043.84 588.87C1058.53 606.51 1055.6 670.9 1051.78 697.78C1008.57 791.86 970.54 823.73 913.61 911.47C884.58 886.98 862.65 870.77 834.83 845.32Z" />
					<path id="Color Fill 4" class="shp1" d="M834.83 845.32C821.28 832.94 807.88 820.44 794.63 807.83C852.3 737.12 909.96 666.41 967.62 595.7C977.42 583.69 989.56 570.58 1007.63 570.46C1021.64 570.36 1035.32 578.64 1043.84 588.87C1058.53 606.51 1055.6 670.9 1051.78 697.78C1008.57 791.86 970.54 823.73 913.61 911.47C884.58 886.98 862.65 870.77 834.83 845.32Z" />
				</g>
				<g id="&lt;Group&gt;">
					<path id="&lt;Path&gt;" class="shp11" d="M1374.37 1852.22C1372.39 1847.1 1369.71 1842.29 1367.1 1837.76L1315.34 1747.92C1310.94 1709.11 1308.14 1683.85 1306.95 1672.16C1306.11 1663.98 1301.04 1657.88 1295 1657.77L1264.22 1657.17C1257.45 1657.04 1251.89 1664.46 1251.81 1673.71L1248.55 1800.53C1252.9 1818.02 1257.79 1835.26 1263.15 1852.22L1374.37 1852.22Z" />
					<path id="&lt;Path&gt;" class="shp4" d="M1375.88 1863.42C1387.5 1851.96 1390.81 1840.75 1385.84 1829.78C1380.86 1818.81 1367.86 1797.56 1346.84 1766.04C1347.62 1756.21 1346.24 1749.52 1342.69 1745.97C1337.37 1740.66 1277.98 1739.19 1277.98 1745.97C1277.98 1750.5 1277.98 1756.63 1277.98 1764.38L1256.81 1760.27L1252.26 1736.17C1247.5 1732.57 1245.11 1734.08 1245.11 1740.72C1245.11 1747.36 1245.33 1788.26 1245.76 1863.42L1375.88 1863.42Z" />
				</g>
				<path id="&lt;Path&gt;" class="shp12" d="M1048.05 1038.9C1006.36 1109.81 984.69 1154.73 983.06 1173.66L983.06 1298.2L1332.3 1298.2C1366.63 1282.96 1395.5 1199.11 1381.63 1173.66C1372.39 1156.7 1349.42 1110.54 1312.73 1035.18L1048.05 1038.9Z" />
				<g id="&lt;Group&gt;">
					<path id="&lt;Path&gt;" class="shp11" d="M973.54 1852.22C975.52 1847.1 978.2 1842.29 980.81 1837.76L1032.57 1747.92C1036.97 1709.11 1039.77 1683.85 1040.96 1672.16C1041.8 1663.98 1046.87 1657.88 1052.91 1657.77L1083.69 1657.17C1090.46 1657.04 1096.02 1664.46 1096.1 1673.71L1099.36 1800.53C1095.01 1818.02 1090.12 1835.26 1084.76 1852.22L973.54 1852.22Z" />
					<path id="&lt;Path&gt;" class="shp4" d="M972.03 1863.42C960.41 1851.96 957.1 1840.75 962.07 1829.78C967.05 1818.81 980.05 1797.56 1001.07 1766.04C1000.29 1756.21 1001.67 1749.52 1005.22 1745.97C1010.54 1740.66 1069.93 1739.19 1069.93 1745.97C1069.93 1750.5 1069.93 1756.63 1069.93 1764.38L1091.1 1760.27L1095.65 1736.17C1100.41 1732.57 1102.8 1734.08 1102.8 1740.72C1102.8 1747.36 1102.58 1788.26 1102.15 1863.42L972.03 1863.42Z" />
				</g>
				<g id="&lt;Group&gt;">
					<g id="&lt;Group&gt;">
						<path id="&lt;Path&gt;" class="shp10" d="M1337.77 1062.94C1314 999.22 1328.25 874.57 1332.38 851.4C1350.93 828.89 1377.4 800.03 1373.86 770.59C1372.27 757.34 1367.41 744.73 1362.23 732.44C1339.45 678.41 1349.39 630.14 1334.22 573.22L1226.23 557.9L1116.17 557.9L1008.18 573.22C993.01 630.14 1002.95 678.41 980.17 732.44C974.99 744.73 970.13 757.34 968.54 770.59C965 800.03 991.47 828.89 1010.02 851.4C1014.15 874.57 1028.4 999.22 1004.63 1062.94C1068.73 1086.39 1127.07 1098.12 1179.64 1098.12C1232.21 1098.12 1284.92 1086.39 1337.77 1062.94Z" />
						<path id="Color Fill 1" class="shp1" d="M1337.77 1062.94C1314 999.22 1328.25 874.57 1332.38 851.4C1350.93 828.89 1377.4 800.03 1373.86 770.59C1372.27 757.34 1367.41 744.73 1362.23 732.44C1339.45 678.41 1349.39 630.14 1334.22 573.22L1226.23 557.9L1116.17 557.9L1008.18 573.22C993.01 630.14 1002.95 678.41 980.17 732.44C974.99 744.73 970.13 757.34 968.54 770.59C965 800.03 991.47 828.89 1010.02 851.4C1014.15 874.57 1028.4 999.22 1004.63 1062.94C1068.73 1086.39 1127.07 1098.12 1179.64 1098.12C1232.21 1098.12 1284.92 1086.39 1337.77 1062.94Z" />
						<path id="Color Fill 3" class="shp1" d="M1337.77 1062.94C1314 999.22 1328.25 874.57 1332.38 851.4C1350.93 828.89 1377.4 800.03 1373.86 770.59C1372.27 757.34 1367.41 744.73 1362.23 732.44C1339.45 678.41 1349.39 630.14 1334.22 573.22L1226.23 557.9L1116.17 557.9L1008.18 573.22C993.01 630.14 1002.95 678.41 980.17 732.44C974.99 744.73 970.13 757.34 968.54 770.59C965 800.03 991.47 828.89 1010.02 851.4C1014.15 874.57 1028.4 999.22 1004.63 1062.94C1068.73 1086.39 1127.07 1098.12 1179.64 1098.12C1232.21 1098.12 1284.92 1086.39 1337.77 1062.94Z" />
						<path id="&lt;Path&gt;" class="shp13" d="M1332.38 851.4C1350.93 828.89 1377.4 800.03 1373.86 770.59C1372.27 757.34 1367.41 744.73 1362.23 732.44C1356.17 718.07 1352.44 704.11 1349.92 690.28C1336.3 722.07 1367.76 760.33 1353.23 792.29C1345.19 811.58 1326.61 834.63 1304.1 839.45C1209.26 858.74 1114.41 866.78 1029.22 833.02C1003.5 821.77 977.78 792.83 985.81 759.07C991.54 732.72 993.99 708 993.77 682.59C991.28 698.93 987.35 715.4 980.17 732.44C974.99 744.73 970.13 757.34 968.54 770.59C965 800.03 991.47 828.89 1010.02 851.4C1014.15 874.57 1028.4 999.22 1004.63 1062.94C1009.99 1064.9 1017.1 1067.27 1025.97 1070.05C1042.81 1020.8 1031.82 957.26 1040.47 905.36C1042.08 889.28 1051.72 874.81 1069.4 876.42C1141.74 878.03 1210.87 869.99 1284.81 884.46C1296.06 886.07 1302.49 900.53 1302.49 911.79C1302.49 964.09 1312.23 1013.61 1336.84 1060.35C1314.38 995.91 1328.3 874.26 1332.38 851.4Z" />
						<path id="Color Fill 9" class="shp1" d="M1332.38 851.4C1350.93 828.89 1377.4 800.03 1373.86 770.59C1372.27 757.34 1367.41 744.73 1362.23 732.44C1356.17 718.07 1352.44 704.11 1349.92 690.28C1336.3 722.07 1367.76 760.33 1353.23 792.29C1345.19 811.58 1326.61 834.63 1304.1 839.45C1209.26 858.74 1114.41 866.78 1029.22 833.02C1003.5 821.77 977.78 792.83 985.81 759.07C991.54 732.72 993.99 708 993.77 682.59C991.28 698.93 987.35 715.4 980.17 732.44C974.99 744.73 970.13 757.34 968.54 770.59C965 800.03 991.47 828.89 1010.02 851.4C1014.15 874.57 1028.4 999.22 1004.63 1062.94C1009.99 1064.9 1017.1 1067.27 1025.97 1070.05C1042.81 1020.8 1031.82 957.26 1040.47 905.36C1042.08 889.28 1051.72 874.81 1069.4 876.42C1141.74 878.03 1210.87 869.99 1284.81 884.46C1296.06 886.07 1302.49 900.53 1302.49 911.79C1302.49 964.09 1312.23 1013.61 1336.84 1060.35C1314.38 995.91 1328.3 874.26 1332.38 851.4Z" />
					</g>
					<g id="&lt;Group&gt;">
						<g id="&lt;Group&gt;">
							<path id="&lt;Path&gt;" class="shp9" d="M1077.47 575.58C1077.47 610.47 1076.69 701.71 1163.7 701.71C1250.72 701.71 1264.93 610.47 1264.93 575.58C1257.1 563.79 1224.18 557.9 1166.17 557.9C1108.16 557.9 1078.59 563.79 1077.47 575.58Z" />
						</g>
						<g id="&lt;Group&gt;">
							<path id="&lt;Path&gt;" class="shp9" d="M1228.58 466.34L1228.58 512.72L1228.58 604.41L1107.77 604.41L1107.77 493.64L1107.77 466.34L1228.58 466.34Z" />
							<path id="&lt;Path&gt;" class="shp14" d="M1107.77 466.34L1228.58 466.34L1228.58 512.72L1228.58 546.27C1185.67 543.07 1142.75 529.52 1107.77 503.75L1107.77 493.64L1107.77 466.34Z" />
						</g>
					</g>
					<g id="&lt;Group&gt;">
						<g id="&lt;Group&gt;">
							<path id="&lt;Path&gt;" class="shp9" d="M1069.82 356.6C1054.3 421.2 1093.98 496.19 1150.97 509.89C1207.97 523.58 1277.39 474.8 1292.9 410.2C1293.25 408.77 1303.37 379.96 1323.28 323.77C1337.33 265.29 1301.31 206.49 1242.83 192.43L1212.87 185.24C1154.47 171.21 1095.73 207.12 1081.59 265.51C1073.69 298.11 1070.42 354.1 1069.82 356.6Z" />
							<path id="&lt;Path&gt;" class="shp15" d="M1264.34 435.62C1231.97 499.04 1158.55 510.91 1093.43 468.74C1108.25 489.17 1128.22 504.42 1150.97 509.89C1207.97 523.58 1277.39 474.8 1292.9 410.2C1293.25 408.77 1303.37 379.96 1323.28 323.77C1329.11 299.49 1326.29 275.17 1316.85 254.01C1307.57 316.21 1293.44 377.4 1264.34 435.62Z" />
						</g>
						<g id="&lt;Group&gt;">
							<g id="&lt;Group&gt;">
								<path id="&lt;Path&gt;" class="shp15" d="M1343.58 450.42C1343.95 449.07 1344.28 447.72 1344.58 446.38C1346.06 439.71 1346.88 432.38 1343.67 426.36C1340.42 420.26 1333.72 416.83 1327.14 414.72C1310.09 409.26 1291.04 410.49 1274.73 417.83C1273.64 435.72 1279 456.72 1293.88 468.05C1305.75 477.09 1324.38 477.92 1334.83 467.26C1339.31 462.68 1341.88 456.65 1343.58 450.42Z" />
								<path id="&lt;Path&gt;" class="shp9" d="M1040.88 312.87C1040.48 314.2 1040.1 315.54 1039.74 316.87C1037.97 323.44 1036.62 330.62 1038.36 336.22C1040.12 341.89 1044.68 344.72 1049.29 346.26C1061.24 350.27 1075.34 347.63 1088.05 339.28C1090.68 321.84 1088.89 301.87 1079.14 292.01C1071.36 284.13 1057.78 284.74 1049.03 295.87C1045.27 300.65 1042.77 306.7 1040.88 312.87Z" />
							</g>
							<g id="&lt;Group&gt;">
								<path id="&lt;Path&gt;" class="shp8" d="M1394.52 263.23C1397.22 285.33 1392.67 308.63 1385.2 329.96C1378.74 348.39 1292.48 454.98 1274.59 463.68C1280.56 428.85 1322.6 308.52 1296 259.2C1268.44 290.54 1226.46 304.45 1185.78 313.7C1143.16 323.39 1099.27 322.73 1055.64 320.3C1064.05 288.83 1073.34 257.56 1087.03 228.08C1103.87 191.78 1127.96 157.96 1160.86 135.82C1193.75 113.68 1236.24 104.51 1273.21 117.51C1307.16 129.46 1334.24 162.11 1336.73 198.31C1359.39 200.9 1380.36 218.92 1389.04 241.16C1391.83 248.29 1393.59 255.69 1394.52 263.23Z" />
								<path id="&lt;Path&gt;" class="shp16" d="M1286.71 194.73C1299.77 192.18 1312.65 189.54 1325.24 187.12C1312.42 194.99 1298.65 202.06 1284.24 208.17C1284.89 203.66 1285.72 199.19 1286.71 194.73Z" />
								<path id="&lt;Path&gt;" class="shp16" d="M1105.99 193.53C1156.76 213.58 1212.81 208.14 1266.8 198.46C1265.8 204.2 1265.05 209.98 1264.49 215.79C1208.68 235.19 1145.72 239.75 1091.15 219.59C1095.63 210.65 1100.57 201.92 1105.99 193.53Z" />
							</g>
						</g>
						<path id="&lt;Path&gt;" class="shp8" d="M1092.75 245.44C1061.56 300.67 1042.31 339.2 1023.6 399.8C1004.89 460.4 999.65 527.07 1021.08 586.77C1007.35 483.91 1037.52 375.93 1102.56 295.08L1092.75 245.44Z" />
						<g id="&lt;Group&gt;">
							<g id="&lt;Group&gt;">
								<path id="&lt;Path&gt;" class="shp17" d="M1118.72 364.45C1124.64 365.97 1130.74 362.36 1132.25 356.44L1135.41 344.12C1136.93 338.2 1133.32 332.1 1127.39 330.59C1121.47 329.07 1115.38 332.67 1113.86 338.6L1110.7 350.91C1109.19 356.84 1112.79 362.93 1118.72 364.45Z" />
								<path id="&lt;Path&gt;" class="shp17" d="M1129.81 331.61C1124.93 329.17 1119.83 328.91 1114.53 330.86C1109.23 332.8 1105.24 332.5 1102.56 329.96C1105.34 334.51 1109.26 336.3 1114.31 335.35C1119.36 334.4 1122.85 334.67 1124.78 336.17L1129.81 331.61Z" />
							</g>
							<g id="&lt;Group&gt;">
								<path id="&lt;Path&gt;" class="shp17" d="M1234.32 399.06C1228.46 397.29 1225.12 391.06 1226.89 385.2L1230.56 373.03C1232.33 367.17 1238.57 363.83 1244.42 365.6C1250.28 367.37 1253.63 373.6 1251.86 379.46L1248.18 391.63C1246.41 397.49 1240.18 400.83 1234.32 399.06Z" />
								<path id="&lt;Path&gt;" class="shp17" d="M1241.83 365.22C1247.27 365.66 1251.76 368.08 1255.29 372.48C1258.82 376.89 1262.39 378.7 1265.99 377.92C1261.26 380.36 1256.98 379.87 1253.15 376.44C1249.32 373.01 1246.2 371.44 1243.77 371.72L1241.83 365.22Z" />
							</g>
							<path id="&lt;Path&gt;" class="shp17" d="M1237.23 348.77C1241.13 350.18 1251.31 353.42 1267.77 358.49C1269.35 356.54 1268.37 355.25 1265.98 353.67C1258.23 348.55 1250.44 342.8 1241.27 340.29C1239.86 339.9 1238.61 339.68 1237.2 340.18C1236.04 340.58 1234.86 341.53 1234.42 342.58C1233.55 344.67 1234.41 347.99 1237.23 348.77Z" />
							<path id="&lt;Path&gt;" class="shp17" d="M1142.02 320.27C1137.99 319.31 1127.7 316.42 1111.16 311.62C1110.91 309.13 1112.44 308.58 1115.3 308.57C1124.59 308.55 1134.26 308.03 1143.3 310.97C1144.7 311.42 1145.86 311.92 1146.76 313.11C1147.51 314.08 1147.98 315.52 1147.77 316.65C1147.35 318.88 1144.81 321.17 1142.02 320.27Z" />
						</g>
						<g id="&lt;Group&gt;">
							<path id="&lt;Path&gt;" class="shp18" d="M1246.23 420.07C1246.23 429.82 1238.33 437.73 1228.58 437.73C1218.83 437.73 1210.92 429.82 1210.92 420.07C1210.92 410.32 1218.83 402.41 1228.58 402.41C1238.33 402.41 1246.23 410.32 1246.23 420.07Z" />
							<path id="&lt;Path&gt;" class="shp18" d="M1125.42 382.25C1125.42 392.01 1117.52 399.91 1107.77 399.91C1098.01 399.91 1090.11 392.01 1090.11 382.25C1090.11 372.5 1098.01 364.6 1107.77 364.6C1117.52 364.6 1125.42 372.5 1125.42 382.25Z" />
							<path id="&lt;Path&gt;" class="shp15" d="M1164.83 381.26C1161.99 386.02 1159.15 392.19 1161.23 397.79C1162.97 402.49 1167.74 406.32 1172.94 404.95C1175.45 404.28 1174.38 400.39 1171.87 401.06C1168.58 401.93 1165.63 398.82 1164.85 395.88C1163.7 391.52 1166.15 386.92 1168.31 383.3C1169.65 381.06 1166.16 379.03 1164.83 381.26Z" />
						</g>
						<path id="&lt;Path&gt;" class="shp19" d="M1208.42 422.6C1172.11 418.29 1140.59 404.52 1122.93 395.57C1120.6 412.17 1136.28 436.04 1153.98 441.82C1177.17 449.39 1196.29 440.74 1208.42 422.6Z" />
					</g>
				</g>
				<path id="&lt;Path&gt;" class="shp20" d="M1010.08 1719.46C967.11 1442.9 943.55 1269.81 939.39 1200.18C933.14 1095.75 978.71 1087.88 1003.71 1080.28C1036.45 1070.32 1116.58 1093.76 1124.22 1193.49C1129.31 1259.98 1129.31 1435.3 1124.22 1719.46L1010.08 1719.46Z" />
				<path id="&lt;Path&gt;" class="shp21" d="M1003.71 1080.28C980.55 1087.32 939.74 1094.61 938.83 1178.69C943.13 1154.47 949.73 1129.47 960.24 1118.96C987.16 1092.04 1007.24 1086.94 1039.24 1089.94C1085.24 1095.94 1106.24 1151.68 1113.24 1192.68C1118.08 1222.58 1122.77 1252.15 1127.09 1281.51C1126.58 1243.71 1125.68 1212.6 1124.22 1193.49C1116.58 1093.76 1036.45 1070.32 1003.71 1080.28Z" />
				<path id="&lt;Path&gt;" class="shp20" d="M1232.98 1727.62C1230.9 1443.59 1231.83 1266.77 1235.77 1197.14C1241.69 1092.71 1301.93 1089.42 1326.73 1089.42C1351.52 1089.42 1404.06 1113.66 1400 1213.39C1397.3 1279.88 1376.57 1451.29 1337.81 1727.62L1232.98 1727.62Z" />
				<path id="&lt;Path&gt;" class="shp21" d="M1326.73 1089.42C1304.76 1089.42 1254.97 1092.02 1239.79 1165.22C1248.33 1150.44 1259.19 1128.4 1276.24 1116.08C1301.71 1098.12 1329.74 1099.86 1350.74 1110.86C1372.53 1122.27 1382.2 1160.67 1381.33 1184.68C1374.37 1375.11 1339.52 1548.15 1311.7 1727.62L1337.81 1727.62C1376.57 1451.29 1397.3 1279.88 1400 1213.39C1404.06 1113.66 1351.52 1089.42 1326.73 1089.42Z" />
				<g id="&lt;Group&gt;">
					<g id="&lt;Group&gt;">
						<path id="&lt;Path&gt;" class="shp22" d="M868.37 871.14C871.5 893.09 886.39 929.93 931.86 958.93C943.19 966.16 1118.34 1005.43 1154.46 1000.87C1183.05 997.26 1200.67 979.59 1222.01 961.57C1240.79 945.72 1250.62 912.04 1242.64 890.35C1237.12 886.44 1206.19 898.73 1194.04 899.14C1181.88 899.54 1169.89 896.77 1158.09 894.02C1094.28 879.13 1030.46 864.24 966.65 849.35C938.12 842.7 902.04 807.85 876.99 793.54C870.92 809.91 861.22 821.11 868.37 871.14Z" />
						<g id="&lt;Group&gt;">
							<path id="&lt;Path&gt;" class="shp23" d="M1234.66 926.71L1234.66 926.71C1212.93 978.06 1153.13 1002.3 1101.77 980.56L936.16 910.47C884.81 888.74 860.57 828.93 882.31 777.58L882.31 777.58C904.05 726.22 963.85 701.99 1015.2 723.72L1180.81 793.82C1232.17 815.55 1256.4 875.35 1234.66 926.71Z" />
							<g id="&lt;Group&gt;">
								<g id="&lt;Group&gt;">
									<path id="&lt;Path&gt;" class="shp24" d="M1059.67 852.65L1059.67 852.65C1044.99 887.33 1004.6 903.7 969.91 889.02L945.56 878.71C910.88 864.03 894.51 823.64 909.19 788.95L909.19 788.95C923.87 754.27 964.26 737.9 998.95 752.58L1023.3 762.89C1057.98 777.57 1074.35 817.96 1059.67 852.65Z" />
									<g id="&lt;Group&gt;">
										<path id="&lt;Path&gt;" class="shp8" d="M936.04 774.27C948.2 779.42 953.89 793.45 948.74 805.62C943.59 817.78 929.56 823.46 917.4 818.32C905.24 813.17 899.55 799.14 904.7 786.97C909.84 774.81 923.88 769.12 936.04 774.27Z" />
										<path id="&lt;Path&gt;" class="shp8" d="M942.42 759.19C949.17 762.04 952.33 769.83 949.47 776.58C946.61 783.33 938.83 786.48 932.08 783.62C925.33 780.77 922.18 772.98 925.03 766.24C927.89 759.49 935.68 756.33 942.42 759.19Z" />
									</g>
									<g id="&lt;Group&gt;">
										<path id="&lt;Path&gt;" class="shp25" d="M1039.79 844.23C1038.34 847.67 1034.33 849.29 1030.9 847.84L1013.4 840.43C1009.96 838.97 1008.34 834.97 1009.79 831.53C1011.25 828.1 1015.25 826.48 1018.69 827.93L1036.19 835.34C1039.62 836.79 1041.25 840.79 1039.79 844.23Z" />
										<path id="&lt;Path&gt;" class="shp26" d="M1031.46 848.05C1034.76 849.11 1038.42 847.48 1039.79 844.23C1041.15 841.01 1039.82 837.3 1036.83 835.65C1034.68 835.77 1032.91 837.47 1031.53 840.73C1030.15 844 1030.12 846.43 1031.46 848.05Z" />
									</g>
									<path id="&lt;Path&gt;" class="shp8" d="M977.93 802.05C982.79 803.75 988.6 801.54 990.64 796.68C992.66 791.88 990.25 786.05 985.59 783.86C982.97 782.63 980.48 786.45 983.13 787.7C985.76 788.93 987.62 791.81 986.5 794.76C985.41 797.65 982.01 798.65 979.28 797.7C976.52 796.73 975.16 801.08 977.93 802.05Z" />
									<path id="&lt;Path&gt;" class="shp8" d="M959.73 841.99C964.59 843.68 970.4 841.48 972.44 836.62C974.46 831.82 972.05 825.98 967.39 823.8C964.77 822.57 962.28 826.39 964.93 827.63C967.56 828.87 969.42 831.75 968.3 834.7C967.21 837.59 963.81 838.59 961.08 837.63C958.32 836.67 956.96 841.02 959.73 841.99Z" />
									<path id="&lt;Path&gt;" class="shp15" d="M998.81 823.56C1002.87 823.29 1002.14 819 1000.42 816C998.69 812.99 993.79 812.39 992.17 815.86C991.81 816.65 996.56 816.76 997.67 818.76C998.79 820.77 997.94 823.61 998.81 823.56Z" />
								</g>
							</g>
						</g>
					</g>
				</g>
				<g id="&lt;Group&gt;">
					<g id="&lt;Group&gt;">
						<g id="&lt;Group&gt;">
							<path id="&lt;Path&gt;" class="shp9" d="M1011.64 891.33C1013.38 888.36 1017.94 889.02 1020.85 890.86C1028.09 895.45 1031.54 904.44 1031.78 913.01C1032.02 921.58 1029.56 929.96 1027.36 938.24C1026.68 940.81 1026.02 943.4 1025.46 946.01C1030.21 948.71 1034.96 951.4 1039.7 954.09C1055.25 947.62 1070.79 941.16 1086.33 934.69C1098.67 923.33 1111 911.98 1123.33 900.62C1125.27 898.83 1127.65 896.91 1130.24 897.41C1133.14 897.97 1134.65 901.49 1134.1 904.39C1133.54 907.29 1131.54 909.67 1129.6 911.9C1126.09 915.92 1122.57 919.92 1119.02 923.9C1122.22 919.24 1127.85 921.49 1129.61 925.36C1130.89 928.15 1130.44 931.48 1129.15 934.27C1127.86 937.05 1125.81 939.4 1123.78 941.7C1119.86 946.15 1115.95 950.6 1112.03 955.05C1114.11 953.87 1115.97 952.81 1117.6 951.88C1118.84 951.17 1120.52 951.58 1121.53 952.6C1122.54 953.61 1122.95 955.1 1122.96 956.53C1122.99 960.16 1120.71 963.37 1118.36 966.14C1112.63 972.91 1105.89 978.83 1098.44 983.64C1090.06 987.23 1081.69 990.84 1073.31 994.44C1079.16 996.3 1085.75 995.96 1091.93 995.11C1099.91 994 1108.02 992.19 1115.92 993.73C1117.99 994.13 1120.29 995.02 1120.96 997.02C1121.72 999.3 1119.76 1001.74 1117.48 1002.51C1115.19 1003.27 1112.71 1002.88 1110.31 1002.73C1100.29 1002.1 1090.34 1008.22 1080.32 1008.82C1075.58 1009.1 1070.91 1008.84 1066.29 1008.17C1056.2 1008.05 1046.11 1007.93 1036.03 1007.81C1027.98 1007.72 1019.82 1007.6 1012.11 1005.3C1004.4 1002.99 997.08 998.17 993.62 990.91C989.44 982.12 991.6 971.62 995.33 962.64C997.86 956.55 1001.08 950.7 1003.52 944.6C1003.91 939.07 1005.54 933.43 1007.34 928.16C1010.64 918.48 1014.49 908.19 1011.93 898.28C1011.34 895.98 1010.44 893.4 1011.64 891.33Z" />
							<g id="&lt;Group&gt;">
								<path id="&lt;Path&gt;" class="shp15" d="M1058.95 964.61C1073.27 960.58 1087.55 955.84 1100.57 948.53C1102.1 947.67 1103.51 946.9 1104.69 945.61C1105.84 944.36 1106.88 943.02 1107.91 941.68C1110.52 938.29 1112.99 934.78 1115.42 931.26C1116.97 929.03 1118.88 921.99 1118.04 923.25C1114.53 928.5 1110.94 933.71 1107.17 938.78C1106.06 940.26 1104.94 941.74 1103.74 943.15C1103.38 943.58 1103.01 944 1102.61 944.4C1102.44 944.57 1102.26 944.74 1102.08 944.9C1101.67 945.25 1102.26 944.84 1101.5 945.28C1095.27 948.96 1088.67 952.01 1081.93 954.64C1074.26 957.64 1066.37 960.08 1058.45 962.31C1057 962.72 1057.49 965.02 1058.95 964.61Z" />
								<path id="&lt;Path&gt;" class="shp15" d="M1070.53 982.55C1079.44 978.55 1088.41 974.68 1097.4 970.89C1098.8 970.3 1099.73 969.23 1100.8 968.16C1103.19 965.79 1105.55 963.38 1107.9 960.98C1109.54 959.3 1112.3 953.08 1111.25 954.17C1107.57 957.97 1103.89 961.75 1100.15 965.49C1099.31 966.33 1098.48 967.17 1097.62 967.99C1097.41 968.18 1097.21 968.4 1096.98 968.57C1097.22 968.38 1097.06 968.5 1096.75 968.62C1093.61 969.82 1090.54 971.25 1087.44 972.58C1081.43 975.16 1075.43 977.77 1069.45 980.45C1068.07 981.07 1069.15 983.16 1070.53 982.55Z" />
							</g>
						</g>
					</g>
					<path id="&lt;Path&gt;" class="shp9" d="M1018.23 1005.56L999.87 959.26C911.7 930.81 853.92 916.59 826.54 916.59C785.47 916.59 759.71 959.82 784.2 984.32C805.44 1005.56 843.97 1001.23 876.32 1001.23C897.89 1001.23 945.2 1002.68 1018.23 1005.56Z" />
				</g>
				<g id="&lt;Group&gt;">
					<g id="&lt;Group&gt;">
						<g id="&lt;Group&gt;">
							<g id="&lt;Group&gt;">
								<path id="&lt;Path&gt;" class="shp11" d="M1661.25 573.93C1661.19 572.01 1661.06 570.08 1660.85 568.14C1660.33 563.22 1657.35 556.94 1652.54 558.08C1649.1 558.89 1647.81 563.01 1647.06 566.46C1639.56 600.58 1624.91 633.11 1604.34 661.34C1599.68 664.78 1601.99 672.09 1606.79 674.27C1611.09 676.22 1616.33 674.77 1620.07 671.88C1623.81 668.99 1626.36 664.87 1628.83 660.84C1645.24 634.09 1662.24 604.91 1661.25 573.93Z" />
								<path id="&lt;Path&gt;" class="shp11" d="M1676.14 587.81C1676.08 585.89 1675.95 583.95 1675.75 582.01C1675.23 577.09 1672.25 570.81 1667.43 571.96C1663.99 572.77 1662.71 576.89 1661.95 580.34C1654.45 614.46 1639.81 646.99 1619.23 675.22C1614.58 678.66 1616.89 685.96 1621.68 688.14C1625.99 690.1 1631.23 688.65 1634.96 685.76C1638.7 682.86 1641.26 678.74 1643.73 674.71C1660.14 647.97 1677.14 618.79 1676.14 587.81Z" />
								<path id="&lt;Path&gt;" class="shp11" d="M1648.39 683.26C1657.83 672.25 1669.83 660.03 1676.68 647.25C1683.54 634.47 1685.13 620.81 1682.88 606.49C1682.13 601.73 1679.28 596.04 1674.49 596.49C1671.49 596.77 1669.26 599.59 1668.54 602.51C1667.81 605.44 1668.22 608.5 1668.36 611.51C1669.07 627.28 1666.51 633.31 1662.91 638.45C1660.42 641.99 1641.61 657.37 1638.43 660.29C1635.25 663.22 1632.68 667.19 1632.74 671.52C1632.77 674.4 1637.99 678.31 1648.39 683.26Z" />
								<path id="&lt;Path&gt;" class="shp11" d="M1656.4 706.32C1665.84 695.31 1674.5 688.31 1681.35 675.53C1688.21 662.75 1688.11 651.76 1685.85 637.43C1685.11 632.68 1682.25 626.99 1677.46 627.43C1674.46 627.71 1672.23 630.53 1671.51 633.46C1670.79 636.38 1671.2 639.45 1671.33 642.46C1672.04 658.23 1671.18 661.6 1667.58 666.73C1665.1 670.27 1649.62 680.43 1646.44 683.35C1643.26 686.28 1640.69 690.26 1640.74 694.58C1640.78 697.46 1646 701.37 1656.4 706.32Z" />
								<g id="&lt;Group&gt;">
									<path id="&lt;Path&gt;" class="shp9" d="M1620.24 632.95C1621.68 634.84 1623.02 636.8 1624.35 638.74C1632.33 650.36 1640.3 661.98 1648.27 673.61C1652.35 679.55 1656.53 685.73 1657.81 692.39C1658.99 698.59 1657.54 704.66 1655.22 710.14C1650.38 721.55 1624.26 730.97 1601.8 731.87C1579.34 732.76 1556.29 709.19 1555.1 692.93C1553.81 675.26 1573.4 650.65 1584.45 633.42C1587.38 628.86 1588.36 622.76 1593.54 620.49C1599 618.08 1606.32 620.19 1611.65 624.1C1615.02 626.59 1617.76 629.67 1620.24 632.95Z" />
								</g>
								<g id="&lt;Group&gt;">
									<path id="&lt;Mesh&gt;" class="shp27" d="M1600.42 537.89C1600.42 539.75 1601.54 541.33 1603.44 542.62C1605.3 543.88 1607.9 544.88 1610.92 545.6C1606.89 539.41 1610.2 527.66 1613.02 521.64C1610.3 522.08 1607.97 522.61 1606.65 523.09C1602.78 527.01 1600.42 532.2 1600.42 537.89ZM1612.05 518.99C1610.04 520.11 1608.22 521.5 1606.65 523.09C1607.97 522.61 1610.3 522.08 1613.02 521.64C1616.37 514.86 1616.33 509.79 1616.36 502.13C1614.51 503.22 1613.03 504.61 1612.05 506.11C1612.05 510.4 1612.05 514.7 1612.05 518.99ZM1612.05 506.11C1613.03 504.61 1614.51 503.22 1616.36 502.13C1616.37 499.72 1616.58 497.28 1617.24 494.95C1615.68 496.1 1614.39 497.6 1613.49 499.32C1612.37 501.47 1612.05 503.72 1612.05 506.11ZM1610.92 545.6C1614.75 546.52 1619.25 547.01 1623.81 547.07C1623.77 538.23 1623.89 529.41 1624.09 520.57C1620.57 520.63 1616.48 521.07 1613.02 521.64C1610.2 527.66 1606.89 539.41 1610.92 545.6ZM1613.02 521.64C1616.48 521.07 1620.57 520.63 1624.09 520.57C1624.24 513.69 1624.23 506.8 1624.22 499.91C1621.43 500.05 1618.62 500.78 1616.36 502.13C1616.33 509.79 1616.37 514.86 1613.02 521.64ZM1616.36 502.13C1618.62 500.78 1621.43 500.05 1624.22 499.91C1624.22 497.43 1624.21 494.96 1624.22 492.48C1621.62 492.6 1619.21 493.5 1617.24 494.95C1616.58 497.28 1616.37 499.72 1616.36 502.13ZM1623.81 547.07C1628.7 547.13 1633.64 546.7 1637.84 545.78C1642 539.29 1637.47 527.43 1634.72 521.2C1631.02 520.69 1627.19 520.52 1624.09 520.57C1623.89 529.41 1623.77 538.23 1623.81 547.07ZM1624.09 520.57C1627.19 520.52 1631.02 520.69 1634.72 521.2C1631.56 514.41 1632.41 509.35 1632.4 501.91C1629.88 500.6 1626.99 499.88 1624.22 499.91C1624.23 506.8 1624.24 513.69 1624.09 520.57ZM1624.22 499.91C1626.99 499.88 1629.88 500.6 1632.4 501.91C1632.4 499.48 1632.45 496.91 1631.79 494.63C1629.58 493.16 1626.93 492.37 1624.22 492.48C1624.21 494.96 1624.22 497.43 1624.22 499.91ZM1637.84 545.78C1641.19 545.04 1644.07 543.99 1646.08 542.62C1647.99 541.33 1649.11 539.75 1649.11 537.89C1649.11 532.2 1646.75 527.01 1642.88 523.09C1640.54 522.21 1637.67 521.6 1634.72 521.2C1637.47 527.43 1642 539.29 1637.84 545.78ZM1634.72 521.2C1637.67 521.6 1640.54 522.21 1642.88 523.09C1641.31 521.5 1639.49 520.11 1637.48 518.99C1637.48 514.7 1637.48 510.4 1637.48 506.11C1636.19 504.37 1634.41 502.95 1632.4 501.91C1632.41 509.35 1631.56 514.41 1634.72 521.2ZM1632.4 501.91C1634.41 502.95 1636.19 504.37 1637.48 506.11C1637.48 503.72 1637.16 501.47 1636.04 499.32C1635.03 497.4 1633.55 495.8 1631.79 494.63C1632.45 496.91 1632.4 499.48 1632.4 501.91Z" />
									<path id="&lt;Path&gt;" class="shp28" d="M1651.71 537.39L1597.81 537.39L1597.81 548.11L1651.71 548.11L1651.71 537.39Z" />
									<path id="&lt;Path&gt;" class="shp29" d="M1640.05 556.85L1609.47 556.85C1592.54 556.85 1578.69 570.7 1578.69 587.63L1578.69 669.85C1578.69 686.78 1592.54 700.63 1609.47 700.63L1640.05 700.63C1656.98 700.63 1670.84 686.78 1670.84 669.85L1670.84 587.63C1670.84 570.7 1656.98 556.85 1640.05 556.85Z" />
									<path id="&lt;Path&gt;" class="shp22" d="M1581.77 619.67L1581.77 669.85C1581.77 685.13 1594.2 697.55 1609.47 697.55L1640.05 697.55C1655.33 697.55 1667.76 685.13 1667.76 669.85L1667.76 619.39C1639.07 619.15 1610.29 619.88 1581.77 619.67Z" />
									<path id="&lt;Path&gt;" class="shp30" d="M1657.95 543.48L1591.58 543.48L1591.58 561.5L1657.95 561.5L1657.95 543.48Z" />
									<path id="&lt;Mesh&gt;" class="shp31" d="M1590.17 562.34C1596.13 562.34 1602.09 562.34 1608.05 562.34C1607.78 557.67 1607.52 552.91 1607.29 548.09C1601.4 548.28 1595.8 550.37 1590.1 550.81C1590.12 556.98 1590.14 562.04 1590.17 562.34ZM1590.06 515.02C1590.06 519.19 1590.06 523.36 1590.06 527.54C1590.06 528.03 1590.07 540.86 1590.1 550.81C1595.8 550.37 1601.4 548.28 1607.29 548.09C1606.61 533.5 1606.28 518.45 1607.35 504.32C1601.46 505.16 1595.72 506.64 1590.78 508.66C1590.31 510.71 1590.06 512.83 1590.06 515.02ZM1590.78 508.66C1595.72 506.64 1601.46 505.16 1607.35 504.32C1607.83 497.96 1609.12 492.06 1610.8 487.57C1606.07 488.92 1601.83 491.47 1598.44 494.86C1594.71 498.59 1592 503.35 1590.78 508.66ZM1608.05 562.34C1620.8 562.34 1633.56 562.34 1646.32 562.34C1646.3 561.32 1646.3 555.98 1646.32 549.63C1633.46 549.04 1620.14 547.72 1607.29 548.09C1607.52 552.91 1607.78 557.67 1608.05 562.34ZM1607.29 548.09C1620.14 547.72 1633.46 549.04 1646.32 549.63C1646.35 535.07 1648.31 518.81 1646.23 504.42C1633.57 501.68 1619.95 502.54 1607.35 504.32C1606.28 518.45 1606.61 533.5 1607.29 548.09ZM1607.35 504.32C1619.95 502.54 1633.57 501.68 1646.23 504.42C1645.41 498.72 1644.72 492.92 1642.5 488.85C1639.01 487.32 1635.16 486.48 1631.12 486.48C1626.95 486.48 1622.77 486.48 1618.6 486.48C1615.9 486.48 1613.28 486.86 1610.8 487.57C1609.12 492.06 1607.83 497.96 1607.35 504.32ZM1646.32 562.34C1650.73 562.34 1655.14 562.34 1659.55 562.34C1659.58 562.04 1659.6 556.98 1659.62 550.81C1655.24 550.42 1650.76 549.83 1646.32 549.63C1646.3 555.98 1646.3 561.32 1646.32 562.34ZM1646.32 549.63C1650.76 549.83 1655.24 550.42 1659.62 550.81C1659.64 540.86 1659.66 528.03 1659.66 527.54C1659.66 523.36 1659.66 519.19 1659.66 515.02C1659.66 512.83 1659.41 510.71 1658.94 508.66C1654.87 506.74 1650.61 505.36 1646.23 504.42C1648.31 518.81 1646.35 535.07 1646.32 549.63ZM1646.23 504.42C1650.61 505.36 1654.87 506.74 1658.94 508.66C1657.72 503.35 1655.01 498.59 1651.28 494.86C1648.77 492.35 1645.79 490.3 1642.5 488.85C1644.72 492.92 1645.41 498.72 1646.23 504.42Z" />
									<path id="&lt;Path&gt;" class="shp32" d="M1655.69 678.66C1653.5 678.66 1651.71 676.87 1651.71 674.68L1651.71 579.88C1651.71 577.69 1653.5 575.91 1655.69 575.91C1657.87 575.91 1659.66 577.69 1659.66 579.88L1659.66 674.68C1659.66 676.87 1657.87 678.66 1655.69 678.66Z" />
								</g>
								<path id="&lt;Path&gt;" class="shp9" d="M1579.03 611.55C1572.22 608.01 1557.29 630.52 1551.05 651.42C1545.66 689.94 1558.6 706.05 1565.12 705.93C1569.9 705.84 1577.59 698.62 1579.12 694.52C1580.37 691.18 1579.47 687.48 1578.87 683.95C1576.89 672.32 1576.71 661.05 1581.36 650.25C1583.38 645.56 1588.49 633.83 1588.46 628.74C1588.42 622.24 1585.84 615.08 1579.03 611.55Z" />
							</g>
						</g>
					</g>
					<path id="&lt;Path&gt;" class="shp9" d="M1480.65 1017.44C1508.93 1038.06 1554.31 993.77 1567.2 946.16C1575.8 914.41 1596.41 832.93 1629.05 701.71L1571.19 682.6C1520.32 793.91 1490.1 865.51 1480.55 897.39C1466.22 945.21 1447.95 993.59 1480.65 1017.44Z" />
				</g>
			</g>
			<g id="shelf">
				<g id="&lt;Group&gt;">
					<g id="&lt;Group&gt;">
						<path id="&lt;Path&gt;" class="shp4" d="M2441.42 1791.1L2461.69 1791.1L2460.69 1641.1L2386.07 1641.1L2441.42 1791.1Z" />
						<path id="&lt;Path&gt;" class="shp4" d="M2345.64 1791.1L2364.26 1791.1L2365.43 1687.88L2314.07 1687.88L2345.64 1791.1Z" />
						<path id="&lt;Path&gt;" class="shp4" d="M2011.56 1791.1L1991.29 1791.1L1992.29 1641.1L2066.92 1641.1L2011.56 1791.1Z" />
						<path id="&lt;Path&gt;" class="shp4" d="M2107.34 1791.1L2088.73 1791.1L2087.56 1687.88L2138.91 1687.88L2107.34 1791.1Z" />
					</g>
					<path id="&lt;Path&gt;" class="shp7" d="M1948.32 1698.93L2505.49 1698.93L2505.49 1141.76L1948.32 1141.76L1948.32 1698.93Z" />
					<path id="&lt;Path&gt;" class="shp5" d="M2124.79 1099.58L2329.02 1099.58L2505.49 1141.76L1948.32 1141.76L2124.79 1099.58Z" />
					<path id="&lt;Path&gt;" class="shp6" d="M2503.13 1309.33L1950.68 1309.33L1950.68 1301.86L2503.13 1301.86L2503.13 1309.33Z" />
					<path id="&lt;Path&gt;" class="shp6" d="M2503.13 1494.14L1950.68 1494.14L1950.68 1486.67L2503.13 1486.67L2503.13 1494.14Z" />
					<path id="&lt;Path&gt;" class="shp6" d="M2291 1269.5L2162.81 1269.5C2152.89 1269.5 2144.77 1277.62 2144.77 1287.55C2144.77 1297.47 2152.89 1305.59 2162.81 1305.59L2291 1305.59C2300.92 1305.59 2309.04 1297.47 2309.04 1287.55C2309.04 1277.62 2300.92 1269.5 2291 1269.5Z" />
					<path id="&lt;Path&gt;" class="shp6" d="M2291 1454.31L2162.81 1454.31C2152.89 1454.31 2144.77 1462.43 2144.77 1472.36L2144.77 1472.36C2144.77 1482.28 2152.89 1490.41 2162.81 1490.41L2291 1490.41C2300.92 1490.41 2309.04 1482.28 2309.04 1472.36L2309.04 1472.36C2309.04 1462.43 2300.92 1454.31 2291 1454.31Z" />
				</g>
			</g>
			<g id="mini hearts">
			</g>
		</g>
	</g>
</svg>