<?xml version="1.0" encoding="UTF-8"?>
<svg xmlns="http://www.w3.org/2000/svg" xmlns:xlink="http://www.w3.org/1999/xlink" width="200px" height="200px" viewBox="0 0 200 200" version="1.1">
<g id="surface1">
<path style=" stroke:none;fill-rule:nonzero;fill:rgb(0%,0%,0%);fill-opacity:1;" d="M 138.464844 4.246094 C 136.199219 13.207031 137.867188 28.300781 141.066406 28.300781 C 142.734375 28.300781 143.601562 25.945312 144.601562 19.339844 C 146.535156 6.367188 141.265625 -6.605469 138.464844 4.246094 Z M 138.464844 4.246094 "/>
<path style=" stroke:none;fill-rule:nonzero;fill:rgb(0%,0%,0%);fill-opacity:1;" d="M 161.332031 4.71875 C 160.601562 7.3125 160 11.554688 160 14.152344 C 160 20.046875 162.265625 28.300781 163.867188 28.300781 C 165.933594 28.300781 168 21.460938 168 14.386719 C 168 1.414062 163.933594 -4.480469 161.332031 4.71875 Z M 161.332031 4.71875 "/>
<path style=" stroke:none;fill-rule:nonzero;fill:rgb(0%,0%,0%);fill-opacity:1;" d="M 4 98.820312 L 4 160.378906 L 9.265625 160.378906 L 9.464844 123.113281 L 9.667969 86.085938 L 14.800781 123.113281 L 19.933594 160.378906 L 25.398438 160.378906 L 30.332031 124.292969 L 35.199219 88.445312 L 35.265625 124.292969 L 35.332031 160.378906 L 41.332031 160.378906 L 41.199219 99.527344 L 41 38.914062 L 35.132812 38.914062 L 29.734375 80.1875 C 26.734375 102.832031 24 124.054688 23.535156 127.359375 C 22.867188 132.78125 22.332031 129.953125 16.265625 86.085938 L 9.667969 38.914062 L 6.867188 38.207031 L 4 37.5 Z M 4 98.820312 "/>
<path style=" stroke:none;fill-rule:nonzero;fill:rgb(0%,0%,0%);fill-opacity:1;" d="M 48.933594 41.273438 C 48.734375 43.160156 48.667969 62.972656 48.800781 85.378906 C 49 121.699219 49.199219 127.359375 50.464844 135.847656 C 54.867188 165.09375 65.667969 171.933594 72.667969 149.527344 C 76.667969 136.792969 77.332031 126.414062 77.332031 78.539062 L 77.332031 37.734375 L 63.332031 37.734375 C 51.535156 37.734375 49.199219 38.207031 48.933594 41.273438 Z M 71.199219 93.394531 L 71 127.832031 L 68.800781 134.667969 C 64.867188 147.167969 57.535156 142.453125 55.601562 126.179688 C 54.933594 120.519531 54.667969 108.726562 54.667969 88.445312 L 54.667969 58.960938 L 71.398438 58.960938 Z M 71.199219 93.394531 "/>
<path style=" stroke:none;fill-rule:nonzero;fill:rgb(0%,0%,0%);fill-opacity:1;" d="M 89.332031 42.21875 C 85.535156 49.292969 84.332031 57.074219 84.332031 74.292969 C 84.332031 87.027344 84.601562 90.09375 86 95.519531 C 88.199219 103.773438 90.332031 107.546875 93.867188 109.199219 C 97.601562 110.847656 99.332031 116.507812 99.332031 126.414062 C 99.332031 135.613281 97.398438 141.507812 94.265625 141.507812 C 92.265625 141.507812 90 135.613281 90 130.1875 C 90 128.300781 88.800781 127.359375 86.933594 127.359375 L 83.867188 127.359375 L 84.265625 134.90625 C 84.933594 146.226562 86.464844 153.300781 89.535156 158.253906 C 93.132812 163.914062 96.265625 163.914062 99.667969 158.019531 C 107.066406 145.28125 107.132812 105.894531 99.800781 94.105469 C 98.265625 91.746094 96.066406 89.621094 94.933594 89.621094 C 91.933594 89.621094 89.800781 82.78125 89.867188 73.585938 C 89.933594 64.152344 90.398438 61.554688 92.535156 58.726562 C 95.132812 55.1875 97.867188 58.253906 99 66.273438 C 99.867188 71.933594 100.464844 73.113281 102.398438 73.113281 C 105.332031 73.113281 105.867188 68.632812 104.199219 57.3125 C 101.464844 38.679688 94.734375 31.839844 89.332031 42.21875 Z M 89.332031 42.21875 "/>
<path style=" stroke:none;fill-rule:nonzero;fill:rgb(0%,0%,0%);fill-opacity:1;" d="M 116.066406 41.980469 C 112.332031 48.585938 111 57.074219 111 74.292969 C 111 87.027344 111.265625 90.09375 112.667969 95.519531 C 114.867188 103.773438 117 107.546875 120.535156 109.199219 C 124.265625 110.847656 126 116.507812 126 126.414062 C 126 141.980469 119.933594 147.40625 117.199219 134.433594 C 116.066406 128.773438 115.265625 127.359375 113.199219 127.359375 C 111 127.359375 110.667969 128.066406 110.667969 132.546875 C 110.667969 142.21875 113.199219 153.300781 116.464844 158.492188 C 125.867188 173.113281 134.867188 142.925781 130.800781 110.378906 C 129.800781 102.121094 128.867188 98.585938 126.535156 94.574219 C 124.933594 91.980469 122.601562 89.621094 121.398438 89.621094 C 119.332031 89.621094 116 81.132812 116 75.707031 C 116 57.3125 123.332031 50.234375 125.734375 66.273438 C 126.601562 72.40625 127.066406 73.347656 129.199219 72.640625 C 131.464844 71.933594 131.667969 71.460938 131.464844 65.09375 C 130.800781 42.925781 122.398438 30.425781 116.066406 41.980469 Z M 116.066406 41.980469 "/>
<path style=" stroke:none;fill-rule:nonzero;fill:rgb(0%,0%,0%);fill-opacity:1;" d="M 138.667969 81.839844 C 138.734375 123.347656 138.800781 126.886719 140.265625 136.792969 C 143.734375 161.085938 152.800781 169.339844 160.265625 155.1875 C 162.265625 151.179688 163.464844 146.460938 164.867188 137.027344 C 166.667969 124.292969 166.667969 123.347656 166.667969 80.894531 L 166.667969 37.734375 L 138.667969 37.734375 Z M 161.332031 87.265625 C 161.332031 118.867188 160.601562 128.066406 157.667969 136.320312 C 155.132812 143.394531 150.199219 143.394531 147.667969 136.320312 C 144.734375 128.066406 144 118.867188 144 87.265625 L 144 58.960938 L 161.332031 58.960938 Z M 161.332031 87.265625 "/>
<path style=" stroke:none;fill-rule:nonzero;fill:rgb(0%,0%,0%);fill-opacity:1;" d="M 172 47.167969 L 172 56.605469 L 178.667969 56.605469 L 178.800781 107.78125 L 179 159.199219 L 181.867188 159.90625 L 184.667969 160.613281 L 184.667969 56.605469 L 192.066406 56.605469 L 191.867188 47.640625 L 191.667969 38.914062 L 181.867188 38.207031 L 172 37.5 Z M 172 47.167969 "/>
<path style=" stroke:none;fill-rule:nonzero;fill:rgb(0%,0%,0%);fill-opacity:1;" d="M 49.199219 159.667969 C 47.464844 166.980469 47.265625 169.574219 48.066406 175 C 49.066406 181.839844 49.933594 183.960938 51.734375 183.960938 C 54.867188 183.960938 56.535156 167.21875 54.132812 159.667969 C 52.535156 154.480469 50.464844 154.480469 49.199219 159.667969 Z M 49.199219 159.667969 "/>
<path style=" stroke:none;fill-rule:nonzero;fill:rgb(0%,0%,0%);fill-opacity:1;" d="M 72 160.378906 C 69.464844 169.339844 71.066406 183.960938 74.535156 183.960938 C 76.398438 183.960938 78.667969 175.945312 78.667969 169.8125 C 78.667969 163.679688 76.398438 155.660156 74.667969 155.660156 C 73.933594 155.660156 72.734375 157.78125 72 160.378906 Z M 72 160.378906 "/>
</g>
</svg>
