<?xml version="1.0" standalone="no"?>
<!DOCTYPE svg PUBLIC "-//W3C//DTD SVG 20010904//EN"
 "http://www.w3.org/TR/2001/REC-SVG-20010904/DTD/svg10.dtd">
<svg version="1.0" xmlns="http://www.w3.org/2000/svg"
 width="300.000000pt" height="85.000000pt" viewBox="0 0 300.000000 85.000000"
 preserveAspectRatio="xMidYMid meet">

<g transform="translate(0.000000,85.000000) scale(0.100000,-0.100000)"
fill="#000000" stroke="none">
<path d="M2077 832 c-34 -38 -9 -102 39 -102 25 0 38 10 53 38 29 55 -50 110
-92 64z"/>
<path d="M2420 830 c-11 -11 -20 -29 -20 -40 0 -25 34 -60 58 -60 31 0 62 29
62 59 0 55 -61 80 -100 41z"/>
<path d="M60 431 l0 -261 40 0 39 0 3 158 3 157 77 -157 77 -158 41 0 41 0 74
153 73 152 1 -152 1 -153 45 0 45 0 -2 258 -3 257 -44 0 -44 0 -81 -175 c-45
-96 -86 -186 -93 -200 -10 -23 -18 -11 -109 175 l-99 200 -42 3 -43 3 0 -260z"/>
<path d="M734 675 c-3 -8 -4 -92 -2 -187 3 -154 6 -178 25 -214 66 -124 228
-153 333 -58 60 54 70 98 70 301 l0 173 -210 0 c-177 0 -212 -2 -216 -15z
m334 -221 l-3 -146 -33 -29 c-59 -53 -169 -33 -198 36 -10 24 -14 74 -14 160
l0 125 126 0 125 0 -3 -146z"/>
<path d="M1340 671 c-57 -30 -75 -63 -75 -136 0 -54 4 -67 25 -90 33 -35 65
-51 118 -58 56 -7 82 -31 82 -73 0 -39 -29 -64 -76 -64 -30 0 -64 25 -64 48 0
8 -18 12 -46 12 l-46 0 6 -32 c10 -48 33 -78 79 -99 54 -24 101 -24 152 1 111
54 112 221 2 271 -23 10 -56 19 -73 19 -45 0 -77 29 -76 68 1 40 8 51 40 63
39 15 80 2 97 -32 13 -24 22 -29 51 -29 44 0 52 19 27 67 -41 79 -142 108
-223 64z"/>
<path d="M1741 672 c-56 -28 -76 -64 -76 -137 0 -54 4 -67 25 -90 33 -35 65
-51 118 -58 56 -7 82 -31 82 -73 0 -66 -91 -89 -132 -34 -17 24 -29 30 -60 30
-33 0 -38 -3 -38 -22 0 -41 38 -88 87 -110 141 -62 276 66 215 204 -15 35 -29
50 -64 67 -24 11 -59 21 -77 21 -31 0 -81 36 -81 59 0 78 110 108 146 40 13
-26 20 -30 52 -27 34 3 37 5 34 32 -10 94 -136 147 -231 98z"/>
<path d="M2080 503 c1 -176 2 -191 24 -233 52 -103 188 -138 300 -78 30 17 48
37 69 77 27 54 27 58 27 238 l0 183 -210 0 -210 0 0 -187z m340 -23 c0 -134
-11 -173 -55 -208 -38 -30 -112 -30 -150 0 -44 35 -55 74 -55 208 l0 120 130
0 130 0 0 -120z"/>
<path d="M2580 650 l0 -40 50 0 50 0 2 -217 3 -218 43 -3 42 -3 0 220 0 221
56 0 55 0 -3 38 -3 37 -147 3 -148 3 0 -41z"/>
<path d="M738 173 c-26 -31 -29 -42 -17 -65 15 -29 28 -38 55 -38 47 0 72 71
36 103 -24 22 -55 22 -74 0z"/>
<path d="M1080 170 c-38 -38 -14 -100 38 -100 28 0 62 34 62 60 0 26 -34 60
-60 60 -11 0 -29 -9 -40 -20z"/>
</g>
</svg>
