<?xml version="1.0" encoding="UTF-8"?>
<svg xmlns="http://www.w3.org/2000/svg" xmlns:xlink="http://www.w3.org/1999/xlink" width="150px" height="100px" viewBox="0 0 150 100" version="1.1">
<g id="surface1">
<path style=" stroke:none;fill-rule:nonzero;fill:rgb(0%,0%,0%);fill-opacity:1;" d="M 103.847656 2.125 C 102.148438 6.601562 103.402344 14.148438 105.800781 14.148438 C 107.050781 14.148438 107.699219 12.972656 108.449219 9.671875 C 109.902344 3.183594 105.949219 -3.304688 103.847656 2.125 Z M 103.847656 2.125 "/>
<path style=" stroke:none;fill-rule:nonzero;fill:rgb(0%,0%,0%);fill-opacity:1;" d="M 121 2.359375 C 120.449219 3.65625 120 5.777344 120 7.078125 C 120 10.023438 121.699219 14.148438 122.902344 14.148438 C 124.449219 14.148438 126 10.730469 126 7.195312 C 126 0.707031 122.949219 -2.242188 121 2.359375 Z M 121 2.359375 "/>
<path style=" stroke:none;fill-rule:nonzero;fill:rgb(0%,0%,0%);fill-opacity:1;" d="M 3 49.410156 L 3 80.1875 L 6.949219 80.1875 L 7.097656 61.554688 L 7.25 43.042969 L 11.101562 61.554688 L 14.949219 80.1875 L 19.050781 80.1875 L 22.75 62.148438 L 26.398438 44.222656 L 26.449219 62.148438 L 26.5 80.1875 L 31 80.1875 L 30.898438 49.765625 L 30.75 19.457031 L 26.347656 19.457031 L 22.300781 40.09375 C 20.050781 51.414062 18 62.027344 17.652344 63.679688 C 17.152344 66.390625 16.75 64.976562 12.199219 43.042969 L 7.25 19.457031 L 5.152344 19.101562 L 3 18.75 Z M 3 49.410156 "/>
<path style=" stroke:none;fill-rule:nonzero;fill:rgb(0%,0%,0%);fill-opacity:1;" d="M 36.699219 20.636719 C 36.550781 21.578125 36.5 31.484375 36.601562 42.6875 C 36.75 60.851562 36.898438 63.679688 37.847656 67.921875 C 41.152344 82.546875 49.25 85.96875 54.5 74.765625 C 57.5 68.398438 58 63.207031 58 39.269531 L 58 18.867188 L 47.5 18.867188 C 38.652344 18.867188 36.898438 19.101562 36.699219 20.636719 Z M 53.398438 46.695312 L 53.25 63.914062 L 51.601562 67.335938 C 48.652344 73.585938 43.152344 71.226562 41.699219 63.089844 C 41.199219 60.257812 41 54.363281 41 44.222656 L 41 29.480469 L 53.550781 29.480469 Z M 53.398438 46.695312 "/>
<path style=" stroke:none;fill-rule:nonzero;fill:rgb(0%,0%,0%);fill-opacity:1;" d="M 67 21.109375 C 64.152344 24.648438 63.25 28.539062 63.25 37.148438 C 63.25 43.515625 63.449219 45.046875 64.5 47.757812 C 66.148438 51.886719 67.75 53.773438 70.402344 54.601562 C 73.199219 55.421875 74.5 58.253906 74.5 63.207031 C 74.5 67.804688 73.050781 70.753906 70.699219 70.753906 C 69.199219 70.753906 67.5 67.804688 67.5 65.09375 C 67.5 64.148438 66.601562 63.679688 65.199219 63.679688 L 62.902344 63.679688 L 63.199219 67.453125 C 63.699219 73.113281 64.847656 76.648438 67.152344 79.125 C 69.847656 81.957031 72.199219 81.957031 74.75 79.007812 C 80.300781 72.640625 80.347656 52.945312 74.851562 47.054688 C 73.699219 45.875 72.050781 44.8125 71.199219 44.8125 C 68.949219 44.8125 67.351562 41.390625 67.402344 36.792969 C 67.449219 32.078125 67.800781 30.777344 69.402344 29.363281 C 71.347656 27.59375 73.402344 29.125 74.25 33.136719 C 74.902344 35.96875 75.347656 36.554688 76.800781 36.554688 C 79 36.554688 79.402344 34.316406 78.148438 28.65625 C 76.097656 19.339844 71.050781 15.921875 67 21.109375 Z M 67 21.109375 "/>
<path style=" stroke:none;fill-rule:nonzero;fill:rgb(0%,0%,0%);fill-opacity:1;" d="M 87.050781 20.992188 C 84.25 24.292969 83.25 28.539062 83.25 37.148438 C 83.25 43.515625 83.449219 45.046875 84.5 47.757812 C 86.152344 51.886719 87.75 53.773438 90.402344 54.601562 C 93.199219 55.421875 94.5 58.253906 94.5 63.207031 C 94.5 70.992188 89.949219 73.703125 87.898438 67.21875 C 87.050781 64.386719 86.449219 63.679688 84.898438 63.679688 C 83.25 63.679688 83 64.03125 83 66.273438 C 83 71.109375 84.898438 76.648438 87.347656 79.246094 C 94.402344 86.554688 101.152344 71.460938 98.101562 55.1875 C 97.351562 51.0625 96.652344 49.292969 94.902344 47.289062 C 93.699219 45.992188 91.949219 44.8125 91.050781 44.8125 C 89.5 44.8125 87 40.566406 87 37.851562 C 87 28.65625 92.5 25.117188 94.300781 33.136719 C 94.949219 36.203125 95.300781 36.671875 96.898438 36.320312 C 98.597656 35.96875 98.75 35.730469 98.597656 32.546875 C 98.101562 21.460938 91.800781 15.210938 87.050781 20.992188 Z M 87.050781 20.992188 "/>
<path style=" stroke:none;fill-rule:nonzero;fill:rgb(0%,0%,0%);fill-opacity:1;" d="M 104 40.921875 C 104.050781 61.671875 104.101562 63.445312 105.199219 68.398438 C 107.800781 80.542969 114.601562 84.671875 120.199219 77.59375 C 121.699219 75.589844 122.597656 73.230469 123.652344 68.515625 C 125 62.148438 125 61.671875 125 40.445312 L 125 18.867188 L 104 18.867188 Z M 121 43.632812 C 121 59.433594 120.449219 64.03125 118.25 68.160156 C 116.347656 71.695312 112.648438 71.695312 110.75 68.160156 C 108.550781 64.03125 108 59.433594 108 43.632812 L 108 29.480469 L 121 29.480469 Z M 121 43.632812 "/>
<path style=" stroke:none;fill-rule:nonzero;fill:rgb(0%,0%,0%);fill-opacity:1;" d="M 129 23.585938 L 129 28.304688 L 134 28.304688 L 134.101562 53.890625 L 134.25 79.601562 L 136.402344 79.953125 L 138.5 80.304688 L 138.5 28.304688 L 144.050781 28.304688 L 143.902344 23.820312 L 143.75 19.457031 L 136.402344 19.101562 L 129 18.75 Z M 129 23.585938 "/>
<path style=" stroke:none;fill-rule:nonzero;fill:rgb(0%,0%,0%);fill-opacity:1;" d="M 36.898438 79.835938 C 35.597656 83.492188 35.449219 84.789062 36.050781 87.5 C 36.800781 90.921875 37.449219 91.980469 38.800781 91.980469 C 41.152344 91.980469 42.402344 83.609375 40.597656 79.835938 C 39.402344 77.242188 37.847656 77.242188 36.898438 79.835938 Z M 36.898438 79.835938 "/>
<path style=" stroke:none;fill-rule:nonzero;fill:rgb(0%,0%,0%);fill-opacity:1;" d="M 54 80.1875 C 52.097656 84.671875 53.300781 91.980469 55.902344 91.980469 C 57.300781 91.980469 59 87.972656 59 84.90625 C 59 81.839844 57.300781 77.828125 56 77.828125 C 55.449219 77.828125 54.550781 78.890625 54 80.1875 Z M 54 80.1875 "/>
</g>
</svg>
