<svg version="1.2" baseProfile="tiny-ps" xmlns="http://www.w3.org/2000/svg" viewBox="0 0 2760 1840" width="2500" height="1667">
	<title>Handymen repairing clients home appliance-ai</title>
	<style>
		tspan { white-space:pre }
		.shp0 { fill: #ffffff } 
		.shp1 { fill: #e08b65 } 
		.shp2 { fill: #deebe9 } 
		.shp3 { fill: #bed5dc } 
		.shp4 { fill: #42428e } 
		.shp5 { fill: #74a1bd } 
		.shp6 { fill: #c4d7d4 } 
		.shp7 { fill: #cfe2de } 
		.shp8 { fill: #2f1a31 } 
		.shp9 { fill: #f7b686 } 
		.shp10 { fill: #436e8e } 
		.shp11 { fill: #9bbcb6 } 
		.shp12 { fill: #020202 } 
		.shp13 { fill: #56335b } 
		.shp14 { fill: #060633 } 
		.shp15 { fill: #e28569 } 
		.shp16 { fill: #d16b54 } 
		.shp17 { fill: #96a7e2 } 
		.shp18 { fill: #7aa098 } 
		.shp19 { fill: #a2bee0 } 
		.shp20 { fill: #6f4975 } 
		.shp21 { fill: #eaa678 } 
		.shp22 { fill: #bdd1f9 } 
		.shp23 { fill: #dd8964 } 
	</style>
	<g id="&lt;Layer&gt;">
		<path id="&lt;Path&gt;" class="shp0" d="M2760 -376L0 -376L0 -2216L2760 -2216L2760 -376Z" />
		<g id="&lt;Group&gt;">
			<g id="&lt;Group&gt;">
				<path id="&lt;Compound Path&gt;" fill-rule="evenodd" class="shp1" d="M2173.52 1009.51C2170.48 1009.51 2167.21 1006.84 2165.65 1002.79C2163.79 997.94 2165.07 992.91 2168.52 991.58C2171.97 990.26 2176.29 993.13 2178.16 997.98C2180.02 1002.84 2178.73 1007.86 2175.29 1009.19C2174.72 1009.4 2174.12 1009.51 2173.52 1009.51ZM2170.3 993.03C2169.91 993.03 2169.52 993.1 2169.16 993.24C2166.62 994.21 2165.79 998.21 2167.3 1002.15C2168.79 1006.03 2172.15 1008.49 2174.65 1007.53C2177.14 1006.58 2178 1002.49 2176.51 998.62C2175.23 995.31 2172.6 993.03 2170.3 993.03Z" />
			</g>
			<g id="&lt;Group&gt;">
				<path id="&lt;Path&gt;" class="shp2" d="M5936 -1444.68L5936 -621.93C5936 -515.15 5838.18 -436.49 5705.24 -400.86C5636.15 -382.35 5550.42 -376.39 5450.04 -372.84C5276.32 -366.99 5048.32 -377.68 4860.24 -386.69C4702.93 -394.19 4640.63 -401.07 4246.68 -393.33C4113.74 -390.7 3971.46 -386.94 3864.3 -384.87C3724.76 -382.13 3697.02 -381.34 3645.69 -391.88C3507.93 -420.13 3407.13 -512.9 3407.13 -621.93L3407.13 -1444.68C3407.13 -1576.62 3555.05 -1691.32 3736.82 -1683.56C3905.61 -1676.36 4153.9 -1647.83 4412.72 -1665.3C4720.54 -1686.08 5304.82 -1703.72 5606.3 -1683.56C5787.62 -1671.44 5936 -1576.62 5936 -1444.68Z" />
			</g>
			<g id="&lt;Group&gt;">
				<path id="&lt;Path&gt;" class="shp3" d="M2589.88 1313.64C2589.88 1358.07 2061.7 1394.1 1410.16 1394.1C758.62 1394.1 230.45 1358.07 230.45 1313.64C230.45 1269.2 758.62 1233.17 1410.16 1233.17C2061.7 1233.17 2589.88 1269.2 2589.88 1313.64Z" />
			</g>
			<g id="&lt;Group&gt;">
				<g id="&lt;Group&gt;">
					<path id="&lt;Path&gt;" class="shp3" d="M837.54 1282.7C821.14 1265.98 815.76 1252.86 821.4 1243.34C827.04 1233.82 834.63 1244.04 844.15 1274.02C839.21 1238.57 841.86 1220.54 852.08 1219.93C862.31 1219.31 862.31 1237.34 852.08 1274.02C855.87 1265.47 859.62 1260.93 863.32 1260.4C868.88 1259.6 867.29 1271.27 857.37 1282.7L837.54 1282.7Z" />
				</g>
				<g id="&lt;Group&gt;">
					<path id="&lt;Path&gt;" class="shp4" d="M839.3 1283.32C839.23 1283.25 832.19 1276.04 826.43 1266.93C818.57 1254.5 816.7 1244.63 820.87 1237.59C822.42 1234.97 824.29 1233.76 826.42 1234.01C830.66 1234.49 835.65 1241.19 841.23 1253.92C842.93 1257.79 844.44 1261.67 845.62 1264.87C844.26 1250.96 842.69 1223.24 850.35 1213.88C852.02 1211.85 854.05 1210.75 856.38 1210.6C858.66 1210.47 860.54 1211.28 861.95 1213.03C868.84 1221.56 862.61 1251.69 859.19 1265.78C861.74 1261.65 865.36 1257.04 869.06 1256.51C870.81 1256.27 872.21 1256.91 872.99 1258.35C875.22 1262.45 872.14 1272.9 863.12 1283.29L861.76 1282.1C870.63 1271.89 873.06 1262.25 871.41 1259.21C870.99 1258.44 870.32 1258.15 869.32 1258.29C864.55 1258.97 859 1269.3 857.26 1273.22L855.57 1272.61C855.61 1272.49 858.97 1260.37 861.22 1247.1C864.17 1229.75 863.94 1218.36 860.55 1214.16C859.51 1212.88 858.19 1212.29 856.49 1212.4C854.65 1212.51 853.1 1213.37 851.75 1215.02C842.07 1226.84 848.27 1272.27 848.33 1272.73L846.58 1273.12C843.37 1263.02 833.46 1236.62 826.21 1235.79C824.83 1235.64 823.59 1236.53 822.41 1238.51C813.27 1253.94 840.31 1281.79 840.58 1282.06L839.3 1283.32Z" />
				</g>
			</g>
			<g id="&lt;Group&gt;">
				<g id="&lt;Group&gt;">
					<path id="&lt;Path&gt;" class="shp3" d="M2521.91 1301.61C2505.51 1284.89 2500.13 1271.77 2505.77 1262.25C2511.42 1252.73 2519 1262.96 2528.52 1292.93C2523.58 1257.49 2526.23 1239.46 2536.45 1238.84C2546.68 1238.23 2546.68 1256.26 2536.45 1292.93C2540.24 1284.38 2543.99 1279.84 2547.69 1279.31C2553.25 1278.52 2551.66 1290.19 2541.74 1301.61L2521.91 1301.61Z" />
				</g>
				<g id="&lt;Group&gt;">
					<path id="&lt;Path&gt;" class="shp4" d="M2523.67 1302.24C2523.6 1302.17 2516.56 1294.96 2510.8 1285.84C2502.94 1273.41 2501.07 1263.54 2505.24 1256.51C2506.79 1253.88 2508.66 1252.68 2510.79 1252.92C2515.03 1253.4 2520.02 1260.1 2525.6 1272.83C2527.3 1276.71 2528.81 1280.58 2529.99 1283.79C2528.63 1269.87 2527.06 1242.15 2534.72 1232.79C2536.39 1230.76 2538.42 1229.66 2540.75 1229.52C2543.03 1229.38 2544.91 1230.2 2546.32 1231.95C2553.21 1240.47 2546.98 1270.6 2543.56 1284.7C2546.11 1280.56 2549.73 1275.96 2553.43 1275.43C2555.18 1275.18 2556.58 1275.83 2557.36 1277.27C2559.59 1281.36 2556.51 1291.81 2547.49 1302.2L2546.13 1301.02C2555 1290.81 2557.43 1281.16 2555.78 1278.13C2555.36 1277.36 2554.69 1277.06 2553.69 1277.21C2548.92 1277.89 2543.37 1288.21 2541.63 1292.13L2539.94 1291.52C2539.98 1291.4 2543.34 1279.28 2545.59 1266.02C2548.54 1248.67 2548.31 1237.28 2544.92 1233.08C2543.88 1231.79 2542.55 1231.21 2540.86 1231.31C2539.02 1231.43 2537.47 1232.28 2536.12 1233.93C2526.44 1245.75 2532.64 1291.18 2532.7 1291.64L2530.95 1292.04C2527.74 1281.94 2517.83 1255.54 2510.59 1254.71C2509.21 1254.54 2507.96 1255.44 2506.79 1257.43C2497.65 1272.85 2524.68 1300.7 2524.95 1300.98L2523.67 1302.24Z" />
				</g>
			</g>
			<g id="&lt;Group&gt;">
				<g id="&lt;Group&gt;">
					<path id="&lt;Path&gt;" class="shp3" d="M294.56 1309.87C278.16 1293.15 272.78 1280.03 278.43 1270.51C284.07 1260.99 291.65 1271.22 301.17 1301.19C296.23 1265.75 298.88 1247.72 309.11 1247.1C319.33 1246.49 319.33 1264.52 309.11 1301.19C312.9 1292.64 316.64 1288.1 320.35 1287.57C325.9 1286.78 324.31 1298.45 314.39 1309.87L294.56 1309.87Z" />
				</g>
				<g id="&lt;Group&gt;">
					<path id="&lt;Path&gt;" class="shp4" d="M296.32 1310.5C296.25 1310.43 289.21 1303.22 283.45 1294.1C275.59 1281.67 273.72 1271.8 277.89 1264.77C279.44 1262.15 281.31 1260.93 283.44 1261.18C287.68 1261.66 292.67 1268.36 298.25 1281.09C299.95 1284.97 301.46 1288.84 302.64 1292.05C301.29 1278.13 299.71 1250.41 307.38 1241.05C309.04 1239.02 311.07 1237.92 313.41 1237.78C315.68 1237.64 317.56 1238.46 318.97 1240.21C325.86 1248.73 319.63 1278.86 316.21 1292.96C318.76 1288.82 322.38 1284.22 326.08 1283.69C327.83 1283.44 329.23 1284.09 330.01 1285.53C332.24 1289.62 329.16 1300.07 320.14 1310.46L318.78 1309.28C327.65 1299.07 330.08 1289.42 328.43 1286.39C328.01 1285.62 327.34 1285.32 326.34 1285.47C321.58 1286.15 316.02 1296.47 314.28 1300.39L312.59 1299.79C312.63 1299.66 315.99 1287.54 318.25 1274.28C321.2 1256.93 320.96 1245.54 317.57 1241.34C316.53 1240.05 315.2 1239.46 313.52 1239.58C311.67 1239.69 310.12 1240.54 308.77 1242.19C299.09 1254.01 305.29 1299.45 305.35 1299.9L303.6 1300.3C300.39 1290.2 290.48 1263.8 283.24 1262.97C281.86 1262.8 280.62 1263.7 279.44 1265.69C270.3 1281.11 297.33 1308.96 297.6 1309.24L296.32 1310.5Z" />
				</g>
			</g>
			<g id="&lt;Group&gt;" style="opacity: 0.502">
				<g id="&lt;Group&gt;">
					<path id="&lt;Path&gt;" class="shp5" d="M1732.38 562.09C1730.78 526.9 1699.64 497.14 1664.92 497.14C1615.75 497.14 1599.62 535.38 1597.68 570.55C1595.66 607.09 1627.39 632.09 1662.1 632.09C1696.81 632.09 1734.38 605.81 1732.38 562.09Z" />
				</g>
				<g id="&lt;Group&gt;">
					<path id="&lt;Path&gt;" class="shp6" d="M1720.18 565.77C1720.18 537.75 1692.62 507.89 1665.02 507C1624.2 505.67 1607.64 547.71 1607.64 575.74C1607.64 603.76 1636.14 620.47 1663.75 620.47C1691.36 620.47 1720.18 593.8 1720.18 565.77Z" />
				</g>
				<g id="&lt;Group&gt;">
					<path id="&lt;Path&gt;" class="shp5" d="M1670.94 564.83C1670.57 561 1666.56 558.45 1662.77 558.45C1658.98 558.45 1654.92 563.08 1654.92 566.93C1654.92 570.77 1658.98 573.91 1662.77 573.91C1666.56 573.91 1671.62 571.92 1670.94 564.83Z" />
				</g>
				<g id="&lt;Group&gt;">
					<g id="&lt;Group&gt;">
						<path id="&lt;Path&gt;" class="shp5" d="M1662.77 568.33L1661.4 568.33C1660.65 568.33 1660.04 567.71 1660.04 566.95C1660.04 566.19 1658.32 563.6 1659.08 563.6L1659.84 561.97L1661.47 524.12L1659.78 525.17C1659.35 525.8 1658.5 525.95 1657.88 525.53C1657.27 525.09 1657.11 524.23 1657.54 523.61L1661.73 517.44C1662.07 516.94 1662.68 516.72 1663.25 516.91C1663.82 517.09 1664.21 517.62 1664.21 518.23L1666.48 566.85C1666.48 567.61 1663.52 568.33 1662.77 568.33Z" />
					</g>
					<g id="&lt;Group&gt;">
						<path id="&lt;Path&gt;" class="shp5" d="M1667.47 525.37C1667.08 525.37 1666.69 525.2 1666.42 524.86L1661.25 521.11C1660.78 520.52 1661.4 517.63 1661.99 517.15C1662.57 516.67 1663.43 516.76 1663.9 517.35L1668.53 523.12C1669.01 523.71 1668.92 524.58 1668.33 525.06C1668.08 525.27 1667.78 525.37 1667.47 525.37Z" />
					</g>
				</g>
				<g id="&lt;Group&gt;">
					<g id="&lt;Group&gt;">
						<path id="&lt;Path&gt;" class="shp5" d="M1638.11 572.81C1637.75 572.81 1637.4 572.66 1637.13 572.38L1633.09 568.13C1632.71 567.73 1632.6 567.14 1632.81 566.63C1633.03 566.12 1633.52 565.79 1634.07 565.79L1634.07 565.79L1666.19 564.08C1666.94 564.08 1667.37 566.49 1667.37 567.25L1667.37 568.64C1667.37 569.4 1666.76 570.02 1666 570.02C1665.25 570.02 1663.56 570.71 1663.56 569.94L1664.64 568.63L1637.28 568.56L1639.09 570.47C1639.61 571.01 1639.6 571.89 1639.06 572.42C1638.79 572.68 1638.45 572.81 1638.11 572.81Z" />
					</g>
					<g id="&lt;Group&gt;">
						<path id="&lt;Path&gt;" class="shp5" d="M1634.07 568.56C1633.76 568.56 1633.46 568.45 1633.21 568.24C1632.62 567.76 1632.54 566.89 1633.01 566.3L1636.79 561.6C1637.27 561.01 1638.13 560.93 1638.71 561.41C1639.29 561.89 1639.37 562.76 1638.9 563.35L1637.42 566.87C1637.15 567.2 1634.46 568.56 1634.07 568.56Z" />
					</g>
				</g>
			</g>
			<g id="&lt;Group&gt;">
				<g id="&lt;Group&gt;">
					<g id="&lt;Group&gt;">
						<g id="&lt;Group&gt;">
							<path id="&lt;Path&gt;" class="shp7" d="M832.15 490C832.4 494.2 811 499.26 779.41 503.16C777.59 503.38 775.73 503.6 773.84 503.82C761.64 505.21 748.1 506.43 733.85 507.36C721.75 508.16 710.15 508.67 699.41 508.93C695.51 509.04 691.74 509.1 688.09 509.13C656.32 509.39 634.47 507.17 634.2 502.97C633.98 499.35 649.89 495.08 674.56 491.49C676.52 491.21 678.53 490.92 680.61 490.64C691.04 489.24 702.8 487.96 715.39 486.9C720.95 486.43 726.66 485.99 732.49 485.61C736.56 485.34 740.59 485.11 744.52 484.91C761.2 484.04 776.63 483.71 789.74 483.88C790.05 483.88 790.36 483.89 790.67 483.89C815.59 484.23 831.91 486.39 832.15 490Z" />
						</g>
						<g id="&lt;Group&gt;">
							<path id="&lt;Path&gt;" class="shp8" d="M733.17 426.77C730.82 426.77 728.91 424.86 728.91 422.51L728.91 351.13C728.91 348.78 730.82 346.87 733.17 346.87C735.52 346.87 737.43 348.78 737.43 351.13L737.43 422.51C737.43 424.86 735.52 426.77 733.17 426.77Z" />
						</g>
						<g id="&lt;Group&gt;">
							<path id="&lt;Path&gt;" class="shp8" d="M720.83 421.44C720.83 414.45 726.35 408.79 733.17 408.79C739.99 408.79 745.52 414.45 745.52 421.44C745.52 428.43 739.99 434.09 733.17 434.09C726.35 434.09 720.83 428.43 720.83 421.44Z" />
						</g>
						<g id="&lt;Group&gt;">
							<g id="&lt;Group&gt;">
								<path id="&lt;Path&gt;" class="shp9" d="M713.2 609.55C715.31 610.51 717.81 609.54 718.75 607.4L733.4 574.17C734.34 572.03 733.39 569.5 731.28 568.54C729.17 567.58 726.67 568.55 725.73 570.69L711.08 603.92C710.14 606.06 711.09 608.6 713.2 609.55Z" />
							</g>
							<g id="&lt;Group&gt;">
								<path id="&lt;Path&gt;" class="shp9" d="M703.38 605.1C705.49 606.05 707.99 605.09 708.93 602.95L725.31 565.78C726.26 563.64 725.3 561.1 723.19 560.15C721.08 559.19 718.59 560.16 717.64 562.3L701.26 599.46C700.32 601.6 701.27 604.14 703.38 605.1Z" />
							</g>
							<g id="&lt;Group&gt;">
								<path id="&lt;Path&gt;" class="shp9" d="M693.56 600.64C695.67 601.6 698.17 600.63 699.11 598.49L712.24 568.7C713.19 566.56 712.23 564.02 710.12 563.06C708.01 562.11 705.52 563.07 704.57 565.21L691.44 595C690.5 597.15 691.45 599.68 693.56 600.64Z" />
							</g>
							<g id="&lt;Group&gt;">
								<path id="&lt;Path&gt;" class="shp9" d="M711.52 631.5C724.56 622.08 731.33 611.6 731.85 600.06C732.12 594.08 702.87 581.76 697.79 586.07C694.41 588.94 690.4 597.37 685.78 611.37L711.52 631.5Z" />
							</g>
							<g id="&lt;Group&gt;">
								<path id="&lt;Path&gt;" class="shp9" d="M722.94 614.01C725.04 614.97 727.54 614 728.48 611.86L741.58 582.13C742.52 580 741.57 577.47 739.46 576.51C737.36 575.56 734.87 576.52 733.92 578.66L720.82 608.39C719.88 610.52 720.83 613.05 722.94 614.01Z" />
							</g>
							<g id="&lt;Group&gt;">
								<g id="&lt;Group&gt;">
									<path id="&lt;Path&gt;" class="shp9" d="M682.25 605.19C652.3 641.76 606.45 691.95 558.15 723.31C546.96 730.58 542.59 733.19 535.48 736.46C529.76 739.1 527.83 752.32 532.17 762.3C536.24 771.66 546.12 777.01 553.56 775.17C559.12 773.79 556.06 781.21 568.66 773.31C612.45 745.89 665.55 692.05 714.17 629.38L682.25 605.19Z" />
								</g>
							</g>
							<g id="&lt;Group&gt;">
								<path id="&lt;Path&gt;" class="shp8" d="M506.11 1282.75C506.34 1291.91 509.5 1297.78 515.61 1300.36C524.77 1304.24 551.3 1307.73 541.39 1316.56C535.7 1321.63 508.89 1318.36 501.32 1318.36C493.75 1318.36 486.64 1321.71 481.01 1316.56C476.89 1312.79 476.89 1301.52 481.01 1282.75C485.37 1285.05 489.5 1286.15 493.42 1286.05C499.06 1285.9 503.29 1284.8 506.11 1282.75Z" />
							</g>
							<g id="&lt;Group&gt;">
								<path id="&lt;Path&gt;" class="shp8" d="M400.94 1282.75C401.16 1291.9 404.33 1297.78 410.44 1300.36C419.59 1304.23 446.13 1307.73 436.21 1316.56C430.52 1321.63 403.71 1318.35 396.14 1318.35C388.57 1318.35 381.46 1321.7 375.84 1316.56C371.71 1312.79 371.71 1301.52 375.84 1282.75C380.19 1285.05 384.33 1286.15 388.25 1286.04C393.89 1285.9 398.12 1284.8 400.94 1282.75Z" />
							</g>
							<g id="&lt;Group&gt;">
								<path id="&lt;Path&gt;" class="shp10" d="M574.18 906.17C575.31 944.51 569.85 1000.44 557.79 1073.98C544.74 1153.61 529.33 1233.86 521.77 1272.33C519.06 1286.09 507.66 1296.15 494.14 1296.7L486.88 1296.99C472.27 1297.59 460.41 1284.85 461.48 1269.7L479.82 1009.44L484.34 923.77L574.18 906.17Z" />
							</g>
							<g id="&lt;Group&gt;">
								<path id="&lt;Path&gt;" class="shp10" d="M536.38 955.15L417.46 1279.53C413.19 1293.44 400.85 1302.97 386.8 1303.21L380.67 1303.32C366.21 1303.57 355.15 1289.99 357.79 1275.22L419.79 953.72C420.6 950.01 433.48 948.3 437.14 947.99C467.48 945.43 538.26 941.41 536.38 955.15Z" />
							</g>
							<g id="&lt;Group&gt;">
								<path id="&lt;Path&gt;" class="shp11" d="M458.36 762.47C470.95 738.23 493.1 729.04 524.81 734.88C547.28 739.03 560.63 728.96 566.08 770.96C570.98 808.67 560.95 857.95 555.36 930.92C532.28 877.91 488.24 860.46 423.24 878.58C420.47 854.32 424.92 821.88 436.58 781.25C441.5 764.09 452 774.06 458.36 762.47Z" />
							</g>
							<g id="&lt;Group&gt;">
								<path id="&lt;Path&gt;" class="shp11" d="M419.54 740.8L455.85 782.21C511.87 808.72 548.95 808.63 567.09 781.95C580.36 762.43 579.34 741.57 564.04 719.39C549.79 727.28 534.05 730.92 516.84 730.3C509.66 730.05 491.45 731.17 484.39 730.93C451.55 729.84 429.93 733.13 419.54 740.8Z" />
							</g>
							<g id="&lt;Group&gt;">
								<path id="&lt;Path&gt;" class="shp12" d="M470.69 1136.82L469.01 1136.43L494.09 1027.67C499.17 1011.98 509.58 998.95 523.43 990.9L524.29 992.39C510.82 1000.23 500.68 1012.92 495.75 1028.13L470.69 1136.82Z" />
							</g>
							<g id="&lt;Group&gt;">
								<path id="&lt;Path&gt;" class="shp8" d="M419.28 741.08C415.46 744.82 419.31 755.46 432.19 768.23C445.08 781 451.11 785.63 456.68 779.37C460.37 775.23 459.95 758.15 446.64 747.39C436.3 739.04 422.01 738.41 419.28 741.08Z" />
							</g>
							<g id="&lt;Group&gt;">
								<path id="&lt;Path&gt;" class="shp10" d="M438.92 947.85C482.32 940.55 525.24 941.65 567.68 951.15C570.6 951.81 572.59 954.56 572.31 957.59L570.05 981.7L503.44 964.88L438.92 947.85Z" />
							</g>
							<g id="&lt;Group&gt;">
								<g id="&lt;Group&gt;">
									<path id="&lt;Path&gt;" class="shp9" d="M317.89 952.51C315.6 952.17 313.46 953.79 313.12 956.11L307.9 992.13C307.57 994.45 309.16 996.63 311.45 996.97C313.74 997.31 315.88 995.69 316.22 993.37L321.44 957.35C321.77 955.03 320.18 952.86 317.89 952.51Z" />
								</g>
								<g id="&lt;Group&gt;">
									<path id="&lt;Path&gt;" class="shp9" d="M328.53 954.1C326.25 953.76 324.1 955.38 323.76 957.7L317.93 997.98C317.59 1000.3 319.19 1002.48 321.47 1002.82C323.76 1003.16 325.91 1001.54 326.24 999.22L332.08 958.94C332.41 956.62 330.82 954.44 328.53 954.1Z" />
								</g>
								<g id="&lt;Group&gt;">
									<path id="&lt;Path&gt;" class="shp9" d="M334.43 933.56L333.14 934.33C330.72 935.75 329.89 938.92 331.29 941.38L344.96 965.26C346.37 967.72 349.49 968.56 351.91 967.13L353.2 966.37C355.62 964.95 356.44 961.78 355.04 959.32L341.37 935.43C339.97 932.98 336.85 932.14 334.43 933.56Z" />
								</g>
								<g id="&lt;Group&gt;">
									<path id="&lt;Path&gt;" class="shp9" d="M339.17 955.69C336.89 955.35 334.74 956.97 334.4 959.29L329.73 991.58C329.39 993.9 330.99 996.07 333.27 996.42C335.56 996.76 337.7 995.14 338.04 992.82L342.72 960.53C343.05 958.21 341.46 956.03 339.17 955.69Z" />
								</g>
								<g id="&lt;Group&gt;">
									<path id="&lt;Path&gt;" class="shp9" d="M313.64 930.92C303.61 943.59 299.89 955.54 302.47 966.78C303.81 972.62 335.26 976.42 339 970.88C341.49 967.18 343.09 957.96 343.8 943.22L313.64 930.92Z" />
								</g>
								<g id="&lt;Group&gt;">
									<path id="&lt;Path&gt;" class="shp9" d="M307.33 950.9C305.04 950.56 302.9 952.18 302.57 954.5L297.9 986.72C297.56 989.03 299.16 991.21 301.44 991.55C303.72 991.89 305.86 990.27 306.2 987.96L310.86 955.73C311.2 953.42 309.61 951.25 307.33 950.9Z" />
								</g>
							</g>
							<g id="&lt;Group&gt;">
								<g id="&lt;Group&gt;">
									<path id="&lt;Path&gt;" class="shp9" d="M348.84 948.2C367.9 904.75 398.62 843.83 436.73 800.34C445.56 790.26 449.07 786.55 455.04 781.44C459.84 777.33 458.16 764.08 451.32 755.67C444.91 747.78 433.97 745.34 427.29 749.17C422.31 752.03 417.91 756.11 407.89 767.18C373.08 805.63 341.71 860 311.66 933.69L348.84 948.2Z" />
								</g>
							</g>
							<g id="&lt;Group&gt;" style="opacity: 0.502">
								<path id="&lt;Compound Path&gt;" fill-rule="evenodd" class="shp1" d="M370.38 852.88C369.43 852.88 368.52 852.67 367.68 852.22C366.29 851.48 365.29 850.19 364.78 848.47C363.93 845.65 364.51 841.99 366.32 838.68C369.35 833.13 374.7 830.36 378.5 832.38C379.88 833.11 380.88 834.41 381.4 836.13C382.24 838.95 381.67 842.61 379.86 845.92C377.49 850.24 373.73 852.88 370.38 852.88ZM375.83 833.8C373.26 833.8 370.08 836.12 368.14 839.67C366.59 842.5 366.08 845.57 366.77 847.87C367.01 848.69 367.54 849.79 368.65 850.39C371.34 851.82 375.64 849.32 378.04 844.92C379.59 842.09 380.1 839.03 379.41 836.72C379.16 835.9 378.64 834.8 377.52 834.21C377.01 833.93 376.43 833.8 375.83 833.8Z" />
							</g>
							<g id="&lt;Group&gt;">
								<path id="&lt;Path&gt;" class="shp9" d="M495.27 718.78L496.36 702.04L496.67 697.17L498.52 668.53L505.85 694.8L510.24 710.56C512.57 720.38 514.66 726.24 516.52 728.14C520.52 732.23 521.63 737.37 513.36 738.97C503.24 740.93 494.13 737.57 485.69 731C485.74 730.98 495.02 727.43 495.27 718.78Z" />
							</g>
							<g id="&lt;Group&gt;">
								<g id="&lt;Group&gt;">
									<path id="&lt;Path&gt;" class="shp13" d="M517.1 657.66C519.22 661.69 520.37 666.54 520.53 672.2C520.7 677.87 516.51 674.72 507.98 662.78L517.1 657.66Z" />
								</g>
								<g id="&lt;Group&gt;">
									<path id="&lt;Path&gt;" class="shp9" d="M522.05 674.3C516.33 659.15 501.66 650.76 489.28 655.57C476.9 660.38 471.49 676.56 477.21 691.72C482.92 706.87 497.59 715.26 509.97 710.45C522.35 705.64 527.76 689.46 522.05 674.3Z" />
								</g>
								<g id="&lt;Group&gt;">
									<g id="&lt;Group&gt;">
										<path id="&lt;Path&gt;" class="shp14" d="M500.57 681.51C500.67 681.41 500.73 681.25 500.71 681.09C500.66 680.83 500.42 680.64 500.15 680.68C500 680.71 496.32 680.92 495.44 685.16C495.38 685.42 495.54 685.69 495.8 685.75C496.07 685.81 496.27 685.63 496.39 685.38C497.55 682.91 500.17 681.68 500.3 681.66C500.41 681.64 500.5 681.59 500.57 681.51Z" />
									</g>
								</g>
								<g id="&lt;Group&gt;">
									<path id="&lt;Path&gt;" class="shp14" d="M499.97 688.17C500.53 689.21 501.58 689.71 502.32 689.3C503.06 688.89 503.21 687.72 502.65 686.69C502.09 685.65 501.04 685.15 500.3 685.56C499.56 685.97 499.41 687.14 499.97 688.17Z" />
								</g>
								<g id="&lt;Group&gt;">
									<g id="&lt;Group&gt;">
										<path id="&lt;Path&gt;" class="shp14" d="M517.74 675.84C517.85 675.79 517.93 675.68 517.94 675.53C517.97 675.28 517.82 675.01 517.61 674.93C517.48 674.88 514.56 673.41 512.91 676.66C512.81 676.86 512.87 677.16 513.06 677.33C513.25 677.5 513.45 677.44 513.6 677.28C515.07 675.68 517.39 675.79 517.5 675.84C517.59 675.87 517.67 675.87 517.74 675.84Z" />
									</g>
								</g>
								<g id="&lt;Group&gt;">
									<path id="&lt;Path&gt;" class="shp14" d="M514.59 681.81C514.72 682.98 515.5 683.85 516.34 683.76C517.17 683.66 517.75 682.64 517.62 681.46C517.49 680.29 516.71 679.42 515.87 679.51C515.04 679.61 514.46 680.63 514.59 681.81Z" />
								</g>
								<g id="&lt;Group&gt;">
									<path id="&lt;Path&gt;" class="shp13" d="M459.91 688.07C467.79 698.2 475.53 702.79 483.1 701.84C475.09 694.6 476.74 686.81 488.07 678.46C476.09 679.42 466.7 682.63 459.91 688.07Z" />
								</g>
								<g id="&lt;Group&gt;">
									<path id="&lt;Path&gt;" class="shp9" d="M477.73 693.72C480.46 694.67 483.35 693.44 484.19 690.96C485.03 688.49 483.5 685.71 480.77 684.76C478.04 683.81 475.15 685.04 474.31 687.51C473.47 689.98 475 692.76 477.73 693.72Z" />
								</g>
								<g id="&lt;Group&gt;">
									<path id="&lt;Path&gt;" class="shp13" d="M488.07 678.46C489.32 688.27 491.11 693.85 493.46 695.19C496.97 697.2 516.24 693.75 524.29 688.12C526.61 697.3 522.13 706.99 513.53 710.69C510.69 711.91 507.63 712.66 504.46 712.86C497.99 713.26 491.35 712.13 487.41 706.91C486.61 705.85 486.11 701.49 485.9 693.83C485.46 689.41 483.75 686.39 480.77 684.76C482.99 681.49 485.43 679.39 488.07 678.46Z" />
								</g>
								<g id="&lt;Group&gt;">
									<path id="&lt;Path&gt;" class="shp0" d="M520.83 694.43C516.29 696.94 511.31 698.58 505.88 699.35C507.84 704.14 511.38 705.39 516.51 703.1C519.49 701.76 520.93 698.87 520.83 694.43Z" />
								</g>
								<g id="&lt;Group&gt;">
									<path id="&lt;Path&gt;" class="shp15" d="M480.26 679.5C513.02 676.3 533.6 669.9 542.02 660.32C550.43 650.74 541.57 647.51 515.45 650.65C494.22 669.59 482.49 679.2 480.26 679.5Z" />
								</g>
								<g id="&lt;Group&gt;">
									<path id="&lt;Path&gt;" class="shp16" d="M515.45 650.65C506.19 638.84 493.98 635.03 478.81 639.21C456.06 645.47 445.58 664.43 459.91 688.07C472.2 685.91 483.9 679.83 495.01 669.86C506.13 659.88 512.94 653.48 515.45 650.65Z" />
								</g>
							</g>
							<g id="&lt;Group&gt;">
								<path id="&lt;Path&gt;" class="shp10" d="M423.57 872.86C449.8 861.69 465.23 846.72 469.85 827.97C476.78 799.84 471.4 779.12 501.94 776.61C532.47 774.1 556.33 769.58 566.5 779.12C576.05 788.09 577.94 900.32 571.47 965.67C571.22 968.2 571.13 970.34 570.96 972.02C569.06 990.72 518.03 989.84 417.87 969.39L423.57 872.86Z" />
							</g>
							<g id="&lt;Group&gt;">
								<path id="&lt;Path&gt;" class="shp10" d="M502.83 781.04C497.62 753.81 489.76 737.05 479.25 730.77C473.89 728.89 470.49 728.89 469.05 730.77C482.04 750.65 488.38 769.18 488.07 786.34L502.83 781.04Z" />
							</g>
							<g id="&lt;Group&gt;">
								<path id="&lt;Path&gt;" class="shp10" d="M544.52 777.55C537.73 753.68 530.43 737.93 522.63 730.3C526.6 728.67 530.63 729.28 534.71 732.14C547.24 747.34 554.02 762.9 555.05 778.81L544.52 777.55Z" />
							</g>
							<g id="&lt;Group&gt;">
								<g id="&lt;Group&gt;">
									<path id="&lt;Path&gt;" class="shp17" d="M801.79 542.4C808.24 569.75 789.55 605.83 757.83 613.53C726.1 621.23 693.29 605.68 688.71 577.94C682.05 537.51 702.76 522.17 734.49 514.47C766.21 506.77 795.35 515.04 801.79 542.4Z" />
								</g>
								<g id="&lt;Group&gt;">
									<path id="&lt;Path&gt;" class="shp17" d="M698.73 532.23C710.63 520.05 715.02 507.34 711.9 494.11L739.58 487.39C742.81 501.05 752.22 509.48 767.81 512.68C746.15 530.8 723.12 537.32 698.73 532.23Z" />
								</g>
								<g id="&lt;Group&gt;">
									<path id="&lt;Path&gt;" class="shp11" d="M712.68 501.42C706.65 501.97 703.57 498.82 703.44 491.97C698.29 488.55 697.23 484.54 700.26 479.93C695.85 476.13 694.72 471.59 696.87 466.34C700.1 458.45 736.53 452.84 740.2 455.82C743.87 458.8 743.47 463.42 740.71 465.16C744.06 466.7 745.68 468.93 745.59 471.87C745.49 474.81 744.77 476.73 743.43 477.63C745.86 478.33 747.61 480.49 748.67 484.11C750.26 489.53 745.73 498.11 712.68 501.42Z" />
								</g>
								<g id="&lt;Group&gt;" style="opacity: 0.4">
									<path id="&lt;Path&gt;" class="shp0" d="M761.41 588.13C767.76 581.47 771.31 573.74 772.07 564.95C773.2 551.76 786.44 552.51 790.46 563.11C794.49 573.71 787.69 589.14 779.78 591.92C771.87 594.7 759.09 598.1 761.41 588.13Z" />
								</g>
								<g id="&lt;Group&gt;">
									<path id="&lt;Path&gt;" class="shp18" d="M702.96 480.66C701.25 480.66 700.23 480.56 700.19 480.55L700.33 479.31C700.47 479.33 714.45 480.7 727.24 472.77L727.9 473.83C718.17 479.86 707.79 480.66 702.96 480.66Z" />
								</g>
								<g id="&lt;Group&gt;">
									<path id="&lt;Path&gt;" class="shp18" d="M703.5 492.59C703.47 492.59 703.45 492.59 703.44 492.59L703.45 491.34C703.45 491.34 703.45 491.34 703.45 491.34C703.9 491.34 722.23 491.28 732.48 484.32L733.18 485.35C722.72 492.45 704.84 492.59 703.5 492.59Z" />
								</g>
							</g>
							<g id="&lt;Group&gt;">
								<path id="&lt;Path&gt;" class="shp9" d="M677.9 610.46C680.65 602.74 681.4 596.26 680.15 591.02C678.28 583.17 687.43 567.08 690.97 561.51C694.98 555.2 698.39 557.98 698.6 562.66C698.76 566.28 695.99 570.64 696.54 575.33C697.79 586.07 699.7 583.08 703.11 595.26C706.53 607.45 706.24 612.85 700.46 615.75C696.61 617.69 689.09 615.92 677.9 610.46Z" />
							</g>
						</g>
					</g>
					<g id="&lt;Group&gt;">
						<path id="&lt;Path&gt;" class="shp8" d="M495.3 787.6C495.3 785.26 497.16 783.36 499.47 783.36C501.78 783.36 503.12 785.32 503.65 787.6C504.38 790.73 501.78 791.84 499.47 791.84C497.16 791.84 495.3 789.94 495.3 787.6Z" />
					</g>
					<g id="&lt;Group&gt;">
						<path id="&lt;Path&gt;" class="shp8" d="M543.27 781.95C543.27 779.61 545.13 777.71 547.44 777.71C549.75 777.71 551.09 779.67 551.62 781.95C552.34 785.08 549.75 786.18 547.44 786.18C545.13 786.18 543.27 784.29 543.27 781.95Z" />
					</g>
				</g>
				<g id="&lt;Group&gt;">
					<g id="&lt;Group&gt;">
						<path id="&lt;Path&gt;" class="shp15" d="M832.15 490.08L832.15 490C831.91 486.39 815.59 484.23 790.67 483.89C790.36 483.89 790.05 483.88 789.73 483.88C776.63 483.71 761.2 484.04 744.53 484.92C740.59 485.11 736.56 485.34 732.5 485.61C726.66 486 720.95 486.44 715.4 486.9C702.8 487.96 691.04 489.24 680.6 490.64C678.53 490.92 676.52 491.21 674.55 491.48C650.09 495.07 634.23 499.27 634.2 502.89C634.25 459.89 678.44 419.56 733.17 419.56C787.95 419.56 832.35 450.82 832.35 489.39C832.35 489.61 832.29 489.85 832.15 490.08Z" />
					</g>
				</g>
			</g>
			<g id="&lt;Group&gt;">
				<g id="&lt;Group&gt;">
					<g id="&lt;Group&gt;">
						<g id="&lt;Group&gt;">
							<path id="&lt;Path&gt;" class="shp11" d="M916.54 1325.9C915.64 1325.9 914.73 1325.75 913.84 1325.44C909.62 1323.95 907.41 1319.32 908.9 1315.1L1062.74 879C1064.23 874.78 1068.85 872.57 1073.08 874.06C1077.29 875.54 1079.51 880.17 1078.02 884.39L924.18 1320.49C923 1323.82 919.88 1325.9 916.54 1325.9Z" />
						</g>
						<g id="&lt;Group&gt;">
							<path id="&lt;Path&gt;" class="shp11" d="M707.44 1325.9C706.54 1325.9 705.63 1325.75 704.74 1325.44C700.52 1323.95 698.3 1319.32 699.79 1315.1L853.64 879C855.12 874.78 859.75 872.57 863.97 874.06C868.19 875.54 870.41 880.17 868.92 884.39L715.08 1320.49C713.9 1323.82 710.77 1325.9 707.44 1325.9Z" />
						</g>
						<g id="&lt;Group&gt;">
							<path id="&lt;Path&gt;" class="shp11" d="M964.41 1182.09L755.32 1182.06L749.52 1198.49L959.5 1196L964.41 1182.09Z" />
						</g>
						<g id="&lt;Group&gt;">
							<path id="&lt;Path&gt;" class="shp11" d="M1023.98 1028.57L814.89 1028.54L809.09 1044.97L1019.08 1042.48L1023.98 1028.57Z" />
						</g>
						<g id="&lt;Group&gt;">
							<path id="&lt;Path&gt;" class="shp11" d="M1053.68 925.57L844.59 925.54L838.79 941.97L1048.78 939.47L1053.68 925.57Z" />
						</g>
						<g id="&lt;Group&gt;">
							<path id="&lt;Path&gt;" class="shp11" d="M1027.56 1299.06C1023.97 1299.06 1020.69 1296.66 1019.73 1293.03L976.15 1128.68C975 1124.35 977.58 1119.91 981.91 1118.77C986.23 1117.62 990.67 1120.2 991.82 1124.52L1035.4 1288.88C1036.54 1293.21 1033.97 1297.64 1029.64 1298.79C1028.94 1298.97 1028.25 1299.06 1027.56 1299.06Z" />
						</g>
					</g>
					<g id="&lt;Group&gt;">
						<g id="&lt;Group&gt;">
							<path id="&lt;Path&gt;" class="shp19" d="M1453.39 366.8L1022.35 366.8C1007.86 366.8 996.12 378.54 996.12 393.03L996.12 471.27C996.12 514.85 1031.44 550.18 1075.02 550.18L1453.39 550.18C1467.88 550.18 1479.62 538.44 1479.62 523.95L1479.62 393.03C1479.62 378.54 1467.88 366.8 1453.39 366.8Z" />
						</g>
						<g id="&lt;Group&gt;">
							<path id="&lt;Path&gt;" class="shp20" d="M1034.71 506.16C1031.49 506.16 1029.82 510.06 1032 512.46C1046.67 528.53 1067.59 538.64 1090.88 538.64L1385.59 538.64C1396.92 538.64 1406.11 529.31 1406.11 517.8L1406.11 509.91C1406.11 507.84 1404.46 506.16 1402.42 506.16L1034.71 506.16Z" />
						</g>
						<g id="&lt;Group&gt;">
							<path id="&lt;Path&gt;" class="shp20" d="M1399.47 486.23L1021.85 486.23C1020.57 486.23 1019.54 485.18 1019.54 483.89C1019.54 482.59 1020.57 481.54 1021.85 481.54L1399.47 481.54C1400.74 481.54 1401.78 482.59 1401.78 483.89C1401.78 485.18 1400.74 486.23 1399.47 486.23Z" />
						</g>
						<g id="&lt;Group&gt;">
							<path id="&lt;Path&gt;" class="shp20" d="M1399.47 468.54L1021.85 468.54C1020.57 468.54 1019.54 467.49 1019.54 466.2C1019.54 464.9 1020.57 463.86 1021.85 463.86L1399.47 463.86C1400.74 463.86 1401.78 464.9 1401.78 466.2C1401.78 467.49 1400.74 468.54 1399.47 468.54Z" />
						</g>
						<g id="&lt;Group&gt;">
							<path id="&lt;Path&gt;" class="shp15" d="M1399.47 383.65C1399.47 379.69 1396.31 376.49 1392.42 376.49C1388.52 376.49 1385.36 379.69 1385.36 383.65C1385.36 387.6 1388.52 390.81 1392.42 390.81C1396.31 390.81 1399.47 387.6 1399.47 383.65Z" />
						</g>
						<g id="&lt;Group&gt;">
							<path id="&lt;Path&gt;" class="shp8" d="M1372.08 383.65C1372.08 379.69 1368.92 376.49 1365.03 376.49C1361.13 376.49 1357.97 379.69 1357.97 383.65C1357.97 387.6 1361.13 390.81 1365.03 390.81C1368.92 390.81 1372.08 387.6 1372.08 383.65Z" />
						</g>
					</g>
					<g id="&lt;Group&gt;">
						<g id="&lt;Group&gt;">
							<path id="&lt;Path&gt;" class="shp9" d="M754.35 823.03C752.27 822.86 750.43 824.45 750.26 826.56L747.62 859.35C747.45 861.46 749.02 863.33 751.1 863.5C753.18 863.67 755.02 862.08 755.19 859.97L757.82 827.19C757.99 825.07 756.43 823.2 754.35 823.03Z" />
						</g>
						<g id="&lt;Group&gt;">
							<path id="&lt;Path&gt;" class="shp9" d="M764.04 823.83C761.95 823.66 760.11 825.25 759.94 827.36L757 864.03C756.83 866.14 758.39 868.01 760.47 868.18C762.56 868.35 764.4 866.77 764.57 864.65L767.51 827.99C767.68 825.87 766.12 824.01 764.04 823.83Z" />
						</g>
						<g id="&lt;Group&gt;">
							<path id="&lt;Path&gt;" class="shp9" d="M768.17 804.97L767.05 805.73C764.95 807.16 764.39 810.07 765.79 812.19L779.49 832.92C780.9 835.05 783.77 835.63 785.86 834.2L786.98 833.43C789.08 832.01 789.65 829.1 788.24 826.97L774.54 806.24C773.13 804.11 770.27 803.54 768.17 804.97Z" />
						</g>
						<g id="&lt;Group&gt;">
							<path id="&lt;Path&gt;" class="shp9" d="M773.72 824.63L773.72 824.63C771.64 824.46 769.8 826.05 769.63 828.16L767.27 857.55C767.1 859.67 768.66 861.54 770.75 861.71C772.83 861.88 774.67 860.29 774.84 858.18L777.2 828.79C777.37 826.68 775.8 824.81 773.72 824.63Z" />
						</g>
						<g id="&lt;Group&gt;">
							<path id="&lt;Path&gt;" class="shp9" d="M749.27 803.82C740.96 815.83 738.29 826.83 741.26 836.81C742.81 842 771.39 843.56 774.44 838.34C776.47 834.86 777.38 826.45 777.17 813.11L749.27 803.82Z" />
						</g>
						<g id="&lt;Group&gt;">
							<path id="&lt;Path&gt;" class="shp9" d="M744.73 822.21C742.65 822.04 740.82 823.62 740.65 825.73L738.29 855.06C738.12 857.17 739.68 859.03 741.76 859.2C743.84 859.38 745.67 857.79 745.84 855.68L748.2 826.35C748.37 824.24 746.81 822.38 744.73 822.21Z" />
						</g>
					</g>
					<g id="&lt;Group&gt;">
						<g id="&lt;Group&gt;">
							<path id="&lt;Path&gt;" class="shp9" d="M782.01 817.31C796.7 777 820.89 720.24 852.74 678.77C860.13 669.16 863.08 665.6 868.16 660.65C872.25 656.66 869.98 644.8 863.33 637.63C857.09 630.89 845.23 628.47 842.77 630.28C838.59 633.37 833.23 640.01 824.84 650.58C795.66 687.31 770.5 738.2 747.65 806.43L782.01 817.31Z" />
						</g>
					</g>
					<g id="&lt;Group&gt;" style="opacity: 0.502">
						<path id="&lt;Compound Path&gt;" fill-rule="evenodd" class="shp1" d="M798.35 721.78C797.69 721.78 797.06 721.64 796.48 721.37C793.48 719.99 792.61 715.39 794.52 711.12C795.66 708.59 797.58 706.61 799.67 705.83C801 705.33 802.31 705.34 803.45 705.87C806.44 707.25 807.32 711.85 805.4 716.12C804.27 718.65 802.34 720.63 800.26 721.41C799.61 721.66 798.97 721.78 798.35 721.78ZM801.58 707.05C801.14 707.05 800.69 707.14 800.22 707.31C798.53 707.95 796.94 709.61 795.97 711.77C794.44 715.19 794.98 718.93 797.14 719.93C797.89 720.27 798.78 720.27 799.7 719.92C801.4 719.29 802.99 717.62 803.95 715.47C805.49 712.05 804.95 708.31 802.78 707.31C802.41 707.14 802 707.05 801.58 707.05Z" />
					</g>
					<g id="&lt;Group&gt;">
						<path id="&lt;Path&gt;" class="shp9" d="M922.51 606.26L926.9 586.88L928.18 581.24L935.7 548.08L939.36 580.23L941.56 599.52L942.26 605.63C942.73 609.78 943.82 615.65 947.13 619.03C948.47 620.4 958.47 623.5 949.82 628.19C939.04 634.03 917.66 628.04 909.01 618.72C909.07 618.71 921.09 612.52 922.51 606.26Z" />
					</g>
					<g id="&lt;Group&gt;">
						<path id="&lt;Path&gt;" class="shp9" d="M962.95 554.42C959.09 535.58 943.49 522.94 928.09 526.18C912.7 529.43 903.35 547.33 907.21 566.17C911.06 585 926.66 597.65 942.06 594.4C957.45 591.15 966.8 573.25 962.95 554.42Z" />
					</g>
					<g id="&lt;Group&gt;">
						<path id="&lt;Path&gt;" class="shp8" d="M950.17 546.98C966.45 546.38 973.62 536.28 973.16 527.46C972.58 516.16 964.84 506.69 957 511.5C949.15 516.31 951.9 505.76 943.98 505.26C929.18 504.33 927.21 515.11 915.26 516.53C899.49 518.4 883.42 546.51 898.11 565.03C924.25 553.32 941.6 547.3 950.17 546.98Z" />
					</g>
					<g id="&lt;Group&gt;">
						<path id="&lt;Path&gt;" class="shp8" d="M963.79 534.51C953.06 546.68 948.69 555.89 950.68 562.13C953.66 571.49 953.36 575.27 943.6 581.12C933.85 586.97 943.4 594.56 929.94 596.17C916.49 597.79 898.77 582.85 896.82 556.24C896.1 546.34 898.3 537.95 903.42 531.06L963.79 534.51Z" />
					</g>
					<g id="&lt;Group&gt;">
						<path id="&lt;Path&gt;" class="shp9" d="M959.4 561.05C957.23 558.37 953.55 557.79 951.19 559.76C948.83 561.73 948.68 565.5 950.85 568.18C953.02 570.86 956.7 571.44 959.06 569.47C961.42 567.5 961.57 563.73 959.4 561.05Z" />
					</g>
					<g id="&lt;Group&gt;">
						<path id="&lt;Path&gt;" class="shp8" d="M901.53 561.24C901.48 561.24 901.43 561.23 901.38 561.21C901.16 561.13 901.05 560.89 901.13 560.67C902.54 556.87 906.38 555.22 906.54 555.15C906.76 555.06 907 555.16 907.1 555.38C907.19 555.59 907.09 555.84 906.87 555.93C906.83 555.94 903.2 557.51 901.92 560.96C901.86 561.13 901.7 561.24 901.53 561.24Z" />
					</g>
					<g id="&lt;Group&gt;">
						<path id="&lt;Path&gt;" class="shp8" d="M906.99 553.91C906.96 553.91 906.93 553.91 906.9 553.9C906.86 553.89 901.91 552.82 901.74 548.65C901.73 548.41 901.91 548.22 902.14 548.21C902.37 548.2 902.57 548.38 902.58 548.61C902.73 552.13 907.03 553.07 907.08 553.07C907.3 553.12 907.45 553.35 907.4 553.57C907.36 553.77 907.19 553.91 906.99 553.91Z" />
					</g>
					<g id="&lt;Group&gt;">
						<path id="&lt;Path&gt;" class="shp8" d="M954.29 511.02C953.84 511.02 953.41 510.9 952.99 510.66C950.71 509.36 949.91 504.79 949.88 504.59C949.84 504.37 950 504.15 950.23 504.11C950.46 504.07 950.67 504.22 950.71 504.45C950.72 504.5 951.48 508.83 953.41 509.93C953.92 510.22 954.46 510.25 955.06 510.02C956.26 509.56 957.16 508.82 958.03 508.1C959.75 506.68 961.54 505.22 965.4 506.17C965.63 506.23 965.77 506.46 965.71 506.68C965.66 506.91 965.43 507.04 965.2 506.99C961.74 506.14 960.27 507.35 958.56 508.75C957.64 509.51 956.69 510.3 955.36 510.81C955 510.95 954.64 511.02 954.29 511.02Z" />
					</g>
					<g id="&lt;Group&gt;">
						<path id="&lt;Path&gt;" class="shp8" d="M915.52 515.06C915.19 515.06 914.86 515.05 914.53 515.02C914.3 515 914.13 514.8 914.15 514.56C914.17 514.33 914.37 514.16 914.61 514.18C920.87 514.72 925.82 509.31 925.87 509.25C926.02 509.08 926.29 509.06 926.46 509.22C926.63 509.38 926.65 509.64 926.49 509.82C926.29 510.04 921.71 515.06 915.52 515.06Z" />
					</g>
					<g id="&lt;Group&gt;">
						<path id="&lt;Path&gt;" class="shp8" d="M955.4 570.97C953.99 570.97 951.81 570.35 949.94 567.17C949.88 567.08 949.91 566.95 950.01 566.9C950.11 566.84 950.23 566.87 950.29 566.97C953.14 571.81 956.57 570.41 956.71 570.35C956.82 570.3 956.94 570.35 956.98 570.46C957.02 570.56 956.98 570.68 956.88 570.72C956.86 570.73 956.28 570.97 955.4 570.97Z" />
					</g>
					<g id="&lt;Group&gt;">
						<g id="&lt;Group&gt;">
							<path id="&lt;Path&gt;" class="shp9" d="M1119.31 612.76C1121.48 607.43 1114.12 600.18 1097.23 591.01C1094.46 590.41 1073.12 639.96 1026.84 644.34C1010.36 645.91 979.5 628.72 976.46 625.5C976.19 625.22 967.02 633.57 948.96 650.55C954.47 656.36 966.66 677.03 988.4 684.93C1033.35 701.27 1106.41 666.43 1119.31 612.76Z" />
						</g>
					</g>
					<g id="&lt;Group&gt;">
						<path id="&lt;Path&gt;" class="shp8" d="M918.8 1149.6C919 1157.71 921.8 1162.91 927.21 1165.2C935.33 1168.63 958.84 1171.73 950.05 1179.56C945.01 1184.05 921.26 1181.15 914.55 1181.15C907.84 1181.15 901.55 1184.11 896.56 1179.56C892.91 1176.21 892.91 1166.23 896.56 1149.6C900.42 1151.64 904.08 1152.61 907.55 1152.52C912.55 1152.39 916.3 1151.41 918.8 1149.6Z" />
					</g>
					<g id="&lt;Group&gt;">
						<path id="&lt;Path&gt;" class="shp20" d="M988.8 782.3C989.88 818.92 984.67 872.35 973.15 942.6C960.68 1018.66 945.97 1095.31 938.75 1132.06C936.16 1145.21 925.27 1154.82 912.36 1155.34L905.42 1155.63C891.46 1156.19 880.14 1144.03 881.16 1129.56L898.67 880.95L902.99 799.12L988.8 782.3Z" />
					</g>
					<g id="&lt;Group&gt;">
						<path id="&lt;Path&gt;" class="shp8" d="M841.95 1149.6C842.15 1157.71 844.96 1162.91 850.37 1165.2C858.48 1168.63 881.99 1171.73 873.21 1179.56C868.17 1184.05 844.41 1181.15 837.7 1181.15C830.99 1181.15 824.7 1184.11 819.71 1179.56C816.06 1176.21 816.06 1166.23 819.71 1149.6C823.57 1151.64 827.24 1152.61 830.71 1152.52C835.71 1152.39 839.46 1151.41 841.95 1149.6Z" />
					</g>
					<g id="&lt;Group&gt;">
						<path id="&lt;Path&gt;" class="shp20" d="M911.96 782.3C913.04 818.92 907.82 872.35 896.3 942.6C883.84 1018.66 869.12 1095.31 861.9 1132.06C859.31 1145.21 848.42 1154.82 835.51 1155.34L828.58 1155.63C814.62 1156.19 803.29 1144.03 804.31 1129.56L821.83 880.95L826.14 799.12L911.96 782.3Z" />
					</g>
					<g id="&lt;Group&gt;">
						<path id="&lt;Path&gt;" class="shp15" d="M858.23 638.65C867.1 616.53 892.59 608.35 934.68 614.12C1025.73 626.6 1003.73 691.05 996.12 774.14C940.64 771.89 883.75 772.9 825.46 777.15C829.28 717.97 840.2 671.8 858.23 638.65Z" />
					</g>
					<g id="&lt;Group&gt;">
						<path id="&lt;Path&gt;" class="shp15" d="M823.03 637.2C830.25 661.32 843.36 676.93 862.35 684.03C889.41 694.14 984.49 711.65 1004.38 697.11C1022.13 684.13 1026.29 664.16 1016.84 637.2C1004.91 633.79 984.83 627.64 956.58 618.74C952.6 617.49 948.44 616.39 944.1 615.47C936.82 613.94 929.43 613.18 922.13 612.79C877.27 610.39 844.24 618.52 823.03 637.2Z" />
					</g>
					<g id="&lt;Group&gt;">
						<path id="&lt;Path&gt;" class="shp8" d="M892.71 966.12C892.68 966.12 892.65 966.12 892.62 966.11C892.33 966.06 892.14 965.79 892.19 965.5C897.4 936.37 892.37 912.93 887.23 898.39C881.66 882.65 874.79 873.7 874.72 873.61C874.54 873.38 874.59 873.05 874.82 872.87C875.05 872.69 875.38 872.73 875.56 872.96C875.84 873.32 903.28 909.5 893.23 965.68C893.18 965.94 892.96 966.12 892.71 966.12Z" />
					</g>
					<g id="&lt;Group&gt;">
						<path id="&lt;Path&gt;" class="shp20" d="M825.46 777.15C857.2 752.54 873.76 724.32 875.14 692.5C877.21 644.78 900.79 650.43 916.54 651.69C932.28 652.94 953.94 651.69 956.41 664.87C958.88 678.06 948.99 711.97 969.4 742.74C983.02 763.26 991.92 773.72 996.12 774.14L982.86 873.29L823.19 855.15L825.46 777.15Z" />
					</g>
					<g id="&lt;Group&gt;">
						<path id="&lt;Path&gt;" class="shp20" d="M897.63 655.04L895.98 612.68C901.56 610.95 906.12 610.88 909.65 612.47L908.68 657.56L897.63 655.04Z" />
					</g>
					<g id="&lt;Group&gt;">
						<path id="&lt;Path&gt;" class="shp20" d="M937.23 657.56L960.56 620.55C970.09 619.51 975.39 621.17 976.46 625.5L948.96 667.18L937.23 657.56Z" />
					</g>
					<g id="&lt;Group&gt;">
						<g id="&lt;Group&gt;">
							<path id="&lt;Path&gt;" class="shp8" d="M1098.76 549.59C1097.81 550.07 1096.64 549.67 1096.16 548.7L1069.89 494.82C1069.42 493.85 1069.82 492.66 1070.77 492.19C1071.73 491.71 1072.9 492.11 1073.37 493.08L1099.64 546.96C1100.11 547.93 1099.72 549.11 1098.76 549.59Z" />
						</g>
						<g id="&lt;Group&gt;">
							<path id="&lt;Path&gt;" class="shp15" d="M1124.83 603.06C1119.6 605.69 1113.19 603.5 1110.61 598.18L1086.42 548.58C1083.83 543.26 1085.99 536.76 1091.22 534.14C1096.46 531.51 1102.86 533.7 1105.45 539.01L1129.64 588.62C1132.23 593.93 1130.07 600.43 1124.83 603.06Z" />
						</g>
					</g>
					<g id="&lt;Group&gt;">
						<g id="&lt;Group&gt;">
							<path id="&lt;Path&gt;" class="shp9" d="M1121.01 595.54L1121.87 596.16C1123.34 597.21 1125.39 596.86 1126.43 595.37L1137.95 578.89C1138.99 577.4 1138.64 575.32 1137.17 574.26L1136.31 573.64C1134.85 572.59 1132.79 572.94 1131.75 574.43L1120.24 590.91C1119.2 592.4 1119.55 594.48 1121.01 595.54Z" />
						</g>
						<g id="&lt;Group&gt;">
							<path id="&lt;Path&gt;" class="shp9" d="M1113.14 589.88L1113.89 590.41C1115.39 591.49 1117.48 591.13 1118.54 589.61L1133.53 568.16C1134.59 566.64 1134.24 564.51 1132.74 563.43L1131.99 562.89C1130.49 561.82 1128.4 562.18 1127.34 563.7L1112.35 585.15C1111.29 586.67 1111.64 588.8 1113.14 589.88Z" />
						</g>
						<g id="&lt;Group&gt;">
							<path id="&lt;Path&gt;" class="shp9" d="M1100.47 604.23L1101.82 604.15C1104.34 604.01 1106.29 601.8 1106.15 599.24L1104.79 574.32C1104.65 571.76 1102.48 569.78 1099.95 569.93L1098.61 570C1096.09 570.14 1094.14 572.35 1094.28 574.91L1095.64 599.83C1095.77 602.39 1097.95 604.37 1100.47 604.23Z" />
						</g>
						<g id="&lt;Group&gt;">
							<path id="&lt;Path&gt;" class="shp9" d="M1105.59 584.44C1107.29 585.66 1109.67 585.25 1110.88 583.52L1127.69 559.47C1128.89 557.74 1128.49 555.32 1126.79 554.1C1125.08 552.87 1122.7 553.28 1121.49 555.01L1104.69 579.07C1103.48 580.79 1103.88 583.21 1105.59 584.44Z" />
						</g>
						<g id="&lt;Group&gt;">
							<path id="&lt;Path&gt;" class="shp9" d="M1116.15 615C1129.34 608.98 1137.16 600.9 1139.62 590.77C1140.9 585.52 1121.43 563.66 1116.19 566.57C1112.69 568.51 1106.24 577.17 1096.83 592.56L1116.15 615Z" />
						</g>
						<g id="&lt;Group&gt;">
							<path id="&lt;Path&gt;" class="shp9" d="M1128.75 601.15L1129.85 601.93C1131.25 602.94 1133.2 602.6 1134.19 601.18L1143.46 587.92C1144.45 586.5 1144.12 584.52 1142.72 583.51L1141.63 582.72C1140.23 581.72 1138.27 582.05 1137.28 583.47L1128.01 596.73C1127.02 598.15 1127.35 600.14 1128.75 601.15Z" />
						</g>
					</g>
				</g>
			</g>
			<g id="&lt;Group&gt;">
				<g id="&lt;Group&gt;">
					<path id="&lt;Path&gt;" class="shp8" d="M2020.45 1240.27C2020.23 1249 2017.17 1254.61 2011.25 1257.07C2002.39 1260.77 1976.69 1264.1 1986.29 1272.53C1991.8 1277.36 2017.77 1274.24 2025.1 1274.24C2032.43 1274.24 2039.31 1277.43 2044.76 1272.53C2048.75 1268.93 2048.75 1258.18 2044.76 1240.27C2040.54 1242.46 2036.53 1243.51 2032.74 1243.41C2027.28 1243.27 2023.18 1242.22 2020.45 1240.27Z" />
				</g>
				<g id="&lt;Group&gt;">
					<path id="&lt;Path&gt;" class="shp8" d="M2173.27 1240.65C2175.74 1249.04 2174.53 1255.31 2169.65 1259.46C2162.34 1265.69 2138.89 1276.72 2150.61 1281.81C2157.33 1284.73 2181.1 1273.82 2188.08 1271.58C2195.06 1269.34 2202.59 1270.28 2206.28 1263.94C2208.98 1259.3 2205.69 1249.06 2196.42 1233.23C2193.07 1236.61 2189.58 1238.83 2185.94 1239.89C2180.69 1241.43 2176.47 1241.68 2173.27 1240.65Z" />
				</g>
				<g id="&lt;Group&gt;">
					<g id="&lt;Group&gt;">
						<path id="&lt;Compound Path&gt;" fill-rule="evenodd" class="shp1" d="M2015.15 965.96C2014.42 965.96 2013.68 965.79 2012.93 965.46C2010.84 964.53 2009 962.39 2007.99 959.73C2006.29 955.25 2007.47 950.6 2010.61 949.38C2011.81 948.91 2013.14 948.98 2014.47 949.57C2016.56 950.5 2018.41 952.64 2019.41 955.3C2021.11 959.78 2019.93 964.43 2016.79 965.65C2016.27 965.86 2015.71 965.96 2015.15 965.96ZM2012.25 950.7C2011.89 950.7 2011.53 950.76 2011.2 950.89C2008.93 951.78 2008.15 955.56 2009.51 959.16C2010.37 961.42 2011.89 963.22 2013.59 963.97C2014.52 964.39 2015.42 964.44 2016.2 964.14C2018.48 963.25 2019.25 959.46 2017.89 955.87L2017.89 955.87C2017.03 953.61 2015.51 951.81 2013.81 951.05C2013.28 950.82 2012.75 950.7 2012.25 950.7Z" />
					</g>
					<g id="&lt;Group&gt;">
						<g id="&lt;Group&gt;">
							<path id="&lt;Path&gt;" class="shp21" d="M1774.04 894.68L1765.38 868.1C1767.52 866.58 1837.53 832.25 1890.45 754.34C1891.83 751.49 1898.41 753.1 1910.2 759.17C1922.28 765.39 1927.86 770.87 1926.96 775.61C1884.39 857.72 1775.27 893.81 1774.04 894.68Z" />
						</g>
					</g>
					<g id="&lt;Group&gt;">
						<path id="&lt;Path&gt;" class="shp10" d="M1954.66 919.36C1956.93 944.43 1963.84 1001.57 1970.41 1041.09C1983.05 1117.06 1997.98 1193.62 2005.29 1230.32C2007.91 1243.46 2018.95 1253.05 2032.04 1253.57L2039.08 1253.85C2053.22 1254.42 2064.71 1242.27 2063.68 1227.82L2047.21 997.67L2045.91 979.51L2042.75 920.51C2031.87 924 2066.64 907.78 2059.22 915.22L2075.17 901.21C2012.1 893.89 1971.93 899.94 1954.66 919.36Z" />
					</g>
					<g id="&lt;Group&gt;">
						<path id="&lt;Path&gt;" class="shp10" d="M2013.51 920.81L2047.21 997.67L2148.78 1229.33C2154.36 1242.06 2167.24 1249.78 2180.79 1248.49L2186.7 1247.93C2200.65 1246.61 2209.84 1232.56 2205.75 1218.84C2151.76 1007.51 2123.52 898.08 2121.02 890.53C2091.47 895.58 2066.37 901.41 2045.7 908.04C2034.82 911.52 2020.94 913.38 2013.51 920.81Z" />
					</g>
					<g id="&lt;Group&gt;">
						<path id="&lt;Path&gt;" class="shp15" d="M2060.26 708.72C2044.85 686.14 2019.89 678.72 1985.38 686.44C1928.37 699.2 1924.51 730.13 1931.28 789.54C1935.58 827.17 1948.43 897.55 1958.01 950.83C1991.44 910.26 2040.03 871.17 2103.78 833.57C2089.22 771.27 2074.72 729.65 2060.26 708.72Z" />
					</g>
					<g id="&lt;Group&gt;">
						<path id="&lt;Path&gt;" class="shp15" d="M2102.07 826.54C2095.71 834.73 2083.79 834.73 2066.3 826.54C2035.25 812 1973.06 780.71 1947.68 782.64C1930.76 783.93 1910.92 772.96 1888.16 749.72C1909.91 724.15 1934.93 705.38 1963.21 693.41C1967.2 691.71 1971.38 690.16 1975.77 688.79C1983.15 686.47 1990.74 685.14 1998.21 683.78C2059.32 672.7 2093.93 720.29 2102.07 826.54Z" />
					</g>
					<g id="&lt;Group&gt;">
						<g id="&lt;Group&gt;">
							<path id="&lt;Path&gt;" class="shp9" d="M1989.12 691.39C1990.35 685.93 1986.1 687.07 1983.16 683.11L1974.04 670.84L1971.39 667.27L1955.8 646.26L1963.09 670.05L1967.46 684.32L1968.85 688.84C1969.79 691.91 1969.12 692.63 1967.8 696.04C1967.26 697.43 1965.39 702.92 1970.57 703.42C1975.21 703.86 1987.54 698.34 1989.12 691.39Z" />
						</g>
						<g id="&lt;Group&gt;">
							<path id="&lt;Path&gt;" class="shp8" d="M1977.33 663.6C1990.65 652.61 1994.06 641.85 1987.57 631.32C1981.09 620.79 1976.02 628.51 1972.38 654.49L1974.75 663.76L1977.33 663.6Z" />
						</g>
						<g id="&lt;Group&gt;">
							<path id="&lt;Path&gt;" class="shp8" d="M1973.98 670.43C1974.01 670.57 1974.03 670.7 1974.04 670.84C1974.83 676.13 1972.66 680.63 1967.52 684.35L1967.46 684.32L1963.09 670.05C1965.48 668.52 1968.98 666.71 1971.39 667.27C1972.65 667.56 1973.62 668.49 1973.98 670.43Z" />
						</g>
						<g id="&lt;Group&gt;">
							<path id="&lt;Path&gt;" class="shp9" d="M1935.05 657.95C1931.82 643.74 1938.75 630.04 1950.54 627.35C1962.33 624.67 1974.51 634.02 1977.75 648.24C1980.98 662.46 1974.05 676.16 1962.26 678.84C1950.47 681.52 1938.29 672.17 1935.05 657.95Z" />
						</g>
						<g id="&lt;Group&gt;">
							<path id="&lt;Path&gt;" class="shp8" d="M1973.94 645.95C1969.76 648.53 1966.1 648.49 1962.94 645.84C1958.2 641.86 1954.91 638.17 1943.33 642.95C1931.75 647.74 1919.69 644.37 1917.87 637.93C1916.06 631.49 1921.72 627.06 1928.73 627.87C1935.73 628.68 1927.49 624.26 1932.84 618.01C1938.2 611.76 1950.11 619.43 1956.48 616.6C1962.86 613.76 1984.95 612.47 1987.57 631.32L1973.94 645.95Z" />
						</g>
						<g id="&lt;Group&gt;">
							<path id="&lt;Path&gt;" class="shp9" d="M1978.35 650C1976.76 652.09 1973.95 652.64 1972.08 651.22C1970.21 649.79 1969.98 646.94 1971.57 644.85C1973.16 642.75 1975.97 642.21 1977.84 643.63C1979.71 645.05 1979.94 647.9 1978.35 650Z" />
						</g>
						<g id="&lt;Group&gt;">
							<path id="&lt;Path&gt;" class="shp0" d="M1930.84 636.39C1930.28 636.39 1929.76 636.32 1929.27 636.16C1926.97 635.4 1926.38 634.19 1926.6 633.3C1926.86 632.25 1928.33 631.38 1930.32 631.72C1933.75 632.31 1935.7 631.29 1935.72 631.28L1935.86 631.54C1935.78 631.58 1933.79 632.62 1930.27 632.01C1928.44 631.7 1927.12 632.46 1926.89 633.38C1926.71 634.13 1927.26 635.18 1929.36 635.88C1933.72 637.3 1941.74 631.12 1941.82 631.06L1942 631.29C1941.71 631.52 1935.4 636.39 1930.84 636.39Z" />
						</g>
						<g id="&lt;Group&gt;">
							<path id="&lt;Path&gt;" class="shp0" d="M1951.92 622.22C1947.05 622.22 1942.51 619.71 1942.2 619.31L1942.44 619.13L1942.32 619.22L1942.44 619.13C1942.69 619.43 1949.38 623.28 1955.37 621.43C1957.34 620.82 1959.08 620.06 1960.76 619.33C1964.15 617.85 1967.07 616.57 1970.2 617.41L1970.13 617.7C1967.1 616.89 1964.22 618.14 1960.88 619.6C1959.19 620.34 1957.45 621.1 1955.46 621.71C1954.3 622.07 1953.1 622.22 1951.92 622.22Z" />
						</g>
						<g id="&lt;Group&gt;">
							<path id="&lt;Compound Path&gt;" fill-rule="evenodd" class="shp0" d="M1982.05 629.7C1981.06 629.7 1978.94 627.77 1978.44 626.54C1978.16 625.87 1978.44 625.6 1978.64 625.5C1980.2 624.68 1982.46 628.38 1982.56 628.54L1982.58 628.59C1982.73 629.36 1982.47 629.61 1982.23 629.68C1982.18 629.69 1982.12 629.7 1982.05 629.7ZM1979.13 625.68C1979 625.68 1978.89 625.71 1978.78 625.76C1978.71 625.8 1978.5 625.91 1978.71 626.43C1979.21 627.66 1981.47 629.59 1982.14 629.39C1982.36 629.33 1982.34 628.97 1982.29 628.67C1981.73 627.75 1980.21 625.68 1979.13 625.68Z" />
						</g>
						<g id="&lt;Group&gt;">
							<g id="&lt;Group&gt;">
								<path id="&lt;Path&gt;" class="shp14" d="M1952.16 653.49C1952.03 653.46 1951.91 653.37 1951.85 653.24C1951.74 653.02 1951.84 652.75 1952.06 652.65C1952.19 652.59 1955.09 650.89 1957.87 653.61C1958.04 653.78 1958.06 654.06 1957.89 654.23C1957.72 654.41 1957.47 654.38 1957.26 654.25C1955.15 653 1952.54 653.41 1952.44 653.46C1952.35 653.5 1952.25 653.51 1952.16 653.49Z" />
							</g>
						</g>
						<g id="&lt;Group&gt;">
							<path id="&lt;Path&gt;" class="shp14" d="M1955.94 658.16C1956.03 659.21 1955.49 660.12 1954.72 660.19C1953.95 660.26 1953.26 659.46 1953.17 658.4C1953.07 657.35 1953.62 656.44 1954.38 656.37C1955.15 656.3 1955.84 657.1 1955.94 658.16Z" />
						</g>
						<g id="&lt;Group&gt;">
							<g id="&lt;Group&gt;">
								<path id="&lt;Path&gt;" class="shp14" d="M1936.3 657.95C1936.2 657.96 1936.09 657.92 1936 657.82C1935.85 657.65 1935.83 657.37 1935.95 657.2C1936.02 657.1 1937.5 654.52 1940.38 656.11C1940.56 656.21 1940.66 656.47 1940.6 656.69C1940.54 656.91 1940.35 656.97 1940.16 656.92C1938.25 656.47 1936.55 657.74 1936.49 657.82C1936.44 657.89 1936.37 657.93 1936.3 657.95Z" />
							</g>
						</g>
						<g id="&lt;Group&gt;">
							<path id="&lt;Path&gt;" class="shp14" d="M1941.67 660.81C1942.16 661.75 1942 662.8 1941.32 663.15C1940.64 663.5 1939.69 663.03 1939.21 662.09C1938.72 661.15 1938.87 660.1 1939.56 659.75C1940.24 659.39 1941.19 659.87 1941.67 660.81Z" />
						</g>
						<g id="&lt;Group&gt;">
							<g id="&lt;Group&gt;">
								<path id="&lt;Path&gt;" class="shp12" d="M1954.5 672.83C1952.45 672.83 1950.93 672.35 1950.89 672.33C1950.73 672.28 1950.64 672.1 1950.7 671.94C1950.75 671.78 1950.93 671.69 1951.09 671.75C1951.39 671.84 1958.47 674.09 1962.46 668.14C1962.55 668 1962.74 667.96 1962.89 668.06C1963.03 668.15 1963.07 668.34 1962.97 668.49C1960.59 672.04 1957.11 672.83 1954.5 672.83Z" />
							</g>
							<g id="&lt;Group&gt;">
								<path id="&lt;Path&gt;" class="shp12" d="M1963.55 669.61C1963.41 669.61 1963.29 669.52 1963.25 669.38C1963.14 668.95 1962.76 668.27 1961.61 667.5L1961.53 667.44C1961.39 667.34 1961.37 667.14 1961.47 667.01C1961.58 666.87 1961.77 666.85 1961.91 666.95C1963.01 667.69 1963.65 668.44 1963.85 669.23C1963.89 669.39 1963.79 669.56 1963.63 669.6C1963.6 669.61 1963.57 669.61 1963.55 669.61Z" />
							</g>
						</g>
						<g id="&lt;Group&gt;">
							<path id="&lt;Compound Path&gt;" fill-rule="evenodd" class="shp0" d="M1938.58 675.57C1938.14 675.57 1937.68 675.52 1937.23 675.43C1933.98 674.75 1930.77 671.77 1928.63 667.43C1925.16 660.38 1925.59 651.87 1929.58 648.47C1931.06 647.21 1932.87 646.76 1934.81 647.16C1938.06 647.83 1941.27 650.82 1943.4 655.15C1946.88 662.21 1946.45 670.71 1942.46 674.11C1941.33 675.08 1940 675.57 1938.58 675.57ZM1933.47 647.94C1932.26 647.94 1931.14 648.36 1930.18 649.17C1926.48 652.32 1926.16 660.32 1929.46 667.02C1931.47 671.11 1934.44 673.91 1937.41 674.52C1939.06 674.87 1940.6 674.48 1941.86 673.41C1945.55 670.27 1945.87 662.26 1942.58 655.56C1940.57 651.48 1937.59 648.67 1934.62 648.06C1934.23 647.98 1933.85 647.94 1933.47 647.94Z" />
						</g>
						<g id="&lt;Group&gt;" style="opacity: 0.302">
							<path id="&lt;Path&gt;" class="shp0" d="M1966.35 646.78C1969.07 653.74 1967.61 661.87 1963.08 664.94C1958.55 668.01 1952.67 664.86 1949.95 657.9C1947.23 650.93 1948.7 642.8 1953.22 639.73C1957.75 636.66 1963.63 639.82 1966.35 646.78Z" />
						</g>
						<g id="&lt;Group&gt;" style="opacity: 0.302">
							<path id="&lt;Path&gt;" class="shp0" d="M1943.69 655.72C1946.42 662.72 1945.4 670.9 1941.42 673.99C1937.43 677.09 1931.99 673.93 1929.26 666.94C1926.53 659.94 1927.54 651.76 1931.53 648.66C1935.51 645.57 1940.95 648.72 1943.69 655.72Z" />
						</g>
						<g id="&lt;Group&gt;">
							<path id="&lt;Compound Path&gt;" fill-rule="evenodd" class="shp0" d="M1958.68 666.44C1957.89 666.44 1957.09 666.31 1956.28 666.06C1952.91 665 1949.99 661.92 1948.28 657.59C1945.33 650.16 1947 641.4 1952 638.07C1954.02 636.72 1956.31 636.4 1958.64 637.13C1962.01 638.18 1964.93 641.27 1966.64 645.59C1969.59 653.03 1967.92 661.78 1962.92 665.12C1961.6 665.99 1960.17 666.44 1958.68 666.44ZM1956.25 637.67C1954.94 637.67 1953.67 638.06 1952.51 638.84C1947.86 641.94 1946.34 650.2 1949.13 657.25C1950.72 661.26 1953.5 664.22 1956.55 665.18C1958.61 665.82 1960.63 665.53 1962.41 664.35C1967.07 661.25 1968.58 652.98 1965.79 645.93C1964.2 641.92 1961.43 638.96 1958.37 638.01C1957.65 637.78 1956.94 637.67 1956.25 637.67Z" />
						</g>
						<g id="&lt;Group&gt;">
							<path id="&lt;Path&gt;" class="shp0" d="M1942.99 658.57C1942.79 658.57 1942.58 658.5 1942.42 658.35C1942.07 658.03 1942.04 657.49 1942.35 657.14C1942.45 657.02 1944.86 654.36 1949.65 654.58C1950.12 654.6 1950.49 655 1950.47 655.48C1950.45 655.95 1950.04 656.32 1949.57 656.3C1945.68 656.13 1943.71 658.2 1943.63 658.29C1943.46 658.47 1943.23 658.57 1942.99 658.57Z" />
						</g>
						<g id="&lt;Group&gt;">
							<path id="&lt;Path&gt;" class="shp8" d="M1987.75 631.49L1987.4 631.16C1990.09 628.26 1987.89 624.93 1987.87 624.89L1988.27 624.62C1988.3 624.66 1990.71 628.32 1987.75 631.49Z" />
						</g>
						<g id="&lt;Group&gt;">
							<path id="&lt;Path&gt;" class="shp8" d="M1991.94 635.46C1991.91 635.44 1989.13 633.37 1987.05 633.66L1986.98 633.18C1989.26 632.87 1992.11 634.98 1992.23 635.07L1991.94 635.46Z" />
						</g>
					</g>
					<g id="&lt;Group&gt;">
						<path id="&lt;Path&gt;" class="shp8" d="M2074.23 763.85C2069.79 768.18 2056.47 762.03 2044.48 750.12C2032.48 738.2 2026.36 725.03 2030.8 720.7C2035.24 716.37 2048.56 722.52 2060.55 734.43C2072.54 746.34 2078.67 759.51 2074.23 763.85Z" />
					</g>
					<g id="&lt;Group&gt;">
						<g id="&lt;Group&gt;">
							<path id="&lt;Path&gt;" class="shp21" d="M1763.19 882.42C1761.82 880.95 1759.49 880.86 1758.01 882.23L1738.63 900.2C1737.15 901.57 1737.06 903.9 1738.43 905.38C1739.8 906.85 1742.13 906.94 1743.61 905.57L1762.99 887.6C1764.47 886.23 1764.56 883.9 1763.19 882.42Z" />
						</g>
						<g id="&lt;Group&gt;">
							<path id="&lt;Path&gt;" class="shp21" d="M1769.56 889.29C1768.19 887.82 1765.86 887.73 1764.39 889.1L1739.26 912.4C1737.78 913.77 1737.69 916.1 1739.06 917.58C1740.43 919.05 1742.76 919.14 1744.23 917.77L1769.37 894.47C1770.84 893.1 1770.93 890.77 1769.56 889.29Z" />
						</g>
						<g id="&lt;Group&gt;">
							<path id="&lt;Path&gt;" class="shp21" d="M1784.62 878.77L1783.33 878.57C1780.93 878.21 1778.66 879.88 1778.29 882.28L1774.72 905.73C1774.36 908.14 1776.03 910.41 1778.43 910.77L1779.72 910.97C1782.13 911.33 1784.4 909.66 1784.76 907.26L1788.33 883.81C1788.7 881.4 1787.03 879.13 1784.62 878.77Z" />
						</g>
						<g id="&lt;Group&gt;">
							<path id="&lt;Path&gt;" class="shp21" d="M1775.94 896.16C1774.57 894.69 1772.24 894.6 1770.77 895.97L1750.22 915.02C1748.74 916.39 1748.66 918.72 1750.03 920.19C1751.39 921.67 1753.72 921.76 1755.2 920.39L1775.75 901.34C1777.22 899.97 1777.31 897.64 1775.94 896.16Z" />
						</g>
						<g id="&lt;Group&gt;">
							<path id="&lt;Path&gt;" class="shp21" d="M1771.92 865.65C1758.3 868.65 1749.34 874.61 1745.05 883.55C1742.82 888.18 1756.94 912.36 1762.46 910.69C1766.14 909.57 1773.91 902.79 1785.79 890.34L1771.92 865.65Z" />
						</g>
						<g id="&lt;Group&gt;">
							<path id="&lt;Path&gt;" class="shp21" d="M1756.97 875.67L1756.8 875.48C1755.48 874.06 1753.24 873.97 1751.82 875.29L1736.16 889.81C1734.74 891.13 1734.65 893.37 1735.97 894.79L1736.15 894.98C1737.46 896.4 1739.71 896.49 1741.13 895.17L1756.79 880.65C1758.21 879.33 1758.29 877.09 1756.97 875.67Z" />
						</g>
					</g>
					<g id="&lt;Group&gt;">
						<g id="&lt;Group&gt;">
							<path id="&lt;Path&gt;" class="shp17" d="M1889.71 869.64L1875.52 869.08C1875.52 868.91 1876.13 851.52 1872.03 834.03C1867.04 812.74 1857.76 801.21 1844.45 799.76C1833.16 798.53 1824.99 802.41 1819.43 811.63C1814.87 819.2 1813.91 827.52 1813.9 827.61L1799.77 826.12C1799.86 825.27 1802.1 805.13 1816.58 793.43C1824.54 787 1834.44 784.37 1845.99 785.63C1892.29 790.67 1889.84 866.41 1889.71 869.64Z" />
						</g>
						<g id="&lt;Group&gt;">
							<path id="&lt;Path&gt;" class="shp8" d="M1798.94 824.71C1798.58 826.27 1801.82 828.34 1806.18 829.35C1810.55 830.36 1814.37 829.92 1814.73 828.37C1815.09 826.81 1811.85 824.74 1807.49 823.73C1803.13 822.72 1799.3 823.16 1798.94 824.71Z" />
						</g>
					</g>
					<g id="&lt;Group&gt;">
						<path id="&lt;Path&gt;" class="shp3" d="M1910.3 886.94L1901.79 920.48C1900.61 925.15 1896.45 928.47 1891.63 928.6L1690.25 933.86C1685.48 933.98 1681.2 930.96 1679.72 926.43L1665.56 883.05C1663.33 876.21 1668.3 869.15 1675.49 868.94L1890.82 862.64C1903.77 862.26 1913.49 874.38 1910.3 886.94Z" />
					</g>
					<g id="&lt;Group&gt;">
						<g id="&lt;Group&gt;">
							<path id="&lt;Path&gt;" class="shp17" d="M1671.07 1281.8L1900.59 1281.8C1911.54 1281.8 1920.52 1273.12 1920.88 1262.17L1931.27 949.07C1931.66 937.39 1922.13 927.79 1910.45 928.1L1664.43 934.53C1653.27 934.82 1644.43 944.07 1644.66 955.23L1650.77 1261.9C1650.99 1272.96 1660.01 1281.8 1671.07 1281.8Z" />
						</g>
						<g id="&lt;Group&gt;">
							<path id="&lt;Compound Path&gt;" fill-rule="evenodd" class="shp20" d="M1888.04 1258.29L1690.19 1258.29C1680.25 1258.29 1672 1250.2 1671.8 1240.26L1666.53 975.91C1666.33 965.83 1674.37 957.42 1684.44 957.15L1896.51 951.61C1901.66 951.47 1906.43 953.4 1910.04 957.04C1913.65 960.67 1915.54 965.49 1915.37 970.61L1906.42 1240.5C1906.09 1250.47 1898.01 1258.29 1888.04 1258.29ZM1897.01 953.38C1896.86 953.38 1896.71 953.38 1896.56 953.39L1684.49 958.93C1675.38 959.17 1668.13 966.77 1668.31 975.87L1673.58 1240.23C1673.76 1249.21 1681.21 1256.51 1690.19 1256.51L1888.04 1256.51C1897.05 1256.51 1904.35 1249.45 1904.64 1240.45L1913.6 970.55C1913.75 965.93 1912.04 961.57 1908.78 958.29C1905.63 955.11 1901.46 953.38 1897.01 953.38Z" />
						</g>
						<g id="&lt;Group&gt;">
							<path id="&lt;Path&gt;" class="shp20" d="M1781.67 1256.02L1779.9 1255.98L1787.08 956.17L1788.86 956.21L1781.67 1256.02Z" />
						</g>
					</g>
					<g id="&lt;Group&gt;">
						<path id="&lt;Path&gt;" class="shp10" d="M1959.47 963.13C1937.62 862.8 1926.66 807.3 1926.58 796.64C1926.46 780.66 1920.55 757.77 1959.47 750.57C1998.4 743.36 2011.42 739.78 2018.53 757.85C2025.63 775.92 2041.67 815.5 2072.68 815.3C2093.35 815.18 2105.83 822.18 2110.12 836.31L2137.37 952.49L1959.47 963.13Z" />
					</g>
					<g id="&lt;Group&gt;">
						<path id="&lt;Path&gt;" class="shp12" d="M2046.44 997.96L2036.69 974.54C2030.51 959.83 2026.42 952.73 2013.16 946.48L2013.87 944.98C2027.59 951.45 2032.01 959.12 2038.22 973.9L2047.97 997.33L2046.44 997.96Z" />
					</g>
					<g id="&lt;Group&gt;">
						<g id="&lt;Group&gt;">
							<g id="&lt;Group&gt;">
								<path id="&lt;Path&gt;" class="shp9" d="M1898.36 850.5L1908.7 887.34C1988.12 846.52 2048.91 780.61 2062.11 763.9C2064.05 761.44 2064.69 758.21 2063.84 755.2C2062.55 750.59 2059.7 743.54 2053.53 736.74C2047.53 730.12 2042.52 725.84 2039.15 723.28C2036.69 721.41 2033.19 721.8 2031.24 724.2C2016.97 741.78 1966.95 815.24 1898.36 850.5Z" />
							</g>
						</g>
						<g id="&lt;Group&gt;">
							<path id="&lt;Path&gt;" class="shp8" d="M1886.36 902.92L1851.61 850.46C1843.37 851.12 1837.2 847.32 1833.1 839.07C1826.96 826.69 1837 829.04 1842.04 833.15C1847.08 837.27 1853.32 834.67 1853.76 829.5C1854.19 824.33 1850.11 815.46 1856.95 815.3C1863.79 815.15 1871.11 830.09 1863.53 842.31L1897.41 893.48C1916.61 890.82 1926.33 897.98 1926.58 914.95C1922.94 920.11 1919.88 920.42 1917.39 915.89C1913.67 909.11 1907.45 900.88 1899.17 907.4C1890.89 913.91 1890.82 916.52 1893.66 921.59C1896.5 926.65 1903.75 930.61 1899.27 933.95C1894.8 937.28 1889.99 936.62 1885.61 929.23C1881.23 921.85 1879.99 907.81 1886.36 902.92Z" />
						</g>
						<g id="&lt;Group&gt;">
							<g id="&lt;Group&gt;">
								<path id="&lt;Path&gt;" class="shp9" d="M1895.42 879.64L1895.97 880.41C1897.2 882.12 1896.8 884.54 1895.09 885.77L1875.7 899.69C1873.98 900.92 1871.57 900.52 1870.34 898.81L1869.79 898.04C1868.55 896.32 1868.95 893.91 1870.67 892.68L1890.06 878.76C1891.77 877.53 1894.18 877.92 1895.42 879.64Z" />
							</g>
							<g id="&lt;Group&gt;">
								<path id="&lt;Path&gt;" class="shp9" d="M1888.94 870.61L1889.57 871.49C1890.78 873.17 1890.39 875.54 1888.7 876.75L1866.4 892.76C1864.72 893.97 1862.35 893.58 1861.14 891.9L1860.5 891.01C1859.29 889.33 1859.68 886.96 1861.37 885.75L1883.67 869.74C1885.36 868.53 1887.73 868.92 1888.94 870.61Z" />
							</g>
							<g id="&lt;Group&gt;">
								<path id="&lt;Path&gt;" class="shp9" d="M1904.92 856.39L1904.87 857.42C1904.72 860.42 1902.14 862.76 1899.14 862.61L1867.95 861.06C1864.94 860.91 1862.61 858.34 1862.75 855.33L1862.8 854.3C1862.95 851.29 1865.53 848.96 1868.54 849.11L1899.73 850.65C1902.73 850.8 1905.07 853.38 1904.92 856.39Z" />
							</g>
							<g id="&lt;Group&gt;">
								<path id="&lt;Path&gt;" class="shp9" d="M1882.54 861.69L1883.09 862.46C1884.32 864.17 1883.92 866.59 1882.21 867.82L1862.56 881.92C1860.84 883.15 1858.43 882.76 1857.2 881.04L1856.65 880.27C1855.41 878.55 1855.81 876.14 1857.53 874.91L1877.17 860.81C1878.89 859.58 1881.3 859.97 1882.54 861.69Z" />
							</g>
							<g id="&lt;Group&gt;">
								<path id="&lt;Path&gt;" class="shp9" d="M1917.1 873.88C1910.44 888.91 1901.45 897.86 1890.12 900.72C1884.24 902.21 1859.64 880.22 1862.86 874.24C1865.01 870.25 1874.67 862.86 1891.84 852.07L1917.1 873.88Z" />
							</g>
							<g id="&lt;Group&gt;">
								<path id="&lt;Path&gt;" class="shp9" d="M1901.68 888.31L1902.55 889.53C1903.69 891.12 1903.32 893.35 1901.73 894.5L1887.64 904.61C1886.05 905.75 1883.82 905.38 1882.67 903.79L1881.8 902.58C1880.66 900.99 1881.03 898.75 1882.62 897.61L1896.71 887.5C1898.3 886.36 1900.54 886.72 1901.68 888.31Z" />
							</g>
						</g>
					</g>
					<g id="&lt;Group&gt;">
						<path id="&lt;Path&gt;" class="shp10" d="M1954.55 694.52C1944.69 727.37 1939.99 750.46 1940.44 763.78L1952.55 761.56C1958.55 722.79 1962.11 700.07 1963.21 693.41C1958.24 691.4 1955.35 691.77 1954.55 694.52Z" />
					</g>
					<g id="&lt;Group&gt;">
						<path id="&lt;Path&gt;" class="shp10" d="M1992.85 751.13C1992.62 749.8 1986.29 708.48 1995.12 684.74C1997.75 681.99 2000.54 681.26 2003.5 682.57C1996.69 715.1 1996.32 737.96 2002.39 751.13L1995.12 751.13L1992.85 751.13Z" />
					</g>
					<g id="&lt;Group&gt;">
						<path id="&lt;Path&gt;" class="shp8" d="M1950.55 765.23C1953.07 762.93 1953.86 760.87 1952.94 759.06C1951.55 756.35 1949.22 755.68 1947 756.57C1944.78 757.46 1944.53 761.13 1945.26 762.9C1946 764.67 1949.22 766.74 1950.55 765.23Z" />
					</g>
					<g id="&lt;Group&gt;">
						<path id="&lt;Path&gt;" class="shp8" d="M2001.5 753.34C2000.29 750.83 1998.78 749.33 1996.97 748.84C1994.25 748.09 1992.03 750.45 1992.33 753.34C1992.62 756.24 1994.36 757.45 1996.97 757.28C1999.58 757.12 2002.1 755.63 2001.5 753.34Z" />
					</g>
				</g>
			</g>
			<g id="&lt;Group&gt;">
				<g id="&lt;Group&gt;">
					<path id="&lt;Path&gt;" class="shp15" d="M587.42 1267.8L593.69 1323.09C594.31 1328.62 598.92 1332.79 604.4 1332.79L773.92 1332.79C779.63 1332.79 784.34 1328.28 784.68 1322.49L788.06 1265.06C788.43 1258.72 783.43 1253.39 777.17 1253.47L598.01 1255.6C591.61 1255.68 586.69 1261.36 587.42 1267.8Z" />
				</g>
				<g id="&lt;Group&gt;">
					<path id="&lt;Path&gt;" class="shp8" d="M652.23 1246.18L643 1243.54L647.85 1226.53C650.14 1218.52 657.49 1212.93 665.73 1212.93L711.19 1212.93C720.48 1212.93 728.41 1219.95 729.64 1229.26L731.61 1244.24L722.09 1245.49L720.12 1230.52C719.52 1225.97 715.68 1222.54 711.19 1222.54L665.73 1222.54C661.76 1222.54 658.2 1225.26 657.09 1229.17L652.23 1246.18Z" />
				</g>
				<g id="&lt;Group&gt;">
					<path id="&lt;Path&gt;" class="shp20" d="M574.93 1251.3L574.93 1258.02C574.93 1263.8 579.51 1268.5 585.2 1268.58L786.09 1271.16C791.89 1271.23 796.63 1266.48 796.63 1260.6L796.63 1253.5C796.63 1247.71 792.04 1243 786.34 1242.94L585.45 1240.75C579.66 1240.68 574.93 1245.43 574.93 1251.3Z" />
				</g>
			</g>
			<g id="&lt;Group&gt;">
				<g id="&lt;Group&gt;">
					<path id="&lt;Path&gt;" class="shp15" d="M1140.14 876L1146.41 931.29C1147.04 936.82 1151.64 940.99 1157.13 940.99L1326.64 940.99C1332.35 940.99 1337.07 936.48 1337.41 930.69L1340.78 873.26C1341.15 866.92 1336.15 861.59 1329.89 861.67L1150.73 863.8C1144.33 863.88 1139.41 869.55 1140.14 876Z" />
				</g>
				<g id="&lt;Group&gt;">
					<path id="&lt;Path&gt;" class="shp8" d="M1204.95 854.38L1195.72 851.75L1200.58 834.73C1202.86 826.73 1210.21 821.13 1218.45 821.13L1263.91 821.13C1273.2 821.13 1281.13 828.15 1282.36 837.46L1284.33 852.44L1274.81 853.69L1272.84 838.72C1272.24 834.17 1268.4 830.74 1263.91 830.74L1218.45 830.74C1214.48 830.74 1210.92 833.46 1209.81 837.37L1204.95 854.38Z" />
				</g>
				<g id="&lt;Group&gt;">
					<path id="&lt;Path&gt;" class="shp20" d="M1127.65 859.51L1127.65 866.22C1127.65 872 1132.23 876.7 1137.92 876.78L1338.81 879.36C1344.61 879.43 1349.35 874.68 1349.35 868.8L1349.35 861.7C1349.35 855.91 1344.76 851.2 1339.06 851.14L1138.17 848.95C1132.38 848.88 1127.65 853.63 1127.65 859.51Z" />
				</g>
			</g>
			<g id="&lt;Group&gt;">
				<g id="&lt;Group&gt;">
					<g id="&lt;Group&gt;">
						<path id="&lt;Path&gt;" class="shp9" d="M1471.44 960.3C1410.7 996.46 1338.2 992.57 1288.07 982.92L1295.81 944.2C1355.97 955.76 1398.3 944.46 1436.97 922.47C1451.57 914.16 1496.49 945.39 1471.44 960.3Z" />
					</g>
				</g>
				<g id="&lt;Group&gt;">
					<path id="&lt;Path&gt;" class="shp17" d="M1087.34 1292.11C1115.49 1307.04 1297.86 1297.71 1365.29 1293.68C1379.4 1292.84 1390.44 1281.02 1390.49 1266.67C1390.72 1203.27 1390.91 1038.48 1390.98 971.18C1391 954.84 1378.16 941.47 1362.06 941.07C1301.27 939.57 1161.97 936.59 1113.61 935.79C1104.19 935.63 1096.41 943.19 1096.16 952.75C1094.23 1023.91 1061.4 1278.35 1087.34 1292.11Z" />
				</g>
				<g id="&lt;Group&gt;">
					<path id="&lt;Path&gt;" class="shp22" d="M1219.54 972.72C1218.21 967.06 1212.77 962.19 1207.04 962.19C1201.31 962.19 1195.05 963.83 1195.05 974.36C1195.05 980.18 1201.31 983.25 1207.04 983.25C1212.77 983.25 1221.4 980.59 1219.54 972.72Z" />
				</g>
				<g id="&lt;Group&gt;">
					<path id="&lt;Path&gt;" class="shp22" d="M1259.45 972.72C1258.11 967.06 1252.68 962.19 1246.95 962.19C1241.22 962.19 1234.95 963.83 1234.95 974.36C1234.95 980.18 1241.22 983.25 1246.95 983.25C1252.68 983.25 1261.3 980.59 1259.45 972.72Z" />
				</g>
				<g id="&lt;Group&gt;">
					<path id="&lt;Path&gt;" class="shp22" d="M1298.43 972.72C1297.09 967.06 1291.66 962.19 1285.93 962.19C1280.2 962.19 1273.93 963.83 1273.93 974.36C1273.93 980.18 1280.2 983.25 1285.93 983.25C1291.66 983.25 1300.28 980.59 1298.43 972.72Z" />
				</g>
				<g id="&lt;Group&gt;">
					<path id="&lt;Path&gt;" class="shp22" d="M1334.31 972.72C1332.98 967.06 1327.55 962.19 1321.82 962.19C1316.09 962.19 1309.82 963.83 1309.82 974.36C1309.82 980.18 1316.09 983.25 1321.82 983.25C1327.55 983.25 1336.17 980.59 1334.31 972.72Z" />
				</g>
				<g id="&lt;Group&gt;">
					<path id="&lt;Path&gt;" class="shp8" d="M1166.49 953.6L1125.27 955.22C1121.55 955.36 1118.54 958.35 1118.31 962.12L1116.99 984.03C1116.72 988.48 1120.39 992.15 1124.77 991.82L1167.32 988.57C1171.1 988.28 1174.02 985.08 1174.02 981.23L1174.02 960.96C1174.02 956.78 1170.6 953.44 1166.49 953.6Z" />
				</g>
				<g id="&lt;Group&gt;">
					<path id="&lt;Path&gt;" class="shp8" d="M1356.83 1133.54C1356.83 1070.7 1306.29 1013.17 1244.71 1019.75C1168.35 1027.92 1132.59 1070.7 1132.59 1133.54C1132.59 1196.39 1182.79 1247.34 1244.71 1247.34C1306.63 1247.34 1356.83 1196.39 1356.83 1133.54Z" />
				</g>
				<g id="&lt;Group&gt;">
					<path id="&lt;Compound Path&gt;" fill-rule="evenodd" class="shp22" d="M1244.71 1255.5C1178.45 1255.5 1124.55 1219.43 1124.55 1133.54C1124.55 1066.3 1149.38 1005.94 1244.71 1011.59C1325.75 1016.38 1362.63 1066.33 1364.87 1133.54C1367.83 1222.36 1310.97 1255.5 1244.71 1255.5ZM1244.71 1027.92C1177.73 1022.23 1145.5 1085.78 1145.5 1144.03C1145.5 1202.27 1187.89 1247.34 1244.71 1239.17C1312.11 1229.47 1341.01 1185.36 1341.01 1127.12C1341.01 1068.87 1302.09 1027.92 1244.71 1027.92Z" />
				</g>
				<g id="&lt;Group&gt;">
					<path id="&lt;Path&gt;" class="shp22" d="M1332.35 1173.14L1348.78 1173.14L1348.78 1098.19L1327.37 1098.19C1318.94 1098.19 1312.11 1105.03 1312.11 1113.45L1312.11 1152.9C1312.11 1164.08 1321.17 1173.14 1332.35 1173.14Z" />
				</g>
				<g id="&lt;Group&gt;">
					<path id="&lt;Path&gt;" class="shp8" d="M1406.94 1287.68C1406.7 1297.28 1403.38 1303.43 1396.98 1306.14C1387.37 1310.21 1359.55 1313.87 1369.95 1323.13C1375.91 1328.45 1404.03 1325.01 1411.97 1325.01C1419.91 1325.01 1427.36 1328.53 1433.26 1323.13C1437.58 1319.18 1437.58 1307.36 1433.26 1287.68C1428.69 1290.09 1424.35 1291.24 1420.25 1291.14C1414.33 1290.98 1409.89 1289.83 1406.94 1287.68Z" />
				</g>
				<g id="&lt;Group&gt;">
					<path id="&lt;Path&gt;" class="shp8" d="M1718.85 1275.13C1728.31 1275.35 1734.39 1278.7 1737.07 1285.19C1741.1 1294.92 1744.79 1323.16 1753.89 1312.58C1759.11 1306.51 1755.65 1277.98 1755.62 1269.92C1755.6 1261.87 1759.04 1254.29 1753.71 1248.32C1749.8 1243.94 1738.15 1243.97 1718.77 1248.42C1721.16 1253.05 1722.31 1257.45 1722.22 1261.62C1722.08 1267.62 1720.96 1272.13 1718.85 1275.13Z" />
				</g>
				<g id="&lt;Group&gt;">
					<g id="&lt;Group&gt;">
						<path id="&lt;Compound Path&gt;" fill-rule="evenodd" class="shp10" d="M1417.06 1300.5C1400.74 1304.16 1384.3 1294.87 1378.78 1278.86C1375.14 1268.3 1370.78 1255.55 1366.23 1242.03C1344.96 1178.88 1356.49 1145.68 1374.6 1126.74C1401.91 1098.19 1538.62 1060.88 1540.05 1060.65L1553.02 1143.76L1546.54 1102.21L1553.03 1143.76C1553.03 1163.75 1429.69 1170.68 1437.4 1208.13C1439.06 1216.2 1440.69 1225.98 1443.37 1237.58C1445.21 1245.55 1447.13 1253.2 1448.96 1260.09C1453.47 1277.2 1442.99 1294.67 1425.95 1298.5L1417.06 1300.5ZM1429.69 1178.88L1429.69 1178.88L1429.69 1178.88Z" />
					</g>
				</g>
				<g id="&lt;Group&gt;">
					<g id="&lt;Group&gt;">
						<path id="&lt;Compound Path&gt;" class="shp10" d="M1516.11 1310.17C1490.13 1277.77 1493.52 1160.59 1506.21 1087.93C1514.49 1040.51 1616.05 1038.92 1614.84 1076.28C1614.48 1087.43 1613.17 1099.83 1612.43 1113.65C1608.92 1178.88 1586.7 1229.91 1592.83 1236.97C1601.58 1247.06 1676.92 1235.63 1709.63 1239.54C1718.98 1240.65 1726.43 1247.97 1727.86 1257.41L1730.52 1274.98C1732.07 1285.21 1723.98 1291.5 1714.45 1295.21C1660.4 1316.23 1542.78 1343.41 1516.11 1310.17Z" />
					</g>
				</g>
				<g id="&lt;Group&gt;">
					<path id="&lt;Path&gt;" class="shp15" d="M1585.39 902.35C1575.51 883.33 1549.26 878.18 1506.64 886.89C1487.43 890.81 1478.87 901.61 1469.33 908.43C1454.55 918.98 1453.52 927.4 1459.4 943.52C1472.68 979.92 1489.69 1033.13 1452.49 1088.16C1555.71 1116.71 1608.47 1112.53 1610.78 1075.62C1625.63 1012.13 1617.16 954.37 1585.39 902.35Z" />
				</g>
				<g id="&lt;Group&gt;">
					<path id="&lt;Path&gt;" class="shp15" d="M1617.03 927.64L1570.52 922.21C1519.15 947.72 1485.14 960.99 1468.5 962.02C1451.85 963.05 1436.86 950.47 1423.51 924.28C1438.74 907.96 1463.27 896.16 1497.09 888.89C1504.54 887.29 1511.94 885.54 1519.36 884.63C1587.11 876.32 1619.67 890.65 1617.03 927.64Z" />
				</g>
				<g id="&lt;Group&gt;">
					<path id="&lt;Path&gt;" class="shp9" d="M1513.8 877.12L1505.77 862.33L1503.44 858.03L1489.69 832.72L1494.07 859.84L1496.7 876.12L1497.53 881.27C1498.1 884.77 1497.62 887.77 1495.69 891.32C1494.92 892.75 1491.68 900.73 1499.82 902.51C1509.96 904.74 1523.48 893.32 1528.4 883.67C1528.35 883.67 1517.04 884.09 1513.8 877.12Z" />
				</g>
				<g id="&lt;Group&gt;">
					<path id="&lt;Path&gt;" class="shp8" d="M1617.03 927.64C1616.68 928.94 1615.07 929.86 1612.5 930.39C1606.31 931.67 1594.55 930.71 1581.54 927.54C1571.53 925.09 1562.81 921.82 1557.15 918.65C1552.38 915.97 1549.77 913.36 1550.3 911.32C1550.86 909.2 1554.73 908.11 1560.64 908.02C1567.14 907.92 1576.12 909.06 1585.79 911.42C1599.12 914.68 1610.12 919.37 1614.75 923.42C1616.52 924.95 1617.35 926.41 1617.03 927.64Z" />
				</g>
				<g id="&lt;Group&gt;">
					<g id="&lt;Group&gt;">
						<path id="&lt;Path&gt;" class="shp13" d="M1466.39 827.02C1466.16 831.61 1467.16 836.53 1469.39 841.77C1471.63 847 1474.12 842.32 1476.86 827.73L1466.39 827.02Z" />
					</g>
					<g id="&lt;Group&gt;">
						<path id="&lt;Path&gt;" class="shp9" d="M1468.89 844.34C1467.72 828.04 1477.56 814.04 1490.88 813.05C1504.19 812.06 1515.93 824.47 1517.1 840.76C1518.28 857.06 1508.43 871.06 1495.12 872.05C1481.81 873.04 1470.07 860.63 1468.89 844.34Z" />
					</g>
					<g id="&lt;Group&gt;">
						<path id="&lt;Path&gt;" class="shp8" d="M1516.01 832.35L1504.31 833.54C1501.73 833.8 1499.15 832.91 1497.35 831.03C1494.24 827.79 1491.03 826.47 1480.42 829.11C1466.99 832.46 1456.39 826.15 1453.47 819.26C1450.49 812.24 1456.4 805.82 1463.91 807.89C1471.42 809.97 1466.76 802 1473.11 799.72C1484.98 795.46 1489.21 804.54 1499.15 802.14C1512.18 798.98 1537.72 804.18 1531.34 829.94L1516.01 832.35Z" />
					</g>
					<g id="&lt;Group&gt;">
						<g id="&lt;Group&gt;">
							<path id="&lt;Path&gt;" class="shp14" d="M1491.51 841.6C1491.37 841.54 1491.25 841.43 1491.21 841.27C1491.13 841.01 1491.28 840.73 1491.54 840.66C1491.69 840.61 1495.14 839.21 1497.72 842.69C1497.88 842.91 1497.85 843.22 1497.64 843.39C1497.42 843.56 1497.16 843.48 1496.95 843.31C1494.85 841.56 1491.94 841.57 1491.82 841.61C1491.71 841.64 1491.6 841.63 1491.51 841.6Z" />
						</g>
					</g>
					<g id="&lt;Group&gt;">
						<path id="&lt;Path&gt;" class="shp14" d="M1494.86 847.41C1494.78 848.59 1494.04 849.51 1493.19 849.46C1492.34 849.4 1491.72 848.4 1491.79 847.21C1491.86 846.03 1492.61 845.11 1493.46 845.17C1494.3 845.22 1494.93 846.22 1494.86 847.41Z" />
					</g>
					<g id="&lt;Group&gt;">
						<g id="&lt;Group&gt;">
							<path id="&lt;Path&gt;" class="shp14" d="M1473.46 843.87C1473.35 843.87 1473.23 843.81 1473.15 843.68C1473.02 843.46 1473.04 843.15 1473.21 842.98C1473.3 842.88 1475.34 840.28 1478.21 842.52C1478.39 842.66 1478.46 842.96 1478.36 843.2C1478.26 843.44 1478.05 843.47 1477.85 843.38C1475.84 842.56 1473.77 843.68 1473.69 843.76C1473.62 843.83 1473.54 843.87 1473.46 843.87Z" />
						</g>
					</g>
					<g id="&lt;Group&gt;">
						<path id="&lt;Path&gt;" class="shp14" d="M1478.85 847.94C1479.23 849.07 1478.88 850.2 1478.08 850.48C1477.28 850.76 1476.32 850.07 1475.94 848.95C1475.57 847.82 1475.91 846.69 1476.72 846.41C1477.52 846.13 1478.48 846.82 1478.85 847.94Z" />
					</g>
					<g id="&lt;Group&gt;">
						<path id="&lt;Path&gt;" class="shp13" d="M1531.34 829.94C1528.42 842.6 1523.3 850.13 1515.99 852.54C1520.25 842.47 1515.46 836.09 1501.62 833.39C1512.94 829.07 1522.85 827.92 1531.34 829.94Z" />
					</g>
					<g id="&lt;Group&gt;">
						<path id="&lt;Path&gt;" class="shp9" d="M1517.47 842.81C1515.38 844.87 1512.23 845 1510.42 843.11C1508.61 841.21 1508.84 838.02 1510.92 835.97C1513.01 833.91 1516.16 833.78 1517.97 835.67C1519.78 837.57 1519.55 840.76 1517.47 842.81Z" />
					</g>
					<g id="&lt;Group&gt;">
						<path id="&lt;Path&gt;" class="shp13" d="M1501.62 833.39C1504.61 842.88 1505.32 848.74 1503.75 850.98C1501.39 854.34 1482.38 859.55 1472.67 857.91C1474.42 867.28 1482.58 874.17 1491.97 873.81C1495.08 873.7 1498.19 873.05 1501.16 871.86C1507.23 869.42 1512.81 865.5 1514.2 859.04C1514.48 857.72 1513.1 853.53 1510.07 846.46C1508.61 842.24 1508.9 838.75 1510.92 835.97C1507.52 833.95 1504.42 833.09 1501.62 833.39Z" />
					</g>
					<g id="&lt;Group&gt;">
						<path id="&lt;Path&gt;" class="shp0" d="M1478.48 862.16C1483.68 862.48 1488.91 861.81 1494.17 860.16C1494.41 865.38 1491.71 868.05 1486.07 868.18C1482.78 868.26 1480.26 866.25 1478.48 862.16Z" />
					</g>
					<g id="&lt;Group&gt;">
						<path id="&lt;Path&gt;" class="shp8" d="M1464.93 806.48L1464.82 805.83C1467.97 805.27 1467.72 802.68 1467.71 802.57L1468.37 802.49C1468.37 802.53 1468.69 805.82 1464.93 806.48Z" />
					</g>
					<g id="&lt;Group&gt;">
						<path id="&lt;Path&gt;" class="shp0" d="M1475.8 826.06C1475.77 826.06 1471.86 825.74 1467.74 824.48C1462.25 822.81 1458.86 820.26 1457.95 817.1C1457.32 814.88 1457.4 813.29 1458.22 812.24C1459.5 810.58 1462.3 810.65 1464.77 810.72C1465.14 810.73 1465.5 810.74 1465.84 810.74L1465.84 811.07C1465.5 811.07 1465.13 811.06 1464.76 811.05C1462.37 810.99 1459.66 810.91 1458.48 812.44C1457.74 813.41 1457.67 814.9 1458.27 817C1460.4 824.41 1475.68 825.72 1475.83 825.73L1475.8 826.06Z" />
					</g>
					<g id="&lt;Group&gt;">
						<path id="&lt;Path&gt;" class="shp0" d="M1495.32 805.48C1492.71 805.48 1490.53 805.09 1488.85 804.62C1485.02 803.54 1482.94 801.88 1482.86 801.81L1483.06 801.55C1483.09 801.57 1485.19 803.25 1488.96 804.3C1492.43 805.27 1498.07 805.89 1505.21 803.35L1505.32 803.66C1501.54 805.01 1498.18 805.48 1495.32 805.48Z" />
					</g>
				</g>
				<g id="&lt;Group&gt;">
					<path id="&lt;Path&gt;" class="shp8" d="M1497.36 1171.3C1497.36 1171.3 1497.35 1171.3 1497.35 1171.3C1497 1171.29 1496.73 1171 1496.74 1170.66L1497.75 1135.7C1496.75 1128.66 1489.88 1124.56 1489.81 1124.51C1489.51 1124.34 1489.41 1123.96 1489.59 1123.66C1489.76 1123.37 1490.14 1123.27 1490.44 1123.44C1490.75 1123.62 1497.93 1127.9 1498.99 1135.58C1499 1135.61 1499 1135.65 1499 1135.68L1497.99 1170.7C1497.98 1171.03 1497.7 1171.3 1497.36 1171.3Z" />
				</g>
				<g id="&lt;Group&gt;">
					<path id="&lt;Path&gt;" class="shp10" d="M1464.88 948.39C1498.09 936.61 1519.27 934.99 1528.4 943.52C1542.1 956.31 1556.55 996.28 1583.66 1001.1C1601.74 1004.31 1614.15 1007.48 1620.89 1010.6C1621.03 1082.75 1615.35 1137.78 1603.87 1175.72L1494.51 1115.19L1438.79 1093.26C1453.35 1082.04 1461.18 1070.05 1462.28 1057.29C1463.93 1038.16 1446.36 953.81 1464.88 948.39Z" />
				</g>
				<g id="&lt;Group&gt;">
					<g id="&lt;Group&gt;">
						<g id="&lt;Group&gt;">
							<path id="&lt;Path&gt;" class="shp9" d="M1406.08 1021.14C1395.93 1012.94 1387.12 1009.5 1379.64 1010.81C1368.42 1012.78 1355.56 1023.9 1362.77 1024.18C1367.57 1024.37 1373.08 1023.72 1379.28 1022.23C1366.17 1026.04 1360.72 1029.3 1362.92 1032.03C1365.13 1034.76 1371.91 1034.41 1383.29 1030.99C1368.04 1036.78 1361.87 1040.62 1364.77 1042.51C1367.68 1044.4 1374.9 1043.11 1386.46 1038.63C1372.48 1044.59 1367.21 1048.63 1370.63 1050.74C1375.77 1053.92 1387.91 1043.24 1391.21 1047.33C1394.52 1051.42 1409.02 1066.54 1421.34 1058.6L1406.08 1021.14Z" />
						</g>
					</g>
					<g id="&lt;Group&gt;">
						<path id="&lt;Path&gt;" class="shp23" d="M1379.46 1022.62L1379.11 1021.85C1379.33 1021.74 1384.7 1019.31 1387.9 1021.28L1387.46 1022C1384.64 1020.26 1379.51 1022.59 1379.46 1022.62Z" />
					</g>
					<g id="&lt;Group&gt;">
						<path id="&lt;Path&gt;" class="shp23" d="M1383.47 1031.37L1383.1 1030.61C1383.32 1030.5 1388.48 1028.05 1393.46 1029.89L1393.17 1030.68C1388.52 1028.97 1383.52 1031.35 1383.47 1031.37Z" />
					</g>
					<g id="&lt;Group&gt;">
						<path id="&lt;Path&gt;" class="shp23" d="M1386.63 1039.01L1386.28 1038.25C1386.55 1038.12 1392.89 1035.22 1396.13 1037.63L1395.62 1038.31C1392.79 1036.2 1386.7 1038.98 1386.63 1039.01Z" />
					</g>
				</g>
				<g id="&lt;Group&gt;">
					<g id="&lt;Group&gt;">
						<path id="&lt;Path&gt;" class="shp9" d="M1614.75 923.42C1614.23 925.25 1613.5 927.6 1612.5 930.39C1608.09 942.62 1598.49 963.26 1578.78 984.89C1530.96 1037.37 1460.46 1054.96 1409.73 1060.48L1406.08 1021.14C1466.96 1014.51 1504.25 991.25 1534.98 958.82C1546.58 946.58 1553.61 929.41 1557.15 918.65C1559.13 912.67 1560.03 908.66 1560.04 908.58C1560.17 908.44 1560.37 908.25 1560.64 908.02C1567.14 907.92 1576.12 909.06 1585.79 911.42C1599.12 914.68 1610.12 919.37 1614.75 923.42Z" />
					</g>
				</g>
				<g id="&lt;Group&gt;" style="opacity: 0.502">
					<path id="&lt;Compound Path&gt;" fill-rule="evenodd" class="shp1" d="M1524.88 1012.99C1524.7 1012.99 1524.52 1012.98 1524.34 1012.97C1522.55 1012.85 1521.06 1012.15 1520.03 1010.93C1517.25 1007.63 1518.73 1001.72 1523.39 997.48C1526.16 994.96 1529.54 993.58 1532.46 993.77C1534.25 993.89 1535.74 994.6 1536.77 995.82C1539.55 999.12 1538.07 1005.02 1533.41 1009.26C1530.81 1011.62 1527.66 1012.99 1524.88 1012.99ZM1531.9 995.83C1529.64 995.83 1527.01 997 1524.79 999.02C1521.08 1002.39 1519.63 1007.23 1521.62 1009.59C1522.45 1010.57 1523.63 1010.84 1524.48 1010.9C1526.84 1011.05 1529.65 1009.87 1532.01 1007.72C1535.72 1004.35 1537.17 999.51 1535.18 997.15C1534.36 996.17 1533.17 995.9 1532.32 995.84C1532.18 995.83 1532.04 995.83 1531.9 995.83Z" />
				</g>
				<g id="&lt;Group&gt;">
					<path id="&lt;Path&gt;" class="shp10" d="M1482.96 892.45C1470.79 914.23 1465.27 935.17 1466.38 955.26L1477.4 954.69C1479.55 924.55 1484.59 902.96 1492.51 889.92C1489 888.81 1485.81 889.65 1482.96 892.45Z" />
				</g>
				<g id="&lt;Group&gt;">
					<path id="&lt;Path&gt;" class="shp10" d="M1516.48 943.52C1516.11 941.87 1522.61 895.96 1536.53 882.8C1540.86 881.12 1544.06 881.12 1546.12 882.81C1534.04 910.04 1528.14 931.3 1528.4 946.58L1516.48 943.52Z" />
				</g>
				<g id="&lt;Group&gt;">
					<path id="&lt;Path&gt;" class="shp8" d="M1468.5 950.82C1468.5 948.47 1470.37 946.58 1472.67 946.58C1474.98 946.58 1476.32 948.54 1476.85 950.82C1477.58 953.95 1474.98 955.05 1472.67 955.05C1470.37 955.05 1468.5 953.16 1468.5 950.82Z" />
				</g>
				<g id="&lt;Group&gt;">
					<path id="&lt;Path&gt;" class="shp8" d="M1516.47 945.16C1516.47 942.82 1518.34 940.92 1520.64 940.92C1522.95 940.92 1524.29 942.88 1524.82 945.16C1525.54 948.29 1522.95 949.4 1520.64 949.4C1518.34 949.4 1516.47 947.5 1516.47 945.16Z" />
				</g>
			</g>
			<g id="&lt;Group&gt;">
				<g id="&lt;Group&gt;">
					<path id="&lt;Path&gt;" class="shp3" d="M1134.1 1337.94C1117.71 1321.22 1112.33 1308.1 1117.97 1298.58C1123.61 1289.06 1131.2 1299.28 1140.72 1329.26C1135.78 1293.82 1138.43 1275.79 1148.65 1275.17C1158.88 1274.55 1158.88 1292.58 1148.65 1329.26C1152.44 1320.71 1156.19 1316.17 1159.89 1315.64C1165.45 1314.84 1163.86 1326.51 1153.94 1337.94L1134.1 1337.94Z" />
				</g>
				<g id="&lt;Group&gt;">
					<path id="&lt;Path&gt;" class="shp4" d="M1135.87 1338.57C1135.8 1338.5 1128.76 1331.28 1123 1322.17C1115.14 1309.74 1113.27 1299.87 1117.44 1292.84C1118.99 1290.21 1120.86 1289 1122.99 1289.25C1127.23 1289.73 1132.21 1296.43 1137.8 1309.16C1139.5 1313.04 1141.01 1316.91 1142.19 1320.12C1140.83 1306.2 1139.26 1278.48 1146.92 1269.12C1148.59 1267.09 1150.62 1265.99 1152.95 1265.85C1155.23 1265.7 1157.1 1266.52 1158.52 1268.27C1165.41 1276.8 1159.18 1306.93 1155.76 1321.02C1158.31 1316.89 1161.93 1312.28 1165.63 1311.75C1167.37 1311.51 1168.77 1312.16 1169.56 1313.59C1171.79 1317.69 1168.71 1328.14 1159.69 1338.53L1158.33 1337.35C1167.2 1327.13 1169.63 1317.49 1167.98 1314.45C1167.56 1313.68 1166.89 1313.39 1165.88 1313.54C1161.12 1314.22 1155.57 1324.54 1153.83 1328.46L1152.14 1327.85C1152.17 1327.73 1155.54 1315.61 1157.79 1302.34C1160.74 1284.99 1160.51 1273.6 1157.12 1269.4C1156.08 1268.12 1154.75 1267.53 1153.06 1267.64C1151.22 1267.75 1149.67 1268.61 1148.31 1270.26C1138.64 1282.08 1144.84 1327.51 1144.9 1327.97L1143.15 1328.37C1139.94 1318.26 1130.03 1291.86 1122.78 1291.04C1121.4 1290.88 1120.16 1291.77 1118.98 1293.75C1109.84 1309.18 1136.88 1337.03 1137.15 1337.31L1135.87 1338.57Z" />
				</g>
			</g>
		</g>
	</g>
</svg>