<svg version="1.2" baseProfile="tiny-ps" xmlns="http://www.w3.org/2000/svg" viewBox="0 0 5000 2000" width="2500" height="1000">
	<title>7437-ai</title>
	<style>
		tspan { white-space:pre }
		.shp0 { fill: #ffffff } 
		.shp1 { fill: #f7cc7f } 
		.shp2 { fill: #fae0b2 } 
		.shp3 { fill: #184655 } 
		.shp4 { fill: #13375b } 
		.shp5 { fill: #355389 } 
		.shp6 { fill: #3c8f7c } 
		.shp7 { fill: #50bfa5 } 
		.shp8 { fill: #f48c7f } 
		.shp9 { fill: #f47458 } 
		.shp10 { fill: #b75742 } 
		.shp11 { fill: #f7a491 } 
		.shp12 { fill: #f8a492 } 
		.shp13 { fill: #466eb6 } 
		.shp14 { fill: #96d9c9 } 
		.shp15 { fill: #9bc1f9 } 
		.shp16 { fill: #86b1f2 } 
		.shp17 { fill: #f79c8d } 
	</style>
	<g id="Layer 1">
		<path id="&lt;Path&gt;" class="shp0" d="M6960 -336L1960 -336L1960 -2336L6960 -2336L6960 -336Z" />
		<g id="&lt;Group&gt;">
			<g id="&lt;Group&gt;">
				<path id="&lt;Path&gt;" class="shp1" d="M4467.22 793.6C4410.28 829.2 4335 811.83 4299.41 754.9C4263.81 697.96 4281.18 622.68 4338.11 587.09C4395.05 551.49 4470.33 568.86 4505.92 625.79C4541.52 682.73 4524.15 758.01 4467.22 793.6Z" />
				<path id="&lt;Path&gt;" class="shp1" d="M4465.54 790.91C4410.08 825.58 4336.76 808.67 4302.1 753.22C4267.43 697.76 4284.34 624.45 4339.79 589.78C4395.25 555.11 4468.56 572.02 4503.23 627.47C4537.9 682.93 4520.99 756.24 4465.54 790.91Z" />
				<path id="&lt;Path&gt;" class="shp0" d="M4485.09 639.48C4513.44 684.83 4499.66 744.59 4454.3 772.94C4408.95 801.3 4349.19 787.52 4320.84 742.16C4292.48 696.81 4306.26 637.05 4351.62 608.7C4396.98 580.34 4456.73 594.12 4485.09 639.48Z" />
				<path id="&lt;Path&gt;" class="shp0" d="M4451.36 768.24C4408.44 795.07 4351.68 781.98 4324.85 739.06C4298.01 696.13 4311.1 639.38 4354.03 612.55C4396.95 585.71 4453.71 598.8 4480.54 641.72C4507.38 684.65 4494.29 741.4 4451.36 768.24Z" />
				<g id="&lt;Group&gt;">
					<path id="&lt;Path&gt;" class="shp1" d="M4332.73 728.36L4318.79 737.07C4316.5 738.5 4315.8 741.53 4317.23 743.82C4318.67 746.11 4321.69 746.81 4323.98 745.38L4337.92 736.66C4340.21 735.23 4340.91 732.2 4339.48 729.91C4338.05 727.62 4335.02 726.92 4332.73 728.36Z" />
					<path id="&lt;Path&gt;" class="shp1" d="M4442.21 753.61C4439.93 755.04 4439.23 758.07 4440.66 760.36L4449.37 774.3C4450.8 776.59 4453.83 777.28 4456.12 775.85C4458.41 774.42 4459.11 771.39 4457.68 769.1L4448.96 755.16C4447.53 752.87 4444.51 752.18 4442.21 753.61Z" />
					<path id="&lt;Path&gt;" class="shp1" d="M4481.4 635.41L4467.47 644.12C4465.18 645.55 4464.48 648.58 4465.91 650.87C4467.34 653.16 4470.37 653.86 4472.66 652.43L4486.6 643.71C4488.89 642.28 4489.59 639.25 4488.15 636.96C4486.72 634.67 4483.7 633.98 4481.4 635.41Z" />
					<path id="&lt;Path&gt;" class="shp1" d="M4349.27 604.93C4346.98 606.36 4346.28 609.39 4347.71 611.68L4356.42 625.62C4357.86 627.91 4360.88 628.61 4363.17 627.18C4365.46 625.74 4366.16 622.72 4364.73 620.43L4356.02 606.49C4354.59 604.2 4351.56 603.5 4349.27 604.93Z" />
				</g>
				<g id="&lt;Group&gt;">
					<path id="&lt;Path&gt;" class="shp1" d="M4376.24 558.75L4374.48 539.56C4374.33 537.98 4375.49 536.59 4377.07 536.44L4399.08 534.42C4400.66 534.27 4402.05 535.43 4402.2 537.01L4403.96 556.2C4404.11 557.78 4402.95 559.17 4401.37 559.32L4379.36 561.34C4377.78 561.48 4376.39 560.32 4376.24 558.75Z" />
				</g>
				<g id="&lt;Group&gt;">
					<path id="&lt;Path&gt;" class="shp1" d="M4297.22 608.71L4280.74 598.72C4279.39 597.9 4277.63 598.33 4276.81 599.69L4265.35 618.59C4264.53 619.94 4264.96 621.7 4266.31 622.52L4282.79 632.52C4284.15 633.34 4285.91 632.9 4286.73 631.55L4298.19 612.65C4299.01 611.3 4298.58 609.53 4297.22 608.71Z" />
				</g>
				<g id="&lt;Group&gt;">
					<path id="&lt;Path&gt;" class="shp1" d="M4315.47 573.81C4314.17 574.63 4312.44 574.23 4311.63 572.92L4304.27 561.16C4303.46 559.86 4303.86 558.13 4305.16 557.32L4329.17 542.31C4330.47 541.49 4332.19 541.89 4333.01 543.2L4340.36 554.96C4341.18 556.26 4340.78 557.99 4339.48 558.8L4315.47 573.81Z" />
					<path id="&lt;Path&gt;" class="shp1" d="M4322.98 577.26C4310.57 580.27 4297.1 575.23 4289.96 563.8C4281.04 549.53 4285.38 530.72 4299.65 521.8C4313.92 512.88 4332.73 517.21 4341.65 531.49C4348.79 542.91 4347.44 557.24 4339.29 567.08L4343.28 573.45C4354.71 561.28 4357.03 542.47 4347.77 527.66C4336.75 510.04 4313.45 504.66 4295.82 515.68C4278.2 526.7 4272.82 550 4283.84 567.63C4293.1 582.44 4311.03 588.59 4326.97 583.65L4322.98 577.26Z" />
					<path id="&lt;Path&gt;" class="shp1" d="M4336.83 585.03C4339.63 583.28 4342.47 581.66 4345.35 580.16L4334.74 563.18L4321.48 571.47L4331.96 588.24C4333.55 587.14 4335.17 586.07 4336.83 585.03Z" />
				</g>
				<g id="&lt;Group&gt;">
					<path id="&lt;Path&gt;" class="shp2" d="M4410.23 685.48C4412.84 689.66 4411.57 695.17 4407.39 697.79C4403.21 700.4 4397.7 699.13 4395.08 694.95C4392.47 690.77 4393.74 685.26 4397.92 682.64C4402.1 680.03 4407.61 681.3 4410.23 685.48Z" />
					<path id="&lt;Path&gt;" class="shp2" d="M4400.27 616.62L4405.8 690.08C4405.94 691.93 4404.55 693.54 4402.7 693.68C4400.85 693.82 4399.24 692.44 4399.1 690.58C4399.08 690.29 4399.04 693.58 4400.27 616.62Z" />
					<path id="&lt;Path&gt;" class="shp2" d="M4472.21 715.66L4401.91 693.64C4400.14 693.08 4399.15 691.2 4399.71 689.43C4400.26 687.66 4402.15 686.67 4403.92 687.23C4404.2 687.31 4401.16 686.07 4472.21 715.66Z" />
					<path id="&lt;Path&gt;" class="shp2" d="M4405.75 688.28C4406.82 689.99 4406.3 692.24 4404.59 693.31C4402.88 694.38 4400.63 693.86 4399.56 692.15C4398.49 690.44 4399.01 688.19 4400.72 687.12C4402.43 686.05 4404.68 686.57 4405.75 688.28Z" />
				</g>
			</g>
			<g id="&lt;Group&gt;">
				<path id="&lt;Path&gt;" class="shp3" d="M3360.04 1746.87L3322.9 1746.87L3322.9 1711.66L3360.04 1711.66L3360.04 1746.87Z" />
				<path id="&lt;Path&gt;" class="shp3" d="M3508.77 1746.87L3471.64 1746.87L3471.64 1711.66L3508.77 1711.66L3508.77 1746.87Z" />
				<path id="&lt;Path&gt;" class="shp4" d="M3340.53 1719.02L3310.72 1719.02L3310.72 1696.54L3340.53 1696.54L3340.53 1719.02Z" />
				<g id="&lt;Group&gt;">
					<path id="&lt;Path&gt;" class="shp5" d="M3369.11 1214.53C3369.11 1211.87 3371.09 1209.7 3373.52 1209.7L3449.28 1209.7C3451.71 1209.7 3453.69 1211.87 3453.69 1214.53L3453.69 1348.26L3467.11 1348.26L3467.11 1214.53C3467.11 1203.78 3459.11 1195.04 3449.28 1195.04L3373.52 1195.04C3363.69 1195.04 3355.69 1203.78 3355.69 1214.53L3355.69 1348.26L3369.11 1348.26L3369.11 1214.53Z" />
				</g>
				<path id="&lt;Path&gt;" class="shp6" d="M3508.66 1720.04L3327.37 1709.87C3317.68 1709.87 3309.82 1701.62 3309.82 1691.45L3292.63 1368.94C3292.1 1346.38 3317.68 1342.82 3327.37 1342.82L3524.65 1342.82C3534.34 1342.82 3542.19 1351.07 3542.19 1361.24L3542.19 1691.45C3542.27 1708.56 3525.43 1719.75 3508.66 1720.04Z" />
				<path id="&lt;Path&gt;" class="shp7" d="M3503.3 1720L3314.22 1720C3302.27 1720 3292.58 1710.32 3292.58 1698.36L3292.58 1374.6C3292.58 1362.64 3302.27 1352.95 3314.22 1352.95L3503.3 1352.95C3515.26 1352.95 3524.95 1362.64 3524.95 1374.6L3524.95 1698.36C3524.95 1710.31 3515.26 1720 3503.3 1720Z" />
				<path id="&lt;Path&gt;" class="shp6" d="M3481.83 1720L3337.7 1720L3337.7 1531.56C3337.7 1494.96 3367.38 1465.29 3403.98 1465.29L3415.56 1465.29C3452.16 1465.29 3481.83 1494.96 3481.83 1531.56L3481.83 1720Z" />
				<path id="&lt;Path&gt;" class="shp4" d="M3414.63 1328.97C3432.89 1328.97 3448.36 1337.07 3448.99 1346.79L3463.63 1346.79C3463.09 1330.79 3441.37 1317.91 3414.63 1317.91C3387.9 1317.91 3366.18 1330.79 3365.63 1346.79L3380.28 1346.79C3380.91 1337.07 3396.38 1328.97 3414.63 1328.97Z" />
				<path id="&lt;Path&gt;" class="shp4" d="M3442.63 1210.8L3381.06 1210.8C3376.64 1210.8 3373.05 1207.21 3373.05 1202.79L3373.05 1200.1C3373.05 1195.67 3376.64 1192.09 3381.06 1192.09L3442.63 1192.09C3447.05 1192.09 3450.64 1195.67 3450.64 1200.1L3450.64 1202.79C3450.64 1207.21 3447.05 1210.8 3442.63 1210.8Z" />
			</g>
			<g id="&lt;Group&gt;">
				<path id="&lt;Path&gt;" class="shp8" d="M3200.12 334.42C3202.75 327 3208.47 321.96 3217.28 319.31C3229.06 315.77 3240 322.69 3243.28 333.59C3247.07 346.22 3240.5 364.48 3215.67 386.1C3183.03 381.77 3167.47 370.16 3163.67 357.54C3160.39 346.63 3165.7 334.83 3177.48 331.28C3186.29 328.63 3193.83 329.68 3200.12 334.42Z" />
				<g id="&lt;Group&gt;">
					<path id="&lt;Path&gt;" class="shp8" d="M3104.22 368.7C3116.22 367.11 3125.79 365.23 3135.11 362.93C3138.18 362.18 3143.73 361.77 3145.21 358.61C3145.98 356.97 3145.74 355.26 3144.16 354.17C3141.27 352.18 3136.89 354.32 3133.8 355.08C3124.36 357.4 3113.57 359.58 3102.54 361.14C3100.47 361.44 3099.18 363.83 3099.61 365.76C3100.09 367.95 3102.14 368.97 3104.22 368.7Z" />
				</g>
				<g id="&lt;Group&gt;">
					<path id="&lt;Path&gt;" class="shp8" d="M3267.72 354.25C3272.25 353.22 3276.76 352.1 3281.28 351C3285.6 349.94 3290.89 349.45 3294.62 346.98C3297.38 345.15 3296.68 341.07 3293.22 340.71C3288.75 340.24 3283.89 342.22 3279.57 343.29C3275.05 344.41 3270.54 345.52 3266.04 346.7C3261.24 347.97 3262.85 355.37 3267.72 354.25Z" />
				</g>
				<g id="&lt;Group&gt;">
					<path id="&lt;Path&gt;" class="shp8" d="M3160.3 417.68C3163.66 406.79 3169.85 402.18 3174.24 397.25C3176.58 394.61 3174.01 390.82 3170.68 392.2C3161.58 395.99 3155.6 406.43 3152.93 415.45C3151.52 420.2 3158.84 422.43 3160.3 417.68Z" />
				</g>
				<g id="&lt;Group&gt;">
					<path id="&lt;Path&gt;" class="shp8" d="M3218.17 428.89C3216.86 424.26 3216.47 419.53 3217.13 414.76C3217.54 411.84 3221.12 403.1 3215.47 403C3210.16 402.9 3209.46 411.76 3209.11 415.52C3208.63 420.56 3209.17 425.73 3210.59 430.58C3212 435.35 3219.54 433.71 3218.17 428.89Z" />
				</g>
				<g id="&lt;Group&gt;">
					<path id="&lt;Path&gt;" class="shp8" d="M3249.6 391.17C3252.55 392.38 3255.51 393.6 3258.46 394.81C3261.41 396.03 3264.45 398.09 3267.59 396.62C3269.36 395.79 3269.64 393.74 3269.02 392.12C3267.89 389.16 3263.45 388.32 3260.75 387.23C3257.79 386.03 3254.84 384.84 3251.88 383.64C3249.91 382.84 3247.55 384.36 3246.98 386.26C3246.31 388.46 3247.63 390.36 3249.6 391.17Z" />
				</g>
				<g id="&lt;Group&gt;">
					<path id="&lt;Path&gt;" class="shp8" d="M3162.34 314.24C3147.16 293.47 3147.32 293.31 3144.92 291.88C3142.47 290.41 3139.15 292.61 3139.84 295.5C3140.52 298.34 3140.46 297.86 3156.51 319.65C3157.78 321.38 3160.68 321.21 3162.13 319.86C3163.86 318.26 3163.62 315.98 3162.34 314.24Z" />
				</g>
				<g id="&lt;Group&gt;">
					<path id="&lt;Path&gt;" class="shp8" d="M3203.5 304.01C3204.08 299.82 3204.2 295.6 3203.87 291.38C3203.57 287.45 3203.63 281.39 3199.48 279.6C3198.59 279.22 3197.18 279.58 3196.54 280.28C3193.85 283.24 3195.77 288.22 3196.03 291.85C3196.33 295.8 3196.19 299.78 3195.81 303.73C3195.61 305.8 3197.52 307.64 3199.51 307.72C3201.76 307.8 3203.22 306.08 3203.5 304.01Z" />
				</g>
				<g id="&lt;Group&gt;">
					<path id="&lt;Path&gt;" class="shp8" d="M3262.61 293.73C3262.85 291.81 3261.04 290.49 3259.38 290.25C3255.97 289.77 3252.61 293.78 3250.37 295.96C3247.76 298.49 3245.42 301.27 3243.25 304.18C3242 305.87 3242.84 308.49 3244.51 309.53C3246.47 310.74 3248.54 309.91 3249.85 308.27C3258.44 297.54 3261.99 298.47 3262.61 293.73Z" />
				</g>
			</g>
			<g id="&lt;Group&gt;">
				<path id="&lt;Path&gt;" class="shp1" d="M4108.93 473.26C4108.14 461.99 4116.65 452.21 4127.92 451.43C4139.19 450.65 4148.96 459.15 4149.75 470.43C4150.53 481.7 4142.03 491.47 4130.75 492.25C4119.48 493.04 4109.71 484.53 4108.93 473.26Z" />
				<g id="&lt;Group&gt;">
					<path id="&lt;Path&gt;" class="shp1" d="M4143.62 531.03C4142.4 525.1 4141.66 518.75 4139.64 513.02C4137.9 508.11 4130.22 509.61 4130.61 514.89C4131.08 521.36 4133.11 527.92 4134.46 534.26C4135.01 536.82 4138.41 538.02 4140.65 537.23C4143.4 536.26 4144.15 533.61 4143.62 531.03Z" />
				</g>
				<g id="&lt;Group&gt;">
					<path id="&lt;Path&gt;" class="shp1" d="M4178.69 505.69C4171.9 501.69 4165.99 496.74 4159.74 492.01C4154.85 488.31 4149.58 494.67 4153.6 499.06C4159.37 505.37 4166.95 510.29 4174.27 514.61C4176.59 515.97 4179.81 514.64 4180.94 512.35C4182.21 509.79 4181.01 507.06 4178.69 505.69Z" />
				</g>
				<g id="&lt;Group&gt;">
					<path id="&lt;Path&gt;" class="shp1" d="M4165.84 469.06C4164.31 470.29 4164 472.06 4164.95 473.78C4167.24 477.94 4173.06 477.74 4177.2 477.6C4181.51 477.45 4185.83 476.57 4189.9 475.18C4195.93 473.12 4192.67 463.76 4186.62 465.83C4174.78 469.87 4170.3 465.49 4165.84 469.06Z" />
				</g>
				<g id="&lt;Group&gt;">
					<path id="&lt;Path&gt;" class="shp1" d="M4159.33 429.28C4153.37 437.99 4148.51 440.93 4149.26 445.73C4149.71 448.53 4151.92 449.87 4154.63 449.26C4157.83 448.53 4159.57 445.14 4161.49 442.76C4163.33 440.48 4165.13 438.19 4166.77 435.76C4168.26 433.55 4168.47 430.7 4166.29 428.8C4164.46 427.2 4160.84 427.07 4159.33 429.28Z" />
				</g>
				<g id="&lt;Group&gt;">
					<path id="&lt;Path&gt;" class="shp1" d="M4136.13 427.77C4134.22 422.49 4133.81 420.57 4131.34 418.12C4129.19 415.98 4124.66 417.34 4124.36 420.49C4124.01 424.15 4124.78 425.51 4126.78 431.06C4127.69 433.58 4130.56 434.98 4133.1 434.09C4135.62 433.21 4137.04 430.3 4136.13 427.77Z" />
				</g>
				<g id="&lt;Group&gt;">
					<path id="&lt;Path&gt;" class="shp1" d="M4111.07 440.55C4102.49 434.03 4100.74 432.19 4097.37 432.54C4095.39 432.75 4093.17 434.65 4093.6 436.87C4094.4 441 4096.8 442.11 4104.7 447.87C4106.81 449.42 4109.72 449.49 4111.55 447.4C4113.18 445.52 4113.17 442.14 4111.07 440.55Z" />
				</g>
				<g id="&lt;Group&gt;">
					<path id="&lt;Path&gt;" class="shp1" d="M4076.59 470.44C4073.21 472.24 4074.57 478.08 4078.23 478.56C4081.74 479.02 4083.1 478.46 4100.14 475.35C4102.77 474.87 4104.94 472.94 4104.74 470.06C4104.57 467.61 4102.1 464.98 4099.45 465.46C4081.75 468.66 4079.98 468.64 4076.59 470.44Z" />
				</g>
				<g id="&lt;Group&gt;">
					<path id="&lt;Path&gt;" class="shp1" d="M4103.29 498.32C4093.95 507.36 4092.58 505.76 4088.89 511.29C4087.21 513.82 4089.99 517.85 4092.92 517.31C4096.69 516.62 4097.71 515.98 4102.62 512.09C4105.47 509.83 4108.2 507.4 4110.82 504.88C4112.77 503 4112.24 499.49 4110.33 497.83C4108.15 495.93 4105.23 496.44 4103.29 498.32Z" />
				</g>
			</g>
			<g id="&lt;Group&gt;">
				<path id="&lt;Path&gt;" class="shp4" d="M475.59 1750.55C475.59 1754.05 478.42 1756.88 481.91 1756.88L4507.2 1756.88C4510.69 1756.88 4513.52 1754.05 4513.52 1750.55C4513.52 1747.06 4510.69 1744.23 4507.2 1744.23L481.91 1744.23C478.42 1744.23 475.59 1747.06 475.59 1750.55Z" />
			</g>
			<g id="&lt;Group&gt;">
				<path id="&lt;Path&gt;" class="shp8" d="M2702.29 1184.26C2702.22 1181.38 2677.78 1012.75 2674.75 1007.84L2656.02 912.17L2596.59 905.95C2612.51 988.54 2621.27 1031.91 2622.85 1036.08C2623.83 1038.63 2642.1 1103.64 2677.68 1231.09C2677.23 1247.66 2679.93 1255.95 2685.78 1255.95C2691.63 1255.95 2704.89 1252.93 2725.56 1246.88L2729.36 1231.09L2702.29 1184.26Z" />
				<path id="&lt;Path&gt;" class="shp9" d="M2852.36 1501.88L2609.97 1501.88C2587.91 1501.88 2570.04 1484 2570.04 1461.94L2570.04 1310.37C2570.04 1288.31 2587.91 1270.44 2609.97 1270.44L2852.36 1270.44C2874.42 1270.44 2892.3 1288.31 2892.3 1310.37L2892.3 1461.94C2892.3 1484 2874.42 1501.88 2852.36 1501.88Z" />
				<g id="&lt;Group&gt;">
					<path id="&lt;Path&gt;" class="shp3" d="M2662.67 1278.18L2662.67 1266.77C2662.67 1255.8 2671.59 1246.88 2682.56 1246.88L2729.36 1246.88C2740.33 1246.88 2749.25 1255.8 2749.25 1266.77L2749.25 1278.18L2765.05 1278.18L2765.05 1266.77C2765.05 1247.09 2749.04 1231.09 2729.36 1231.09L2682.56 1231.09C2662.88 1231.09 2646.88 1247.09 2646.88 1266.77L2646.88 1278.18L2662.67 1278.18Z" />
				</g>
				<path id="&lt;Path&gt;" class="shp10" d="M2794.68 1501.88L2552.29 1501.88C2530.24 1501.88 2512.36 1484 2512.36 1461.94L2512.36 1310.37C2512.36 1288.31 2530.24 1270.44 2552.29 1270.44L2794.68 1270.44C2816.74 1270.44 2834.62 1288.31 2834.62 1310.37L2834.62 1461.94C2834.62 1484 2816.74 1501.88 2794.68 1501.88Z" />
				<path id="&lt;Path&gt;" class="shp3" d="M2631.21 905.53C2625.59 835.85 2618.08 773.61 2615.58 765.72C2600.37 717.75 2391.29 714.56 2369.41 794.12C2366.22 805.73 2358.2 844.18 2373.51 899.19L2496.16 850.04L2631.21 905.53Z" />
				<path id="&lt;Path&gt;" class="shp6" d="M2393.86 817.2C2385.32 848.25 2416.82 1161.32 2430.43 1174.93C2444.03 1188.53 2612.95 1177.56 2637.52 1152.99C2662.09 1128.42 2629 779.14 2615.58 765.72C2602.15 752.29 2415.74 737.64 2393.86 817.2Z" />
				<g id="&lt;Group&gt;">
					<path id="&lt;Path&gt;" class="shp4" d="M2530.04 999.49L2520.52 1001.12C2514.93 968.4 2510.37 940.96 2506.64 917.95C2488.09 803.3 2490.43 798.45 2490.24 797.12C2490.08 779.3 2479.26 763.43 2462.69 756.68L2430.34 743.52C2435.2 741.91 2440.23 740.49 2445.39 739.23L2466.33 747.75C2501.38 762.01 2499.86 797.75 2499.9 797.84C2499.9 811.25 2508.41 867.34 2516.38 916.98C2523.34 960.28 2529.89 998.66 2530.04 999.49Z" />
				</g>
				<g id="&lt;Group&gt;">
					<path id="&lt;Path&gt;" class="shp4" d="M2616.87 993.34C2583.41 797.62 2586.82 790.93 2586.59 789.33C2586.42 771.52 2575.61 755.66 2559.04 748.91L2515.3 731.11L2518.94 722.17L2562.68 739.97C2597.73 754.24 2596.21 789.97 2596.24 790.06C2596.24 815.16 2626.08 989.95 2626.38 991.72L2616.87 993.34Z" />
				</g>
				<path id="&lt;Path&gt;" class="shp3" d="M2412.62 1080.07C2413.05 1083.4 2413.47 1086.68 2413.9 1089.9C2461.32 1094.75 2585.94 1103.52 2618.43 1079.66L2612.72 1071.88C2582.76 1093.88 2455.07 1084.52 2412.62 1080.07Z" />
				<path id="&lt;Path&gt;" class="shp11" d="M2363.3 1660.49C2354.92 1668.71 2350.63 1674.32 2350.44 1677.34C2350.15 1681.86 2349.33 1730.32 2354.46 1734.85C2359.59 1739.37 2374.67 1742.58 2369.83 1747.67C2366.16 1751.51 2337.97 1750.69 2319.29 1749.66C2313.83 1749.36 2306.99 1705.65 2304.83 1699.22C2301.69 1689.89 2290.39 1669.59 2293.24 1663.09C2294.63 1659.92 2304.96 1652.69 2314.32 1646.62C2320.89 1642.35 2327.32 1635.48 2333.61 1625.99L2363.3 1660.49Z" />
				<path id="&lt;Path&gt;" class="shp11" d="M2531.54 1690.77C2525.04 1709.21 2521.34 1719.73 2520.43 1722.33C2520.33 1722.62 2516.14 1740.34 2516.14 1744.94C2516.14 1762.22 2593.72 1730.28 2576.33 1722.62C2574.76 1721.92 2569.82 1716.39 2569.3 1710.51C2568.77 1704.47 2570.95 1697.66 2575.84 1690.08L2531.54 1690.77Z" />
				<g id="&lt;Group&gt;">
					<path id="&lt;Path&gt;" class="shp3" d="M2638.6 1084.46L2666.69 1156.54C2678.91 1271.22 2681.46 1362.89 2674.34 1431.54C2671.37 1460.25 2637.68 1551.45 2573.27 1705.14L2525.28 1698.35L2589.55 1425.35L2565.9 1320.95L2532.43 1114.58L2638.6 1084.46Z" />
					<path id="&lt;Path&gt;" class="shp5" d="M2506.29 1088.21L2482.19 1168.48L2445.54 1410.73L2321.6 1637.35C2334.02 1656.25 2346.9 1667.19 2360.25 1670.16L2536.16 1441.12L2631.5 1154.4L2628.16 1090.69L2506.29 1088.21Z" />
				</g>
				<path id="&lt;Path&gt;" class="shp2" d="M2665.43 946.22L2597.03 953.23C2594.94 915.69 2593.9 887.96 2593.9 870.05C2593.9 837.45 2599.9 796.67 2603.74 797.86C2614.39 801.15 2626.39 805.01 2635.21 817.18C2655.55 845.26 2665.63 888.27 2665.43 946.22Z" />
				<path id="&lt;Path&gt;" class="shp3" d="M2375.46 1742.38C2370.93 1737.07 2355.78 1731.7 2352.77 1730.65C2345.21 1728.01 2332.6 1699.86 2314.95 1646.2C2299.61 1650.71 2291.35 1654.14 2290.17 1656.49C2288.98 1658.84 2293.72 1672.94 2304.38 1698.79C2306.4 1709.36 2309.95 1726.69 2315.04 1750.77L2368.87 1750.77C2373.07 1750.77 2380.39 1748.15 2375.46 1742.38Z" />
				<path id="&lt;Path&gt;" class="shp3" d="M2511.73 1750.64L2520.43 1722.34C2532.99 1727.7 2542.38 1729.94 2548.6 1729.06C2554.82 1728.18 2564 1725.98 2576.14 1722.45C2613.38 1734.76 2643.88 1740.74 2638.33 1750.64L2511.73 1750.64Z" />
				<path id="&lt;Path&gt;" class="shp1" d="M2514.99 793.92C2490.85 797.24 2475.61 801.22 2469.25 805.84C2462.1 811.05 2447.44 825.79 2425.29 850.08C2471.4 980.98 2493.57 1058.07 2491.78 1081.36C2490 1104.65 2486.58 1133.54 2481.52 1168.04C2571.07 1173.64 2632.8 1169.8 2666.72 1156.54C2656.01 1103.77 2650.65 1070.45 2650.65 1056.6C2650.65 1035.81 2641.63 828.06 2635.21 817.18C2628.79 806.3 2615.84 800.11 2591.3 794.8C2574.94 791.27 2549.5 790.97 2514.99 793.92Z" />
				<path id="&lt;Path&gt;" class="shp11" d="M2524.87 737.86L2515.94 793.91C2537.74 841.46 2555.15 863.23 2568.18 859.23C2579.11 855.87 2581.21 833.77 2574.48 792.94C2568.53 771.01 2566.44 754.55 2568.23 743.58C2570.01 732.6 2555.56 730.7 2524.87 737.86Z" />
				<path id="&lt;Path&gt;" class="shp9" d="M2568.23 743.58C2570.01 732.6 2555.56 730.7 2524.87 737.86L2524.13 742.68C2525.48 745.91 2527.12 748.67 2529.12 750.79C2539.41 761.68 2555.48 768.22 2569.38 768.72C2567.98 759.84 2567.13 750.33 2568.23 743.58Z" />
				<g id="&lt;Group&gt;">
					<path id="&lt;Path&gt;" class="shp11" d="M2517.32 655.61C2516.02 655.14 2506.89 721.83 2524.21 740.17C2541.54 758.52 2575.29 764.53 2587.39 750.08C2600.78 734.09 2600.11 662.42 2573.18 643.55C2555.22 630.96 2536.6 634.98 2517.32 655.61Z" />
					<path id="&lt;Path&gt;" class="shp1" d="M2488.11 657.77C2472.65 684.87 2483.84 713.81 2502.83 728.27C2515.49 737.9 2521.7 748.23 2521.48 759.27L2524.55 750.77C2526.77 744.23 2527.67 737.3 2526.93 730.44C2526.49 726.32 2525.59 721.87 2523.86 718.21C2519.29 708.56 2533.67 702.15 2537.7 694.12C2540.81 687.94 2540.96 673.79 2545.85 663.57L2551.69 655.77C2560.67 648.89 2569.56 646.42 2578.35 648.36C2591.53 651.27 2521.98 598.41 2488.11 657.77Z" />
					<path id="&lt;Path&gt;" class="shp11" d="M2536.82 705.98C2536.96 714.12 2533.2 720.78 2528.42 720.86C2523.65 720.94 2519.67 714.41 2519.54 706.28C2519.4 698.14 2523.15 691.48 2527.93 691.4C2532.7 691.32 2536.68 697.85 2536.82 705.98Z" />
				</g>
				<path id="&lt;Path&gt;" class="shp6" d="M2558.25 629.45C2553.14 625.89 2543.54 618.99 2533.95 613.85C2521.24 607.04 2505.69 608.55 2494.49 617.62C2479.27 629.95 2460.92 648.38 2463.19 664.22C2474.95 688.79 2480.83 704 2480.83 709.85C2480.83 715.7 2480.83 722.72 2480.83 730.91C2536.9 702.93 2577.63 672.17 2603 638.63C2585.43 641.06 2570.51 638.01 2558.25 629.45Z" />
				<path id="&lt;Path&gt;" class="shp7" d="M2566.77 634.11C2538.52 669.96 2496.51 692.32 2478.66 700.72C2479.07 701.92 2479.42 703.06 2479.73 704.12C2488.03 700.25 2501.7 693.33 2516.73 683.44C2533.2 672.59 2553.85 656.45 2570.2 635.41C2569.05 635.02 2567.91 634.59 2566.77 634.11Z" />
				<g id="&lt;Group&gt;">
					<g id="&lt;Group&gt;">
						<g id="&lt;Group&gt;">
							<path id="&lt;Path&gt;" class="shp3" d="M2423.71 1292.38L2412.17 1292.38L2412.17 1249.65C2412.17 1248.4 2411.24 1247.37 2410.1 1247.37L2347.03 1247.37C2345.89 1247.37 2344.96 1248.4 2344.96 1249.65L2344.96 1292.38L2333.42 1292.38L2333.42 1249.65C2333.42 1241.38 2339.53 1234.65 2347.03 1234.65L2410.1 1234.65C2417.61 1234.65 2423.71 1241.38 2423.71 1249.65L2423.71 1292.38Z" />
						</g>
					</g>
					<path id="&lt;Path&gt;" class="shp1" d="M2551.27 1487.4L2215.9 1487.4C2202.63 1487.4 2191.87 1476.64 2191.87 1463.36L2191.87 1291.96C2191.87 1278.69 2202.63 1267.93 2215.9 1267.93L2551.27 1267.93C2564.55 1267.93 2575.31 1278.69 2575.31 1291.96L2575.31 1463.36C2575.31 1476.64 2564.55 1487.4 2551.27 1487.4Z" />
					<path id="&lt;Path&gt;" class="shp2" d="M2554.66 1267.93L2520.59 1267.93C2531.99 1267.93 2541.24 1276.1 2541.24 1286.18L2541.24 1469.14C2541.24 1479.22 2531.99 1487.4 2520.59 1487.4L2554.66 1487.4C2566.06 1487.4 2575.31 1479.22 2575.31 1469.14L2575.31 1286.18C2575.31 1276.1 2566.06 1267.93 2554.66 1267.93Z" />
				</g>
				<path id="&lt;Path&gt;" class="shp12" d="M2398.44 1199.97C2396.76 1198.87 2396.81 1184.55 2398.61 1157C2401.4 1077.69 2402.94 1035.9 2403.24 1031.62L2456.67 921.79L2410.48 878.67C2373.82 959.41 2354.89 1002.06 2353.7 1006.63C2351.92 1013.49 2364.64 1175.17 2365.31 1189.44C2358.86 1203.81 2354.63 1214.65 2352.63 1221.95C2349.61 1232.9 2354.9 1243.94 2354.52 1247.16C2354.46 1247.64 2366.47 1254.59 2369.66 1253.68C2379.16 1250.96 2384.49 1250.18 2386.72 1250.69C2399.95 1253.68 2395.57 1234.57 2397.75 1234.65C2399.92 1234.74 2407.34 1234.65 2408.64 1234.65C2410.61 1234.65 2412 1208.86 2398.44 1199.97Z" />
				<path id="&lt;Path&gt;" class="shp2" d="M2380.36 920.46L2440.91 967.27C2458.73 950.33 2472.12 932.49 2481.07 913.76C2494.66 885.31 2485.16 801.1 2470.69 804.96C2449.12 810.71 2419.01 849.21 2380.36 920.46Z" />
				<path id="&lt;Path&gt;" class="shp3" d="M2597.62 772.15L2597.62 791.04L2596.21 787.29C2596.38 787.61 2632.66 827.82 2650.81 915.93L2652.5 924.51C2657.1 951.83 2658.19 967.9 2658.18 967.82C2660.94 1006.74 2659.75 1022.32 2657.21 1054.86C2656.74 1060.41 2649.12 1061.64 2646.92 1056.52C2639.36 1038.89 2636.38 1020.68 2633.51 1003.05C2631.21 987.9 2629.35 961.84 2629.36 961.93C2628.94 958.67 2627.31 932.53 2618.37 888.94C2605.75 831.19 2590.78 802.28 2587.61 794.78C2587.51 794.66 2586.13 793.02 2586.21 793.11C2586.21 789.73 2586.21 780.39 2586.21 772.15C2586.21 769 2588.76 766.45 2591.91 766.45C2595.06 766.45 2597.62 769 2597.62 772.15Z" />
				<path id="&lt;Path&gt;" class="shp3" d="M2501.31 776.21L2501.84 791.73L2501.84 794.86C2524.29 834.27 2556.36 923.89 2539.01 1014.15C2532.54 1043.67 2518.01 1082.29 2490.63 1095.08C2487.95 1096.73 2482.83 1094.39 2481.17 1091.71C2479.52 1089.03 2486.29 1081.1 2486.25 1081.19C2500.45 1054.83 2506.83 969.21 2505.83 944.82C2505.21 889.28 2495.1 834.59 2490.23 798.47L2489.91 776.78C2489.76 773.63 2492.18 770.95 2495.33 770.8C2498.47 770.64 2501.15 773.06 2501.31 776.21Z" />
				<path id="&lt;Path&gt;" class="shp8" d="M2684.02 1253.46C2676.27 1243.81 2674.74 1237.3 2679.42 1233.94C2686.44 1228.89 2715.5 1235.36 2717.59 1237.45C2718.98 1238.84 2722.41 1241.98 2727.9 1246.88L2684.02 1253.46Z" />
			</g>
			<g id="&lt;Group&gt;">
				<path id="&lt;Path&gt;" class="shp3" d="M3093.6 887.07L3060.88 807.76C3045.72 771.02 2996.36 738.92 2960.31 755.66L2871.33 568.01C2863.76 549.64 2842.72 540.89 2824.35 548.47C2805.99 556.05 2797.24 577.08 2804.82 595.45L2892.75 780.91C2810.45 811.01 2886.81 919.73 2902.02 956.59C2885.38 992.33 2881.36 1026.62 2889.96 1059.46C2925.56 1195.34 3010.38 1204.79 3074.13 1178.49L3112.88 1162.5C3176.62 1136.21 3175.07 1011.31 3141.66 941.48C3135.68 928.98 3119.66 910.85 3093.6 887.07Z" />
				<path id="&lt;Path&gt;" class="shp4" d="M3330.05 729.02C3334.81 707.42 3339.46 685.68 3326.93 661.95C3316.8 642.75 3299.27 631.7 3278.99 629.29C3221.52 622.47 3216.46 673.83 3161.87 696.31C3138.55 705.91 3114.63 703.16 3093.79 715.57C3056.16 737.99 3070.02 765.12 3094.98 823.69C3156.08 967.12 3261.2 884.06 3279.73 855.82C3293.51 834.81 3327 742.92 3330.05 729.02Z" />
				<g id="&lt;Group&gt;">
					<path id="&lt;Path&gt;" class="shp8" d="M3296.89 802.73C3266.06 812.36 3200.73 860.45 3196.55 859.44L3120.47 798.89L3073.66 839.97C3143.28 891.52 3180.07 918.24 3184.03 920.13C3188.41 922.22 3271.2 851.88 3314.55 830.68C3313.94 816.58 3303.8 815.07 3296.89 802.73Z" />
					<path id="&lt;Path&gt;" class="shp10" d="M3175.84 832.8L3128.17 894.53C3094.67 868.78 3071.74 848.97 3059.39 835.12C3036.91 809.91 3012.32 755.78 3015.95 753.8C3026.13 748.25 3048.1 743.79 3063.25 747.18C3098.21 754.99 3135.74 783.53 3175.84 832.8Z" />
				</g>
				<g id="&lt;Group&gt;">
					<path id="&lt;Path&gt;" class="shp8" d="M3294.91 837.25L3289.04 806.56C3300.61 809.32 3310.08 816.42 3317.44 827.87C3328.49 845.03 3346.99 903.05 3350.14 904.76C3353.3 906.48 3388.25 852.63 3394.36 844.15C3401.92 833.65 3404.74 821.6 3409.47 812.44C3414.21 803.29 3430.88 800.17 3437.19 801.32C3441.39 802.08 3438.5 811.39 3428.52 829.24C3403.27 873.1 3386.44 907.05 3378.02 931.08C3365.4 967.13 3325.95 984.3 3319.63 979.15C3315.42 975.71 3307.18 928.41 3294.91 837.25Z" />
					<path id="&lt;Path&gt;" class="shp1" d="M3301.76 929.37L3350 901.85C3335.4 840.3 3315.08 808.53 3289.04 806.56L3301.76 929.37Z" />
					<path id="&lt;Path&gt;" class="shp11" d="M3409.89 817.48C3410.94 812.86 3412.89 810.08 3415.72 809.14C3419.97 807.72 3427.37 808.98 3427.84 809.14C3428.16 809.24 3431.05 807.82 3436.5 804.89L3429.73 817.48C3420.92 827.87 3415.04 831.13 3412.1 827.24C3409.16 823.36 3408.42 820.11 3409.89 817.48Z" />
					<path id="&lt;Path&gt;" class="shp8" d="M3438.87 805.46C3442.05 821.66 3443.24 831.46 3442.44 834.86C3441.22 839.96 3438.18 837.22 3437.61 836.12C3436.04 833.07 3434.71 826.35 3433.62 815.96L3438.87 805.46Z" />
					<path id="&lt;Path&gt;" class="shp8" d="M3428.58 825.67C3430.1 835.72 3431.64 841.33 3433.2 842.52C3434.72 843.67 3436.66 842.99 3437.29 839.95C3437.71 837.92 3436.7 830.71 3434.25 818.32L3428.58 825.67Z" />
					<path id="&lt;Path&gt;" class="shp3" d="M3414.66 868.44L3406.73 864.57L3440.4 795.5C3444.78 797.63 3446.6 802.91 3444.46 807.29L3414.66 868.44Z" />
					<path id="&lt;Path&gt;" class="shp11" d="M3100.22 1635.02C3097.49 1662.72 3092.62 1679.11 3085.61 1684.2C3075.09 1691.82 3061.06 1720.05 3068.08 1735.31C3070.27 1740.08 3074.65 1742.83 3079.64 1744.37C3094.42 1748.92 3110.15 1741.26 3116.44 1727.13C3119.95 1719.24 3123.04 1708.71 3123.66 1695.45C3124.71 1672.94 3128.74 1655.97 3135.76 1644.52L3100.22 1635.02Z" />
					<path id="&lt;Path&gt;" class="shp11" d="M3261.88 1652.02C3264.09 1679.97 3264.3 1698.49 3262.51 1707.57C3261.06 1714.87 3253.04 1729.89 3256.72 1736.75C3259.17 1741.33 3261.8 1744.19 3264.61 1745.34L3360.04 1746.87C3365.23 1746.95 3361.8 1743.62 3357.61 1740.54C3350.75 1735.51 3345.21 1732.18 3323.3 1721.6C3321.87 1720.91 3316.66 1717.61 3314.79 1716.46C3310.03 1713.56 3305.25 1709 3301.14 1704.43C3296.57 1699.35 3294.09 1684.51 3293.69 1659.89L3261.88 1652.02Z" />
					<path id="&lt;Path&gt;" class="shp10" d="M3336.47 1094.73C3344.48 1140.11 3345.85 1177.67 3340.59 1207.42C3335.33 1237.18 3320.08 1389.94 3294.83 1665.71L3252.75 1668.08C3246.87 1552.89 3244.45 1487.28 3245.51 1471.26C3246.56 1455.24 3251.25 1433.82 3259.57 1407.01L3255.38 1267.5L3308.49 1084.22L3336.47 1094.73Z" />
					<path id="&lt;Path&gt;" class="shp9" d="M3212.78 1080.41C3190.69 1113.59 3177.01 1143.92 3171.75 1171.38C3163.86 1212.57 3177.54 1339.17 3162.37 1393.16C3154.15 1422.38 3123.01 1467.51 3118.28 1505.27C3115.12 1530.44 3107.35 1576 3094.97 1641.94L3137.04 1650.27L3234.8 1403.23L3311.48 1179.96L3331.13 1064.96L3212.78 1080.41Z" />
					<path id="&lt;Path&gt;" class="shp2" d="M3239.6 797.2C3224.46 799.7 3211.24 806.47 3199.96 817.51C3163.66 853.03 3221.29 990.02 3224.44 1014.05C3226.54 1030.07 3217.92 1056.77 3198.58 1094.14C3270.87 1107.5 3316.83 1107.7 3336.47 1094.73C3338.78 966.19 3338.88 896.19 3336.77 884.75C3333.62 867.58 3298.31 814.61 3291.99 807.74C3287.79 803.17 3270.32 799.65 3239.6 797.2Z" />
					<path id="&lt;Path&gt;" class="shp11" d="M3198.57 833.62C3201.37 825.16 3210.95 821.09 3219.13 824.62C3230.33 829.47 3245.8 838.66 3253.36 854.41C3265.98 880.73 3310.16 971.14 3323.84 974.57C3332.96 976.86 3356.1 945.58 3393.27 880.73C3392.22 869.29 3393.27 860.33 3396.43 853.84C3401.16 844.11 3415.37 833.81 3417.47 837.25C3419.58 840.68 3409.58 849.26 3409.58 850.98C3409.58 852.7 3413.79 853.84 3419.58 850.41C3423.43 848.12 3426.41 844.66 3428.5 840.03C3434.82 851.53 3434.65 862.42 3427.99 872.72C3421.33 883.02 3416.59 890.27 3413.79 894.47C3370.66 990.21 3341.2 1038.65 3325.42 1039.8C3303.38 1041.4 3176.41 900.58 3198.57 833.62Z" />
					<path id="&lt;Path&gt;" class="shp11" d="M3254.21 738.69C3254.06 739.55 3253.85 740.71 3253.58 742.17C3251.62 752.7 3244.09 787.62 3239 797.22C3232.85 808.82 3260.05 845.83 3286.24 841.31C3294.03 839.97 3279.65 807.31 3280.34 803.85C3281.66 797.23 3283.46 788.2 3285.29 778.94C3286.33 773.71 3287.38 768.41 3288.36 763.44C3290.23 754 3291.92 745.43 3293.45 737.71L3254.21 738.69Z" />
					<path id="&lt;Path&gt;" class="shp9" d="M3253.58 742.17C3253.85 740.71 3254.06 739.55 3254.21 738.69L3293.45 737.71C3291.92 745.43 3290.23 754 3288.36 763.44C3287.38 768.39 3286.34 773.65 3285.31 778.85C3279.25 777.96 3272.92 775.02 3266.58 769.48C3259.66 763.43 3255.12 756.17 3252.38 748.41C3252.87 745.94 3253.27 743.81 3253.58 742.17Z" />
					<path id="&lt;Path&gt;" class="shp11" d="M3277.81 645.44C3267.14 646.92 3257.95 652.64 3250.22 662.62C3238.63 677.58 3226.13 723.85 3254.93 749.01C3283.72 774.17 3312.18 745.69 3316.4 715.5C3320.62 685.31 3319.76 644.35 3277.81 645.44Z" />
					<path id="&lt;Path&gt;" class="shp11" d="M3325.61 705.18C3322.18 711.85 3316.41 715.54 3312.73 713.43C3309.05 711.31 3308.85 704.2 3312.29 697.53C3315.72 690.86 3321.49 687.17 3325.17 689.28C3328.85 691.39 3329.05 698.51 3325.61 705.18Z" />
					<path id="&lt;Path&gt;" class="shp4" d="M3282.69 644.74C3266.22 674.07 3252.09 689.42 3240.3 690.77C3228.52 692.13 3221.86 700.6 3220.31 716.19C3224.52 680.27 3232.46 658.85 3244.13 651.92C3255.79 644.99 3268.65 642.6 3282.69 644.74Z" />
					<path id="&lt;Path&gt;" class="shp11" d="M3246.08 701.26C3247.52 709.07 3244.63 716.24 3239.63 717.26C3234.62 718.29 3229.4 712.79 3227.96 704.97C3226.53 697.16 3229.42 689.99 3234.42 688.97C3239.43 687.94 3244.65 693.44 3246.08 701.26Z" />
					<path id="&lt;Path&gt;" class="shp6" d="M3119.3 1719.7C3096.38 1723.87 3081.13 1710.49 3073.19 1700.47C3067.36 1711.82 3063.79 1725.99 3068.08 1735.31C3071.85 1743.52 3081.74 1744.18 3090.43 1744.51C3099.61 1744.85 3108.59 1741.63 3113.14 1733.65C3115.27 1729.92 3117.47 1725.28 3119.3 1719.7Z" />
					<path id="&lt;Path&gt;" class="shp6" d="M3314.78 1716.46C3289.54 1722.92 3270.88 1718.52 3260.45 1714.32C3257.76 1721.94 3254.19 1731.49 3256.08 1736.99C3258.4 1743.74 3261.7 1745.26 3264.61 1745.34C3287.66 1745.94 3349.05 1746.76 3366.63 1746.99C3369.08 1747.02 3370.44 1744.16 3368.86 1742.28C3364.5 1737.08 3316.66 1717.6 3314.78 1716.46Z" />
				</g>
				<path id="&lt;Path&gt;" class="shp1" d="M3233.99 959.85L3290.81 922.56C3275.03 877.98 3258.46 847.79 3241.09 832.01C3215.05 808.34 3202.74 814.08 3197.3 818.99C3182.21 832.6 3184.87 865.75 3202.03 906.59C3213.47 933.81 3224.13 951.57 3233.99 959.85Z" />
				<path id="&lt;Path&gt;" class="shp11" d="M3144.75 1659.37C3143.27 1685.46 3142.53 1698.54 3142.52 1698.59C3141.71 1703.56 3138.5 1715.84 3138.5 1720.36C3138.5 1737.33 3214.01 1705.95 3197.09 1698.43C3195.56 1697.75 3187.53 1692.6 3187.03 1686.82C3186.51 1680.89 3185.6 1671.92 3184.28 1659.92L3144.75 1659.37Z" />
				<path id="&lt;Path&gt;" class="shp9" d="M3196.9 1698.27C3185.08 1701.73 3176.15 1703.89 3170.09 1704.76C3161.01 1706.05 3148.11 1699.85 3141.69 1702.8C3136.98 1704.96 3135.39 1718.88 3136.93 1744.53C3200.85 1746.17 3243.41 1746.44 3264.61 1745.34C3275.72 1744.76 3233.15 1710.36 3196.9 1698.27Z" />
				<path id="&lt;Path&gt;" class="shp11" d="M2978.38 1663.12C2976.9 1689.22 2976.16 1702.29 2976.15 1702.35C2975.33 1707.32 2972.13 1719.59 2972.13 1724.11C2972.13 1741.09 3047.64 1709.71 3030.72 1702.18C3029.19 1701.5 3018.78 1692.51 3018.28 1686.73C3017.76 1680.8 3017.64 1673.11 3017.91 1663.67L2978.38 1663.12Z" />
				<path id="&lt;Path&gt;" class="shp9" d="M3030.53 1702.02C3018.71 1705.48 3009.77 1707.65 3003.72 1708.51C2994.64 1709.81 2982.67 1698.88 2976.25 1701.83C2971.53 1704 2968.57 1718.13 2967.36 1744.23C3036.91 1747.32 3079.82 1747.71 3096.09 1745.39C3107.11 1743.82 3066.78 1714.11 3030.53 1702.02Z" />
				<path id="&lt;Path&gt;" class="shp5" d="M3098.05 1098.07L3129.97 1111.84L3197.13 1432.56L3194.41 1672.99L3140.57 1674.24C3123.88 1534.03 3115.53 1458.49 3115.53 1447.63C3115.53 1436.76 3076.87 1341.69 2999.55 1162.4L3098.05 1098.07Z" />
				<path id="&lt;Path&gt;" class="shp13" d="M3073.4 1115.72C3067.45 1277.91 3064.48 1372.9 3064.48 1400.66C3064.48 1428.43 3060.24 1520.37 3051.77 1676.49L2976.85 1678.94C2974.25 1631.56 2971.03 1573.03 2967.17 1503.34C2966.26 1486.97 2968.34 1453.93 2967.17 1436.99C2958.77 1315.08 2942.17 1200.32 2950.1 1154.83C2951.38 1147.51 2953.78 1128.36 2958.45 1123.53C2982.01 1099.16 3020.33 1096.55 3073.4 1115.72Z" />
				<path id="&lt;Path&gt;" class="shp9" d="M2984.52 746.18C2959.7 749.64 2944.02 753.76 2937.48 758.56C2930.13 763.96 2922.36 772.71 2914.2 784.8C2944.68 928.88 2959.94 1013.03 2960 1037.28C2960.04 1056.03 2956.74 1088.44 2950.1 1134.49C3042.2 1140.31 3105.7 1136.33 3140.58 1122.56C3129.56 1067.79 3124.06 1033.21 3124.06 1018.83C3124.06 997.25 3104.29 801.08 3099.79 787.38C3095.71 774.95 3088.25 752.61 3063.01 747.1C3046.18 743.43 3020.02 743.12 2984.52 746.18Z" />
				<path id="&lt;Path&gt;" class="shp11" d="M2994.69 688L2985.78 746.3C3004.45 779.62 3020.48 794.2 3033.88 790.05C3045.12 786.56 3049.06 771.6 3045.72 745.16C3039.59 722.4 3037.44 705.32 3039.28 693.93C3041.12 682.54 3026.25 680.57 2994.69 688Z" />
				<path id="&lt;Path&gt;" class="shp9" d="M3039.28 693.93C3041.12 682.54 3026.25 680.57 2994.69 688L2993.93 693C2995.31 696.35 2997 699.22 2999.06 701.42C3009.64 712.72 3026.17 719.51 3040.46 720.03C3039.03 710.81 3038.15 700.94 3039.28 693.93Z" />
				<g id="&lt;Group&gt;">
					<path id="&lt;Path&gt;" class="shp11" d="M2986.92 602.62C2985.58 602.14 2976.19 671.36 2994.01 690.4C3011.83 709.44 3046.54 715.68 3058.99 700.68C3072.76 684.09 3072.07 609.7 3044.37 590.11C3025.9 577.05 3006.75 581.22 2986.92 602.62Z" />
					<path id="&lt;Path&gt;" class="shp4" d="M3033.83 553.08C3012.41 557.42 2998.55 570.42 2993.45 575.96C2983.73 577.1 2970.52 582.43 2956.87 604.88C2940.09 632.47 2952.49 663.04 2972.02 678.04C2982.57 686.14 2987.32 694.99 2989.46 701.4C2990.24 703.74 2993.56 703.74 2994.36 701.4C2996.64 694.61 2997.57 687.41 2996.81 680.29C2996.35 676.02 2995.43 671.4 2993.65 667.6C2988.95 657.59 3003.74 650.93 3007.88 642.6C3011.08 636.18 3011.23 621.5 3016.26 610.89L3022.27 602.79C3031.51 595.65 3040.65 593.09 3049.69 595.1C3063.25 598.13 3061.3 547.52 3033.83 553.08Z" />
					<path id="&lt;Path&gt;" class="shp11" d="M3006.97 654.91C3007.12 663.36 3003.25 670.27 2998.34 670.36C2993.43 670.44 2989.34 663.66 2989.2 655.22C2989.06 646.77 2992.92 639.86 2997.83 639.77C3002.74 639.69 3006.83 646.47 3006.97 654.91Z" />
				</g>
				<path id="&lt;Path&gt;" class="shp4" d="M3079.48 966.01L3080.37 971.16C3080.83 973.81 3083.35 975.59 3086 975.13L3192.79 956.64C3195.44 956.18 3197.22 953.66 3196.76 951.01L3195.87 945.85C3195.41 943.2 3192.89 941.43 3190.24 941.88L3083.45 960.38C3080.8 960.84 3079.02 963.36 3079.48 966.01Z" />
				<path id="&lt;Path&gt;" class="shp11" d="M2928.1 774.01C2940.62 773.65 2951.71 856.29 2943.76 864.44C2938.47 869.88 2935.32 906.52 2934.31 974.38L3052.5 971.44L3052.52 971.48C3054.82 969.94 3079.58 953.31 3083.12 949.67C3086.84 945.86 3104.88 947.77 3109.66 953.01C3114.43 958.25 3100.46 956.43 3096.32 958.4C3093.23 959.86 3093.79 962.67 3097.98 966.83C3117.95 969.73 3129.88 969.11 3133.77 964.98C3139.61 958.79 3155.21 948.3 3157.33 954.49C3158.43 957.69 3150.38 967.38 3145.85 971.44C3151.51 967.21 3158.28 962.71 3160.6 963.5C3164.85 964.93 3163.08 970.33 3160.78 971.92C3158.48 973.5 3134.7 991.66 3130.99 992.93C3127.36 994.17 3072.05 995.54 3062.5 997.66C2958.59 1021.32 2903.68 1032.41 2897.77 1030.93C2890 1028.99 2882.22 979.1 2882.22 940.89C2882.22 902.67 2888.95 775.15 2928.1 774.01Z" />
				<path id="&lt;Path&gt;" class="shp9" d="M2944.35 755.16C2926.19 759.4 2911.42 769.51 2900.02 785.49C2888.09 802.21 2876.97 852.85 2866.63 937.4L2937.36 948.83L2943.01 886.48L2961.9 857.96L2944.35 755.16Z" />
				<path id="&lt;Path&gt;" class="shp11" d="M3284.21 804.03C3287.47 800.41 3292.17 798.81 3298.31 799.25C3307.52 799.9 3319.59 811.56 3321.27 815.73C3322.14 817.88 3316.35 834.86 3313.84 838.59C3312.35 840.8 3308.93 841.9 3307.73 840.74C3306.94 839.97 3307.77 836.11 3307.99 835.28C3308.27 834.21 3309.43 830.17 3311.47 823.17C3307.51 830.22 3304.6 833.96 3302.75 834.39C3299.98 835.03 3298.45 832.78 3298.61 831.9C3299.17 828.92 3301 824.55 3304.09 818.82C3299.44 825.64 3295.97 828.69 3293.69 827.98C3290.26 826.9 3291.69 823.26 3292.2 822.03C3292.54 821.2 3294.3 818.44 3297.48 813.73C3292.44 820.71 3289.43 822.95 3288.44 820.45C3287.84 818.93 3289.19 814.86 3292.48 808.25L3284.21 804.03Z" />
				<path id="&lt;Path&gt;" class="shp3" d="M2940.57 744.39L3122.21 926.43L3122.21 948.83L2914.27 759.27L2940.57 744.39Z" />
			</g>
			<g id="&lt;Group&gt;">
				<g id="&lt;Group&gt;">
					<path id="&lt;Path&gt;" class="shp5" d="M1259.4 809.36C1255.36 898.14 1230.39 906.01 1229.9 907.24C1229.38 907.34 1209.44 922.62 1187.37 902.41L1194.7 894.99C1197.86 898.2 1202.67 901.09 1207.26 902.38C1217.51 905.04 1224.15 899.95 1224.96 899.71C1225.5 899.27 1230.74 896.12 1233.36 891.81C1246.17 874.74 1252.28 830.38 1254.01 809.18L1259.4 809.36Z" />
					<path id="&lt;Path&gt;" class="shp3" d="M1518.67 744.47C1511.45 772.67 1507.43 798.23 1506.61 821.16C1505.37 855.54 1481.59 884.22 1478.5 970.27C1476.44 1027.64 1471.3 1082.68 1463.07 1135.41C1399.2 1139.85 1360.98 1135.31 1348.41 1121.8C1329.55 1101.53 1277.27 920.99 1295.92 831.44C1314.57 741.89 1293.02 713.81 1335.63 684.47C1378.23 655.14 1433.64 675.01 1457.1 682.98C1480.55 690.95 1519.35 725.5 1518.67 744.47Z" />
					<path id="&lt;Path&gt;" class="shp1" d="M1357.58 816.22C1351.97 861.64 1352 907.55 1357.67 953.94C1363.34 1000.34 1361.66 1069.29 1352.63 1160.82C1305.05 1193.93 1274.28 1197.34 1260.3 1171.05C1256.36 1163.65 1246.94 1075.7 1246.09 1038.93C1245.37 1007.72 1247.67 929.85 1252.98 805.34C1269.98 784.89 1304.85 788.52 1357.58 816.22Z" />
					<path id="&lt;Path&gt;" class="shp4" d="M1336.92 731.54C1320.7 735.86 1311.24 769.19 1308.54 831.5L1231.41 822.69C1240.78 757.71 1259.05 711.64 1286.2 684.48C1326.94 643.75 1429.88 668.65 1469.01 694.01C1495.1 710.92 1502.49 730.14 1491.17 751.67C1404.56 733.93 1353.14 727.21 1336.92 731.54Z" />
					<g id="&lt;Group&gt;">
						<path id="&lt;Path&gt;" class="shp4" d="M1372.33 910.22C1428.63 910.22 1476.54 854.59 1479.33 851.72L1481.39 836.47C1480.74 837.15 1424.64 896.32 1372.74 896.32L1372.33 910.22Z" />
					</g>
					<g id="&lt;Group&gt;">
						<path id="&lt;Path&gt;" class="shp4" d="M1357.21 942.15L1356.45 930.58C1331.45 927.87 1271.78 872.64 1249.63 851.13L1249.3 865.54C1252.66 868.81 1323.55 938.5 1357.21 942.15Z" />
					</g>
					<g id="&lt;Group&gt;">
						<path id="&lt;Path&gt;" class="shp4" d="M1360.86 1030.83L1360.63 1019.57C1341.36 1028.02 1271.88 1022.55 1245.32 1019.57L1245.46 1030.54C1269.96 1033.26 1338.15 1040.78 1360.86 1030.83Z" />
					</g>
					<g id="&lt;Group&gt;">
						<path id="&lt;Path&gt;" class="shp4" d="M1357.4 1102.08L1358.4 1089.42C1335.35 1099.41 1275.14 1124.83 1251.8 1119.76L1253.11 1130.31C1279.91 1136.12 1332.42 1112.87 1357.4 1102.08Z" />
					</g>
					<g id="&lt;Group&gt;">
						<path id="&lt;Path&gt;" class="shp4" d="M1355.07 1142.91L1355.87 1132.5C1345.79 1132.5 1286.51 1107.77 1248.88 1092.13L1250.34 1104.76C1260.51 1108.99 1339.6 1142.91 1355.07 1142.91Z" />
					</g>
					<g id="&lt;Group&gt;">
						<path id="&lt;Path&gt;" class="shp7" d="M1323.65 1136.04L1347.53 1136.04C1356.14 1136.04 1363.12 1129.06 1363.12 1120.45L1363.12 980.99C1363.12 972.38 1356.14 965.4 1347.53 965.4L1323.65 965.4C1315.04 965.4 1308.05 972.38 1308.05 980.99L1308.05 1120.45C1308.05 1129.06 1315.04 1136.04 1323.65 1136.04Z" />
						<path id="&lt;Path&gt;" class="shp4" d="M1363.12 1027.69L1308.05 1027.69L1308.05 1016.2L1363.12 1016.2L1363.12 1027.69Z" />
					</g>
				</g>
				<g id="&lt;Group&gt;">
					<g id="&lt;Group&gt;">
						<g id="&lt;Group&gt;">
							<path id="&lt;Path&gt;" class="shp11" d="M1319.05 1616.44C1302.04 1632 1293.52 1639.8 1293.48 1639.82C1289.91 1642.46 1280.33 1648.23 1277.54 1651.08C1267.09 1661.79 1334.07 1688.5 1328.02 1673.33C1327.47 1671.95 1326.45 1659.87 1329.69 1655.91C1333.01 1651.85 1337.67 1646.93 1343.66 1641.14L1319.05 1616.44Z" />
							<path id="&lt;Path&gt;" class="shp3" d="M1328 1673.11C1318.41 1668.01 1311.44 1663.88 1307.09 1660.7C1300.56 1655.92 1299.73 1641.65 1293.86 1639.56C1289.55 1638.03 1278.35 1646.48 1260.25 1664.93C1295.63 1703.26 1322.58 1728.8 1341.09 1741.57C1347.07 1745.7 1354.32 1744.38 1356.89 1744.43C1366.7 1744.6 1343.43 1703.06 1328 1673.11Z" />
							<path id="&lt;Path&gt;" class="shp11" d="M1640.23 1661.7C1645.51 1687.17 1648.15 1699.93 1648.16 1699.99C1648.65 1704.98 1648.72 1717.61 1649.88 1721.95C1654.24 1738.27 1718.8 1688.71 1700.59 1685.82C1698.94 1685.56 1690.75 1682.28 1687.94 1677.24C1684.67 1671.4 1681.49 1663.01 1678.39 1652.07L1640.23 1661.7Z" />
							<path id="&lt;Path&gt;" class="shp3" d="M1700.37 1685.71C1689.89 1692.08 1681.85 1696.45 1676.25 1698.84C1667.86 1702.42 1652.49 1692.48 1647.07 1696.97C1643.1 1700.26 1644.35 1716.5 1650.82 1745.67C1724.44 1726.22 1769.09 1711.45 1784.75 1701.35C1794.06 1695.35 1738.33 1688.04 1700.37 1685.71Z" />
							<path id="&lt;Path&gt;" class="shp12" d="M1717.58 1110.76C1699.96 1103.02 1699.22 1106.22 1696.99 1105.17C1695.23 1104.34 1687.87 1092.91 1674.89 1070.89C1636.2 1006.23 1615.88 972.12 1613.92 968.55L1602.36 851.68L1540.88 842.84C1551.6 927.3 1557.63 971.68 1558.99 975.97C1561.02 982.41 1655.5 1104.07 1663.45 1115.06C1666.38 1126.18 1668.88 1135.2 1670.95 1142.12C1674.07 1152.49 1681.82 1160.82 1683.16 1163.59C1683.36 1164 1688.4 1172.96 1697.68 1182.29C1703.01 1187.64 1704.45 1186.55 1702 1179C1694.02 1167.29 1690.57 1161.19 1691.65 1160.7C1692.9 1160.14 1698.84 1170.13 1707.59 1179.12C1709.84 1181.43 1712.07 1183.7 1714.14 1185.77C1719.56 1191.2 1724.66 1189.4 1719.95 1182.8C1718.28 1180.47 1715.42 1176.66 1712.97 1174.25C1710.33 1171.64 1708.8 1168.38 1706.94 1165.84C1703.24 1160.81 1700.47 1157.19 1700.77 1157.14C1701.16 1157.09 1701.17 1155.56 1703.64 1157.94C1706.61 1160.79 1711.49 1168.27 1716.2 1172.13C1717.99 1173.59 1720.64 1175.96 1724.16 1179.24C1730.48 1183.19 1733.82 1185.02 1734.2 1184.73C1737.24 1182.38 1732.01 1176.51 1727.96 1174.01C1726.84 1172.08 1724.37 1169.43 1720.56 1166.09C1714.47 1157.59 1712.05 1152.9 1713.31 1152C1714.11 1151.42 1720.69 1158.55 1728.31 1164.52C1735.39 1170.06 1743.51 1174.5 1744.9 1173.26C1746.47 1171.87 1744.87 1168.84 1740.1 1164.18C1736.58 1161.09 1734.27 1158.99 1733.18 1157.88C1731.91 1156.57 1729.52 1153.82 1726.02 1149.61C1714.56 1134.39 1709.45 1126.4 1710.71 1125.65C1712.6 1124.51 1718.57 1123.45 1720.15 1124.49C1721.74 1125.52 1723.56 1128.94 1725.14 1129.98C1726.72 1131.02 1729.75 1131.02 1731.28 1129.18C1732.3 1127.95 1730.95 1124.69 1727.24 1119.4C1724.19 1115.13 1720.97 1112.24 1717.58 1110.76Z" />
							<path id="&lt;Path&gt;" class="shp6" d="M1545.95 744.76C1593.53 756.06 1605.52 861.9 1608.4 875.57C1592.63 881.1 1573.92 886.67 1557.73 891.37L1538.35 742.63C1540.14 743.27 1542.68 743.99 1545.95 744.76Z" />
							<path id="&lt;Path&gt;" class="shp5" d="M1580.79 1137.46L1649.23 1410.11L1692.5 1674.15L1638.62 1681.39C1588.03 1546.77 1562.03 1471.72 1560.62 1456.23C1559.21 1440.74 1545.81 1396.78 1520.41 1324.35L1580.79 1137.46Z" />
							<path id="&lt;Path&gt;" class="shp4" d="M1421.07 1105.9C1424.49 1280.18 1424.79 1375.42 1421.97 1391.62C1419.15 1407.81 1379.52 1485 1303.09 1623.18L1341.69 1665C1451.06 1538.61 1508.15 1469.85 1512.97 1458.7C1520.52 1441.22 1542.95 1333.97 1580.26 1136.93L1421.07 1105.9Z" />
							<path id="&lt;Path&gt;" class="shp14" d="M1483.94 744.14C1464.56 742.36 1451 750.63 1443.25 768.94C1431.63 796.41 1420.01 928.44 1425.29 991.82C1428.82 1034.07 1425.14 1080.05 1414.27 1129.76C1481.82 1164.6 1537.6 1167.56 1581.63 1138.65C1599.46 976.96 1605.1 881.19 1598.53 851.33C1584.8 788.92 1564.74 752.69 1538.35 742.63L1483.94 744.14Z" />
							<path id="&lt;Path&gt;" class="shp12" d="M1403.44 1180.89C1392.46 1163.06 1390 1165.59 1388.65 1163.27C1387.59 1161.44 1387.65 1146.37 1388.83 1118.07C1391.76 1034.65 1393.39 990.68 1393.7 986.18L1449.9 870.65L1401.32 825.29C1362.75 910.22 1342.84 955.09 1341.59 959.89C1339.71 967.11 1353.09 1137.18 1353.8 1152.19C1350.04 1164.29 1347.11 1174.18 1345 1181.85C1341.83 1193.37 1343.86 1205.79 1343.46 1209.18C1343.4 1209.68 1342.71 1221.04 1345.52 1235.31C1347.13 1243.51 1349 1243.37 1351.15 1234.88C1350.83 1219.17 1351.28 1211.42 1352.5 1211.62C1353.91 1211.85 1353.42 1224.72 1355.96 1238.36C1356.61 1241.86 1357.27 1245.32 1357.89 1248.49C1359.54 1256.81 1365.01 1258.21 1364.64 1249.24C1364.51 1246.07 1364.17 1240.81 1363.41 1237.09C1362.59 1233.07 1363.1 1229.12 1362.91 1225.63C1362.54 1218.72 1362.18 1213.68 1362.47 1213.83C1362.85 1214.01 1363.72 1212.6 1364.53 1216.3C1365.49 1220.75 1365.51 1230.64 1367.43 1237.07C1368.15 1239.51 1369.12 1243.31 1370.34 1248.48C1373.6 1255.97 1375.48 1259.69 1375.97 1259.65C1379.96 1259.3 1378.73 1250.69 1376.61 1245.92C1376.73 1243.44 1376.08 1239.5 1374.65 1234.09C1374.16 1222.52 1374.72 1216.7 1376.32 1216.62C1377.35 1216.57 1379.04 1227.17 1382.31 1237.32C1385.33 1246.74 1389.9 1255.77 1391.81 1255.46C1393.97 1255.11 1394.3 1251.33 1392.78 1244.12C1391.45 1239.13 1390.63 1235.78 1390.32 1234.09C1389.94 1232.11 1389.43 1228.1 1388.76 1222.08C1387.4 1201.02 1387.48 1190.52 1389 1190.58C1391.29 1190.67 1397.1 1193.28 1397.89 1195.2C1398.69 1197.12 1398.33 1201.4 1399.13 1203.32C1399.92 1205.24 1402.56 1207.07 1404.94 1206.28C1406.52 1205.76 1407.19 1201.92 1406.96 1194.77C1406.72 1188.95 1405.55 1184.33 1403.44 1180.89Z" />
							<path id="&lt;Path&gt;" class="shp6" d="M1377.39 859.12L1441.08 908.36C1459.83 890.54 1473.91 871.78 1483.33 852.07C1497.63 822.15 1480.21 743.29 1464.99 747.35C1442.3 753.4 1413.1 790.66 1377.39 859.12Z" />
							<g id="&lt;Group&gt;">
								<g id="&lt;Group&gt;">
									<path id="&lt;Path&gt;" class="shp15" d="M1515.11 578.83C1500.59 567.3 1489.29 570.22 1481.21 587.62C1481.3 587.41 1473.06 586.79 1471.91 587.07C1467.02 588.25 1462 592.74 1457.53 595.05C1441.61 603.28 1433.04 621.15 1430.75 638.03C1427.96 658.52 1435.3 674.29 1447.77 690.3C1451.45 695.02 1455.41 699.66 1460.48 702.9C1466.59 706.82 1471.89 704.56 1477.78 706.5C1482.75 708.13 1484.07 713.55 1490.22 712.15C1498.83 710.19 1508.53 700.62 1518.79 703.02C1529.03 705.41 1553.8 698.25 1553.86 698.23C1585.68 689.01 1569.98 628.69 1565.89 607.4C1562.04 587.39 1534.77 573.36 1515.11 578.83Z" />
									<path id="&lt;Path&gt;" class="shp11" d="M1531.35 714.27L1537.48 736.39L1540.75 748.74C1548.56 758.59 1550.19 764.62 1545.65 766.81C1526.46 776.07 1508.27 769.03 1491.07 745.7L1485.53 677.27L1531.35 714.27Z" />
									<path id="&lt;Path&gt;" class="shp9" d="M1487.33 699.44C1499.21 721.48 1521.99 733.01 1537.54 736.6L1531.35 714.27L1485.53 677.27L1487.33 699.44Z" />
									<path id="&lt;Path&gt;" class="shp11" d="M1500.91 608.74C1520.22 599.26 1543.57 609.65 1549.43 629.75C1551.97 638.48 1554.7 649.53 1556.58 661.75C1561.11 691.14 1549.47 721.84 1535.86 723.62C1522.25 725.4 1482.05 711.23 1475.04 669.59C1470.71 643.87 1480.65 618.7 1500.91 608.74Z" />
									<path id="&lt;Path&gt;" class="shp11" d="M1485.51 671.58C1486.39 678.08 1482.72 683.92 1477.31 684.63C1471.91 685.34 1466.81 680.64 1465.93 674.14C1465.05 667.64 1468.73 661.8 1474.13 661.09C1479.54 660.39 1484.63 665.08 1485.51 671.58Z" />
								</g>
								<path id="&lt;Path&gt;" class="shp15" d="M1525.73 687C1513.67 689.78 1506.97 693.25 1505.64 697.41C1503.65 703.64 1505.01 713.01 1513.02 720.8C1521.03 728.59 1539.85 725.78 1545.22 722.32C1550.59 718.85 1555.85 702.69 1551.62 693.09C1548.8 686.69 1540.17 684.66 1525.73 687Z" />
								<path id="&lt;Path&gt;" class="shp11" d="M1518.83 699.82C1518.49 704.55 1519.08 707.41 1520.61 708.39C1522.84 709.82 1525.71 711.11 1528.42 711.6C1532.81 712.38 1536.97 710.86 1539.6 707.7C1539.85 707.39 1540.09 707.06 1540.3 706.72C1541.71 704.47 1542.71 701.27 1543.31 697.13C1538.46 695.54 1534.58 694.86 1531.66 695.09C1528.75 695.32 1524.47 696.89 1518.83 699.82Z" />
							</g>
						</g>
					</g>
				</g>
				<path id="&lt;Path&gt;" class="shp3" d="M1520.29 876.87C1521.62 822.32 1518.22 747.36 1466.02 726.09C1447.37 718.29 1424.59 727.05 1407.32 733.46C1428.52 730.51 1448.51 738.65 1458.83 744.42C1501.8 766.07 1501.46 828.09 1499.91 876.39C1497.3 957.37 1464.86 993.56 1402.6 984.99L1400.43 993.07C1423.82 1000.72 1450.43 997.21 1480.26 982.54C1504.05 970.84 1517.39 935.62 1520.29 876.87Z" />
			</g>
			<path id="&lt;Path&gt;" class="shp7" d="M1101.85 418.26L1093.48 433.73L1067.12 423.01L1052.09 444.11L1031.05 439.31L1028.62 449.96L1056.76 456.38L1071 436.38L1098.43 447.53L1111.03 424.27L1101.85 418.26Z" />
			<path id="&lt;Path&gt;" class="shp15" d="M2969.52 262.28L2962.66 280.2L2977.76 289.09L2968.52 309.07L2989.45 313.29L2980.07 336.03L2998.12 342.18L2992.96 364.41L2983.44 364.94L2987.3 348.33L2968.25 341.83L2977.27 319.98L2955.99 315.69L2966.19 293.64L2951.44 284.96L2957.8 268.35L2946.13 264.79L2951.35 256.74L2969.52 262.28Z" />
			<g id="&lt;Group&gt;">
				<g id="&lt;Group&gt;">
				</g>
			</g>
			<path id="&lt;Path&gt;" class="shp13" d="M2158.69 293.12L2136.27 298.72L2123.27 263.64L2089.47 267.79L2075.45 243.12L2062.96 250.22L2081.72 283.21L2113.75 279.28L2127.27 315.77L2161.01 307.34L2158.69 293.12Z" />
			<g id="&lt;Group&gt;">
				<path id="&lt;Path&gt;" class="shp2" d="M1646.39 446.12L1668.25 439.24C1682.57 419.75 1689.29 407.45 1688.39 402.32C1687.04 394.62 1677.86 380.21 1681.57 376.97C1685.28 373.72 1693.92 369.48 1702.57 377.64C1708.85 383.56 1713.08 410.7 1716.18 411.69C1718.12 412.3 1730.79 408.71 1740.01 405.93C1746.07 404.11 1752.66 405.86 1757.12 410.49L1757.13 410.5C1760.14 413.62 1760.61 418.44 1758.25 422.05L1754.58 427.67L1759.98 431.75C1764 434.79 1764.88 440.53 1761.95 444.6L1758.96 448.75L1762.52 451.04C1767.1 453.99 1768.18 460.3 1764.83 464.57L1762.12 468.04L1762.92 468.86C1766.26 472.26 1766.51 477.65 1763.5 481.29L1760.73 484.64L1702.51 502.96C1697.05 504.67 1691.3 505.23 1685.6 504.61L1664.04 507.6C1661.72 507.92 1659.5 506.47 1658.83 504.19L1643.31 452.05C1642.56 449.53 1643.93 446.89 1646.39 446.12Z" />
			</g>
			<path id="&lt;Path&gt;" class="shp8" d="M2707.65 316.21L2687.56 314.59L2684.82 333.17L2664.95 332.45L2660.14 349.89L2645.19 351.78L2646.14 359.35L2666.14 356.82L2670.7 340.29L2691.37 341.05L2694.07 322.77L2712.27 324.24L2707.65 316.21Z" />
			<g id="&lt;Group&gt;">
				<path id="&lt;Path&gt;" class="shp13" d="M2461.38 302.29L2361.47 394.26L2320.89 327.11L2461.38 302.29Z" />
				<path id="&lt;Path&gt;" class="shp15" d="M2319.79 295.96L2320.89 327.11L2461.38 302.29L2319.79 295.96Z" />
				<path id="&lt;Path&gt;" class="shp15" d="M2318.62 338.46L2461.38 302.29L2318.74 385.73L2318.62 338.46Z" />
				<path id="&lt;Compound Path&gt;" fill-rule="evenodd" class="shp1" d="M2210.49 447.71C2210.69 445.74 2212.45 444.3 2214.42 444.5C2214.64 444.52 2237.22 446.6 2268.17 434.96C2298.66 423.49 2313.71 396.62 2314.7 393.29C2315.12 391.39 2316.99 390.16 2318.9 390.54C2320.85 390.93 2322.11 392.82 2321.72 394.76C2320.7 399.85 2303.47 429.34 2270.7 441.67C2238.05 453.95 2214.67 451.73 2213.69 451.63C2211.72 451.43 2210.29 449.67 2210.49 447.71ZM2314.69 393.36C2314.69 393.35 2314.69 393.33 2314.69 393.32C2314.69 393.33 2314.69 393.35 2314.69 393.36Z" />
				<path id="&lt;Path&gt;" class="shp1" d="M2064.87 455.02C2107.13 454.99 2148.99 447.75 2189.3 433.5C2222.5 421.77 2251.8 399.62 2285.06 390.72C2286.97 390.21 2288.1 388.24 2287.59 386.33C2287.08 384.42 2285.12 383.28 2283.2 383.79C2248.78 393.01 2219.67 415.16 2186.91 426.74C2147.37 440.71 2106.31 447.82 2064.86 447.86C2049.63 447.87 2032.06 445.48 2012.64 440.75C2010.71 440.28 2008.78 441.46 2008.31 443.39C2007.84 445.31 2009.02 447.25 2010.94 447.72C2028.19 451.92 2047.04 455.04 2064.87 455.02Z" />
			</g>
			<g id="&lt;Group&gt;">
				<g id="&lt;Group&gt;">
					<path id="&lt;Path&gt;" class="shp11" d="M4392.32 1155.45C4387.68 1153.24 4383.26 1148.23 4379.04 1140.42C4374.98 1132.9 4362.91 1123.26 4367.94 1121.7C4372.96 1120.15 4380.65 1132.86 4382.1 1129.21C4383.54 1125.58 4369.17 1098.06 4373.72 1096.65C4378.27 1095.23 4390.18 1122 4391.47 1118.74C4392.76 1115.49 4379.31 1092.1 4385.74 1090.1C4392.18 1088.1 4399.12 1118.89 4402.58 1117.82C4406.03 1116.75 4401 1093.26 4406.18 1091.65C4411.36 1090.05 4410.63 1120.7 4412.49 1119.82C4413.49 1119.34 4418.09 1104.49 4420.9 1105.61C4424.08 1106.86 4415.5 1137.34 4419.31 1144.06C4423.12 1150.77 4453.63 1234.28 4443.2 1244.71C4431.83 1256.08 4359.51 1282.15 4344.37 1277.66C4329.24 1273.18 4320.57 1258.22 4324.21 1249.03C4327.85 1239.83 4399.35 1219.17 4400.49 1216.28C4401.25 1214.36 4398.53 1194.08 4392.32 1155.45Z" />
					<path id="&lt;Path&gt;" class="shp8" d="M4386.41 1130.93C4388.6 1130.83 4390.75 1131.33 4392.82 1132.09C4393.12 1132.3 4399.98 1134.31 4402.93 1141.88C4399.67 1138.01 4396.05 1133.72 4386.41 1130.93Z" />
				</g>
				<g id="&lt;Group&gt;">
					<path id="&lt;Path&gt;" class="shp11" d="M4055.03 1654.45C4057.42 1680.49 4057.83 1697.76 4056.26 1706.25C4055.94 1707.95 4055.25 1710.12 4054.44 1712.5C4052.83 1717.25 4054.23 1726.9 4058.66 1741.44L4147.66 1741.77C4152.51 1741.79 4149.27 1738.71 4145.33 1735.89C4138.87 1731.28 4133.67 1728.24 4113.11 1718.63C4111.77 1718 4106.88 1714.98 4105.12 1713.94C4100.65 1711.29 4096.14 1707.09 4092.25 1702.87C4087.93 1698.19 4085.44 1684.38 4084.79 1661.43L4055.03 1654.45Z" />
					<path id="&lt;Path&gt;" class="shp5" d="M4105.11 1713.93C4081.64 1720.25 4064.2 1716.37 4054.42 1712.57C4051.99 1719.7 4047.67 1744.23 4050.39 1744.23C4072.71 1744.23 4091.5 1744.49 4154.96 1744.77C4157.25 1744.78 4157.33 1739.12 4155.84 1737.39C4151.71 1732.59 4106.87 1714.98 4105.11 1713.93Z" />
					<path id="&lt;Path&gt;" class="shp6" d="M3943.4 1190.79C3944.25 1227.96 3949.99 1258.44 3960.65 1282.25C3976.21 1317.02 4050.69 1402.79 4070.49 1452.84C4064.37 1481.08 4047.54 1520.77 4048.76 1552.06C4049.68 1575.7 4049.45 1618.81 4048.08 1681.36L4088.05 1682.63L4140.48 1440.47L4061.47 1179.19L4025.61 1115.75L3943.4 1190.79Z" />
					<path id="&lt;Path&gt;" class="shp11" d="M3772.64 1598.92C3756.27 1621.39 3744.48 1635.46 3737.26 1641.14C3731.47 1645.7 3715.74 1651.83 3714.08 1659.38C3712.97 1664.41 3736.72 1689.17 3785.33 1733.66C3789.19 1737.08 3788.75 1732.35 3787.58 1727.33C3785.67 1719.11 3783.65 1713.04 3773.98 1690.93C3773.35 1689.49 3771.56 1683.64 3770.89 1681.57C3769.18 1676.32 3768.52 1669.8 3768.38 1663.71C3768.21 1656.94 3775.92 1644.16 3791.5 1625.37L3772.64 1598.92Z" />
					<path id="&lt;Path&gt;" class="shp5" d="M3770.88 1681.56C3747.71 1670.14 3736.5 1654.79 3731.36 1644.9C3724.42 1648.89 3705.75 1657.41 3707.4 1659.79C3720.29 1678.5 3733.67 1701.77 3785.45 1745.85C3787.3 1747.43 3794.9 1738.33 3794.93 1735.9C3795 1729.17 3771.56 1683.64 3770.88 1681.56Z" />
					<path id="&lt;Path&gt;" class="shp3" d="M4066.67 792.05C4059.77 747.09 4019.1 714.77 3976.56 736.58C3966.99 741.49 3954.04 751.44 3947.43 759.92C3929.26 783.24 3924.86 812.15 3905.6 834.58C3888.99 853.91 3844.66 850.26 3823.96 865.14C3803.26 880.01 3788.75 906.67 3788.75 938.56C3788.75 974.23 3796.8 1012.1 3824.44 1034.65C3852.08 1057.2 3891.36 1062.82 3925.73 1053.26C3960.09 1043.71 3989.58 1020.29 4010.8 991.62C4032.02 962.95 4047.03 931.52 4057.6 897.46C4069.41 859.43 4071.12 821.1 4066.67 792.05Z" />
					<g id="&lt;Group&gt;">
						<path id="&lt;Path&gt;" class="shp8" d="M4064.61 1003.1C4093.39 1068.25 4110.52 1108.18 4115.99 1122.88C4124.21 1144.94 4167.29 1218.68 4169.06 1221.49C4170.83 1224.3 4209.98 1229.29 4207.79 1234.34C4205.59 1239.38 4188.92 1233.06 4188.92 1235.83C4188.92 1242.06 4213.28 1287.75 4209.32 1288.86C4201.93 1290.92 4194.21 1260.63 4190.92 1262.21C4187.63 1263.8 4206.44 1290.22 4201.88 1294.77C4197.33 1299.32 4186.51 1268.07 4183.51 1268.04C4180.5 1268.02 4199.58 1298.88 4193.09 1298.35C4189.57 1298.06 4175.82 1269.64 4172.87 1272.6C4171.62 1273.84 4186.28 1296.73 4182.27 1296.02C4178.25 1295.31 4166.67 1277.23 4162.04 1267.05C4157.41 1256.87 4159.49 1247.03 4147.24 1233.09C4134.98 1219.14 4085.79 1175.13 4071.21 1139.9C4061.49 1116.42 4045.81 1078.77 4024.19 1026.94L4064.61 1003.1Z" />
						<path id="&lt;Path&gt;" class="shp9" d="M4028.21 903.76C4052.14 915.18 4069.99 956.46 4081.78 1027.59L4020.96 1044.55L3995.65 975.78L4028.21 903.76Z" />
					</g>
					<path id="&lt;Path&gt;" class="shp7" d="M3946.22 1155.08C3925.62 1186.03 3912.86 1214.31 3907.96 1239.92C3900.79 1277.34 3912.71 1390.31 3900.25 1442.68C3879.06 1462.31 3842.54 1485.21 3825.61 1511.55C3812.82 1531.46 3787.94 1566.65 3750.97 1617.14L3783 1641.08L3964.71 1472.64L4038.27 1247.92L4063.51 1182.21L3946.22 1155.08Z" />
					<path id="&lt;Path&gt;" class="shp1" d="M3971.24 890.95C3943.96 889.22 3924.93 894.22 3914.13 905.96C3897.95 923.57 3950.04 1062.86 3952.99 1085.27C3954.95 1100.21 3945.18 1133.32 3923.69 1184.58C4002.2 1198.21 4050.61 1198.98 4068.92 1186.89C4065.98 1067.15 4063.54 1001.94 4061.57 991.27C4058.63 975.26 4034.1 910.16 4028.21 903.76C4024.29 899.49 4005.3 895.22 3971.24 890.95Z" />
					<path id="&lt;Path&gt;" class="shp11" d="M3984.86 836.39C3984.72 837.19 3984.52 838.27 3984.27 839.64C3982.44 849.45 3975.42 882.02 3970.67 890.98C3964.94 901.8 3990.31 936.31 4014.73 932.09C4022 930.84 4008.58 900.39 4009.23 897.16C4010.46 890.99 4012.13 882.56 4013.85 873.92C4014.81 869.05 4015.79 864.11 4016.71 859.47C4018.45 850.67 4020.03 842.67 4021.45 835.48L3984.86 836.39Z" />
					<path id="&lt;Path&gt;" class="shp9" d="M3984.27 839.64C3984.52 838.27 3984.72 837.19 3984.86 836.39L4021.45 835.48C4020.03 842.67 4018.45 850.67 4016.71 859.47C4015.8 864.08 4014.82 869 4013.86 873.84C4008.21 873.01 4002.31 870.27 3996.39 865.1C3989.94 859.46 3985.71 852.69 3983.16 845.46C3983.61 843.15 3983.98 841.16 3984.27 839.64Z" />
					<path id="&lt;Path&gt;" class="shp11" d="M4009.49 753.38C3997.99 752.05 3988.64 756.04 3981.43 765.35C3970.62 779.3 3958.97 822.45 3985.82 845.92C4012.68 869.38 4039.21 842.82 4043.15 814.66C4047.08 786.5 4048.61 752.36 4009.49 753.38Z" />
					<path id="&lt;Path&gt;" class="shp11" d="M4051.09 814.25C4047.89 820.47 4042.51 823.91 4039.08 821.94C4035.64 819.97 4035.46 813.33 4038.67 807.11C4041.87 800.89 4047.25 797.45 4050.68 799.42C4054.12 801.39 4054.3 808.03 4051.09 814.25Z" />
					<path id="&lt;Path&gt;" class="shp3" d="M4011.42 748.77C3996.06 776.12 3982.88 790.44 3971.89 791.7C3960.9 792.96 3954.69 800.86 3953.24 815.4C3957.17 781.9 3964.58 761.93 3975.46 755.47C3986.33 749.01 3998.32 746.77 4011.42 748.77Z" />
					<path id="&lt;Path&gt;" class="shp11" d="M3976.21 802.01C3977.55 809.3 3974.86 815.98 3970.19 816.94C3965.53 817.9 3960.66 812.76 3959.32 805.48C3957.98 798.19 3960.67 791.5 3965.34 790.55C3970 789.59 3974.87 794.72 3976.21 802.01Z" />
					<g id="&lt;Group&gt;">
						<path id="&lt;Path&gt;" class="shp5" d="M3465.55 1675.97L3487.32 1684.59L3805.48 1256.73C3793.48 1251.98 3787.44 1260.1 3780.96 1268.82L3465.55 1675.97Z" />
						<path id="&lt;Path&gt;" class="shp16" d="M3499.26 1700.58L3521.03 1709.21L3839.31 1270.13C3842.33 1266.08 3839.79 1262.77 3831.71 1260.19L3499.26 1700.58Z" />
						<path id="&lt;Path&gt;" class="shp9" d="M3528.12 1472.72L3495.73 1459.84L3535.51 1406.84C3568.52 1362.84 3644.15 1346.61 3704.43 1370.57L3758.89 1392.22L3521.03 1709.21L3389.81 1657.05L3349.21 1628.4L3528.12 1472.72Z" />
						<path id="&lt;Path&gt;" class="shp10" d="M3758.89 1392.22L3521.03 1709.21L3389.81 1657.05L3392.9 1652.92C3484.25 1659.14 3695.12 1442.57 3747.13 1387.55L3758.89 1392.22Z" />
						<path id="&lt;Path&gt;" class="shp10" d="M3591.62 1493.11C3611.24 1471.33 3641.56 1439.47 3663.41 1420.21C3639.79 1453.52 3595.38 1501.43 3594.78 1502.13C3568.73 1491.64 3534.73 1478.6 3495.73 1459.84C3528.55 1469.78 3560.26 1481.21 3591.62 1493.11Z" />
						<path id="&lt;Path&gt;" class="shp4" d="M3546.37 1714.43C3546.37 1730.91 3533.01 1744.26 3516.54 1744.26C3500.06 1744.26 3486.7 1730.91 3486.7 1714.43C3486.7 1697.95 3500.06 1684.59 3516.54 1684.59C3533.01 1684.59 3546.37 1697.95 3546.37 1714.43Z" />
						<path id="&lt;Path&gt;" class="shp15" d="M3528.82 1714.43C3528.82 1721.21 3523.32 1726.71 3516.54 1726.71C3509.75 1726.71 3504.25 1721.21 3504.25 1714.43C3504.25 1707.64 3509.75 1702.14 3516.54 1702.14C3523.32 1702.14 3528.82 1707.64 3528.82 1714.43Z" />
					</g>
					<path id="&lt;Path&gt;" class="shp17" d="M3893.86 998.94C3874.87 1067.59 3863.73 1109.58 3860.45 1124.93C3855.54 1147.94 3823.64 1227.17 3822.3 1230.2C3820.96 1233.24 3792.8 1262.02 3796.57 1267.83C3798.67 1271.07 3804.9 1274.87 3807.87 1274.41C3810.84 1273.94 3812.58 1276.36 3816.53 1277.7C3820.49 1279.04 3827.87 1278.1 3830.97 1267.36C3834.07 1256.61 3835.48 1254.09 3845.58 1238.51C3855.67 1222.93 3897.93 1172.22 3907.24 1135.25C3913.44 1110.61 3923.47 1071.07 3937.32 1016.65L3893.86 998.94Z" />
					<path id="&lt;Path&gt;" class="shp16" d="M3818.19 1278.09C3822.3 1278.64 3828.27 1276.73 3830.97 1267.36C3831.72 1264.76 3832.38 1262.64 3833.07 1260.7C3832.53 1260.48 3832.07 1260.31 3831.71 1260.19L3818.19 1278.09Z" />
					<path id="&lt;Path&gt;" class="shp2" d="M3882.87 1030.57C3884.6 974.11 3889.28 937.95 3896.94 922.09C3908.42 898.3 3937.03 884.69 3947.83 905.53C3955.26 919.87 3952.51 961.87 3939.6 1031.55L3882.87 1030.57Z" />
				</g>
				<g id="&lt;Group&gt;">
					<path id="&lt;Path&gt;" class="shp7" d="M4372.82 1222.13L4326.18 1225.54L4340.49 1280.88L4388.32 1272.27L4372.82 1222.13Z" />
					<path id="&lt;Path&gt;" class="shp13" d="M4213.01 1251.48C4206.07 1337.1 4202.6 1383.63 4202.6 1391.07C4202.6 1398.5 4217.37 1403.27 4246.91 1405.38L4260.46 1273.58L4213.01 1251.48Z" />
					<path id="&lt;Path&gt;" class="shp16" d="M4279.11 1220.21C4259.94 1209.95 4242.45 1209.52 4226.65 1218.93C4210.85 1228.33 4200.79 1260.67 4196.49 1315.93L4272.42 1325.03L4279.11 1220.21Z" />
					<path id="&lt;Path&gt;" class="shp11" d="M4179.03 1681.69C4175.75 1693.32 4172.82 1700.44 4170.22 1703.04C4166.33 1706.93 4153.41 1722.05 4156.59 1729.54C4159.76 1737.04 4238.46 1747.77 4241.45 1744.79C4244.43 1741.8 4227.85 1729.16 4218.45 1721.41C4209.05 1713.66 4202.32 1704.14 4206.26 1692.58C4210.2 1681.01 4210.2 1682.16 4210.2 1681.01C4210.2 1680.25 4199.81 1680.48 4179.03 1681.69Z" />
					<path id="&lt;Path&gt;" class="shp5" d="M4241.45 1744.79C4245.01 1742.12 4233.95 1730.18 4217.93 1720.97C4211.22 1720.96 4202.28 1720.51 4194.7 1718.62C4182.84 1715.65 4173.74 1705.38 4171.04 1702.04C4170.8 1702.38 4151.72 1720.76 4155.44 1729.54C4158.62 1737.04 4234.33 1750.12 4241.45 1744.79Z" />
					<path id="&lt;Path&gt;" class="shp11" d="M4309.61 1690.16C4310.58 1702.11 4310.08 1709.63 4308.11 1712.73C4305.16 1717.38 4294.83 1735.82 4300.59 1741.58C4305.78 1746.77 4377.87 1743.43 4380.13 1739.87C4382.4 1736.3 4370.06 1725.66 4359.19 1720.15C4348.33 1714.64 4339.68 1706.81 4341 1694.66C4342.32 1682.52 4342.57 1683.64 4342.32 1682.52C4342.16 1681.78 4331.25 1684.33 4309.61 1690.16Z" />
					<path id="&lt;Path&gt;" class="shp5" d="M4389.09 1742.74C4392.85 1740.35 4376.23 1725.32 4358.59 1719.84C4352.04 1721.29 4343.21 1722.8 4335.4 1722.6C4323.18 1722.3 4312.06 1714.25 4308.7 1711.58C4308.54 1711.97 4292.11 1735.76 4299.47 1741.83C4305.22 1746.57 4383.38 1746.36 4389.09 1742.74Z" />
					<path id="&lt;Path&gt;" class="shp9" d="M4314.88 1436.42L4268.33 1571.29L4214.94 1696.14L4170.22 1684.91C4180.98 1627.21 4191.41 1589.3 4201.52 1571.18C4209.17 1557.46 4215.66 1511.26 4221 1432.55L4314.88 1436.42Z" />
					<path id="&lt;Path&gt;" class="shp10" d="M4292.52 1459.12L4308.65 1696.14L4346.76 1696.14C4357.86 1530.59 4361.38 1439.94 4357.31 1424.19C4353.25 1408.44 4330.05 1402.34 4287.72 1405.89L4292.52 1459.12Z" />
					<path id="&lt;Path&gt;" class="shp14" d="M4329.1 1226.41C4296.36 1216.6 4277.47 1212.01 4272.42 1212.64C4266.91 1213.34 4257.44 1217.24 4244.02 1224.34C4244.85 1281.19 4244.07 1317.65 4241.7 1333.72C4239.33 1349.79 4229.85 1383.58 4213.25 1435.07C4236.62 1448.62 4267.96 1453.19 4307.25 1448.79C4346.55 1444.38 4364.84 1437.44 4362.13 1427.96C4358.41 1371.04 4354.68 1330.05 4350.96 1304.98C4347.23 1279.91 4339.94 1253.72 4329.1 1226.41Z" />
					<path id="&lt;Path&gt;" class="shp13" d="M4251.9 1220.4C4259.27 1219.28 4266.11 1230.68 4272.42 1254.59C4283.17 1295.23 4271.6 1337.32 4253.83 1347.98C4241.98 1355.09 4233.62 1357.96 4228.74 1356.59L4231.53 1381.65C4266.53 1373.82 4286.41 1354.94 4291.18 1325.03C4298.99 1275.99 4291.38 1238.85 4268.33 1213.59C4264 1214.29 4261.16 1214.91 4259.81 1215.46C4258.37 1216.05 4255.73 1217.69 4251.9 1220.4Z" />
					<path id="&lt;Path&gt;" class="shp11" d="M4224.76 1305.32C4224.76 1334.23 4224.76 1351.73 4224.76 1357.83C4224.76 1366.98 4235.27 1428.9 4248.14 1450.11C4261.01 1471.32 4278.46 1494.97 4282.07 1496.33C4285.68 1497.68 4293.53 1502.65 4297.6 1498.59C4301.66 1494.52 4304.88 1496.39 4309.96 1494.18C4315.04 1491.98 4309.29 1484.7 4302.17 1477.58C4295.06 1470.47 4293.53 1468.78 4294.72 1467.59C4295.9 1466.41 4301.66 1473.01 4304.71 1471.99C4307.76 1470.98 4302.85 1460.31 4294.89 1456.58C4286.93 1452.85 4274.22 1445.57 4273.04 1441.67C4271.85 1437.78 4271.85 1438.79 4271.85 1437.78C4271.85 1436.76 4262.88 1375.28 4262.88 1363.25C4262.88 1355.23 4261.69 1338.18 4259.32 1312.1L4224.76 1305.32Z" />
					<path id="&lt;Path&gt;" class="shp7" d="M4248.78 1222.25C4244.16 1222.83 4231.62 1227.4 4227.22 1242.31C4222.82 1257.21 4211.21 1299.56 4213.25 1320.23C4246.22 1324.52 4262.71 1325.98 4262.71 1324.63C4262.71 1322.6 4273.53 1269.58 4268.13 1246.37C4263.42 1226.13 4256.81 1221.25 4248.78 1222.25Z" />
					<path id="&lt;Path&gt;" class="shp13" d="M4321.41 1224.15L4355.8 1347.73L4355.8 1347.72C4354.28 1331.59 4352.62 1316.17 4350.96 1304.98C4347.23 1279.91 4339.85 1253.37 4328.81 1225.35C4327.06 1224.92 4324.59 1224.52 4321.41 1224.15Z" />
				</g>
				<path id="&lt;Path&gt;" class="shp3" d="M4301.73 1097.84C4314.16 1093.34 4324.4 1097.38 4332.43 1109.98C4344.49 1128.88 4337.97 1127.08 4343.84 1136.53C4349.7 1145.98 4365.01 1144.02 4365.01 1158.68C4365.01 1168.46 4362.73 1174.1 4358.17 1175.63C4362.3 1183.23 4362.08 1190.94 4357.52 1198.76C4350.68 1210.48 4333.62 1220.58 4319.34 1218.96C4305.05 1226.79 4290.73 1228.86 4276.4 1225.16C4254.9 1219.61 4262.39 1219.61 4253.59 1219.61C4244.8 1219.61 4221.01 1207.55 4224.92 1189.96C4215.26 1178.48 4215.12 1168.06 4224.49 1158.68C4238.55 1144.62 4241.21 1130.34 4249.36 1111.45C4257.5 1092.55 4291.96 1093.28 4301.73 1097.84Z" />
				<path id="&lt;Path&gt;" class="shp11" d="M4314.19 1198.43C4313.67 1215.73 4314.22 1225.19 4315.84 1226.81C4318.28 1229.25 4321.68 1233.29 4318.1 1239.48C4314.52 1245.67 4298.96 1241.72 4291.71 1238.18C4287.07 1235.91 4283.26 1232.67 4280.26 1228.45L4283.89 1187.35L4314.19 1198.43Z" />
				<path id="&lt;Path&gt;" class="shp10" d="M4303.85 1209.18C4298.85 1207.43 4290.12 1204.06 4283.38 1193.11L4283.89 1187.35L4314.19 1198.43C4314.06 1202.65 4314.03 1206.99 4314.1 1211.46C4309.85 1211.29 4306.23 1210.02 4303.85 1209.18Z" />
				<path id="&lt;Path&gt;" class="shp11" d="M4278.55 1158.01C4278.06 1147.84 4274.7 1143.75 4268.45 1145.72C4259.08 1148.68 4266.22 1171.7 4273.99 1170.95C4279.17 1170.44 4280.69 1166.13 4278.55 1158.01Z" />
				<path id="&lt;Path&gt;" class="shp11" d="M4308 1108.19C4317.77 1107.97 4325.16 1111.66 4330.15 1119.26C4337.65 1130.67 4345.79 1163.25 4333.41 1185.72C4321.03 1208.2 4305.23 1202.67 4298.71 1200.38C4292.2 1198.1 4279.33 1193.05 4272.81 1172.04C4266.3 1151.03 4271.02 1103.79 4308 1108.19Z" />
			</g>
			<g id="&lt;Group&gt;">
				<path id="&lt;Path&gt;" class="shp8" d="M2129.38 1209.43C2120.45 1184.34 2070.39 1062.03 2057.83 1058.76L2036.95 1112.88C2038.04 1113.35 2039.96 1114.97 2086.66 1198.56C2087.81 1200.67 2089.04 1202.82 2090.26 1205.01C2093.55 1210.89 2097.05 1217.19 2100.75 1223.87L2096.77 1246.49C2096.73 1270.67 2098.06 1283.22 2100.75 1284.13C2102.59 1284.73 2103.74 1281.8 2104.54 1278.16L2104.55 1278.06C2104.66 1277.52 2104.77 1276.99 2104.88 1276.45C2104.88 1276.43 2104.88 1276.4 2104.88 1276.38C2105.63 1272.44 2106 1268.27 2106.43 1267.28C2106.91 1266.16 2107.97 1263.91 2109.48 1262.03C2117.09 1285.17 2113.93 1283.21 2112.94 1290.64C2112.66 1292.51 2113.07 1294.53 2112.8 1296.29C2112.33 1299.3 2110.36 1301.59 2110.05 1303.92C2109.63 1307.33 2111.02 1310.22 2111.63 1310.88C2112.36 1311.73 2113.62 1310.33 2115.12 1307.54C2123.88 1290.69 2122.01 1276.1 2123.45 1271.56C2124.43 1268.51 2125.18 1274.25 2123.62 1283.02C2123.25 1285.21 2123.84 1288.15 2122.95 1291.02C2122.38 1292.94 2121 1294.62 2120.39 1296.49C2119.84 1298.23 2119.74 1300.04 2119.35 1301.49C2118.85 1303.42 2117.19 1306.02 2116.9 1307.55C2115.84 1313.28 2116.65 1316.16 2117.15 1316.85C2117.88 1317.79 2122.21 1309.76 2130.15 1292.76C2132.73 1280.84 2134.11 1273.53 2134.3 1270.84C2135.14 1269.28 2135.68 1270.09 2135.94 1273.27C2135.99 1274.07 2135.27 1277.61 2135.14 1280.54C2135 1283.23 2135.05 1285.77 2135.29 1288.16C2134.31 1289.15 2133.27 1290.62 2132.19 1292.58C2131.53 1293.8 2131.16 1295.84 2130.42 1297.2C2129.63 1298.59 2128.32 1299.73 2127.61 1301.06C2125.81 1304.52 2125.22 1307.78 2127.01 1308.99C2128.01 1309.66 2133.02 1303.66 2142.05 1290.99C2143.45 1272.6 2154.18 1254.01 2129.38 1209.43Z" />
				<g id="&lt;Group&gt;">
					<g id="&lt;Group&gt;">
						<path id="&lt;Path&gt;" class="shp11" d="M2126.22 1694.6C2122.44 1674.44 2126.35 1631.58 2126 1592C2108.26 1591.91 2097.8 1623.98 2080.07 1623.62C2086.52 1657.04 2088.86 1681.96 2087.1 1698.38L2086.34 1708.41L2087.04 1738L2187.22 1734.17C2172.86 1728.58 2155.56 1720.06 2135.32 1708.63C2133.07 1707.37 2127.84 1703.24 2126.22 1694.6Z" />
						<path id="&lt;Path&gt;" class="shp9" d="M2084.63 1744.47L2190.29 1740.9C2194.1 1740.38 2194.89 1737.25 2193.47 1735.4C2190.56 1731.6 2178.37 1729.27 2164.53 1723.64C2140.87 1727.2 2090.38 1713.23 2086.38 1707.94C2084.71 1718.97 2082.48 1744.1 2084.63 1744.47Z" />
					</g>
					<g id="&lt;Group&gt;">
						<path id="&lt;Path&gt;" class="shp11" d="M1819.83 1687.76C1828.15 1669.01 1848.16 1637.31 1870.32 1604.51C1855.76 1594.38 1836.47 1613.48 1822.07 1603.13C1808.43 1634.31 1796.23 1656.16 1785.46 1668.69L1779.15 1676.52L1762.95 1701.29L1835.36 1737.73C1835.62 1737.31 1833.76 1732.98 1829.78 1724.74C1827.49 1719.98 1823.61 1713.18 1819.37 1704.48C1818.24 1702.16 1816.27 1695.79 1819.83 1687.76Z" />
						<path id="&lt;Path&gt;" class="shp9" d="M1757.3 1705.26L1821.02 1746.02C1841.81 1747.57 1852.17 1747.57 1852.09 1746.02C1851.85 1741.24 1837.99 1737.23 1829.78 1724.74C1808.26 1714.26 1779.75 1682.78 1779.45 1676.16C1771.82 1684.3 1755.74 1703.74 1757.3 1705.26Z" />
					</g>
					<path id="&lt;Path&gt;" class="shp10" d="M2105.17 1151.23C2097.22 1123.38 2127.68 1015.18 2127.68 987.33C2127.68 959.48 2090.91 864.69 2062.22 846.39C2043.09 834.19 2013.41 833.24 1973.19 843.56L1951.3 939.51L1956.17 1041.29L1899.3 1272.33L1878.53 1379.38L1783.63 1618.85C1857.6 1668.6 1930.26 1687.71 2001.61 1676.16C2072.97 1664.61 2120.95 1660.31 2145.56 1663.26L2169.14 1406.59L2105.17 1151.23Z" />
					<g id="&lt;Group&gt;">
						<g id="&lt;Group&gt;">
							<path id="&lt;Path&gt;" class="shp3" d="M1959.44 1272.52L1946.72 1272.52L1946.72 1229.8C1946.72 1228.54 1945.7 1227.52 1944.44 1227.52L1874.98 1227.52C1873.72 1227.52 1872.7 1228.54 1872.7 1229.8L1872.7 1272.52L1859.98 1272.52L1859.98 1229.8C1859.98 1221.53 1866.71 1214.8 1874.98 1214.8L1944.44 1214.8C1952.71 1214.8 1959.44 1221.53 1959.44 1229.8L1959.44 1272.52Z" />
						</g>
						<path id="&lt;Path&gt;" class="shp1" d="M1766.56 1375.54L1779.29 1461.14L2044.42 1461.14L2058 1375.54L1766.56 1375.54Z" />
						<path id="&lt;Path&gt;" class="shp1" d="M2062.57 1376.51L1762.28 1376.51L1777.45 1274.51C1778.6 1266.79 1785.23 1261.07 1793.04 1261.07L2030.79 1261.07C2038.54 1261.07 2045.14 1266.71 2046.36 1274.36L2062.57 1376.51Z" />
						<g id="&lt;Group&gt;">
							<path id="&lt;Path&gt;" class="shp3" d="M1915.09 1357.5C1910.46 1357.5 1906.7 1353.74 1906.7 1349.11L1906.7 1288.47C1906.7 1283.84 1910.46 1280.09 1915.09 1280.09C1919.73 1280.09 1923.48 1283.84 1923.48 1288.47L1923.48 1349.11C1923.48 1353.74 1919.73 1357.5 1915.09 1357.5Z" />
							<path id="&lt;Path&gt;" class="shp3" d="M1874.67 1357.5C1870.04 1357.5 1866.28 1353.74 1866.28 1349.11L1866.28 1288.47C1866.28 1283.84 1870.04 1280.09 1874.67 1280.09C1879.31 1280.09 1883.06 1283.84 1883.06 1288.47L1883.06 1349.11C1883.06 1353.74 1879.31 1357.5 1874.67 1357.5Z" />
							<path id="&lt;Path&gt;" class="shp3" d="M1835.4 1357.5C1830.76 1357.5 1827.01 1353.74 1827.01 1349.11L1827.01 1288.47C1827.01 1283.84 1830.76 1280.09 1835.4 1280.09C1840.03 1280.09 1843.78 1283.84 1843.78 1288.47L1843.78 1349.11C1843.78 1353.74 1840.03 1357.5 1835.4 1357.5Z" />
							<path id="&lt;Path&gt;" class="shp3" d="M1989.45 1357.5C1984.82 1357.5 1981.06 1353.74 1981.06 1349.11L1981.06 1288.47C1981.06 1283.84 1984.82 1280.09 1989.45 1280.09C1994.09 1280.09 1997.84 1283.84 1997.84 1288.47L1997.84 1349.11C1997.84 1353.74 1994.09 1357.5 1989.45 1357.5Z" />
							<path id="&lt;Path&gt;" class="shp3" d="M1950.18 1357.5C1945.54 1357.5 1941.79 1353.74 1941.79 1349.11L1941.79 1288.47C1941.79 1283.84 1945.54 1280.09 1950.18 1280.09C1954.81 1280.09 1958.57 1283.84 1958.57 1288.47L1958.57 1349.11C1958.57 1353.74 1954.81 1357.5 1950.18 1357.5Z" />
						</g>
						<path id="&lt;Path&gt;" class="shp9" d="M2068.36 1390.79L1756.86 1390.79L1756.86 1369.05L2068.36 1369.05L2068.36 1390.79Z" />
					</g>
					<path id="&lt;Path&gt;" class="shp12" d="M1929.87 1180.14C1928.19 1179.03 1928.24 1164.71 1930.04 1137.17C1927.73 1059.58 1926.73 1018.65 1927.03 1014.38L1969.58 937.31L1910.69 929.33C1884.94 976.3 1871.47 1002.07 1870.28 1006.64C1868.5 1013.5 1896.06 1155.34 1896.73 1169.6C1890.29 1183.98 1886.06 1194.82 1884.05 1202.12C1881.04 1213.06 1886.33 1224.11 1885.95 1227.33C1885.89 1227.8 1897.9 1234.76 1901.09 1233.85C1910.59 1231.12 1915.91 1230.35 1918.15 1230.85C1931.37 1233.85 1927 1214.52 1929.17 1214.61C1930.63 1214.66 1934.46 1214.56 1940.67 1214.29C1941.28 1214.29 1943.43 1189.02 1929.87 1180.14Z" />
					<path id="&lt;Path&gt;" class="shp9" d="M1973.19 843.56C1959.36 846.72 1948.93 851.82 1941.91 858.84C1934.89 865.86 1918.42 894.89 1892.51 945.93L1948.53 983.29L1965.64 952.69C1982.29 922.93 1986.23 887.71 1976.57 855.01L1973.19 843.56Z" />
				</g>
				<g id="&lt;Group&gt;">
					<path id="&lt;Path&gt;" class="shp15" d="M2113.75 790.22C2139.19 740.13 2139.66 707.26 2115.18 691.62C2096.37 679.61 2082.8 677.98 2074.48 686.74C2045.53 665.6 2025.67 671.96 2014.91 705.81C1992.63 706.31 1979.13 716.12 1974.43 735.24C1969.72 754.35 1972.71 768.21 1983.4 776.81C1971.7 786.68 1967.33 799.07 1970.3 813.96C1974.76 836.31 2008.47 847.01 2028.15 834.35C2047.83 821.69 2045.51 831.84 2061.11 831.84C2071.5 831.84 2089.05 817.97 2113.75 790.22Z" />
					<path id="&lt;Path&gt;" class="shp11" d="M2079.21 817.44C2062.87 848.29 2057.36 871.35 2062.69 886.64C2065.66 895.16 2049.77 881.6 2015.02 845.96L2042.19 794.05L2079.21 817.44Z" />
					<path id="&lt;Path&gt;" class="shp9" d="M2037.62 802.78C2042.03 815.12 2049.49 826.47 2061.04 834.47C2063.92 836.47 2066.74 838.06 2069.49 839.28C2072.64 830.99 2075.89 823.71 2079.21 817.44L2042.19 794.05L2037.62 802.78Z" />
					<path id="&lt;Path&gt;" class="shp11" d="M2067.43 704.51C2055.24 706.44 2045.12 712.64 2037.07 723.13C2024.99 738.87 2020.2 796.41 2055.66 820.98C2091.13 845.56 2115.92 805.57 2118.14 774.57C2120.36 743.56 2115.78 701.76 2067.43 704.51Z" />
					<path id="&lt;Path&gt;" class="shp11" d="M2038.75 770.32C2040.33 778.68 2036.86 786.24 2031 787.21C2025.15 788.17 2019.12 782.17 2017.54 773.81C2015.96 765.45 2019.43 757.89 2025.29 756.92C2031.15 755.96 2037.18 761.95 2038.75 770.32Z" />
					<path id="&lt;Path&gt;" class="shp15" d="M2078.52 697.25C2084.41 702.68 2076.21 721.25 2060.19 738.74C2044.18 756.22 2026.42 766 2020.53 760.58C2014.64 755.15 2022.84 736.58 2038.86 719.09C2054.87 701.6 2072.63 691.83 2078.52 697.25Z" />
				</g>
			</g>
		</g>
	</g>
</svg>