<svg version="1.2" baseProfile="tiny-ps" xmlns="http://www.w3.org/2000/svg" viewBox="0 0 1500 1500" width="1800" height="1800">
	<title>5210968-ai</title>
	<defs>
		<linearGradient id="grd1" gradientUnits="userSpaceOnUse"  x1="152.914" y1="1001.733" x2="203.715" y2="1075.306">
			<stop offset="0" stop-color="#ff9028"  />
			<stop offset="1" stop-color="#ffaf48"  />
		</linearGradient>
		<linearGradient id="grd2" gradientUnits="userSpaceOnUse"  x1="329.779" y1="1064.139" x2="338.104" y2="1207.337">
			<stop offset="0" stop-color="#ffe3e9"  />
			<stop offset="1" stop-color="#97a3d3"  />
		</linearGradient>
		<linearGradient id="grd3" gradientUnits="userSpaceOnUse"  x1="1365.457" y1="948.954" x2="1378.81" y2="1204.588">
			<stop offset="0" stop-color="#ffe3e9"  />
			<stop offset="1" stop-color="#97a3d3"  />
		</linearGradient>
		<linearGradient id="grd4" gradientUnits="userSpaceOnUse"  x1="1390.778" y1="1026.726" x2="1431.503" y2="1059.549">
			<stop offset="0" stop-color="#ffe3e9"  />
			<stop offset="1" stop-color="#97a3d3"  />
		</linearGradient>
		<linearGradient id="grd5" gradientUnits="userSpaceOnUse"  x1="1154.902" y1="1156.429" x2="1396.391" y2="1156.429">
			<stop offset="0" stop-color="#ff9028"  />
			<stop offset="1" stop-color="#ffaf48"  />
		</linearGradient>
		<linearGradient id="grd6" gradientUnits="userSpaceOnUse"  x1="312.83" y1="283.025" x2="847.774" y2="7.697">
			<stop offset="0" stop-color="#5f57ad"  />
			<stop offset="0.497" stop-color="#2653a9"  />
			<stop offset="1" stop-color="#5f57ad"  />
		</linearGradient>
		<linearGradient id="grd7" gradientUnits="userSpaceOnUse"  x1="325.367" y1="604.66" x2="284.293" y2="446.683">
			<stop offset="0" stop-color="#ff9028"  />
			<stop offset="1" stop-color="#ffaf48"  />
		</linearGradient>
		<linearGradient id="grd8" gradientUnits="userSpaceOnUse"  x1="1093.087" y1="434.839" x2="1212.379" y2="434.839">
			<stop offset="0" stop-color="#ff9028"  />
			<stop offset="1" stop-color="#ffaf48"  />
		</linearGradient>
		<linearGradient id="grd9" gradientUnits="userSpaceOnUse"  x1="948.864" y1="1086.587" x2="898.911" y2="988.347">
			<stop offset="0.15" stop-color="#2653a9"  />
			<stop offset="1" stop-color="#5f57ad"  />
		</linearGradient>
		<linearGradient id="grd10" gradientUnits="userSpaceOnUse"  x1="746.183" y1="1133.725" x2="571.031" y2="1272.524">
			<stop offset="0" stop-color="#ff5974"  />
			<stop offset="1" stop-color="#a32564"  />
		</linearGradient>
		<linearGradient id="grd11" gradientUnits="userSpaceOnUse"  x1="524.137" y1="1042.369" x2="464.194" y2="793.854">
			<stop offset="0.15" stop-color="#2653a9"  />
			<stop offset="1" stop-color="#5f57ad"  />
		</linearGradient>
		<linearGradient id="grd12" gradientUnits="userSpaceOnUse"  x1="453.137" y1="850.518" x2="493.768" y2="769.954">
			<stop offset="0" stop-color="#2653a9"  />
			<stop offset="1" stop-color="#5f57ad"  />
		</linearGradient>
		<linearGradient id="grd13" gradientUnits="userSpaceOnUse"  x1="1193.345" y1="762.001" x2="1360.102" y2="762.001">
			<stop offset="0" stop-color="#ff5974"  />
			<stop offset="1" stop-color="#a32564"  />
		</linearGradient>
		<linearGradient id="grd14" gradientUnits="userSpaceOnUse"  x1="321.787" y1="717.19" x2="374.739" y2="917.416">
			<stop offset="0" stop-color="#ff5974"  />
			<stop offset="1" stop-color="#a32564"  />
		</linearGradient>
		<linearGradient id="grd15" gradientUnits="userSpaceOnUse"  x1="341.879" y1="864.583" x2="422.606" y2="1169.832">
			<stop offset="0" stop-color="#2653a9"  />
			<stop offset="1" stop-color="#5f57ad"  />
		</linearGradient>
	</defs>
	<style>
		tspan { white-space:pre }
		.shp0 { fill: #ffffff } 
		.shp1 { fill: #e5e5ec } 
		.shp2 { fill: #dad7eb } 
		.shp3 { fill: #a7a3d1 } 
		.shp4 { fill: url(#grd1) } 
		.shp5 { fill: url(#grd2) } 
		.shp6 { fill: url(#grd3) } 
		.shp7 { fill: url(#grd4) } 
		.shp8 { fill: url(#grd5) } 
		.shp9 { fill: #e7b142 } 
		.shp10 { fill: url(#grd6) } 
		.shp11 { opacity: 0.471;fill: none;stroke: #ffffff;stroke-width: 3 } 
		.shp12 { fill: url(#grd7) } 
		.shp13 { fill: #cbc3e3 } 
		.shp14 { fill: url(#grd8) } 
		.shp15 { fill: #b6b6ce } 
		.shp16 { fill: #d36762 } 
		.shp17 { fill: #282e4e } 
		.shp18 { fill: #ff897f } 
		.shp19 { fill: #bdbed1 } 
		.shp20 { fill: #d3d5e2 } 
		.shp21 { fill: url(#grd9) } 
		.shp22 { fill: none;stroke: #ba6561;stroke-linecap:round;stroke-linejoin:round;stroke-width: 3 } 
		.shp23 { fill: url(#grd10) } 
		.shp24 { fill: url(#grd11) } 
		.shp25 { fill: none;stroke: #f96786;stroke-linecap:round;stroke-linejoin:round;stroke-width: 3 } 
		.shp26 { fill: url(#grd12) } 
		.shp27 { fill: #464f96 } 
		.shp28 { fill: url(#grd13) } 
		.shp29 { fill: none;stroke: #f96786;stroke-width: 3 } 
		.shp30 { fill: url(#grd14) } 
		.shp31 { fill: #ffa500 } 
		.shp32 { fill: #ff4500 } 
		.shp33 { fill: url(#grd15) } 
		.shp34 { fill: none;stroke: #7954b3;stroke-width: 3 } 
	</style>
	<g id="BACKGROUND">
		<path id="&lt;Path&gt;" class="shp0" d="M3570 693L2070 693L2070 -807L3570 -807L3570 693Z" />
	</g>
	<g id="OBJECT">
		<g id="&lt;Group&gt;">
			<path id="&lt;Path&gt;" class="shp1" d="M2802.9 -1004.98C2696.25 -1009.67 2612.81 -963.97 2552.59 -867.9C2462.25 -723.79 2396.26 -787.06 2295.04 -676.92C2193.82 -566.79 2214.83 -335.7 2226.5 -241.52C2234.28 -178.73 2251.83 -112.2 2279.14 -41.91L3354.06 -41.91C3427.26 -342.79 3432.46 -549.01 3369.65 -660.58C3275.43 -827.94 3071.89 -836.27 3015.74 -920.62C2978.31 -976.86 2907.36 -1004.98 2802.9 -1004.98Z" />
			<path id="&lt;Path&gt;" class="shp2" d="M90.43 1225.94C295.16 1209.32 735.89 1211.75 1412.6 1233.21C1436.1 1233.96 1500.58 1300.02 1381.83 1319.57C1263.09 1339.12 1161.49 1319.57 989.64 1347.04C817.78 1374.52 645.3 1324.57 481.55 1324.57C317.8 1324.57 309.38 1316.27 231.83 1307.85C106.7 1294.28 19 1238.98 90.43 1225.94Z" />
			<path id="&lt;Path&gt;" class="shp3" d="M1132.26 1185.36C1120.59 1183.8 1109.89 1197.81 1100.16 1227.37C1100.12 1227.32 1100.06 1227.26 1100 1227.19C1097.23 1219.04 1095.21 1208.86 1093.73 1198.06C1097.01 1195.58 1114.6 1182.16 1118.84 1176.6C1123.5 1170.46 1123.21 1155.6 1114.46 1154.72C1108.62 1154.14 1101.52 1166.01 1093.16 1190.32C1093.04 1190.12 1092.88 1189.87 1092.7 1189.57C1091.75 1180.85 1091.11 1171.97 1090.68 1163.61C1095.19 1158.75 1105.76 1147.01 1108.04 1141.3C1110.96 1134.01 1111.25 1126.71 1104.83 1126.71C1099.93 1126.71 1093.09 1141.45 1090.11 1148.46C1089.93 1141.51 1089.88 1135.4 1089.88 1130.73C1092.47 1125.06 1097.89 1112.75 1098.99 1106.58C1100.45 1098.41 1100.45 1085.87 1094.91 1084.41C1089.37 1082.95 1083.24 1090.24 1081.2 1103.37C1079.65 1113.32 1084.63 1125.6 1087.14 1130.97C1087.12 1135.57 1087.16 1141.47 1087.33 1148.21C1084.38 1139.75 1076.72 1120.18 1068.07 1117.38C1063.04 1115.75 1057.56 1121.17 1059.9 1131.09C1061.45 1137.7 1069.62 1147.43 1084.41 1160.27L1087.97 1164.96C1088.3 1171.31 1088.77 1177.95 1089.4 1184.58C1084.01 1176.77 1073.53 1163.05 1062.52 1156.77C1054.9 1152.42 1035.97 1161.14 1047.06 1175.44C1056.46 1187.56 1083.04 1195.69 1090.92 1197.89C1092.12 1206.75 1093.7 1215.22 1095.75 1222.6C1086.66 1213.16 1065.47 1193.18 1051.14 1195.86C1032.47 1199.36 1028.97 1217.45 1045.31 1225.04C1056.2 1230.1 1074.49 1232.82 1100.16 1233.21C1115.72 1226.21 1126.42 1220.37 1132.26 1215.7C1141.01 1208.7 1149.76 1187.69 1132.26 1185.36Z" />
			<g id="&lt;Group&gt;">
				<g id="&lt;Group&gt;">
					<path id="&lt;Path&gt;" class="shp4" d="M103.72 1020.36C99 1039.75 103.3 1065.26 116.63 1096.89C129.95 1128.53 162.59 1161.55 214.57 1195.97C217.68 1159.33 210.32 1122.42 192.49 1085.24C174.66 1048.05 145.07 1026.42 103.72 1020.36Z" />
					<path id="Color Fill 9" class="shp0" d="M103.72 1020.36C99 1039.75 103.3 1065.26 116.63 1096.89C129.95 1128.53 162.59 1161.55 214.57 1195.97C217.68 1159.33 210.32 1122.42 192.49 1085.24C174.66 1048.05 145.07 1026.42 103.72 1020.36Z" />
				</g>
				<path id="&lt;Path&gt;" class="shp5" d="M147.71 1225.94L333.18 1225.94C331.42 1210.48 322.77 1197.67 307.21 1187.51C291.65 1177.35 274.93 1177.35 257.06 1187.51C248.48 1165.94 228.36 1155.16 196.72 1155.16C165.08 1155.16 146.93 1166.96 142.26 1190.55C112.69 1183.52 95.84 1195.32 91.69 1225.94L147.71 1225.94Z" />
			</g>
			<g id="&lt;Group&gt;">
				<path id="&lt;Path&gt;" class="shp6" d="M1292.2 1193.31C1288.71 1177.91 1287.34 1164.48 1288.09 1152.99C1289.21 1135.76 1309.22 1133.45 1309.7 1119.62C1310.18 1105.79 1305.26 1088.14 1321.86 1078.52C1338.45 1068.9 1325.48 1059.64 1335.57 1043.04C1345.66 1026.43 1357.46 1031.69 1363.58 1037.91C1369.69 1044.14 1355.29 1072.93 1362.38 1087.91C1369.46 1102.89 1346.61 1130.45 1349.21 1136.65C1351.81 1142.85 1360.97 1154.13 1359.82 1172.25C1359.05 1184.33 1354.21 1193.74 1345.29 1200.49L1292.2 1193.31Z" />
				<path id="&lt;Path&gt;" class="shp7" d="M1309.95 1185.46C1311.85 1169.8 1315.08 1156.68 1319.66 1146.12C1326.52 1130.27 1346.13 1134.83 1351.24 1121.97C1356.35 1109.11 1357.66 1090.83 1376.53 1087.36C1395.39 1083.89 1386.3 1070.81 1401.39 1058.57C1416.48 1046.33 1425.82 1055.26 1429.48 1063.18C1433.14 1071.09 1409.89 1093.36 1411.52 1109.85C1413.14 1126.34 1382.35 1144.59 1382.71 1151.31C1383.07 1158.02 1387.9 1171.73 1380.71 1188.41C1375.93 1199.52 1368.2 1206.75 1357.52 1210.1L1309.95 1185.46Z" />
				<path id="&lt;Path&gt;" class="shp8" d="M1210.92 1233.21L1396.39 1233.21C1394.64 1217.75 1385.98 1204.94 1370.42 1194.78C1354.86 1184.62 1338.15 1184.62 1320.28 1194.78C1311.69 1173.21 1291.58 1162.43 1259.94 1162.43C1228.3 1162.43 1210.14 1174.23 1205.48 1197.82C1175.91 1190.8 1159.05 1202.59 1154.9 1233.21L1210.92 1233.21Z" />
			</g>
			<path id="&lt;Path&gt;" class="shp3" d="M583.61 1141.93C589.06 1142.71 598.2 1149.32 611.04 1161.77C623.87 1174.22 630.06 1187.64 629.6 1202.04C633.95 1172.47 644.1 1152.44 660.05 1141.93C668.61 1162.55 668.61 1184.92 660.05 1209.04C674.45 1188.42 695.07 1175.97 721.91 1171.69C719.96 1197.14 708.68 1217.61 688.06 1233.09L598.2 1233.09C573.69 1208.11 568.83 1177.72 583.61 1141.93Z" />
			<path id="&lt;Path&gt;" class="shp9" d="M470.78 1171C459.11 1169.44 448.41 1183.44 438.69 1213.01C438.64 1212.96 438.59 1212.9 438.52 1212.82C435.75 1204.68 433.73 1194.5 432.26 1183.69C435.53 1181.22 453.13 1167.79 457.36 1162.23C462.03 1156.1 461.74 1141.23 452.99 1140.36C447.15 1139.78 440.05 1151.64 431.69 1175.96C431.56 1175.76 431.41 1175.51 431.22 1175.21C430.27 1166.49 429.63 1157.6 429.21 1149.24C433.72 1144.39 444.28 1132.64 446.57 1126.94C449.48 1119.64 449.78 1112.35 443.36 1112.35C438.46 1112.35 431.61 1127.09 428.63 1134.1C428.45 1127.14 428.4 1121.04 428.41 1116.36C431 1110.7 436.42 1098.39 437.52 1092.22C438.98 1084.05 438.98 1071.5 433.44 1070.04C427.89 1068.58 421.77 1075.88 419.72 1089.01C418.18 1098.96 423.16 1111.23 425.66 1116.61C425.65 1121.21 425.69 1127.1 425.85 1133.85C422.9 1125.38 415.24 1105.82 406.59 1103.01C401.57 1101.38 396.09 1106.81 398.42 1116.73C399.98 1123.34 408.15 1133.07 422.93 1145.9L426.49 1150.59C426.83 1156.95 427.29 1163.58 427.92 1170.22C422.54 1162.41 412.06 1148.68 401.05 1142.4C393.43 1138.05 374.5 1146.78 385.59 1161.07C394.98 1173.19 421.56 1181.33 429.45 1183.52C430.65 1192.38 432.22 1200.86 434.28 1208.24C425.19 1198.79 404 1178.81 389.67 1181.5C371 1185 367.5 1203.09 383.84 1210.68C394.73 1215.73 413.01 1218.46 438.69 1218.85C454.25 1211.84 464.95 1206.01 470.78 1201.34C479.54 1194.34 488.29 1173.33 470.78 1171Z" />
		</g>
		<g id="&lt;Group&gt;">
			<g id="&lt;Group&gt;">
				<path id="&lt;Compound Path&gt;" class="shp10" d="M479.85 373.67C479.85 368.58 523.61 181.29 750.62 181.29C903.31 181.29 1039.71 281.04 1039.71 424.57C1039.71 524.33 965.4 585.4 867.68 627.14C833.07 642.41 832.06 670.91 832.06 704.5L832.06 761.51L664.1 761.51L664.1 650.55C664.1 605.76 666.13 569.12 711.94 539.6C774.03 499.89 832.06 496.84 832.06 424.57C832.06 375.71 795.41 341.1 749.6 341.1C676.31 341.1 640.68 402.17 629.49 445.95L479.85 373.67ZM864.63 935.57C864.63 999.7 812.71 1051.61 747.57 1051.61C683.44 1051.61 631.52 999.7 631.52 935.57C631.52 870.43 683.44 818.51 747.57 818.51C812.71 818.51 864.63 870.43 864.63 935.57Z" />
				<path id="&lt;Compound Path&gt;" class="shp11" d="M477.13 406.79C477.13 402.03 522.52 200.11 734.8 200.11C877.58 200.11 1005.14 293.39 1005.14 427.61C1005.14 520.89 935.65 578.01 844.26 617.03C811.9 631.31 810.95 657.96 810.95 689.38L810.95 742.68L653.89 742.68L653.89 638.93C653.89 597.04 655.79 562.78 698.62 535.17C756.69 498.05 810.95 495.19 810.95 427.61C810.95 381.92 776.68 349.55 733.85 349.55C665.31 349.55 627.53 433.44 617.06 474.37L477.13 406.79ZM868.77 922.46C868.77 982.43 820.23 1030.97 759.31 1030.97C699.34 1030.97 650.79 982.43 650.79 922.46C650.79 861.54 699.34 813 759.31 813C820.23 813 868.77 861.54 868.77 922.46Z" />
			</g>
			<g id="&lt;Group&gt;">
				<path id="&lt;Compound Path&gt;" class="shp12" d="M285.73 441.68C285.35 440.61 280.67 397.89 328.5 381.03C360.68 369.69 396.84 380.58 407.5 410.82C414.91 431.85 403.79 450.24 386.29 466.29C380.13 472.08 382.04 478.16 384.53 485.24L388.77 497.26L353.37 509.73L345.13 486.35C341.8 476.91 339.51 469.04 346.97 459.41C357.11 446.43 369.11 441.48 363.74 426.25C360.11 415.95 349.81 411.38 340.16 414.78C324.72 420.23 321.74 435.74 322.64 445.8L285.73 441.68ZM408.56 531.52C413.32 545.03 406.24 559.83 392.51 564.67C378.99 569.43 364.2 562.35 359.43 548.84C354.6 535.11 361.68 520.31 375.19 515.54C388.92 510.71 403.72 517.79 408.56 531.52Z" />
				<path id="Color Fill 10" class="shp13" d="M285.73 441.68C285.35 440.61 280.67 397.89 328.5 381.03C360.68 369.69 396.84 380.58 407.5 410.82C414.91 431.85 403.79 450.24 386.29 466.29C380.13 472.08 382.04 478.16 384.53 485.24L388.77 497.26L353.37 509.73L345.13 486.35C341.8 476.91 339.51 469.04 346.97 459.41C357.11 446.43 369.11 441.48 363.74 426.25C360.11 415.95 349.81 411.38 340.16 414.78C324.72 420.23 321.74 435.74 322.64 445.8L285.73 441.68ZM408.56 531.52C413.32 545.03 406.24 559.83 392.51 564.67C378.99 569.43 364.2 562.35 359.43 548.84C354.6 535.11 361.68 520.31 375.19 515.54C388.92 510.71 403.72 517.79 408.56 531.52Z" />
			</g>
			<g id="&lt;Group&gt;">
				<g id="&lt;Group&gt;">
					<path id="&lt;Compound Path&gt;" class="shp14" d="M1103.43 464.53C1103.82 463.46 1127.52 427.61 1175.09 445.22C1207.09 457.06 1227.94 488.55 1216.8 518.62C1209.06 539.53 1188.75 546.56 1165.04 547.73C1156.6 548.24 1154.18 554.14 1151.57 561.17L1147.15 573.12L1111.95 560.09L1120.56 536.84C1124.03 527.45 1127.3 519.93 1139.19 517.3C1155.29 513.8 1167.68 517.66 1173.29 502.51C1177.08 492.28 1172.08 482.18 1162.48 478.63C1147.13 472.94 1134.92 482.98 1129.18 491.28L1103.43 464.53ZM1140.47 612.12C1135.5 625.56 1120.59 632.41 1106.94 627.36C1093.5 622.38 1086.65 607.48 1091.62 594.04C1096.68 580.39 1111.58 573.54 1125.02 578.51C1138.68 583.57 1145.53 598.47 1140.47 612.12Z" />
					<path id="Color Fill 11" class="shp13" d="M1103.43 464.53C1103.82 463.46 1127.52 427.61 1175.09 445.22C1207.09 457.06 1227.94 488.55 1216.8 518.62C1209.06 539.53 1188.75 546.56 1165.04 547.73C1156.6 548.24 1154.18 554.14 1151.57 561.17L1147.15 573.12L1111.95 560.09L1120.56 536.84C1124.03 527.45 1127.3 519.93 1139.19 517.3C1155.29 513.8 1167.68 517.66 1173.29 502.51C1177.08 492.28 1172.08 482.18 1162.48 478.63C1147.13 472.94 1134.92 482.98 1129.18 491.28L1103.43 464.53ZM1140.47 612.12C1135.5 625.56 1120.59 632.41 1106.94 627.36C1093.5 622.38 1086.65 607.48 1091.62 594.04C1096.68 580.39 1111.58 573.54 1125.02 578.51C1138.68 583.57 1145.53 598.47 1140.47 612.12Z" />
				</g>
			</g>
			<g id="&lt;Group&gt;">
				<g id="&lt;Group&gt;">
					<path id="&lt;Compound Path&gt;" class="shp15" d="M516.68 519.23C516.9 518.66 529.69 499.31 555.36 508.81C572.63 515.2 583.88 532.19 577.87 548.42C573.69 559.71 562.73 563.5 549.93 564.13C545.38 564.41 544.07 567.59 542.67 571.39L540.28 577.84L521.29 570.8L525.93 558.26C527.81 553.19 529.57 549.13 535.99 547.71C544.67 545.82 551.36 547.9 554.39 539.73C556.43 534.21 553.74 528.76 548.55 526.84C540.27 523.77 533.68 529.19 530.58 533.67L516.68 519.23ZM536.68 598.89C533.99 606.14 525.95 609.83 518.58 607.11C511.33 604.42 507.63 596.38 510.31 589.13C513.04 581.76 521.09 578.06 528.34 580.75C535.71 583.47 539.4 591.52 536.68 598.89Z" />
				</g>
			</g>
			<g id="&lt;Group&gt;">
				<g id="&lt;Group&gt;">
					<path id="&lt;Compound Path&gt;" class="shp1" d="M1067.22 285.12C1067.13 284.4 1069.88 257.11 1101.99 252.95C1123.58 250.15 1144.7 261.75 1147.33 282.05C1149.16 296.16 1139.77 306.16 1126.72 313.86C1122.11 316.65 1122.48 320.7 1123.1 325.45L1124.15 333.52L1100.39 336.6L1098.36 320.9C1097.53 314.57 1097.15 309.35 1103.09 304.33C1111.14 297.58 1119.29 296.08 1117.97 285.86C1117.07 278.95 1111.25 274.73 1104.77 275.57C1094.41 276.91 1090.49 286.21 1089.71 292.6L1067.22 285.12ZM1131.94 357.54C1133.12 366.61 1126.73 374.9 1117.52 376.09C1108.45 377.27 1100.15 370.88 1098.98 361.81C1097.78 352.6 1104.17 344.3 1113.24 343.13C1122.46 341.93 1130.75 348.32 1131.94 357.54Z" />
				</g>
			</g>
		</g>
		<g id="&lt;Group&gt;">
			<g id="&lt;Group&gt;">
				<path id="&lt;Path&gt;" class="shp16" d="M959.18 1084.31L1024.06 1220.5L1022.34 1240.41C1028.58 1243.71 1039.51 1234.52 1055.12 1212.82L1048.35 1204.49C1034.87 1134.39 1022.55 1094.34 1011.38 1084.31L959.18 1084.31Z" />
				<path id="&lt;Path&gt;" class="shp17" d="M1022.52 1235.78C1019.5 1240.64 1016.14 1245.47 1012.45 1250.29C1006.9 1257.51 1001.18 1265.62 1003.65 1269.4C1006.12 1273.17 1032.01 1255.2 1050.76 1242.41C1069.52 1229.62 1066.98 1229.25 1066.64 1227.16C1066.42 1225.77 1062.24 1220.35 1054.13 1210.91C1044.81 1223.02 1037.4 1230.88 1031.89 1234.49C1026.37 1238.09 1023.25 1238.52 1022.52 1235.78Z" />
				<path id="&lt;Path&gt;" class="shp18" d="M1017.61 1084.31L964.77 1070.56L979.97 1243.72L964.77 1258.74L1013.31 1258.74L1010.88 1244.9C1012.05 1229.2 1020.41 1114.7 1017.61 1084.31Z" />
				<path id="&lt;Path&gt;" class="shp18" d="M1021.05 832.11C1035.23 864.77 1043.39 888.18 1045.54 902.36C1047.69 916.54 1038.23 934.15 1017.18 955.2L1021.05 832.11Z" />
				<path id="&lt;Path&gt;" class="shp18" d="M957.03 725.77L953.6 735.88C948.15 735.88 945.15 736.73 944.57 738.45C944 740.17 945.43 742.46 948.87 745.33C945.22 759.79 945.43 770.35 949.51 777.01C953.6 783.67 967.88 785.18 992.37 781.52C1002.47 780.45 1010.31 774.33 1015.89 763.16C1024.27 746.4 1030.39 733.51 1027.17 716.76C1025.29 706.96 1007.74 700.17 990.7 700.68C975.36 701.14 961.97 711.25 957.03 725.77Z" />
				<path id="&lt;Path&gt;" class="shp18" d="M970.78 779.59L968.53 801.82L1005.58 796.67L1008.53 773.24L970.78 779.59Z" />
				<path id="&lt;Path&gt;" class="shp19" d="M992.47 793.93C972.86 793.9 959.07 802.97 951.12 821.16C940.26 846.02 940.08 876.59 950.59 912.89L947.59 942.41C951.02 950.94 978.92 950.69 1031.29 941.66L1021.05 913.31C1027.26 869.51 1029.59 840.71 1028.04 826.9C1025.96 808.32 1014.1 797.33 992.47 793.93Z" />
				<path id="&lt;Path&gt;" class="shp17" d="M971.98 706.55C971.5 715.61 973.95 724.06 979.32 731.9C984.69 739.74 988.88 744.25 991.89 745.43C990.6 749.95 990.33 752.85 991.08 754.13C992.21 756.07 996.72 747.21 1002.36 748.5C1008 749.78 1008.32 760.9 1003 767.35C999.46 771.64 995.16 773.36 990.11 772.5C988.5 783.99 990.87 794.31 997.2 803.44C1006.71 817.13 1024.91 822.77 1041.03 815.84C1057.14 808.91 1062.78 793.61 1060.2 779.27C1058.48 769.71 1051.39 761.28 1038.93 753.97C1043.77 732.85 1042.05 717.04 1033.78 706.55C1021.37 690.82 986.57 690.98 973.36 696.78C964.87 693.68 957.95 694.97 952.57 700.66C944.52 709.18 946.6 723.57 955.79 729.43C960.18 717.68 965.58 710.06 971.98 706.55Z" />
				<path id="&lt;Path&gt;" class="shp20" d="M972.25 815.45L926.3 869.49L946.12 890.89L1002.37 846.81C1012.31 839.02 1013.6 824.47 1005.2 815.05L1005.2 815.05C996.37 805.16 980.83 805.35 972.25 815.45Z" />
				<path id="&lt;Path&gt;" class="shp18" d="M904.94 790.65C907.8 835.48 909.67 862.4 910.52 871.43C911.81 884.96 917.72 895.7 929.54 896.56C935.88 897.02 941.41 895.13 946.12 890.89L926.85 788.83L904.94 790.65Z" />
				<path id="&lt;Path&gt;" class="shp18" d="M914.71 762.3C913.35 763.09 912.17 764.37 911.17 766.16C908.88 766.81 907.05 768.46 905.69 771.11C904.9 772.04 903.94 773.72 902.79 776.15C901.65 778.59 902.65 784.5 905.8 793.88L927.46 792.08C930.06 786.47 931.68 782.31 932.33 779.59C933.29 775.51 930.4 770.68 929.54 769.06C928.68 767.45 927.17 767.99 926.53 769.49C926.1 770.5 926.28 772.93 927.07 776.8L925.53 778.95C923.9 777.23 923.2 774.94 923.41 772.07C923.74 767.78 929.86 757.25 927.71 754.35C926.28 752.42 923.84 754.56 920.41 760.79C918.4 760.94 916.5 761.44 914.71 762.3Z" />
				<path id="&lt;Path&gt;" class="shp21" d="M947.59 942.41L953.17 1084.31L1017.61 1084.31C1030.69 1005.81 1035.25 958.26 1031.29 941.66C995.68 946.82 967.78 947.07 947.59 942.41Z" />
				<path id="&lt;Path&gt;" class="shp17" d="M971.47 1252.12C966.28 1254.53 960.83 1256.74 955.1 1258.74C946.51 1261.75 937.27 1265.4 937.27 1269.91C937.27 1274.42 968.77 1273.56 991.47 1273.13C1014.17 1272.71 1015.03 1272.06 1015.89 1270.13C1016.47 1268.84 1015.01 1261.67 1011.54 1248.62C997.11 1253.65 986.61 1256.16 980.02 1256.16C973.43 1256.16 970.58 1254.82 971.47 1252.12Z" />
				<path id="&lt;Path&gt;" class="shp22" d="M983.79 778.71C980.27 781.01 975.82 782.45 970.43 783.01" />
				<path id="&lt;Path&gt;" class="shp22" d="M906.86 791.57L919.71 789.86" />
			</g>
			<g id="&lt;Group&gt;">
				<path id="&lt;Path&gt;" class="shp18" d="M522.05 1258.78L522.05 1281.9L561.23 1281.9L561.23 1258.78L522.05 1258.78Z" />
				<path id="&lt;Path&gt;" class="shp17" d="M522.05 1279.12C521.62 1295.82 521.62 1305.53 522.05 1308.24C535.04 1308.95 544.81 1309.31 551.38 1309.31C561.23 1309.31 589.27 1310.38 598.05 1308.24C606.83 1306.1 603.4 1302.46 601.26 1298.82C599.84 1296.39 586.21 1289.83 560.37 1279.12C545.53 1281.4 532.75 1281.4 522.05 1279.12Z" />
				<path id="&lt;Path&gt;" class="shp23" d="M502.56 947.48C501.71 970.18 501.71 997.37 502.56 1029.05C503.42 1060.74 507.77 1139.88 515.62 1266.49L566.58 1268.84L585.42 947.48L502.56 947.48Z" />
				<path id="&lt;Path&gt;" class="shp18" d="M556.54 682.85L559.97 692.92C565.39 692.92 568.39 693.78 568.96 695.49C569.53 697.2 568.1 699.49 564.68 702.34C568.32 716.76 568.1 727.28 564.04 733.92C559.97 740.56 545.73 742.05 521.32 738.42C511.26 737.34 503.45 731.24 497.88 720.11C489.53 703.41 483.43 690.56 486.64 673.86C488.52 664.1 506 657.34 522.99 657.84C538.28 658.3 551.62 668.37 556.54 682.85Z" />
				<path id="&lt;Path&gt;" class="shp18" d="M542.84 736.49L545.09 758.65L508.16 753.51L505.22 730.16L542.84 736.49Z" />
				<path id="&lt;Path&gt;" class="shp17" d="M543.36 664.87C539.57 671.15 533.5 675.93 525.15 679.22C528.08 691 528.4 697.54 526.11 698.86C522.69 700.84 522.9 696.13 516.05 695.49C509.2 694.85 508.56 703.62 510.7 711.55C512.84 719.47 521.19 721.39 524.19 720.75C527.19 720.11 528.04 723.75 522.05 729.1C518.05 732.67 512.85 736.27 506.45 739.91C488.44 723.35 477.87 710.85 474.73 702.39C471.59 693.94 471.59 687.35 474.73 682.64C472.45 671.67 475.8 663.39 484.79 657.82C498.28 649.46 525.69 647.53 536.82 648.6C544.24 649.31 547.6 651.67 546.88 655.67C550.02 655.95 552.31 658.09 553.73 662.09C555.16 666.09 554.37 669.69 551.37 672.9C548.15 668.87 545.48 666.2 543.36 664.87Z" />
				<path id="&lt;Path&gt;" class="shp24" d="M507.7 749.9C497.73 764.3 490.41 778.99 485.77 793.97C481.12 808.96 486.72 860.13 502.56 947.48L585.42 947.48C583.74 862.72 580.87 812.96 576.82 798.2C571.64 779.36 561.07 765.32 545.09 756.08L507.7 749.9Z" />
				<path id="&lt;Path&gt;" class="shp25" d="M532.61 949.5L530.63 1257.2" />
				<path id="&lt;Path&gt;" class="shp25" d="M515.02 1257.2L568.26 1257.2" />
				<path id="&lt;Path&gt;" class="shp26" d="M490.8 788.51C479.05 809.87 457.06 853.3 444.76 899.31L479.44 913.44L534.84 812.14C538.63 805.21 539.07 796.88 535.78 789.71C535.7 789.53 535.62 789.36 535.53 789.19C526.77 770.87 500.59 770.71 490.8 788.51Z" />
				<path id="&lt;Path&gt;" class="shp18" d="M546.68 967.8C552.54 968.91 555.47 968.91 555.47 967.8C555.47 966.12 551.11 963.95 546.26 963.86C544.97 963.84 543.66 963.88 542.43 963.95L542.55 962.99L546.27 962.26C551.62 964.19 554.46 964.65 554.79 963.63C555.29 962.1 549.37 957.76 545.77 958.02C543.77 958.17 540.97 958.73 538.83 959.19L534.98 959.53C537.97 957.59 540.74 956.58 540.08 955.34C539.29 953.88 537.62 954.11 532.48 956.12C529.14 957.42 526.2 959.29 524.54 960.45L522.92 960.59L479.44 913.44L444.76 899.31C438.12 914.3 439.94 927.89 450.22 940.1C460.49 952.3 483.08 966.54 517.98 982.81L517.99 982.78C521.81 984.44 529.35 983.02 540.61 978.53L540.63 978.4L543.87 977.85C549.73 978.96 552.66 978.96 552.66 977.85C552.66 976.17 548.31 973.99 543.45 973.91C542.69 973.9 541.94 973.91 541.19 973.93L541.22 973.66L546.14 972.82C552 973.94 554.93 973.94 554.93 972.82C554.93 971.15 550.57 968.97 545.72 968.89C544.39 968.86 543.06 968.91 541.81 968.98L541.85 968.62L546.68 967.8Z" />
				<path id="&lt;Path&gt;" class="shp22" d="M527.41 733.89C532.99 738.18 538.25 740.18 543.19 739.9" />
				<path id="&lt;Path&gt;" class="shp22" d="M522.92 960.59C525.95 967.13 527.25 971.79 526.82 974.57" />
			</g>
			<g id="&lt;Group&gt;">
				<path id="&lt;Path&gt;" class="shp18" d="M1201.98 778.48C1186.36 806.7 1173.02 831.95 1161.96 854.24L1117.33 817.69L1114.52 814.46C1113.83 812.36 1112.77 809.87 1111.17 807.89C1107.8 803.74 1107.07 794.83 1104.89 799.27C1103.74 801.62 1104.69 806.09 1105.84 809.79L1096.53 809.15C1094.44 808.45 1085.99 805.76 1080.86 806.14C1074.96 806.58 1076.38 808.87 1076.71 809.31C1076.99 809.69 1084.73 810.65 1090.26 812.69L1090.09 813.11C1086.57 812.1 1081.16 810.78 1077.47 811.06C1071.57 811.49 1072.99 813.78 1073.32 814.22C1073.63 814.63 1082.63 815.72 1088.14 818.11L1088.05 818.36C1084.59 817.42 1080.01 816.43 1076.76 816.68C1070.86 817.11 1072.28 819.4 1072.61 819.84C1072.89 820.21 1080.16 821.12 1085.64 823.04C1082.84 822.62 1079.85 822.36 1077.56 822.68C1071.71 823.51 1073.28 825.7 1073.63 826.11C1073.89 826.41 1079.31 826.78 1084.38 827.85L1105.31 835.13C1111.98 847.03 1135.54 886.77 1157.83 896.88C1164.59 899.94 1173.86 896.34 1178.51 890.56L1204.58 858.12L1201.98 778.48Z" />
				<path id="&lt;Path&gt;" class="shp18" d="M1214.2 1180.27L1221.19 1256.66L1209.02 1270.79C1211.53 1278.54 1225.19 1277.9 1250 1268.88L1246.07 1252.03C1249.56 1216.41 1250.87 1193.08 1250 1182.02L1214.2 1180.27Z" />
				<path id="&lt;Path&gt;" class="shp18" d="M1303.25 1180.27L1320.27 1256.66L1322.02 1271.5C1332.24 1283.36 1344.93 1285.36 1360.1 1277.5L1344.28 1252.3L1337.73 1180.27L1303.25 1180.27Z" />
				<path id="&lt;Path&gt;" class="shp27" d="M1210.28 1268.34C1194.13 1280.63 1185.9 1288.01 1185.61 1290.49C1185.18 1294.2 1187.36 1295.29 1193.47 1295.94C1199.58 1296.6 1230.35 1292.02 1241.27 1289.83C1248.54 1288.38 1252.32 1287 1252.62 1285.69C1253.39 1279.87 1252.23 1273.06 1249.16 1265.28C1243.24 1270.92 1232.59 1273.36 1217.2 1272.59C1213.7 1272.42 1211.4 1271 1210.28 1268.34Z" />
				<path id="&lt;Path&gt;" class="shp27" d="M1320.93 1262.22C1321.07 1278.08 1322.24 1288.2 1324.42 1292.56C1327.69 1299.11 1343.41 1303.69 1351.26 1305.98C1359.12 1308.28 1378.11 1309.58 1381.05 1303.04C1383.02 1298.67 1376.03 1290.16 1360.1 1277.5C1350.28 1279.05 1342.75 1279.54 1337.51 1278.98C1332.28 1278.41 1326.75 1272.82 1320.93 1262.22Z" />
				<path id="&lt;Path&gt;" class="shp28" d="M1318.53 982.98C1314.45 961.39 1307.37 941.06 1295.62 922.77L1289.11 890.71C1295.12 874.25 1314.33 818.75 1314.16 782.28L1267.9 768.89L1242.4 768C1232.12 769.96 1218.65 773.46 1201.98 778.48C1194.41 808.39 1191.14 830.62 1192.15 845.17C1193.22 860.47 1197.48 876.74 1199.93 885.12L1199.93 885.12L1199.36 924.05L1193.47 1239.39L1257.63 1244.44L1255.23 1017.9L1260.27 1019.97L1298.88 1249.68L1360.1 1241.82C1335.23 1084.35 1321.38 998.07 1318.53 982.98Z" />
				<path id="&lt;Path&gt;" class="shp25" d="M1233.16 771.43C1228.45 775.71 1227.43 779.63 1230.11 783.16C1232.79 786.7 1237.5 786.33 1244.25 782.07C1250.25 787.41 1256.95 789.05 1264.34 787.02C1271.73 784.98 1276.23 779.79 1277.84 771.43" />
				<path id="&lt;Path&gt;" class="shp18" d="M1314.88 782.28C1301.96 796.44 1295.15 810.79 1294.45 825.32C1293.6 842.88 1329.62 879.93 1341.88 895.47L1295.29 937.6L1293.65 937.87C1292.78 937.38 1291.11 936.61 1288.3 935.84C1283.72 934.58 1277.71 935.24 1277.22 935.84C1276.73 936.44 1277.33 937.37 1279.41 937.75C1280.79 938 1282.17 938.13 1283.55 938.13L1285.49 939.19L1277.68 940.46C1274.87 940.54 1269.88 940.8 1266.8 941.62C1262.33 942.82 1257.85 946.26 1258.62 947.79C1259.38 949.31 1264.78 946.91 1267.29 945.6L1275.3 945.49L1275.58 945.92C1273.09 946.08 1270.28 946.38 1268.27 946.91C1263.8 948.11 1259.33 951.55 1260.09 953.08C1260.85 954.61 1266.26 952.21 1268.77 950.9L1278.78 950.75L1278.92 950.97C1276.76 951.14 1274.49 951.43 1272.8 951.88C1268.33 953.08 1263.86 956.52 1264.62 958.04C1265.38 959.57 1270.78 957.17 1273.29 955.86L1282.07 955.73L1282.1 955.78C1281.14 955.92 1280.24 956.09 1279.46 956.3C1274.99 957.5 1270.51 960.94 1271.28 962.46C1272.04 963.99 1277.44 961.59 1279.95 960.28L1285.02 960.21C1294.99 961.31 1302.13 958.63 1306.44 952.16C1317.2 947.11 1366.96 916.23 1372.87 905.5C1378.59 895.11 1359.26 854.04 1314.88 782.28Z" />
				<path id="&lt;Path&gt;" class="shp17" d="M1214.44 725.73C1210.11 739.77 1208.21 751.43 1208.74 760.72C1209.53 774.66 1222.98 771.95 1226.3 770.73C1229.63 769.52 1234.68 775.4 1239 773.51C1241.88 772.25 1241.4 768.06 1237.57 760.92L1214.44 725.73Z" />
				<path id="&lt;Path&gt;" class="shp18" d="M1236.66 753.88L1237.42 780.14C1239.16 781.48 1242.53 782.19 1247.53 782.27C1252.53 782.36 1258.73 779.99 1266.15 775.15L1264.72 748.71L1236.66 753.88Z" />
				<path id="&lt;Path&gt;" class="shp18" d="M1280.31 715.6C1278.01 715.45 1276.16 715.78 1274.66 716.35C1275.56 707.77 1275.97 699.78 1275.91 692.38L1215.07 688.7C1212.42 709.57 1212.18 725.97 1214.35 737.89C1215.94 746.61 1221.6 753.2 1226.99 757.68C1233.74 763.28 1243.01 764.43 1251 760.79C1257.73 757.73 1265.3 752.42 1268.9 743.42C1269.05 743.05 1269.2 742.66 1269.34 742.28C1272.49 741.25 1277.33 739.13 1281.71 734.96C1288.97 728.06 1289.92 716.24 1280.31 715.6Z" />
				<path id="&lt;Path&gt;" class="shp17" d="M1235.91 703.42C1243.75 706.9 1252.86 707.7 1263.24 705.82C1261.59 711.07 1261.39 715.8 1262.65 720.02C1263.9 724.24 1265.79 726.56 1268.31 726.96C1271.36 720.06 1274.89 716.94 1278.91 717.59C1284.94 718.57 1282.88 730.31 1278.29 735.24C1275.24 738.53 1272.16 740.16 1269.05 740.14C1264.93 745.15 1263.49 750.16 1264.72 755.18C1265.48 765.99 1265.95 772.64 1266.15 775.15C1267.73 777.01 1270.53 776.86 1274.53 774.71C1280.54 771.47 1288.39 777.81 1299.09 771.01C1309.79 764.21 1308.45 754.27 1302.7 740.32C1298.86 731.03 1296.22 720.72 1294.77 709.39C1294.49 696.03 1292.47 685.93 1288.7 679.1C1283.04 668.86 1273.06 664.93 1261.51 662.6C1253.8 661.04 1247.05 661.71 1241.24 664.62C1224.92 666.53 1214.06 672.36 1208.67 682.12C1199.1 699.46 1200.57 711.56 1213.08 718.41C1218.42 711.77 1221.79 702.64 1223.19 691.01C1226.35 696.92 1230.59 701.06 1235.91 703.42Z" />
				<path id="&lt;Path&gt;" class="shp29" d="M1204.58 858.12C1215.81 854.33 1224.86 852.43 1231.71 852.43C1238.57 852.43 1251 855.43 1269 861.43" />
				<path id="&lt;Path&gt;" class="shp25" d="M1244.25 782.07C1241.78 793.51 1240.82 803.2 1241.36 811.13" />
				<path id="&lt;Path&gt;" class="shp25" d="M1229.57 1001.57C1245.08 1005.53 1255.31 1011.66 1260.27 1019.97" />
				<path id="&lt;Path&gt;" class="shp25" d="M1296.69 1236.64L1358.14 1229.4" />
				<path id="&lt;Path&gt;" class="shp25" d="M1193.71 1226.84L1257.52 1233.21" />
				<path id="&lt;Path&gt;" class="shp22" d="M1341.88 895.47C1350.76 897.06 1356.84 898.71 1360.1 900.43" />
				<path id="&lt;Path&gt;" class="shp22" d="M1161.96 854.24C1162.89 863.03 1162.89 870.57 1161.96 876.86" />
				<path id="&lt;Path&gt;" class="shp22" d="M1237.57 762.89C1245.62 764.55 1254.02 761.18 1262.75 752.76" />
			</g>
			<g id="&lt;Group&gt;">
				<path id="&lt;Path&gt;" class="shp18" d="M235.75 1178.18L243.38 1249.16L235.75 1286.17C234.47 1287.96 239.43 1289.74 250.63 1291.52C261.82 1293.3 270.47 1291.9 276.58 1287.32L270.47 1248.01L273.14 1184.29L235.75 1178.18Z" />
				<path id="&lt;Path&gt;" class="shp18" d="M334.2 1180.85L349.08 1245.35L353.66 1275.87L416.63 1277.4L380.37 1245.35L368.54 1175.13L334.2 1180.85Z" />
				<path id="&lt;Path&gt;" class="shp27" d="M240.71 1263.9C242.79 1270.95 247.41 1274.86 254.59 1275.63C265.56 1276.81 271.71 1273.13 273.05 1264.6C276.93 1280 278.93 1289.48 279.06 1293.04C279.25 1298.39 267.47 1305.25 255.7 1305.25C242.42 1305.25 235.94 1298.39 232.88 1293.81C230.85 1290.75 233.46 1280.78 240.71 1263.9Z" />
				<path id="&lt;Path&gt;" class="shp27" d="M350.4 1254.12C349.62 1263.02 349.62 1269.38 350.4 1273.2C351.56 1278.92 352.9 1282.55 354.23 1282.93C355.57 1283.31 377.7 1284.31 383.04 1284.58C388.39 1284.84 413.19 1285.84 420.63 1284.58C428.07 1283.31 429.41 1282.93 430.55 1279.69C431.32 1277.52 420.2 1271.03 397.19 1260.22C391.83 1262.32 384.95 1263.55 376.56 1263.9C363.96 1264.42 355.72 1253.74 350.4 1254.12Z" />
				<path id="&lt;Path&gt;" class="shp18" d="M276.24 714.88L276.24 739.99L245.71 738.12L240.88 702.73L276.24 714.88Z" />
				<path id="&lt;Path&gt;" class="shp18" d="M441.15 744.29C437.34 742.95 432.03 743.36 428.55 743.86L428.47 742.48C433.94 741.44 444.51 739.81 439.1 738.17C432.88 736.28 422.96 739.08 422.96 739.08L413.56 736.53C416.19 732.76 418.4 724.72 416.21 725.81C414.14 726.83 406.19 737.72 403.97 740.58L362.97 784.94L362.97 784.94L304.25 732.14C297.97 738.84 296.13 771.27 305.41 786.67C311.6 796.94 331.08 808.16 363.85 820.34C383.4 819.79 407.67 774.24 414.83 759.91L424.77 759.7C426.63 759.6 428.18 759.49 429.42 759.37L429.42 759.37C435.08 758.8 442.49 757.98 437.94 756.18C435.38 755.18 432.11 754.95 429.18 755.02L429.11 753.74C434.53 752.94 445.56 751.74 440.15 749.85C436.78 748.67 432.26 748.85 428.85 749.26L428.81 748.38C433.42 747.59 447.05 746.35 441.15 744.29Z" />
				<path id="&lt;Path&gt;" class="shp18" d="M285.86 643.18C293.14 668.28 297.08 686.42 297.69 697.57C298.59 714.31 287.89 724.04 273.87 724.04C264.52 724.04 255.85 721.21 247.86 715.56L230.35 683.36C223.82 671.36 227.61 656.31 239.13 648.97C243.86 645.95 249.15 643.06 254.64 640.91C267.01 636.09 277.41 636.84 285.86 643.18Z" />
				<path id="&lt;Path&gt;" class="shp18" d="M235.87 685.02C229.39 682.76 225.09 683.66 222.98 687.74C219.81 693.84 227.36 703.35 234.06 706.51C238.53 708.61 244.03 708.61 250.57 706.51L235.87 685.02Z" />
				<path id="&lt;Path&gt;" class="shp30" d="M340.16 899.22C330.19 905.26 314.5 908.89 293.1 910.09C279.66 910.85 265.06 910.5 252.65 909.83C241.11 909.23 230.97 908.41 222.23 907.38L227.15 845.84L202.53 745.05C209.78 739.32 223.76 734.01 244.49 729.14C253.88 736.36 263.14 739.53 272.29 738.64C275.42 738.33 276.74 734.68 276.25 727.71C288.03 726.97 296.57 727.62 301.9 729.66C303.09 730.1 304.08 730.65 304.75 731.32C318 744.53 322.86 781.65 319.32 842.66L340.16 899.22Z" />
				<path id="Color Fill 13" class="shp0" d="M340.16 899.22C330.19 905.26 314.5 908.89 293.1 910.09C279.66 910.85 265.06 910.5 252.65 909.83C241.11 909.23 230.97 908.41 222.23 907.38L227.15 845.84L202.53 745.05C209.78 739.32 223.76 734.01 244.49 729.14C253.88 736.36 263.14 739.53 272.29 738.64C275.42 738.33 276.74 734.68 276.25 727.71C288.03 726.97 296.57 727.62 301.9 729.66C303.09 730.1 304.08 730.65 304.75 731.32C318 744.53 322.86 781.65 319.32 842.66L340.16 899.22Z" />
				<path id="Color Fill 14" class="shp31" d="M340.16 899.22C330.19 905.26 314.5 908.89 293.1 910.09C279.66 910.85 265.06 910.5 252.65 909.83C241.11 909.23 230.97 908.41 222.23 907.38L227.15 845.84L202.53 745.05C209.78 739.32 223.76 734.01 244.49 729.14C253.88 736.36 263.14 739.53 272.29 738.64C275.42 738.33 276.74 734.68 276.25 727.71C288.03 726.97 296.57 727.62 301.9 729.66C303.09 730.1 304.08 730.65 304.75 731.32C318 744.53 322.86 781.65 319.32 842.66L340.16 899.22Z" />
				<path id="Color Fill 15" class="shp32" d="M340.16 899.22C330.19 905.26 314.5 908.89 293.1 910.09C279.66 910.85 265.06 910.5 252.65 909.83C241.11 909.23 230.97 908.41 222.23 907.38L227.15 845.84L202.53 745.05C209.78 739.32 223.76 734.01 244.49 729.14C253.88 736.36 263.14 739.53 272.29 738.64C275.42 738.33 276.74 734.68 276.25 727.71C288.03 726.97 296.57 727.62 301.9 729.66C303.09 730.1 304.08 730.65 304.75 731.32C318 744.53 322.86 781.65 319.32 842.66L340.16 899.22Z" />
				<path id="&lt;Path&gt;" class="shp17" d="M281.5 641.93C280.6 647.7 277.09 653.69 270.99 659.91C264.88 666.13 259 669.41 253.34 669.75C251.76 673.15 249.72 675.69 247.24 677.39C244.75 679.08 243.5 679.93 243.5 679.93C245.43 685.36 245.94 690.05 245.03 694.01C240.12 686.9 235.36 683.59 230.75 684.1C223.83 684.85 220.94 692.9 225.52 699.22C230.1 705.55 239.29 708.01 241.47 707.91L243.88 724.69C240.67 725.73 236.66 725.39 231.82 723.67C231.7 723.63 231.58 723.58 231.46 723.52C228.07 722 224.16 726.92 217.04 727.09C209.91 727.26 208.56 722.85 202.62 724.72C196.68 726.58 185.32 728.62 181.41 716.57C177.51 704.53 187.01 700.97 183.96 693.84C180.91 686.72 184.81 681.29 191.08 677.9C197.36 674.5 191.08 656.69 200.41 649.57C209.75 642.44 212.12 641.76 214.16 637.35C216.19 632.94 224.88 628.54 232.75 628.86C242.57 629.25 240.39 619.44 254.19 620.78C265.05 621.84 271.55 624.65 273.7 629.21C278.61 629.07 283.81 631.39 289.31 636.16C302.71 647.81 300.17 663.48 293.86 674.41C288.34 655.7 284.22 644.87 281.5 641.93Z" />
				<path id="&lt;Path&gt;" class="shp18" d="M203.66 742.86L149.64 800.46L105.01 759.75C102.56 757.08 93.71 746.91 91.57 746.07C89.29 745.17 92.17 752.99 95.11 756.53L85.97 759.86C85.97 759.86 75.85 757.92 69.81 760.33C64.56 762.42 75.23 763.16 80.76 763.72L80.8 765.11C77.29 764.91 71.97 764.95 68.29 766.6C62.58 769.16 76.27 769.23 80.93 769.64L80.96 770.51C77.53 770.4 73.01 770.6 69.76 772.06C64.53 774.4 75.61 774.66 81.09 775L81.13 776.28C78.2 776.46 74.96 776.96 72.5 778.18C68.11 780.36 75.57 780.55 81.25 780.63L81.25 780.63C82.5 780.65 84.06 780.63 85.92 780.57L95.84 779.93C104.2 793.6 132.25 836.92 151.77 835.81C189.93 815.58 211.66 800.09 216.95 789.34C224.89 773.2 210.49 749 203.66 742.86Z" />
				<path id="&lt;Path&gt;" class="shp33" d="M383.81 1180.09L368.95 1182.51L331.91 1188.49L292.98 983.96L287.65 977.08L287.65 1188.49L227.36 1188.49C216.67 1089.28 211.33 1024.66 211.33 994.62C211.33 964.61 215.27 931.73 223.13 895.99C262.57 908.09 300.63 906.61 337.33 891.56C337.88 892.96 338.41 894.44 338.99 896.02C353.44 938.07 368.38 1032.77 383.81 1180.09Z" />
				<path id="&lt;Path&gt;" class="shp22" d="M149.64 800.46C155.59 806.82 159.86 812.14 162.43 816.43" />
				<path id="&lt;Path&gt;" class="shp22" d="M362.97 784.94C361.24 791.08 361.24 796.86 362.97 802.29" />
				<path id="&lt;Path&gt;" class="shp22" d="M276.24 724.04C262.11 725.98 251.71 721.44 245.06 710.4" />
				<path id="&lt;Path&gt;" class="shp25" d="M229.71 844.37L240.88 848.14" />
				<path id="&lt;Path&gt;" class="shp34" d="M216.17 935.53C229.39 932.81 236.98 923.78 238.97 908.43" />
				<path id="&lt;Path&gt;" class="shp34" d="M221.45 904.26C263.36 917.81 302.93 916.13 340.16 899.22" />
				<path id="&lt;Path&gt;" class="shp34" d="M287.65 977.08C290.67 967.91 296.04 961.18 303.75 956.89" />
				<path id="&lt;Path&gt;" class="shp34" d="M328.31 903.91C332.87 917.75 339.35 926.13 347.74 929.05" />
				<path id="&lt;Path&gt;" class="shp34" d="M225.53 1171.12C240.05 1173.3 260.76 1173.3 287.65 1171.12" />
				<path id="&lt;Path&gt;" class="shp34" d="M381.79 1161.58C363.2 1166.24 345.39 1168.97 328.35 1169.77" />
				<path id="&lt;Path&gt;" class="shp25" d="M236.4 731.25C245.19 739.71 255.96 743.95 268.71 743.95C281.46 743.95 285.8 738.47 281.73 727.53" />
				<path id="&lt;Path&gt;" class="shp25" d="M252.32 807.11C271.18 803.39 288.75 801.17 305.04 800.46" />
			</g>
		</g>
	</g>
</svg>